<svg width="64" height="22" viewBox="0 0 64 22" fill="none" xmlns="http://www.w3.org/2000/svg">
<path d="M0.545088 18.8491H1.02367L0.575474 20.6514C0.507105 20.9162 0.522298 21.1222 0.613456 21.2546C0.704614 21.387 0.871737 21.4532 1.12242 21.4532C1.36551 21.4532 1.57062 21.387 1.73014 21.2546C1.88967 21.1222 1.99602 20.9162 2.06439 20.6514L2.51258 18.8491H2.99876L2.54297 20.6955C2.44421 21.0928 2.26949 21.3944 2.01121 21.593C1.76053 21.7916 1.42628 21.8946 1.01607 21.8946C0.60586 21.8946 0.324789 21.799 0.172859 21.6003C0.0209285 21.4017 -0.00945736 21.1001 0.0892972 20.7029L0.545088 18.8491Z" fill="white"/>
<path d="M2.93018 21.8136L3.68983 18.7313L5.13316 20.541C5.17115 20.5924 5.20913 20.6439 5.24711 20.7028C5.28509 20.7616 5.32308 20.8278 5.36865 20.9014L5.87762 18.849H6.32581L5.56616 21.9239L4.09244 20.0775L3.97849 19.923C3.94051 19.8642 3.91013 19.8127 3.88734 19.7465L3.37837 21.8062H2.93018V21.8136Z" fill="white"/>
<path d="M6.28784 21.8137L7.01711 18.8491H7.50328L6.77402 21.8137H6.28784Z" fill="white"/>
<path d="M7.46533 21.8137L8.1946 18.8491H9.85823L9.75947 19.2611H8.58202L8.3997 19.9967H9.57716L9.47081 20.416H8.29335L7.95151 21.8063H7.46533V21.8137Z" fill="white"/>
<path d="M9.66821 21.8137L10.3975 18.8491H10.8837L10.1544 21.8137H9.66821Z" fill="white"/>
<path d="M10.8457 21.8137L11.575 18.8491H13.2386L13.1398 19.2611H11.9624L11.7801 20.004H12.9575L12.8512 20.4233H11.6737L11.4382 21.3797H12.6157L12.5093 21.8137H10.8457Z" fill="white"/>
<path d="M13.0715 21.8137L13.8008 18.8491H14.4541C14.8795 18.8491 15.1758 18.8712 15.3353 18.9153C15.4948 18.9595 15.6316 19.0257 15.7379 19.1287C15.8746 19.2611 15.9658 19.4303 16.0038 19.6289C16.0418 19.8349 16.0266 20.0702 15.9658 20.3277C15.8974 20.5925 15.7987 20.8206 15.6619 21.0266C15.5252 21.2325 15.3505 21.3944 15.1454 21.5268C14.9934 21.6298 14.8263 21.696 14.644 21.7401C14.4693 21.7842 14.2034 21.8063 13.854 21.8063H13.0715V21.8137ZM13.6641 21.3723H14.0743C14.2946 21.3723 14.4693 21.3576 14.5908 21.3282C14.7124 21.2987 14.8187 21.2472 14.9175 21.181C15.0542 21.0854 15.1682 20.9677 15.2593 20.8206C15.3505 20.6808 15.4189 20.5116 15.4644 20.3204C15.51 20.1291 15.5252 19.9673 15.5024 19.8275C15.4796 19.6877 15.4265 19.5627 15.3353 19.467C15.2669 19.3935 15.1834 19.3493 15.0694 19.3199C14.9555 19.2905 14.7807 19.2758 14.5301 19.2758H14.1806L13.6641 21.3723Z" fill="white"/>
<path d="M18.1992 20.4822L17.8725 21.8137H17.4167L18.146 18.8491H18.8829C19.1032 18.8491 19.2551 18.8638 19.3539 18.8859C19.4526 18.908 19.5286 18.9447 19.5894 19.0036C19.6653 19.0698 19.7185 19.1654 19.7413 19.2831C19.7641 19.4008 19.7565 19.5259 19.7261 19.6657C19.6881 19.8054 19.6349 19.9378 19.5514 20.0555C19.4678 20.1732 19.3691 20.2689 19.2627 20.3351C19.1715 20.3866 19.0728 20.4307 18.9664 20.4528C18.8601 20.4748 18.693 20.4896 18.4803 20.4896H18.1992V20.4822ZM18.3283 20.085H18.4499C18.7158 20.085 18.9057 20.0555 19.012 19.9967C19.1184 19.9378 19.1867 19.8349 19.2247 19.6877C19.2627 19.5332 19.2399 19.4155 19.1639 19.3567C19.0804 19.2905 18.9133 19.2611 18.6626 19.2611H18.541L18.3283 20.085Z" fill="white"/>
<path d="M21.3745 21.8136L21.2226 21.0485H20.0376L19.5058 21.8136H18.9968L21.1998 18.7313L21.8835 21.8136H21.3745ZM20.3262 20.6439H21.1542L21.0175 19.9672C21.0099 19.923 21.0023 19.8715 21.0023 19.82C20.9947 19.7612 20.9947 19.7023 20.9947 19.6361C20.9643 19.7023 20.9339 19.7612 20.896 19.82C20.8656 19.8789 20.8352 19.9304 20.8048 19.9745L20.3262 20.6439Z" fill="white"/>
<path d="M22.5823 21.8137L22.9166 20.4601L22.3088 18.8564H22.8178L23.1976 19.8642C23.2052 19.8937 23.2128 19.9231 23.228 19.9672C23.2432 20.0114 23.2508 20.0555 23.266 20.0996L23.3572 19.9672C23.3875 19.9231 23.4179 19.8863 23.4483 19.8495L24.3371 18.8564H24.8233L23.4027 20.4527L23.0685 21.8063H22.5823V21.8137Z" fill="white"/>
<path d="M27.2084 20.3497C27.2084 20.3276 27.216 20.2614 27.2312 20.1584C27.2388 20.0702 27.2464 20.0039 27.254 19.9451C27.2236 20.0113 27.1932 20.0775 27.1552 20.1511C27.1173 20.2173 27.0717 20.2908 27.0185 20.357L25.8486 21.9386L25.4688 20.3276C25.4536 20.2614 25.4384 20.1952 25.4308 20.1364C25.4232 20.0775 25.4156 20.0113 25.4156 19.9525C25.4005 20.0113 25.3777 20.0775 25.3549 20.1511C25.3321 20.2173 25.3017 20.2908 25.2637 20.3644L24.58 21.8209H24.1318L25.598 18.7313L26.0158 20.5998C26.0234 20.6292 26.031 20.6807 26.0386 20.7469C26.0462 20.8131 26.0614 20.9014 26.0765 21.0044C26.1297 20.9161 26.1981 20.8131 26.2892 20.6807C26.312 20.6439 26.3348 20.6219 26.3424 20.5998L27.6642 18.7313L27.6186 21.8209H27.1704L27.2084 20.3497Z" fill="white"/>
<path d="M28.0137 21.8137L28.7429 18.8491H30.4066L30.3078 19.2611H29.1304L28.948 20.004H30.1255L30.0192 20.4233H28.8417L28.6062 21.3797H29.7837L29.6773 21.8137H28.0137Z" fill="white"/>
<path d="M30.2319 21.8136L30.9916 18.7313L32.4349 20.541C32.4729 20.5924 32.5109 20.6439 32.5489 20.7028C32.5869 20.7616 32.6248 20.8278 32.6704 20.9014L33.1794 18.849H33.6276L32.8679 21.9239L31.3942 20.0775L31.2803 19.923C31.2423 19.8642 31.2119 19.8127 31.1891 19.7465L30.6801 21.8062H30.2319V21.8136Z" fill="white"/>
<path d="M35.1773 19.2536L34.5468 21.8062H34.0606L34.6912 19.2536H33.9011L33.9999 18.8417H36.0661L35.9674 19.2536H35.1773Z" fill="white"/>
<path d="M35.6864 21.2177L36.1194 21.0412C36.127 21.1736 36.1649 21.2766 36.2485 21.3428C36.3321 21.409 36.446 21.4458 36.5979 21.4458C36.7423 21.4458 36.8638 21.409 36.9702 21.3281C37.0765 21.2472 37.1449 21.1442 37.1753 21.0118C37.2209 20.8352 37.1145 20.6807 36.8562 20.5483C36.8182 20.5263 36.7955 20.5116 36.7727 20.5042C36.484 20.3424 36.3017 20.2026 36.2257 20.0702C36.1497 19.9378 36.1346 19.7833 36.1801 19.5994C36.2409 19.3566 36.37 19.1654 36.5752 19.0109C36.7803 18.8638 37.0082 18.7828 37.2816 18.7828C37.5019 18.7828 37.6766 18.827 37.8058 18.9079C37.9349 18.9888 38.0033 19.1139 38.0261 19.2683L37.6007 19.4596C37.5627 19.364 37.5171 19.2978 37.4564 19.2536C37.3956 19.2095 37.3196 19.1874 37.2285 19.1874C37.0993 19.1874 36.9854 19.2242 36.8942 19.2904C36.803 19.3566 36.7423 19.4449 36.7119 19.5626C36.6663 19.7391 36.7955 19.9083 37.0917 20.0628C37.1145 20.0775 37.1297 20.0849 37.1449 20.0922C37.4032 20.2247 37.5779 20.3571 37.6539 20.4895C37.7298 20.6219 37.745 20.7764 37.6994 20.975C37.6311 21.2545 37.4867 21.4752 37.2664 21.6444C37.0461 21.8062 36.7879 21.8945 36.484 21.8945C36.2333 21.8945 36.0358 21.8357 35.8991 21.718C35.7471 21.6003 35.6788 21.4311 35.6864 21.2177Z" fill="white"/>
<path d="M39.2642 21.8137L39.9934 18.8491H40.4796L39.7503 21.8137H39.2642Z" fill="white"/>
<path d="M40.4492 21.8136L41.2089 18.7313L42.6522 20.541C42.6902 20.5924 42.7282 20.6439 42.7662 20.7028C42.8041 20.7616 42.8421 20.8278 42.8877 20.9014L43.3967 18.849H43.8449L43.0852 21.9239L41.6115 20.0775L41.4975 19.923C41.4596 19.8642 41.4292 19.8127 41.4064 19.7465L40.8974 21.8062H40.4492V21.8136Z" fill="white"/>
<path d="M45.3946 19.2536L44.7641 21.8062H44.2779L44.9084 19.2536H44.1184L44.2172 18.8417H46.2834L46.1847 19.2536H45.3946Z" fill="white"/>
<path d="M45.9187 21.8137L46.648 18.8491H48.3192L48.2204 19.2611H47.043L46.8607 20.004H48.0381L47.9318 20.4233H46.7543L46.5188 21.3797H47.6963L47.5899 21.8137H45.9187Z" fill="white"/>
<path d="M48.9194 20.4821L48.5928 21.8062H48.137L48.8662 18.8417H49.5423C49.7398 18.8417 49.8918 18.8564 49.9905 18.8785C50.0969 18.9005 50.1804 18.9447 50.2412 19.0035C50.3172 19.0771 50.3628 19.1653 50.3855 19.283C50.4083 19.3934 50.4007 19.5184 50.3704 19.6582C50.3096 19.8936 50.2108 20.0849 50.0589 20.2173C49.907 20.3497 49.7171 20.4306 49.4892 20.46L50.1804 21.8062H49.6335L48.9726 20.4821H48.9194ZM49.041 20.1069H49.1321C49.3904 20.1069 49.5651 20.0775 49.6639 20.0187C49.7626 19.9598 49.831 19.8568 49.869 19.7024C49.907 19.5405 49.8918 19.4228 49.8158 19.3566C49.7398 19.2904 49.5803 19.2536 49.3372 19.2536H49.2461L49.041 20.1069Z" fill="white"/>
<path d="M50.4766 21.8137L51.2058 18.8491H52.8695L52.7707 19.2611H51.5933L51.4109 19.9967H52.5884L52.4821 20.416H51.3046L50.9627 21.8063H50.4766V21.8137Z" fill="white"/>
<path d="M54.4876 21.8136L54.3356 21.0485H53.1506L52.6188 21.8136H52.1099L54.3128 18.7313L54.9965 21.8136H54.4876ZM53.4317 20.6439H54.2597L54.1229 19.9672C54.1153 19.923 54.1077 19.8715 54.1077 19.82C54.1001 19.7612 54.1001 19.7023 54.1001 19.6361C54.0698 19.7023 54.0394 19.7612 54.0014 19.82C53.971 19.8789 53.9406 19.9304 53.9102 19.9745L53.4317 20.6439Z" fill="white"/>
<path d="M58.1568 19.57C58.0504 19.4523 57.9213 19.364 57.7845 19.3125C57.6478 19.2537 57.4959 19.2242 57.3211 19.2242C56.9945 19.2242 56.7058 19.3272 56.4475 19.5332C56.1893 19.7392 56.0221 20.0114 55.9386 20.3424C55.8626 20.6587 55.893 20.9235 56.0449 21.1369C56.1893 21.3428 56.4172 21.4458 56.721 21.4458C56.8957 21.4458 57.0705 21.4164 57.2452 21.3502C57.4199 21.2913 57.5946 21.1957 57.7769 21.0706L57.6402 21.615C57.4883 21.7106 57.3287 21.7768 57.1616 21.821C56.9945 21.8651 56.8274 21.8872 56.6451 21.8872C56.4172 21.8872 56.2121 21.8504 56.0373 21.7768C55.8626 21.7033 55.7183 21.5929 55.6043 21.4458C55.4904 21.306 55.422 21.1369 55.3916 20.9456C55.3612 20.7543 55.3688 20.5484 55.4296 20.3277C55.4828 20.107 55.5739 19.9084 55.6955 19.7171C55.817 19.5258 55.9766 19.3567 56.1589 19.2169C56.3412 19.0698 56.5387 18.9594 56.7514 18.8859C56.9641 18.8123 57.1768 18.7755 57.3971 18.7755C57.5718 18.7755 57.7314 18.7976 57.8833 18.8491C58.0276 18.9006 58.1644 18.9741 58.2859 19.0771L58.1568 19.57Z" fill="white"/>
<path d="M58.2024 21.8137L58.9317 18.8491H60.5953L60.4965 19.2611H59.3191L59.1368 20.004H60.3142L60.2079 20.4233H59.0304L58.7949 21.3797H59.9724L59.866 21.8137H58.2024Z" fill="white"/>
<path d="M49.36 16.267H46.0251L50.659 0.0612793H53.9939L49.36 16.267Z" fill="white"/>
<path d="M47.6279 0.56891C47.4 0.259949 47.0429 0.105469 46.5568 0.105469H28.234L27.33 3.28336H43.9967L43.0244 6.67457H29.6925V6.66722H26.3577L23.5925 16.3406H26.9274L28.7809 9.85246H43.7688C44.2398 9.85246 44.6804 9.69798 45.0906 9.38902C45.5008 9.08006 45.7743 8.69753 45.9035 8.24145L47.757 1.75326C47.9013 1.26775 47.8558 0.877871 47.6279 0.56891Z" fill="white"/>
<path d="M21.6479 15.2519C21.4656 15.8919 20.8579 16.3406 20.1742 16.3406H2.98328C2.51229 16.3406 2.16286 16.1862 1.93496 15.8772C1.70707 15.5682 1.65389 15.1857 1.79063 14.7296L5.9839 0.105469H9.31876L5.57369 13.1701H18.9131L22.6582 0.105469H25.9931L21.6479 15.2519Z" fill="white"/>
<path d="M55.1028 16.3332L59.7518 0.0906982L63.9679 8.21197L55.1028 16.3332Z" fill="white"/>
<path d="M52.1328 16.3332L56.7895 0.0906982L61.0055 8.21197L52.1328 16.3332Z" fill="white"/>
</svg>
