<svg width="71" height="22" viewBox="0 0 71 22" fill="none" xmlns="http://www.w3.org/2000/svg">
<path d="M70.725 6.49965C70.0812 4.68225 68.3266 3.3772 66.2658 3.3772H66.2226C64.8829 3.3772 63.6756 3.92769 62.8161 4.81142C61.9552 3.92769 60.7478 3.3772 59.4095 3.3772H59.3664C58.1888 3.3772 57.1123 3.80289 56.2855 4.50756V4.14936C56.2573 3.79262 55.9599 3.51227 55.5926 3.51227H52.4314C52.0448 3.51227 51.7326 3.82054 51.7326 4.20367V21.1518C51.7326 21.5349 52.0448 21.8432 52.4314 21.8432H55.5926C55.945 21.8432 56.2349 21.5834 56.2811 21.2472L56.2796 9.08038C56.2792 9.03969 56.2812 8.99901 56.2855 8.95854C56.3361 8.41537 56.739 7.96911 57.3755 7.91331H57.9583C58.2244 7.93678 58.449 8.02929 58.6259 8.16873C58.901 8.38453 59.0541 8.71631 59.0541 9.08038L59.066 21.187C59.066 21.5701 59.3797 21.8799 59.7648 21.8799H62.926C63.2993 21.8799 63.6026 21.5863 63.6205 21.2208L63.619 9.06423C63.6175 8.66492 63.8049 8.3038 64.1335 8.08946C64.2955 7.98667 64.4904 7.91772 64.7148 7.89717H65.2977C65.9817 7.95588 66.3951 8.46822 66.3936 9.06423L66.4055 21.1547C66.4055 21.5378 66.7192 21.8461 67.1043 21.8461H70.2655C70.6507 21.8461 70.9644 21.5378 70.9644 21.1547V8.15113C70.9644 7.26444 70.8633 6.88718 70.725 6.49965H70.725ZM49.3243 3.55642H47.5162V0.655645C47.5162 0.307722 47.2307 0.0258789 46.8783 0.0258789C46.8367 0.0258789 46.7965 0.0317047 46.7579 0.0390701C44.7535 0.58224 45.155 3.32302 41.4957 3.55642H41.1402C41.0867 3.55642 41.0362 3.56375 40.9871 3.57403H40.9842L40.9871 3.57548C40.6748 3.64452 40.4399 3.91754 40.4399 4.2464V7.36735C40.4399 7.74757 40.7537 8.05729 41.1402 8.05729H43.048L43.0451 21.2914C43.0451 21.6686 43.3543 21.974 43.7364 21.974H46.862C47.2426 21.974 47.5519 21.6686 47.5519 21.2914L47.5534 8.05729H49.3243C49.7094 8.05729 50.0231 7.74757 50.0231 7.36735V4.2464C50.0231 3.86619 49.7094 3.55646 49.3243 3.55646" fill="white"/>
<path d="M37.9518 3.55654H34.7906C34.4055 3.55654 34.0932 3.8663 34.0932 4.24647V10.6999C34.0858 11.0991 33.7587 11.4192 33.3527 11.4192H32.0294C31.619 11.4192 31.2874 11.0933 31.2874 10.6881L31.2755 4.24652C31.2755 3.8663 30.9618 3.55658 30.5767 3.55658H27.4155C27.0289 3.55658 26.7166 3.8663 26.7166 4.24652V11.3194C26.7166 14.0058 28.657 15.9216 31.3796 15.9216C31.3796 15.9216 33.4226 15.9216 33.4851 15.9333C33.8539 15.9744 34.1408 16.2797 34.1408 16.6555C34.1408 17.027 33.8598 17.3308 33.4955 17.3763C33.4777 17.3793 33.4613 17.3837 33.442 17.3866L28.8191 17.4028C28.4325 17.4028 28.1203 17.7125 28.1203 18.0927V21.2122C28.1203 21.5939 28.4325 21.9022 28.8191 21.9022H33.9877C36.7117 21.9022 38.6506 19.9879 38.6506 17.3V4.24652C38.6506 3.8663 38.3384 3.55658 37.9518 3.55658V3.55654ZM7.35354 9.27517V11.2012C7.35354 11.6049 7.02196 11.9337 6.61307 11.9337L4.60719 11.9352V8.07581H6.61307C7.02196 8.07581 7.35354 8.40168 7.35354 8.80686V9.27517ZM7.6316 3.55579H0.721848C0.342674 3.55579 0.036377 3.85968 0.036377 4.23253V7.29041C0.036377 7.29627 0.0378522 7.30214 0.0378522 7.30801C0.0378522 7.3227 0.036377 7.33739 0.036377 7.35058V21.1909C0.036377 21.5667 0.321853 21.8736 0.675779 21.8824H3.89639C4.28151 21.8824 4.59522 21.5741 4.59522 21.1924L4.60715 16.4493H7.63156C10.1623 16.4493 11.9258 14.7156 11.9258 12.2067V7.80424C11.9258 5.29541 10.1623 3.55583 7.63156 3.55583L7.6316 3.55579ZM20.4698 16.6023V17.0896C20.4698 17.1293 20.4639 17.1674 20.458 17.2041C20.4506 17.2386 20.4406 17.2724 20.4282 17.3054C20.3301 17.5785 20.0535 17.7767 19.7249 17.7767H18.409C17.9986 17.7767 17.6641 17.4684 17.6641 17.0896V16.501C17.6641 16.4936 17.6625 16.4863 17.6625 16.479L17.6641 14.9126V14.4222L17.6655 14.4179C17.667 14.0406 17.9986 13.7353 18.409 13.7353H19.7249C20.1368 13.7353 20.4699 14.0421 20.4699 14.4223L20.4698 16.6023ZM19.9673 3.57372H15.5809C15.1928 3.57372 14.8791 3.86439 14.8791 4.22109V5.43514C14.8791 5.44247 14.8806 5.45129 14.8806 5.45861C14.8806 5.46743 14.8791 5.47621 14.8791 5.48504V7.1483C14.8791 7.5256 15.2122 7.83387 15.6226 7.83387H19.7993C20.1294 7.88526 20.3911 8.12308 20.4283 8.49447V8.8967C20.3911 9.25049 20.1324 9.50882 19.8171 9.5382H17.7489C14.998 9.5382 13.0383 11.3424 13.0383 13.8762V17.5051C13.0383 20.0242 14.723 21.8166 17.4544 21.8166H23.1865C24.2155 21.8166 25.0496 21.0474 25.0496 20.1005V8.25811C25.0496 5.38671 23.5508 3.57372 19.9673 3.57372H19.9673Z" fill="white"/>
</svg>
