<svg width="73" height="22" viewBox="0 0 73 22" fill="none" xmlns="http://www.w3.org/2000/svg">
<g clip-path="url(#clip0_9_608)">
<path d="M20.9824 13.1012C22.2061 8.18658 18.997 3.26171 13.8147 2.10122C8.63243 0.940733 3.43936 3.98408 2.21568 8.89873C0.991992 13.8134 4.20107 18.7382 9.38336 19.8987C14.5656 21.0592 19.7587 18.0159 20.9824 13.1012Z" fill="white"/>
<path d="M50.7184 16.2256V12.9053C50.7184 12.0879 50.3952 11.6793 49.5872 11.6793C49.2641 11.6793 48.887 11.7304 48.6716 11.7814V16.6343C48.6716 16.7876 48.51 16.9408 48.3484 16.9408H47.1095C46.9479 16.9408 46.7863 16.7876 46.7863 16.6343V10.9641C46.7863 10.7598 46.9479 10.6065 47.1095 10.5555C47.9174 10.3 48.7254 10.1468 49.5872 10.1468C51.5264 10.1468 52.6037 11.1174 52.6037 12.9053V16.6854C52.6037 16.8386 52.4421 16.9919 52.2805 16.9919H51.5264C51.0416 16.9919 50.7184 16.6343 50.7184 16.2256ZM55.5662 14.2334L55.5124 14.6932C55.5124 15.3062 55.9433 15.6637 56.6435 15.6637C57.1822 15.6637 57.6669 15.5105 58.2056 15.2551C58.2594 15.2551 58.3133 15.204 58.3672 15.204C58.4749 15.204 58.5288 15.2551 58.5826 15.3062C58.6365 15.3572 58.7442 15.5105 58.7442 15.5105C58.852 15.6637 58.9597 15.8681 58.9597 16.0213C58.9597 16.2767 58.7981 16.5321 58.5826 16.6343C57.9901 16.9408 57.2899 17.094 56.5358 17.094C55.6739 17.094 54.9737 16.8897 54.4351 16.4811C53.8964 16.0213 53.5732 15.4083 53.5732 14.6421V12.6499C53.5732 11.0663 54.6505 10.0957 56.4819 10.0957C58.2594 10.0957 59.2829 11.0152 59.2829 12.6499V13.8758C59.2829 14.0291 59.1213 14.1823 58.9597 14.1823H55.5662V14.2334ZM55.5124 13.1096H57.5592V12.5988C57.5592 11.9858 57.1822 11.5771 56.5358 11.5771C55.8894 11.5771 55.5124 11.9347 55.5124 12.5988V13.1096ZM69.2478 14.2334L69.194 14.6932C69.194 15.3062 69.6249 15.6637 70.3251 15.6637C70.8638 15.6637 71.3485 15.5105 71.8872 15.2551C71.941 15.2551 71.9949 15.204 72.0488 15.204C72.1565 15.204 72.2104 15.2551 72.2642 15.3062C72.3181 15.3572 72.4258 15.5105 72.4258 15.5105C72.5336 15.6637 72.6413 15.8681 72.6413 16.0213C72.6413 16.2767 72.4797 16.5321 72.2642 16.6343C71.6717 16.9408 70.9715 17.094 70.2174 17.094C69.3555 17.094 68.6553 16.8897 68.1167 16.4811C67.578 16.0213 67.2548 15.4083 67.2548 14.6421V12.6499C67.2548 11.0663 68.3321 10.0957 70.1635 10.0957C71.941 10.0957 72.9645 11.0152 72.9645 12.6499V13.8758C72.9645 14.0291 72.8029 14.1823 72.6413 14.1823H69.2478V14.2334ZM69.194 13.1096H71.2408V12.5988C71.2408 11.9858 70.8637 11.5771 70.2174 11.5771C69.571 11.5771 69.194 11.9347 69.194 12.5988V13.1096ZM37.5216 16.9919H38.2757C38.4373 16.9919 38.5989 16.8386 38.5989 16.6854V12.9053C38.5989 11.1685 37.6293 10.1468 36.0134 10.1468C35.5286 10.1468 34.99 10.249 34.6668 10.3511V8.46107C34.6668 8.0524 34.2897 7.69482 33.8588 7.69482H33.1047C32.9431 7.69482 32.7815 7.84807 32.7815 8.00132V16.6854C32.7815 16.8386 32.9431 16.9919 33.1047 16.9919H34.3436C34.5052 16.9919 34.6668 16.8386 34.6668 16.6854V11.8836C34.9361 11.7814 35.3131 11.7304 35.5825 11.7304C36.3904 11.7304 36.7136 12.0879 36.7136 12.9563V16.2767C36.7675 16.6343 37.0907 16.9919 37.5216 16.9919ZM45.6551 12.7009V14.591C45.6551 16.1746 44.524 17.1451 42.6387 17.1451C40.8073 17.1451 39.6223 16.1746 39.6223 14.591V12.7009C39.6223 11.1174 40.7535 10.1468 42.6387 10.1468C44.524 10.1468 45.6551 11.1174 45.6551 12.7009ZM43.7699 12.7009C43.7699 12.0879 43.3928 11.6793 42.6926 11.6793C41.9923 11.6793 41.6153 12.0369 41.6153 12.7009V14.591C41.6153 15.204 41.9923 15.5616 42.6926 15.5616C43.3928 15.5616 43.7699 15.204 43.7699 14.591V12.7009ZM31.7581 11.8325C31.7581 13.4672 30.4653 14.591 28.7417 14.591C28.3108 14.591 27.9337 14.5399 27.5566 14.3867V16.6854C27.5566 16.8386 27.3951 16.9919 27.2335 16.9919H25.9946C25.833 16.9919 25.6714 16.8386 25.6714 16.6854V8.56323C25.6714 8.3589 25.833 8.20565 25.9946 8.15457C26.8025 7.89915 27.6105 7.74591 28.4723 7.74591C30.4115 7.74591 31.7581 8.86973 31.7581 10.6065V11.8325ZM29.819 10.5044C29.819 9.68705 29.2264 9.27839 28.4185 9.27839C27.9337 9.27839 27.6105 9.43164 27.6105 9.43164V12.8031C27.9337 12.9563 28.0953 13.0074 28.4723 13.0074C29.2803 13.0074 29.8728 12.5477 29.8728 11.7814V10.5044H29.819ZM66.5546 11.8325C66.5546 13.4672 65.2618 14.591 63.5382 14.591C63.1073 14.591 62.7302 14.5399 62.3531 14.3867V16.6854C62.3531 16.8386 62.1916 16.9919 62.03 16.9919H60.7911C60.6295 16.9919 60.4679 16.8386 60.4679 16.6854V8.56323C60.4679 8.3589 60.6295 8.20565 60.7911 8.15457C61.599 7.89915 62.407 7.74591 63.2688 7.74591C65.208 7.74591 66.5546 8.86973 66.5546 10.6065V11.8325ZM64.6155 10.5044C64.6155 9.68705 64.0229 9.27839 63.215 9.27839C62.7302 9.27839 62.407 9.43164 62.407 9.43164V12.8031C62.7302 12.9563 62.8918 13.0074 63.2688 13.0074C64.0768 13.0074 64.6693 12.5477 64.6693 11.7814V10.5044H64.6155Z" fill="white"/>
<path d="M15.9758 8.6143C15.9758 8.25672 15.6526 7.95023 15.2756 7.95023H13.9828L11.0203 4.73202C10.751 4.42552 10.32 4.32335 9.88913 4.42552L8.8657 4.73202C8.70411 4.7831 8.65024 4.98743 8.75797 5.08959L11.9898 8.00131H7.08817C6.92658 8.00131 6.81885 8.10347 6.81885 8.25672V8.76755C6.81885 9.12513 7.14203 9.43163 7.51909 9.43163H8.27319V11.8836C8.27319 13.7226 9.29662 14.7953 11.0203 14.7953C11.5589 14.7953 11.9898 14.7442 12.5285 14.5399V16.1745C12.5285 16.6343 12.9055 16.9919 13.3903 16.9919H14.1444C14.306 16.9919 14.4676 16.8386 14.4676 16.6854V9.38054H15.7065C15.8681 9.38054 15.9758 9.27838 15.9758 9.12513V8.6143ZM12.5285 13.0074C12.2053 13.1607 11.7744 13.2117 11.4512 13.2117C10.5894 13.2117 10.1584 12.8031 10.1584 11.8836V9.43163H12.5285V13.0074Z" fill="#4D3B0E"/>
</g>
<defs>
<clipPath id="clip0_9_608">
<rect width="73" height="22" fill="white"/>
</clipPath>
</defs>
</svg>
