<svg width="1528" height="800" viewBox="0 0 1528 800" fill="none" xmlns="http://www.w3.org/2000/svg">
<g filter="url(#filter0_d_262_10415)">
<path d="M200 58H138C93.8172 58 58 93.8172 58 138V662C58 706.183 93.8172 742 138 742H1390C1434.18 742 1470 706.183 1470 662V138C1470 93.8172 1434.18 58 1390 58H1327" stroke="black" stroke-width="35" stroke-linecap="round"/>
</g>
<path d="M200 58H138C93.8172 58 58 93.8172 58 138V662C58 706.183 93.8172 742 138 742H1390C1434.18 742 1470 706.183 1470 662V138C1470 93.8172 1434.18 58 1390 58H1327" stroke="#0D0525" stroke-width="34" stroke-linecap="round"/>
<defs>
<filter id="filter0_d_262_10415" x="0.5" y="0.5" width="1527" height="799" filterUnits="userSpaceOnUse" color-interpolation-filters="sRGB">
<feFlood flood-opacity="0" result="BackgroundImageFix"/>
<feColorMatrix in="SourceAlpha" type="matrix" values="0 0 0 0 0 0 0 0 0 0 0 0 0 0 0 0 0 0 127 0" result="hardAlpha"/>
<feOffset/>
<feGaussianBlur stdDeviation="20"/>
<feComposite in2="hardAlpha" operator="out"/>
<feColorMatrix type="matrix" values="0 0 0 0 1 0 0 0 0 1 0 0 0 0 1 0 0 0 0.22 0"/>
<feBlend mode="normal" in2="BackgroundImageFix" result="effect1_dropShadow_262_10415"/>
<feBlend mode="normal" in="SourceGraphic" in2="effect1_dropShadow_262_10415" result="shape"/>
</filter>
</defs>
</svg>
