<svg width="164" height="164" viewBox="0 0 164 164" fill="none" xmlns="http://www.w3.org/2000/svg">
<g clip-path="url(#clip0_262_11791)">
<g opacity="0.6">
<path opacity="0.6" d="M43.0993 49.9101H37.5528C36.7079 49.9101 35.8976 49.5745 35.3002 48.9771C34.7028 48.3797 34.3672 47.5694 34.3672 46.7246C34.3672 45.8797 34.7028 45.0695 35.3002 44.4721C35.8976 43.8747 36.7079 43.5391 37.5528 43.5391H43.0993C43.9442 43.5391 44.7544 43.8747 45.3518 44.4721C45.9492 45.0695 46.2849 45.8797 46.2849 46.7246C46.2849 47.5694 45.9492 48.3797 45.3518 48.9771C44.7544 49.5745 43.9442 49.9101 43.0993 49.9101Z" fill="black"/>
<path opacity="0.6" d="M43.1006 67.3364H28.8594C28.0145 67.3364 27.2043 67.0008 26.6068 66.4033C26.0094 65.8059 25.6738 64.9957 25.6738 64.1508C25.6738 63.306 26.0094 62.4958 26.6068 61.8984C27.2043 61.301 28.0145 60.9653 28.8594 60.9653H43.1006C43.9454 60.9653 44.7557 61.301 45.3531 61.8984C45.9505 62.4958 46.2861 63.306 46.2861 64.1508C46.2861 64.9957 45.9505 65.8059 45.3531 66.4033C44.7557 67.0008 43.9454 67.3364 43.1006 67.3364Z" fill="black"/>
<path opacity="0.6" d="M43.0999 84.8007H20.1641C19.3192 84.8007 18.5089 84.4651 17.9115 83.8677C17.3141 83.2703 16.9785 82.46 16.9785 81.6152C16.9785 80.7703 17.3141 79.9601 17.9115 79.3627C18.5089 78.7653 19.3192 78.4297 20.1641 78.4297H43.0999C43.5182 78.4297 43.9324 78.5121 44.3189 78.6722C44.7054 78.8322 45.0566 79.0669 45.3524 79.3627C45.6482 79.6585 45.8828 80.0097 46.0429 80.3962C46.203 80.7827 46.2854 81.1969 46.2854 81.6152C46.2854 82.0335 46.203 82.4478 46.0429 82.8343C45.8828 83.2207 45.6482 83.5719 45.3524 83.8677C45.0566 84.1635 44.7054 84.3981 44.3189 84.5582C43.9324 84.7183 43.5182 84.8007 43.0999 84.8007Z" fill="black"/>
<path opacity="0.6" d="M133.906 49.9101H128.397C127.552 49.9101 126.742 49.5745 126.144 48.9771C125.547 48.3797 125.211 47.5694 125.211 46.7246C125.211 45.8797 125.547 45.0695 126.144 44.4721C126.742 43.8747 127.552 43.5391 128.397 43.5391H133.906C134.751 43.5391 135.561 43.8747 136.159 44.4721C136.756 45.0695 137.092 45.8797 137.092 46.7246C137.092 47.5694 136.756 48.3797 136.159 48.9771C135.561 49.5745 134.751 49.9101 133.906 49.9101Z" fill="black"/>
<path opacity="0.6" d="M142.601 67.3364H128.397C127.552 67.3364 126.742 67.0008 126.144 66.4033C125.547 65.8059 125.211 64.9957 125.211 64.1508C125.211 63.306 125.547 62.4958 126.144 61.8984C126.742 61.301 127.552 60.9653 128.397 60.9653H142.601C143.446 60.9653 144.256 61.301 144.853 61.8984C145.451 62.4958 145.786 63.306 145.786 64.1508C145.786 64.9957 145.451 65.8059 144.853 66.4033C144.256 67.0008 143.446 67.3364 142.601 67.3364Z" fill="black"/>
<path opacity="0.6" d="M151.333 84.8007H128.397C127.552 84.8007 126.742 84.4651 126.144 83.8677C125.547 83.2703 125.211 82.46 125.211 81.6152C125.211 80.7703 125.547 79.9601 126.144 79.3627C126.742 78.7653 127.552 78.4297 128.397 78.4297H151.333C151.751 78.4297 152.165 78.5121 152.552 78.6722C152.938 78.8322 153.29 79.0669 153.585 79.3627C153.881 79.6585 154.116 80.0097 154.276 80.3962C154.436 80.7827 154.518 81.1969 154.518 81.6152C154.518 82.0335 154.436 82.4478 154.276 82.8343C154.116 83.2207 153.881 83.5719 153.585 83.8677C153.29 84.1635 152.938 84.3981 152.552 84.5582C152.165 84.7183 151.751 84.8007 151.333 84.8007Z" fill="black"/>
<path opacity="0.6" d="M70.1562 84.8012C68.9283 84.8012 67.733 84.4071 66.7459 83.6769C65.7511 82.96 65.0087 81.9466 64.625 80.782C64.2412 79.6174 64.2359 78.3612 64.6097 77.1934L69.2942 62.8772L57.1143 54.0327C56.104 53.323 55.3479 52.3081 54.957 51.1369C54.5662 49.9658 54.5611 48.7002 54.9427 47.526C55.3243 46.3518 56.0724 45.3309 57.0771 44.6133C58.0818 43.8957 59.2902 43.5193 60.5247 43.5392H75.5155L80.1625 29.223C80.54 28.054 81.2785 27.0347 82.2717 26.3117C83.2649 25.5887 84.4618 25.1992 85.6903 25.1992C86.9188 25.1992 88.1157 25.5887 89.1091 26.3117C90.1022 27.0347 90.8406 28.054 91.2183 29.223L95.8654 43.5392H110.856C112.079 43.5443 113.268 43.935 114.256 44.6556C115.243 45.3762 115.978 46.39 116.356 47.5526C116.734 48.7152 116.736 49.9674 116.36 51.1309C115.985 52.2944 115.252 53.3098 114.266 54.0327L102.087 62.8772L106.734 77.1934C107.104 78.3565 107.098 79.6066 106.718 80.7664C106.337 81.9262 105.601 82.9367 104.614 83.6544C103.627 84.3721 102.438 84.7606 101.218 84.7646C99.9971 84.7686 98.8062 84.388 97.8142 83.6769L85.7465 74.8323L73.5666 83.6769C72.577 84.4024 71.3832 84.796 70.1562 84.8012ZM62.2487 49.9103L73.8665 58.3426C74.7121 58.9512 75.342 59.813 75.6654 60.8033C75.9888 61.7937 75.9888 62.8613 75.6653 63.8517L71.0932 77.4932L82.7109 69.0609C83.5519 68.4569 84.5613 68.132 85.5967 68.132C86.6321 68.132 87.6413 68.4569 88.4823 69.0609L100.1 77.4932L95.6405 63.8517C95.3287 62.8604 95.3344 61.7965 95.6569 60.8088C95.9795 59.821 96.6026 58.9588 97.4394 58.3426L109.057 49.9103H94.8535C93.8165 49.9149 92.8046 49.5909 91.963 48.985C91.1214 48.3791 90.4935 47.5222 90.1688 46.5373L85.7465 32.8583L81.2868 46.5373C80.9673 47.5254 80.3406 48.3855 79.4979 48.9923C78.6552 49.599 77.6407 49.9207 76.6023 49.9103H62.2487Z" fill="black"/>
<path opacity="0.6" d="M43.1001 48.5988H37.5535C37.0566 48.5988 36.5799 48.4013 36.2285 48.0499C35.8771 47.6985 35.6797 47.2219 35.6797 46.7249C35.6893 46.2309 35.8898 45.7599 36.2392 45.4105C36.5885 45.0612 37.0596 44.8607 37.5535 44.8511H43.1001C43.5941 44.8607 44.0651 45.0612 44.4145 45.4105C44.7639 45.7599 44.9644 46.2309 44.974 46.7249C44.974 46.971 44.9255 47.2147 44.8313 47.442C44.7371 47.6694 44.5991 47.8759 44.4251 48.0499C44.2511 48.2239 44.0445 48.362 43.8172 48.4561C43.5899 48.5503 43.3462 48.5988 43.1001 48.5988Z" fill="black"/>
<path opacity="0.6" d="M43.0994 66.0631H28.8582C28.3613 66.0631 27.8846 65.8657 27.5332 65.5142C27.1818 65.1628 26.9844 64.6862 26.9844 64.1893C26.9844 63.6923 27.1818 63.2156 27.5332 62.8642C27.8846 62.5128 28.3613 62.3154 28.8582 62.3154H43.0994C43.5964 62.3154 44.073 62.5128 44.4244 62.8642C44.7759 63.2156 44.9733 63.6923 44.9733 64.1893C44.9637 64.6832 44.7632 65.1543 44.4138 65.5037C44.0645 65.853 43.5934 66.0535 43.0994 66.0631Z" fill="black"/>
<path opacity="0.6" d="M43.0988 83.4894H20.1629C19.666 83.4894 19.1893 83.292 18.8379 82.9406C18.4865 82.5892 18.2891 82.1125 18.2891 81.6155C18.2891 81.1186 18.4865 80.642 18.8379 80.2906C19.1893 79.9391 19.666 79.7417 20.1629 79.7417H43.0988C43.5927 79.7513 44.0638 79.9518 44.4131 80.3011C44.7625 80.6505 44.963 81.1216 44.9726 81.6155C44.9726 81.8616 44.9241 82.1053 44.83 82.3326C44.7358 82.56 44.5978 82.7666 44.4238 82.9406C44.2498 83.1146 44.0432 83.2526 43.8158 83.3468C43.5885 83.4409 43.3448 83.4894 43.0988 83.4894Z" fill="black"/>
<path opacity="0.6" d="M133.908 48.5988H128.399C127.902 48.5988 127.426 48.4013 127.074 48.0499C126.723 47.6985 126.525 47.2219 126.525 46.7249C126.525 46.2279 126.723 45.7514 127.074 45.3999C127.426 45.0485 127.902 44.8511 128.399 44.8511H133.908C134.405 44.8511 134.882 45.0485 135.233 45.3999C135.585 45.7514 135.782 46.2279 135.782 46.7249C135.782 47.2219 135.585 47.6985 135.233 48.0499C134.882 48.4013 134.405 48.5988 133.908 48.5988Z" fill="black"/>
<path opacity="0.6" d="M142.603 66.0631H128.399C127.902 66.0631 127.426 65.8657 127.074 65.5142C126.723 65.1628 126.525 64.6862 126.525 64.1893C126.525 63.6923 126.723 63.2156 127.074 62.8642C127.426 62.5128 127.902 62.3154 128.399 62.3154H142.603C143.1 62.3154 143.577 62.5128 143.928 62.8642C144.279 63.2156 144.477 63.6923 144.477 64.1893C144.477 64.6862 144.279 65.1628 143.928 65.5142C143.577 65.8657 143.1 66.0631 142.603 66.0631Z" fill="black"/>
<path opacity="0.6" d="M151.335 83.4894H128.399C127.902 83.4894 127.426 83.292 127.074 82.9406C126.723 82.5892 126.525 82.1125 126.525 81.6155C126.525 81.1186 126.723 80.642 127.074 80.2906C127.426 79.9391 127.902 79.7417 128.399 79.7417H151.335C151.829 79.7513 152.3 79.9518 152.649 80.3011C152.999 80.6505 153.199 81.1216 153.209 81.6155C153.209 82.1125 153.011 82.5892 152.66 82.9406C152.309 83.292 151.832 83.4894 151.335 83.4894Z" fill="black"/>
<path opacity="0.6" d="M70.159 83.4896C69.4501 83.4887 68.7514 83.3202 68.12 82.9979C67.4885 82.6755 66.9423 82.2085 66.5257 81.6348C66.1092 81.0612 65.8342 80.3971 65.7231 79.6969C65.612 78.9967 65.6681 78.2802 65.8867 77.6058L70.8336 62.3902L57.8666 52.9835C57.0896 52.4346 56.5121 51.6478 56.2214 50.742C55.9308 49.8361 55.9426 48.8602 56.2551 47.9616C56.5375 47.0523 57.1058 46.2584 57.8756 45.6979C58.6453 45.1375 59.5754 44.8405 60.5275 44.851H76.5301L81.477 29.6355C81.7728 28.7357 82.345 27.9523 83.1122 27.3969C83.8794 26.8415 84.8023 26.5425 85.7494 26.5425C86.6965 26.5425 87.6194 26.8415 88.3866 27.3969C89.1538 27.9523 89.726 28.7357 90.0218 29.6355L94.9687 44.851H110.971C111.918 44.8561 112.839 45.1602 113.604 45.7198C114.368 46.2794 114.936 47.066 115.227 47.9675C115.517 48.869 115.516 49.8393 115.223 50.74C114.93 51.6407 114.36 52.4259 113.594 52.9835L100.665 62.3902L105.612 77.6058C105.907 78.5105 105.907 79.4854 105.613 80.3904C105.318 81.2953 104.745 82.0835 103.974 82.6417C103.203 83.1999 102.275 83.4993 101.324 83.4968C100.372 83.4943 99.4466 83.19 98.6789 82.6277L85.7494 73.221L72.7824 82.6277C72.0262 83.1949 71.1044 83.4978 70.159 83.4896ZM60.5275 48.5987C60.3702 48.5987 60.2169 48.6482 60.0892 48.7402C59.9616 48.8322 59.8662 48.962 59.8164 49.1112C59.7667 49.2605 59.7652 49.4216 59.8121 49.5717C59.859 49.7219 59.9519 49.8535 60.0778 49.9479L73.1197 59.4295C73.7157 59.889 74.1595 60.5172 74.3935 61.2324C74.6274 61.9476 74.6406 62.7167 74.4314 63.4396L69.447 78.7676C69.3941 78.9147 69.3912 79.0752 69.4386 79.2242C69.486 79.3732 69.5811 79.5025 69.7093 79.5921C69.8304 79.6926 69.9829 79.7477 70.1403 79.7477C70.2977 79.7477 70.4502 79.6926 70.5713 79.5921L83.6132 70.1479C84.2368 69.7209 84.9749 69.4924 85.7307 69.4924C86.4864 69.4924 87.2245 69.7209 87.8481 70.1479L101.077 79.5921C101.198 79.6926 101.35 79.7477 101.508 79.7477C101.665 79.7477 101.818 79.6926 101.939 79.5921C102.078 79.5129 102.183 79.384 102.231 79.2312C102.28 79.0783 102.269 78.9128 102.201 78.7676L97.0674 63.5894C96.8582 62.8666 96.8714 62.0975 97.1053 61.3823C97.3393 60.6671 97.7831 60.0389 98.3791 59.5794L111.383 50.0978C111.507 50.0054 111.599 49.8771 111.647 49.7305C111.695 49.5838 111.696 49.4258 111.651 49.2782C111.606 49.1306 111.517 49.0006 111.395 48.9058C111.273 48.811 111.125 48.7561 110.971 48.7486H94.8563C94.0989 48.7331 93.3641 48.4884 92.7486 48.0469C92.133 47.6053 91.6658 46.9876 91.4084 46.2752L86.424 30.9471C86.3894 30.7952 86.3033 30.66 86.1804 30.5643C86.0574 30.4687 85.9051 30.4186 85.7494 30.4225C85.5889 30.4168 85.4313 30.4656 85.302 30.5608C85.1728 30.6561 85.0795 30.7922 85.0373 30.9471L80.0529 46.2752C79.7955 46.9876 79.3283 47.6053 78.7128 48.0469C78.0973 48.4884 77.3624 48.7331 76.6051 48.7486L60.5275 48.5987Z" fill="black"/>
<path opacity="0.6" d="M43.0988 47.4732H37.5523C37.3535 47.4732 37.1628 47.3942 37.0223 47.2536C36.8817 47.1131 36.8027 46.9224 36.8027 46.7236C36.8027 46.5249 36.8817 46.3342 37.0223 46.1937C37.1628 46.0531 37.3535 45.9741 37.5523 45.9741H43.0988C43.2976 45.9741 43.4883 46.0531 43.6288 46.1937C43.7694 46.3342 43.8484 46.5249 43.8484 46.7236C43.8484 46.9224 43.7694 47.1131 43.6288 47.2536C43.4883 47.3942 43.2976 47.4732 43.0988 47.4732Z" fill="black"/>
<path opacity="0.6" d="M43.0982 64.938H28.857C28.6582 64.938 28.4675 64.859 28.327 64.7185C28.1864 64.5779 28.1074 64.3873 28.1074 64.1885C28.1074 63.9897 28.1864 63.7991 28.327 63.6585C28.4675 63.5179 28.6582 63.439 28.857 63.439H43.0982C43.2969 63.439 43.4876 63.5179 43.6282 63.6585C43.7687 63.7991 43.8477 63.9897 43.8477 64.1885C43.8477 64.3873 43.7687 64.5779 43.6282 64.7185C43.4876 64.859 43.2969 64.938 43.0982 64.938Z" fill="black"/>
<path opacity="0.6" d="M43.1014 82.3277H20.1656C19.9668 82.3277 19.7761 82.2487 19.6356 82.1081C19.495 81.9676 19.416 81.7769 19.416 81.5781C19.416 81.3793 19.495 81.1887 19.6356 81.0481C19.7761 80.9076 19.9668 80.8286 20.1656 80.8286H43.1014C43.3002 80.8286 43.4908 80.9076 43.6314 81.0481C43.7719 81.1887 43.8509 81.3793 43.8509 81.5781C43.8509 81.7769 43.7719 81.9676 43.6314 82.1081C43.4908 82.2487 43.3002 82.3277 43.1014 82.3277Z" fill="black"/>
<path opacity="0.6" d="M133.907 47.4732H128.398C128.199 47.4732 128.009 47.3942 127.868 47.2536C127.727 47.1131 127.648 46.9224 127.648 46.7236C127.648 46.5249 127.727 46.3342 127.868 46.1937C128.009 46.0531 128.199 45.9741 128.398 45.9741H133.907C134.106 45.9741 134.297 46.0531 134.437 46.1937C134.578 46.3342 134.657 46.5249 134.657 46.7236C134.657 46.9224 134.578 47.1131 134.437 47.2536C134.297 47.3942 134.106 47.4732 133.907 47.4732Z" fill="black"/>
<path opacity="0.6" d="M142.602 64.938H128.398C128.199 64.938 128.009 64.859 127.868 64.7185C127.727 64.5779 127.648 64.3873 127.648 64.1885C127.648 63.9897 127.727 63.7991 127.868 63.6585C128.009 63.5179 128.199 63.439 128.398 63.439H142.602C142.801 63.439 142.991 63.5179 143.132 63.6585C143.272 63.7991 143.351 63.9897 143.351 64.1885C143.351 64.3873 143.272 64.5779 143.132 64.7185C142.991 64.859 142.801 64.938 142.602 64.938Z" fill="black"/>
<path opacity="0.6" d="M151.334 82.3277H128.398C128.199 82.3277 128.009 82.2487 127.868 82.1081C127.727 81.9676 127.648 81.7769 127.648 81.5781C127.648 81.3793 127.727 81.1887 127.868 81.0481C128.009 80.9076 128.199 80.8286 128.398 80.8286H151.334C151.533 80.8286 151.723 80.9076 151.864 81.0481C152.004 81.1887 152.083 81.3793 152.083 81.5781C152.083 81.7769 152.004 81.9676 151.864 82.1081C151.723 82.2487 151.533 82.3277 151.334 82.3277Z" fill="black"/>
<path opacity="0.6" d="M70.1586 82.3273C69.447 82.3227 68.7539 82.1004 68.1723 81.6902C67.5988 81.2745 67.1706 80.6888 66.9487 80.0161C66.7267 79.3434 66.7221 78.6179 66.9356 77.9425L71.92 62.652C71.9877 62.4528 71.9915 62.2374 71.9311 62.0359C71.8706 61.8344 71.7488 61.6567 71.5827 61.5277L58.5408 52.0835C57.9613 51.6656 57.5294 51.0745 57.3075 50.3954C57.0856 49.7162 57.085 48.9842 57.3059 48.3047C57.5269 47.6252 57.9579 47.0335 58.5368 46.6148C59.1157 46.196 59.8126 45.9719 60.5271 45.9748H76.6046C76.8137 45.9831 77.0195 45.9212 77.1893 45.799C77.3591 45.6767 77.4831 45.5011 77.5415 45.3002L82.526 29.8598C82.7481 29.1812 83.1798 28.5906 83.759 28.173C84.3382 27.7555 85.035 27.5325 85.749 27.5362C86.458 27.5346 87.149 27.7591 87.7218 28.1769C88.2946 28.5947 88.7194 29.1842 88.9345 29.8598L93.9189 45.1878C93.9773 45.3887 94.1013 45.5643 94.2711 45.6865C94.4409 45.8088 94.6468 45.8707 94.8558 45.8624H110.97C111.682 45.8674 112.373 46.0971 112.946 46.5188C113.519 46.9405 113.944 47.5324 114.16 48.21C114.376 48.8877 114.372 49.6163 114.15 50.2918C113.927 50.9673 113.496 51.5551 112.919 51.9711L99.9152 61.4152C99.7506 61.5463 99.6276 61.7223 99.5611 61.9218C99.4946 62.1214 99.4874 62.336 99.5404 62.5396L104.524 77.8301C104.738 78.5055 104.733 79.231 104.511 79.9037C104.289 80.5764 103.861 81.1621 103.288 81.5778C102.716 81.995 102.027 82.2199 101.32 82.2199C100.613 82.2199 99.9242 81.995 99.3531 81.5778L86.3111 72.0962C86.1373 71.9862 85.9359 71.9279 85.7302 71.9279C85.5246 71.9279 85.3232 71.9862 85.1493 72.0962L72.1449 81.5778C71.5689 82.0139 70.8791 82.2741 70.1586 82.3273ZM60.5271 47.4364C60.1264 47.434 59.7355 47.56 59.4117 47.7961C59.0879 48.0322 58.8484 48.3658 58.7282 48.748C58.6072 49.1187 58.6074 49.5183 58.7287 49.8889C58.85 50.2595 59.086 50.5818 59.4028 50.8093L72.4447 60.2909C72.869 60.5983 73.1848 61.0326 73.3465 61.531C73.5081 62.0294 73.5073 62.5663 73.3441 63.0642L68.3597 78.5796C68.2476 78.9541 68.2554 79.3542 68.382 79.724C68.5086 80.0937 68.7476 80.4147 69.0657 80.6419C69.3837 80.8691 69.7649 80.9911 70.1557 80.991C70.5466 80.9908 70.9276 80.8683 71.2454 80.6409L84.2874 71.0843C84.7114 70.7737 85.2234 70.6063 85.749 70.6063C86.2746 70.6063 86.7865 70.7737 87.2106 71.0843L100.215 80.5284C100.532 80.7559 100.913 80.8783 101.304 80.8785C101.695 80.8787 102.076 80.7566 102.394 80.5295C102.712 80.3023 102.951 79.9813 103.078 79.6115C103.205 79.2417 103.212 78.8416 103.1 78.4672L98.1163 63.1392C97.9532 62.6413 97.9524 62.1044 98.114 61.6059C98.2757 61.1075 98.5914 60.6733 99.0158 60.3659L112.057 50.8843C112.379 50.6608 112.618 50.3387 112.74 49.9667C112.862 49.5947 112.859 49.1932 112.732 48.823C112.624 48.4406 112.393 48.1045 112.074 47.8672C111.756 47.6299 111.368 47.5048 110.97 47.5114H94.8558C94.3288 47.5182 93.8137 47.3537 93.388 47.0429C92.9622 46.7321 92.6488 46.2915 92.4948 45.7874L87.5104 30.4969C87.4028 30.1144 87.1717 29.7783 86.8531 29.541C86.5344 29.3037 86.1462 29.1786 85.749 29.1852C85.3469 29.1766 84.9531 29.3003 84.6281 29.5373C84.3031 29.7743 84.0649 30.1114 83.9501 30.4969L78.9657 45.7874C78.8116 46.2915 78.4982 46.7321 78.0725 47.0429C77.6468 47.3537 77.1317 47.5182 76.6046 47.5114L60.5271 47.4364Z" fill="black"/>
<path opacity="0.6" d="M18.6289 123.552H37.3673M18.6289 123.552V101.066H33.6196C35.6894 101.066 37.3673 102.744 37.3673 104.814V123.552H18.6289ZM18.6289 123.552V146.038H37.3673C39.4371 146.038 41.115 144.36 41.115 142.29V127.3C41.115 125.23 39.4371 123.552 37.3673 123.552H18.6289Z" stroke="black" stroke-width="5.62152"/>
<path opacity="0.6" d="M65.4751 101.066H54.2321C52.1623 101.066 50.4844 102.744 50.4844 104.814V142.29C50.4844 144.36 52.1623 146.038 54.2321 146.038H65.4751C67.5449 146.038 69.2228 144.36 69.2228 142.29V104.814C69.2228 102.744 67.5449 101.066 65.4751 101.066Z" stroke="black" stroke-width="5.62152"/>
<path opacity="0.6" d="M78.5918 146.038V101.066L97.3302 146.038V101.066" stroke="black" stroke-width="5.62152" stroke-linecap="round" stroke-linejoin="round"/>
<path opacity="0.6" d="M106.699 101.066V142.29C106.699 144.36 108.377 146.038 110.446 146.038H121.689C123.759 146.038 125.437 144.36 125.437 142.29V101.066" stroke="black" stroke-width="5.62152" stroke-linecap="round"/>
<path opacity="0.6" d="M153.545 101.066H138.554C136.485 101.066 134.807 102.744 134.807 104.814V119.804C134.807 121.874 136.485 123.552 138.554 123.552H149.797C151.867 123.552 153.545 125.23 153.545 127.3V142.29C153.545 144.36 151.867 146.038 149.797 146.038H134.807" stroke="black" stroke-width="5.62152" stroke-linecap="round" stroke-linejoin="round"/>
<path opacity="0.6" d="M18.6289 123.552H37.3673M18.6289 123.552V101.066H33.6196C35.6894 101.066 37.3673 102.744 37.3673 104.814V123.552H18.6289ZM18.6289 123.552V146.038H37.3673C39.4371 146.038 41.115 144.36 41.115 142.29V127.3C41.115 125.23 39.4371 123.552 37.3673 123.552H18.6289Z" stroke="black" stroke-width="2.99815"/>
<path opacity="0.6" d="M65.4751 101.066H54.2321C52.1623 101.066 50.4844 102.744 50.4844 104.814V142.29C50.4844 144.36 52.1623 146.038 54.2321 146.038H65.4751C67.5449 146.038 69.2228 144.36 69.2228 142.29V104.814C69.2228 102.744 67.5449 101.066 65.4751 101.066Z" stroke="black" stroke-width="2.99815"/>
<path opacity="0.6" d="M78.5918 146.038V101.066L97.3302 146.038V101.066" stroke="black" stroke-width="2.99815" stroke-linecap="round" stroke-linejoin="round"/>
<path opacity="0.6" d="M106.699 101.066V142.29C106.699 144.36 108.377 146.038 110.446 146.038H121.689C123.759 146.038 125.437 144.36 125.437 142.29V101.066" stroke="black" stroke-width="2.99815" stroke-linecap="round"/>
<path opacity="0.6" d="M153.545 101.066H138.554C136.485 101.066 134.807 102.744 134.807 104.814V119.804C134.807 121.874 136.485 123.552 138.554 123.552H149.797C151.867 123.552 153.545 125.23 153.545 127.3V142.29C153.545 144.36 151.867 146.038 149.797 146.038H134.807" stroke="black" stroke-width="2.99815" stroke-linecap="round" stroke-linejoin="round"/>
<path opacity="0.6" d="M18.6289 123.552H37.3673M18.6289 123.552V101.066H33.6196C35.6894 101.066 37.3673 102.744 37.3673 104.814V123.552H18.6289ZM18.6289 123.552V146.038H37.3673C39.4371 146.038 41.115 144.36 41.115 142.29V127.3C41.115 125.23 39.4371 123.552 37.3673 123.552H18.6289Z" stroke="black" stroke-width="1.1243"/>
<path opacity="0.6" d="M65.4751 101.066H54.2321C52.1623 101.066 50.4844 102.744 50.4844 104.814V142.29C50.4844 144.36 52.1623 146.038 54.2321 146.038H65.4751C67.5449 146.038 69.2228 144.36 69.2228 142.29V104.814C69.2228 102.744 67.5449 101.066 65.4751 101.066Z" stroke="black" stroke-width="1.1243"/>
<path opacity="0.6" d="M78.5918 146.038V101.066L97.3302 146.038V101.066" stroke="black" stroke-width="1.1243" stroke-linecap="round" stroke-linejoin="round"/>
<path opacity="0.6" d="M106.699 101.066V142.29C106.699 144.36 108.377 146.038 110.446 146.038H121.689C123.759 146.038 125.437 144.36 125.437 142.29V101.066" stroke="black" stroke-width="1.1243" stroke-linecap="round"/>
<path opacity="0.6" d="M153.545 101.066H138.554C136.485 101.066 134.807 102.744 134.807 104.814V119.804C134.807 121.874 136.485 123.552 138.554 123.552H149.797C151.867 123.552 153.545 125.23 153.545 127.3V142.29C153.545 144.36 151.867 146.038 149.797 146.038H134.807" stroke="black" stroke-width="1.1243" stroke-linecap="round" stroke-linejoin="round"/>
</g>
<g filter="url(#filter0_d_262_11791)">
<path d="M39.3512 46.1621H33.8046C32.9598 46.1621 32.1495 45.8265 31.5521 45.2291C30.9547 44.6317 30.6191 43.8214 30.6191 42.9765C30.6191 42.1317 30.9547 41.3214 31.5521 40.724C32.1495 40.1266 32.9598 39.791 33.8046 39.791H39.3512C40.196 39.791 41.0063 40.1266 41.6037 40.724C42.2011 41.3214 42.5367 42.1317 42.5367 42.9765C42.5367 43.8214 42.2011 44.6317 41.6037 45.2291C41.0063 45.8265 40.196 46.1621 39.3512 46.1621Z" fill="#FF003E"/>
<path d="M39.3544 63.5883H25.1132C24.2684 63.5883 23.4581 63.2527 22.8607 62.6553C22.2633 62.0579 21.9277 61.2476 21.9277 60.4028C21.9277 59.5579 22.2633 58.7477 22.8607 58.1503C23.4581 57.5529 24.2684 57.2173 25.1132 57.2173H39.3544C40.1993 57.2173 41.0095 57.5529 41.6069 58.1503C42.2043 58.7477 42.5399 59.5579 42.5399 60.4028C42.5399 61.2476 42.2043 62.0579 41.6069 62.6553C41.0095 63.2527 40.1993 63.5883 39.3544 63.5883Z" fill="#FF003E"/>
<path d="M39.3518 81.0537H16.416C15.5712 81.0537 14.7609 80.718 14.1635 80.1206C13.5661 79.5232 13.2305 78.713 13.2305 77.8681C13.2305 77.0233 13.5661 76.213 14.1635 75.6156C14.7609 75.0182 15.5712 74.6826 16.416 74.6826H39.3518C39.7702 74.6826 40.1844 74.765 40.5709 74.9251C40.9574 75.0852 41.3085 75.3198 41.6043 75.6156C41.9001 75.9114 42.1348 76.2626 42.2949 76.6491C42.455 77.0356 42.5374 77.4498 42.5374 77.8681C42.5374 78.2864 42.455 78.7007 42.2949 79.0872C42.1348 79.4737 41.9001 79.8248 41.6043 80.1206C41.3085 80.4164 40.9574 80.6511 40.5709 80.8111C40.1844 80.9712 39.7702 81.0537 39.3518 81.0537Z" fill="#FF003E"/>
<path d="M130.158 46.1621H124.649C123.804 46.1621 122.994 45.8265 122.396 45.2291C121.799 44.6317 121.463 43.8214 121.463 42.9765C121.463 42.1317 121.799 41.3214 122.396 40.724C122.994 40.1266 123.804 39.791 124.649 39.791H130.158C131.003 39.791 131.813 40.1266 132.411 40.724C133.008 41.3214 133.344 42.1317 133.344 42.9765C133.344 43.8214 133.008 44.6317 132.411 45.2291C131.813 45.8265 131.003 46.1621 130.158 46.1621Z" fill="#FF003E"/>
<path d="M138.853 63.5883H124.649C123.804 63.5883 122.994 63.2527 122.396 62.6553C121.799 62.0579 121.463 61.2476 121.463 60.4028C121.463 59.5579 121.799 58.7477 122.396 58.1503C122.994 57.5529 123.804 57.2173 124.649 57.2173H138.853C139.698 57.2173 140.508 57.5529 141.105 58.1503C141.703 58.7477 142.038 59.5579 142.038 60.4028C142.038 61.2476 141.703 62.0579 141.105 62.6553C140.508 63.2527 139.698 63.5883 138.853 63.5883Z" fill="#FF003E"/>
<path d="M147.585 81.0537H124.649C123.804 81.0537 122.994 80.718 122.396 80.1206C121.799 79.5232 121.463 78.713 121.463 77.8681C121.463 77.0233 121.799 76.213 122.396 75.6156C122.994 75.0182 123.804 74.6826 124.649 74.6826H147.585C148.003 74.6826 148.417 74.765 148.804 74.9251C149.19 75.0852 149.541 75.3198 149.837 75.6156C150.133 75.9114 150.368 76.2626 150.528 76.6491C150.688 77.0356 150.77 77.4498 150.77 77.8681C150.77 78.2864 150.688 78.7007 150.528 79.0872C150.368 79.4737 150.133 79.8248 149.837 80.1206C149.541 80.4164 149.19 80.6511 148.804 80.8111C148.417 80.9712 148.003 81.0537 147.585 81.0537Z" fill="#FF003E"/>
<path d="M66.4101 81.0536C65.1823 81.0537 63.9868 80.6596 62.9997 79.9293C62.0049 79.2124 61.2625 78.199 60.8788 77.0344C60.4951 75.8698 60.4897 74.6137 60.8635 73.4458L65.5482 59.1297L53.3682 50.2851C52.3578 49.5755 51.6017 48.5605 51.2109 47.3894C50.82 46.2182 50.815 44.9526 51.1966 43.7784C51.5782 42.6042 52.3263 41.5834 53.331 40.8658C54.3357 40.1482 55.5441 39.7717 56.7786 39.7916H71.7693L76.4164 25.4755C76.7939 24.3064 77.5324 23.2871 78.5256 22.5641C79.5189 21.8411 80.7157 21.4517 81.9442 21.4517C83.1728 21.4517 84.3696 21.8411 85.3629 22.5641C86.3561 23.2871 87.0946 24.3064 87.4721 25.4755L92.1192 39.7916H107.11C108.333 39.7968 109.522 40.1874 110.51 40.908C111.497 41.6286 112.232 42.6424 112.61 43.805C112.988 44.9677 112.989 46.2198 112.614 47.3833C112.239 48.5468 111.506 49.5623 110.52 50.2851L98.3404 59.1297L102.988 73.4458C103.358 74.6089 103.352 75.8591 102.972 77.0189C102.591 78.1787 101.855 79.1891 100.868 79.9068C99.8805 80.6245 98.6922 81.013 97.4715 81.017C96.2509 81.0211 95.0601 80.6405 94.068 79.9293L82.0005 71.0848L69.8205 79.9293C68.831 80.6549 67.6371 81.0485 66.4101 81.0536ZM58.5025 46.1627L70.1203 54.595C70.9659 55.2036 71.596 56.0654 71.9194 57.0558C72.2427 58.0462 72.2427 59.1138 71.9192 60.1041L67.347 73.7457L78.9648 65.3134C79.8058 64.7094 80.8151 64.3845 81.8506 64.3845C82.886 64.3845 83.8953 64.7094 84.7363 65.3134L96.3541 73.7457L91.8943 60.1041C91.5826 59.1129 91.5883 58.049 91.9108 57.0612C92.2334 56.0734 92.8566 55.2112 93.6932 54.595L105.311 46.1627H91.1073C90.0703 46.1673 89.0585 45.8434 88.2169 45.2375C87.3754 44.6315 86.7473 43.7747 86.4227 42.7898L82.0005 29.1107L77.5407 42.7898C77.2213 43.7778 76.5945 44.638 75.7517 45.2447C74.909 45.8515 73.8945 46.1731 72.8561 46.1627H58.5025Z" fill="#FF003E"/>
<path d="M39.354 44.8507H33.8075C33.3105 44.8507 32.8339 44.6533 32.4825 44.3018C32.131 43.9504 31.9336 43.4738 31.9336 42.9769C31.9432 42.4829 32.1437 42.0118 32.4931 41.6625C32.8424 41.3131 33.3135 41.1126 33.8075 41.103H39.354C39.848 41.1126 40.3191 41.3131 40.6684 41.6625C41.0178 42.0118 41.2183 42.4829 41.2279 42.9769C41.2279 43.2229 41.1794 43.4666 41.0852 43.694C40.9911 43.9213 40.853 44.1278 40.679 44.3018C40.505 44.4758 40.2985 44.6139 40.0711 44.7081C39.8438 44.8023 39.6001 44.8507 39.354 44.8507Z" fill="#FF406E"/>
<path d="M39.3514 62.3156H25.1102C24.6132 62.3156 24.1366 62.1181 23.7852 61.7667C23.4338 61.4153 23.2363 60.9387 23.2363 60.4417C23.2363 59.9447 23.4338 59.4681 23.7852 59.1167C24.1366 58.7653 24.6132 58.5679 25.1102 58.5679H39.3514C39.8483 58.5679 40.325 58.7653 40.6764 59.1167C41.0278 59.4681 41.2252 59.9447 41.2252 60.4417C41.2156 60.9357 41.0151 61.4068 40.6658 61.7561C40.3164 62.1055 39.8453 62.306 39.3514 62.3156Z" fill="#FF406E"/>
<path d="M39.3507 79.7423H16.4149C15.9179 79.7423 15.4413 79.5449 15.0899 79.1935C14.7385 78.8421 14.541 78.3654 14.541 77.8685C14.541 77.3715 14.7385 76.8949 15.0899 76.5435C15.4413 76.1921 15.9179 75.9946 16.4149 75.9946H39.3507C39.8447 76.0042 40.3157 76.2047 40.6651 76.5541C41.0144 76.9034 41.2149 77.3745 41.2245 77.8685C41.2245 78.1145 41.1761 78.3582 41.0819 78.5856C40.9877 78.8129 40.8497 79.0195 40.6757 79.1935C40.5017 79.3675 40.2951 79.5055 40.0678 79.5997C39.8404 79.6939 39.5968 79.7423 39.3507 79.7423Z" fill="#FF406E"/>
<path d="M130.16 44.8507H124.651C124.154 44.8507 123.678 44.6533 123.326 44.3018C122.975 43.9504 122.777 43.4738 122.777 42.9769C122.777 42.4799 122.975 42.0033 123.326 41.6519C123.678 41.3005 124.154 41.103 124.651 41.103H130.16C130.657 41.103 131.134 41.3005 131.485 41.6519C131.837 42.0033 132.034 42.4799 132.034 42.9769C132.034 43.4738 131.837 43.9504 131.485 44.3018C131.134 44.6533 130.657 44.8507 130.16 44.8507Z" fill="#FF406E"/>
<path d="M138.855 62.3156H124.651C124.154 62.3156 123.678 62.1181 123.326 61.7667C122.975 61.4153 122.777 60.9387 122.777 60.4417C122.777 59.9447 122.975 59.4681 123.326 59.1167C123.678 58.7653 124.154 58.5679 124.651 58.5679H138.855C139.352 58.5679 139.829 58.7653 140.18 59.1167C140.531 59.4681 140.729 59.9447 140.729 60.4417C140.729 60.9387 140.531 61.4153 140.18 61.7667C139.829 62.1181 139.352 62.3156 138.855 62.3156Z" fill="#FF406E"/>
<path d="M147.587 79.7423H124.651C124.154 79.7423 123.678 79.5449 123.326 79.1935C122.975 78.8421 122.777 78.3654 122.777 77.8685C122.777 77.3715 122.975 76.8949 123.326 76.5435C123.678 76.1921 124.154 75.9946 124.651 75.9946H147.587C148.081 76.0042 148.552 76.2047 148.901 76.5541C149.251 76.9034 149.451 77.3745 149.461 77.8685C149.461 78.3654 149.263 78.8421 148.912 79.1935C148.561 79.5449 148.084 79.7423 147.587 79.7423Z" fill="#FF406E"/>
<path d="M66.411 79.7421C65.702 79.7412 65.0034 79.5727 64.3719 79.2503C63.7405 78.928 63.1942 78.4609 62.7777 77.8873C62.3611 77.3136 62.0861 76.6496 61.9751 75.9494C61.864 75.2492 61.92 74.5326 62.1386 73.8582L67.0856 58.6426L54.1186 49.2359C53.3415 48.687 52.7641 47.9003 52.4734 46.9944C52.1827 46.0885 52.1945 45.1126 52.5071 44.2141C52.7895 43.3047 53.3578 42.5108 54.1275 41.9504C54.8973 41.39 55.8274 41.0929 56.7795 41.1035H72.7821L77.729 25.8879C78.0247 24.9881 78.597 24.2047 79.3642 23.6493C80.1313 23.0939 81.0543 22.7949 82.0014 22.7949C82.9485 22.7949 83.8714 23.0939 84.6386 23.6493C85.4057 24.2047 85.978 24.9881 86.2737 25.8879L91.2207 41.1035H107.223C108.17 41.1086 109.091 41.4126 109.856 41.9722C110.62 42.5319 111.188 43.3185 111.479 44.2199C111.769 45.1214 111.768 46.0917 111.475 46.9925C111.182 47.8932 110.612 48.6783 109.846 49.2359L96.9171 58.6426L101.864 73.8582C102.158 74.763 102.159 75.7379 101.865 76.6428C101.57 77.5477 100.997 78.336 100.226 78.8942C99.4558 79.4524 98.5279 79.7518 97.5763 79.7492C96.6248 79.7467 95.6985 79.4424 94.9309 78.8801L82.0014 69.4735L69.0344 78.8801C68.2781 79.4474 67.3563 79.7502 66.411 79.7421ZM56.7795 44.8512C56.6221 44.8512 56.4688 44.9006 56.3412 44.9926C56.2136 45.0846 56.1181 45.2144 56.0684 45.3636C56.0186 45.5129 56.0171 45.674 56.064 45.8242C56.1109 45.9743 56.2039 46.1059 56.3297 46.2003L69.3717 55.682C69.9676 56.1414 70.4115 56.7696 70.6454 57.4848C70.8794 58.2 70.8926 58.9692 70.6834 59.692L65.6989 75.02C65.6461 75.1672 65.6431 75.3276 65.6905 75.4766C65.7379 75.6257 65.8331 75.755 65.9613 75.8445C66.0824 75.9451 66.2348 76.0001 66.3923 76.0001C66.5497 76.0001 66.7021 75.9451 66.8232 75.8445L79.8652 66.4003C80.4888 65.9733 81.2269 65.7448 81.9826 65.7448C82.7384 65.7448 83.4765 65.9733 84.1001 66.4003L97.3294 75.8445C97.4505 75.9451 97.6029 76.0001 97.7604 76.0001C97.9178 76.0001 98.0702 75.9451 98.1913 75.8445C98.3308 75.7653 98.4353 75.6364 98.4839 75.4836C98.5326 75.3308 98.5218 75.1652 98.4537 75.02L93.3194 59.8419C93.1101 59.1191 93.1234 58.35 93.3573 57.6348C93.5912 56.9196 94.0351 56.2913 94.631 55.8318L107.635 46.3502C107.759 46.2578 107.851 46.1296 107.899 45.9829C107.947 45.8362 107.948 45.6783 107.903 45.5307C107.858 45.3831 107.769 45.253 107.647 45.1582C107.525 45.0634 107.377 45.0085 107.223 45.001H91.1082C90.3509 44.9855 89.616 44.7409 89.0005 44.2993C88.385 43.8578 87.9178 43.2401 87.6604 42.5276L82.6759 27.1996C82.6414 27.0477 82.5553 26.9124 82.4323 26.8168C82.3094 26.7211 82.1571 26.671 82.0014 26.6749C81.8409 26.6693 81.6832 26.718 81.554 26.8133C81.4247 26.9085 81.3314 27.0446 81.2893 27.1996L76.3049 42.5276C76.0475 43.2401 75.5802 43.8578 74.9647 44.2993C74.3492 44.7409 73.6144 44.9855 72.857 45.001L56.7795 44.8512Z" fill="#FF406E"/>
<path d="M39.3527 43.7256H33.8061C33.6073 43.7256 33.4167 43.6466 33.2761 43.5061C33.1355 43.3655 33.0566 43.1749 33.0566 42.9761C33.0566 42.7773 33.1355 42.5867 33.2761 42.4461C33.4167 42.3055 33.6073 42.2266 33.8061 42.2266H39.3527C39.5515 42.2266 39.7421 42.3055 39.8827 42.4461C40.0232 42.5867 40.1022 42.7773 40.1022 42.9761C40.1022 43.1749 40.0232 43.3655 39.8827 43.5061C39.7421 43.6466 39.5515 43.7256 39.3527 43.7256Z" fill="#FF8CA7"/>
<path d="M39.352 61.1905H25.1108C24.912 61.1905 24.7214 61.1115 24.5808 60.9709C24.4402 60.8304 24.3613 60.6397 24.3613 60.4409C24.3613 60.2421 24.4402 60.0515 24.5808 59.9109C24.7214 59.7704 24.912 59.6914 25.1108 59.6914H39.352C39.5508 59.6914 39.7414 59.7704 39.882 59.9109C40.0226 60.0515 40.1015 60.2421 40.1015 60.4409C40.1015 60.6397 40.0226 60.8304 39.882 60.9709C39.7414 61.1115 39.5508 61.1905 39.352 61.1905Z" fill="#FF8CA7"/>
<path d="M39.3533 78.5806H16.4175C16.2187 78.5806 16.0281 78.5016 15.8875 78.3611C15.747 78.2205 15.668 78.0299 15.668 77.8311C15.668 77.6323 15.747 77.4416 15.8875 77.3011C16.0281 77.1605 16.2187 77.0815 16.4175 77.0815H39.3533C39.5521 77.0815 39.7428 77.1605 39.8833 77.3011C40.0239 77.4416 40.1029 77.6323 40.1029 77.8311C40.1029 78.0299 40.0239 78.2205 39.8833 78.3611C39.7428 78.5016 39.5521 78.5806 39.3533 78.5806Z" fill="#FF8CA7"/>
<path d="M130.159 43.7256H124.65C124.451 43.7256 124.26 43.6466 124.12 43.5061C123.979 43.3655 123.9 43.1749 123.9 42.9761C123.9 42.7773 123.979 42.5867 124.12 42.4461C124.26 42.3055 124.451 42.2266 124.65 42.2266H130.159C130.358 42.2266 130.548 42.3055 130.689 42.4461C130.83 42.5867 130.909 42.7773 130.909 42.9761C130.909 43.1749 130.83 43.3655 130.689 43.5061C130.548 43.6466 130.358 43.7256 130.159 43.7256Z" fill="#FF8CA7"/>
<path d="M138.854 61.1905H124.65C124.451 61.1905 124.26 61.1115 124.12 60.9709C123.979 60.8304 123.9 60.6397 123.9 60.4409C123.9 60.2421 123.979 60.0515 124.12 59.9109C124.26 59.7704 124.451 59.6914 124.65 59.6914H138.854C139.052 59.6914 139.243 59.7704 139.384 59.9109C139.524 60.0515 139.603 60.2421 139.603 60.4409C139.603 60.6397 139.524 60.8304 139.384 60.9709C139.243 61.1115 139.052 61.1905 138.854 61.1905Z" fill="#FF8CA7"/>
<path d="M147.586 78.5806H124.65C124.451 78.5806 124.26 78.5016 124.12 78.3611C123.979 78.2205 123.9 78.0299 123.9 77.8311C123.9 77.6323 123.979 77.4416 124.12 77.3011C124.26 77.1605 124.451 77.0815 124.65 77.0815H147.586C147.785 77.0815 147.975 77.1605 148.116 77.3011C148.256 77.4416 148.335 77.6323 148.335 77.8311C148.335 78.0299 148.256 78.2205 148.116 78.3611C147.975 78.5016 147.785 78.5806 147.586 78.5806Z" fill="#FF8CA7"/>
<path d="M66.4125 78.5798C65.7009 78.5751 65.0078 78.3528 64.4263 77.9427C63.8527 77.527 63.4246 76.9412 63.2026 76.2686C62.9806 75.5959 62.976 74.8704 63.1895 74.195L68.1739 58.9044C68.2416 58.7052 68.2454 58.4899 68.185 58.2884C68.1245 58.0869 68.0028 57.9092 67.8367 57.7801L54.7947 48.3359C54.2152 47.918 53.7833 47.327 53.5614 46.6478C53.3395 45.9687 53.3389 45.2366 53.5599 44.5571C53.7808 43.8777 54.2118 43.2859 54.7907 42.8672C55.3696 42.4485 56.0665 42.2244 56.781 42.2272H72.8586C73.0676 42.2356 73.2735 42.1737 73.4433 42.0514C73.6131 41.9291 73.7371 41.7535 73.7955 41.5526L78.7799 26.1122C79.002 25.4336 79.4338 24.843 80.013 24.4255C80.5921 24.0079 81.2889 23.7849 82.0029 23.7886C82.7119 23.7871 83.4029 24.0115 83.9758 24.4293C84.5486 24.8471 84.9733 25.4366 85.1884 26.1122L90.1728 41.4402C90.2313 41.6411 90.3553 41.8167 90.5251 41.939C90.6949 42.0612 90.9007 42.1231 91.1098 42.1148H107.224C107.936 42.1198 108.627 42.3496 109.2 42.7712C109.773 43.1929 110.198 43.7848 110.414 44.4625C110.63 45.1401 110.626 45.8688 110.404 46.5443C110.181 47.2197 109.75 47.8075 109.173 48.2235L96.1691 57.6677C96.0046 57.7987 95.8815 57.9747 95.815 58.1743C95.7485 58.3738 95.7413 58.5884 95.7944 58.792L100.778 74.0825C100.992 74.758 100.987 75.4835 100.765 76.1561C100.543 76.8288 100.115 77.4145 99.5421 77.8302C98.9709 78.2475 98.2819 78.4724 97.5745 78.4724C96.8672 78.4724 96.1782 78.2475 95.607 77.8302L82.5651 68.3486C82.3912 68.2387 82.1898 68.1803 81.9842 68.1803C81.7785 68.1803 81.5771 68.2387 81.4033 68.3486L68.3988 77.8302C67.8228 78.2663 67.133 78.5266 66.4125 78.5798ZM56.781 43.6888C56.3803 43.6864 55.9894 43.8124 55.6656 44.0485C55.3419 44.2846 55.1023 44.6182 54.9821 45.0005C54.8612 45.3712 54.8613 45.7707 54.9826 46.1413C55.1039 46.5119 55.34 46.8343 55.6567 47.0617L68.6986 56.5434C69.123 56.8508 69.4387 57.285 69.6004 57.7834C69.762 58.2818 69.7612 58.8187 69.5981 59.3167L64.6137 74.8321C64.5015 75.2065 64.5093 75.6066 64.6359 75.9764C64.7625 76.3462 65.0016 76.6672 65.3196 76.8943C65.6377 77.1215 66.0188 77.2436 66.4097 77.2434C66.8005 77.2432 67.1815 77.1208 67.4994 76.8933L80.5413 67.3367C80.9653 67.0261 81.4773 66.8587 82.0029 66.8587C82.5285 66.8587 83.0405 67.0261 83.4645 67.3367L96.469 76.7809C96.7868 77.0084 97.1678 77.1308 97.5587 77.131C97.9495 77.1312 98.3307 77.0091 98.6487 76.7819C98.9668 76.5547 99.2058 76.2338 99.3324 75.864C99.459 75.4942 99.4668 75.0941 99.3547 74.7196L94.3702 59.3916C94.2071 58.8937 94.2063 58.3568 94.3679 57.8584C94.5296 57.36 94.8454 56.9257 95.2697 56.6183L108.311 47.1367C108.633 46.9133 108.872 46.5911 108.994 46.2192C109.116 45.8472 109.113 45.4456 108.986 45.0755C108.878 44.693 108.647 44.3569 108.328 44.1196C108.01 43.8823 107.622 43.7572 107.224 43.7638H91.1098C90.5827 43.7706 90.0676 43.6062 89.6419 43.2953C89.2162 42.9845 88.9028 42.544 88.7487 42.0398L83.7643 26.7493C83.6568 26.3668 83.4256 26.0308 83.107 25.7935C82.7884 25.5562 82.4001 25.4311 82.0029 25.4376C81.6008 25.4291 81.207 25.5528 80.882 25.7898C80.557 26.0267 80.3188 26.3638 80.204 26.7493L75.2196 42.0398C75.0656 42.544 74.7522 42.9845 74.3264 43.2953C73.9007 43.6062 73.3856 43.7706 72.8586 43.7638L56.781 43.6888Z" fill="#FF8CA7"/>
<path d="M14.8809 119.804H33.6193M14.8809 119.804V97.3184H29.8716C31.9414 97.3184 33.6193 98.9963 33.6193 101.066V119.804H14.8809ZM14.8809 119.804V142.291H33.6193C35.6891 142.291 37.367 140.613 37.367 138.543V123.552C37.367 121.482 35.6891 119.804 33.6193 119.804H14.8809Z" stroke="#FF003E" stroke-width="5.62152"/>
<path d="M61.727 97.3184H50.484C48.4142 97.3184 46.7363 98.9963 46.7363 101.066V138.543C46.7363 140.613 48.4142 142.291 50.484 142.291H61.727C63.7968 142.291 65.4747 140.613 65.4747 138.543V101.066C65.4747 98.9963 63.7968 97.3184 61.727 97.3184Z" stroke="#FF003E" stroke-width="5.62152"/>
<path d="M74.8438 142.291V97.3184L93.5822 142.291V97.3184" stroke="#FF003E" stroke-width="5.62152" stroke-linecap="round" stroke-linejoin="round"/>
<path d="M102.951 97.3184V138.543C102.951 140.613 104.629 142.291 106.699 142.291H117.942C120.012 142.291 121.69 140.613 121.69 138.543V97.3184" stroke="#FF003E" stroke-width="5.62152" stroke-linecap="round"/>
<path d="M149.798 97.3184H134.807C132.737 97.3184 131.059 98.9963 131.059 101.066V116.057C131.059 118.127 132.737 119.804 134.807 119.804H146.05C148.12 119.804 149.798 121.482 149.798 123.552V138.543C149.798 140.613 148.12 142.291 146.05 142.291H131.059" stroke="#FF003E" stroke-width="5.62152" stroke-linecap="round" stroke-linejoin="round"/>
<path d="M14.8809 119.804H33.6193M14.8809 119.804V97.3184H29.8716C31.9414 97.3184 33.6193 98.9963 33.6193 101.066V119.804H14.8809ZM14.8809 119.804V142.291H33.6193C35.6891 142.291 37.367 140.613 37.367 138.543V123.552C37.367 121.482 35.6891 119.804 33.6193 119.804H14.8809Z" stroke="#FF406E" stroke-width="2.99815"/>
<path d="M61.727 97.3184H50.484C48.4142 97.3184 46.7363 98.9963 46.7363 101.066V138.543C46.7363 140.613 48.4142 142.291 50.484 142.291H61.727C63.7968 142.291 65.4747 140.613 65.4747 138.543V101.066C65.4747 98.9963 63.7968 97.3184 61.727 97.3184Z" stroke="#FF406E" stroke-width="2.99815"/>
<path d="M74.8438 142.291V97.3184L93.5822 142.291V97.3184" stroke="#FF406E" stroke-width="2.99815" stroke-linecap="round" stroke-linejoin="round"/>
<path d="M102.951 97.3184V138.543C102.951 140.613 104.629 142.291 106.699 142.291H117.942C120.012 142.291 121.69 140.613 121.69 138.543V97.3184" stroke="#FF406E" stroke-width="2.99815" stroke-linecap="round"/>
<path d="M149.798 97.3184H134.807C132.737 97.3184 131.059 98.9963 131.059 101.066V116.057C131.059 118.127 132.737 119.804 134.807 119.804H146.05C148.12 119.804 149.798 121.482 149.798 123.552V138.543C149.798 140.613 148.12 142.291 146.05 142.291H131.059" stroke="#FF406E" stroke-width="2.99815" stroke-linecap="round" stroke-linejoin="round"/>
<path d="M14.8809 119.804H33.6193M14.8809 119.804V97.3184H29.8716C31.9414 97.3184 33.6193 98.9963 33.6193 101.066V119.804H14.8809ZM14.8809 119.804V142.291H33.6193C35.6891 142.291 37.367 140.613 37.367 138.543V123.552C37.367 121.482 35.6891 119.804 33.6193 119.804H14.8809Z" stroke="#FF8CA7" stroke-width="1.1243"/>
<path d="M61.727 97.3184H50.484C48.4142 97.3184 46.7363 98.9963 46.7363 101.066V138.543C46.7363 140.613 48.4142 142.291 50.484 142.291H61.727C63.7968 142.291 65.4747 140.613 65.4747 138.543V101.066C65.4747 98.9963 63.7968 97.3184 61.727 97.3184Z" stroke="#FF8CA7" stroke-width="1.1243"/>
<path d="M74.8438 142.291V97.3184L93.5822 142.291V97.3184" stroke="#FF8CA7" stroke-width="1.1243" stroke-linecap="round" stroke-linejoin="round"/>
<path d="M102.951 97.3184V138.543C102.951 140.613 104.629 142.291 106.699 142.291H117.942C120.012 142.291 121.69 140.613 121.69 138.543V97.3184" stroke="#FF8CA7" stroke-width="1.1243" stroke-linecap="round"/>
<path d="M149.798 97.3184H134.807C132.737 97.3184 131.059 98.9963 131.059 101.066V116.057C131.059 118.127 132.737 119.804 134.807 119.804H146.05C148.12 119.804 149.798 121.482 149.798 123.552V138.543C149.798 140.613 148.12 142.291 146.05 142.291H131.059" stroke="#FF8CA7" stroke-width="1.1243" stroke-linecap="round" stroke-linejoin="round"/>
</g>
</g>
<defs>
<filter id="filter0_d_262_11791" x="4.57495" y="13.9563" width="163.023" height="146.136" filterUnits="userSpaceOnUse" color-interpolation-filters="sRGB">
<feFlood flood-opacity="0" result="BackgroundImageFix"/>
<feColorMatrix in="SourceAlpha" type="matrix" values="0 0 0 0 0 0 0 0 0 0 0 0 0 0 0 0 0 0 127 0" result="hardAlpha"/>
<feOffset dx="3.74768" dy="3.74768"/>
<feGaussianBlur stdDeviation="5.62152"/>
<feColorMatrix type="matrix" values="0 0 0 0 1 0 0 0 0 0 0 0 0 0 0.243137 0 0 0 1 0"/>
<feBlend mode="normal" in2="BackgroundImageFix" result="effect1_dropShadow_262_11791"/>
<feBlend mode="normal" in="SourceGraphic" in2="effect1_dropShadow_262_11791" result="shape"/>
</filter>
<clipPath id="clip0_262_11791">
<rect width="164" height="164" fill="white"/>
</clipPath>
</defs>
</svg>
