<svg width="164" height="164" viewBox="0 0 164 164" fill="none" xmlns="http://www.w3.org/2000/svg">
<g opacity="0.6">
<path opacity="0.6" d="M84.0519 151.003C80.2883 151.011 76.6571 149.614 73.8685 147.087C72.3496 145.738 71.1502 144.069 70.3575 142.199C69.5649 140.329 69.1988 138.306 69.286 136.277C69.2479 134.349 69.6112 132.434 70.3529 130.654C71.0946 128.874 72.1985 127.267 73.5944 125.937C74.9681 124.574 76.6016 123.5 78.398 122.78C80.1943 122.06 82.117 121.709 84.0519 121.746C85.9656 121.719 87.8651 122.077 89.6379 122.799C91.4106 123.52 93.0205 124.59 94.372 125.945C95.7235 127.3 96.7891 128.913 97.5057 130.688C98.2223 132.463 98.5752 134.363 98.5435 136.277C98.6337 138.284 98.2803 140.286 97.5086 142.141C96.7368 143.996 95.5657 145.658 94.0785 147.008C91.3581 149.554 87.7777 150.981 84.0519 151.003ZM84.0519 128.561C82.9817 128.523 81.9151 128.705 80.9181 129.096C79.9211 129.487 79.0148 130.078 78.2552 130.832C77.4987 131.552 76.9021 132.422 76.504 133.387C76.1059 134.352 75.9152 135.39 75.9444 136.433C75.8659 137.502 76.0294 138.575 76.4227 139.572C76.816 140.568 77.429 141.464 78.216 142.191C79.8212 143.617 81.9049 144.386 84.0519 144.345C86.1242 144.362 88.1257 143.592 89.6527 142.191C90.4282 141.457 91.0308 140.559 91.4169 139.563C91.803 138.568 91.963 137.498 91.8852 136.433C91.8852 134.356 91.0599 132.363 89.5909 130.894C88.1219 129.425 86.1294 128.6 84.0519 128.6V128.561Z" fill="black"/>
<path opacity="0.6" d="M83.1484 115.988C79.651 116.055 76.2701 114.73 73.7484 112.306C72.3972 110.912 71.351 109.252 70.6767 107.431C70.0024 105.61 69.7146 103.669 69.8318 101.731C69.5573 93.2963 72.6424 85.0976 78.4093 78.9361C80.7984 76.3511 84.0492 73.2569 88.0442 69.7319C91.4517 66.7552 93.9193 64.4836 95.4076 63.0344C96.7035 61.7088 97.8225 60.2212 98.7368 58.6086C99.5059 57.2194 99.8975 55.6529 99.8726 54.0653C99.9007 52.4642 99.5828 50.8761 98.9406 49.4092C98.2985 47.9424 97.3472 46.6315 96.1518 45.5661C93.14 43.2913 89.4686 42.0605 85.6943 42.0605C81.9199 42.0605 78.2486 43.2913 75.2368 45.5661C72.3153 49.085 70.1429 53.1633 68.8526 57.5511C65.9934 67.0294 59.8835 69.0269 55.2226 69.0269C53.3487 69.0603 51.4886 68.7011 49.7618 67.9726C48.035 67.2441 46.4797 66.1624 45.196 64.7969C43.9614 63.594 42.9791 62.1569 42.3066 60.5697C41.6341 58.9826 41.2849 57.2773 41.2793 55.5536C41.4194 49.372 43.3069 43.3563 46.7235 38.2028C50.6319 32.1816 56.0282 27.2711 62.3901 23.9461C69.6656 20.0711 77.8046 18.1037 86.0468 18.2278C93.6933 18.0875 101.272 19.681 108.215 22.8886C114.384 25.7347 119.654 30.2188 123.451 35.8528C127.025 41.1941 128.921 47.4818 128.895 53.9086C128.988 58.6576 127.898 63.3551 125.723 67.5778C123.794 71.1636 121.353 74.449 118.477 77.3303C115.853 79.8761 111.192 84.1844 104.533 90.0986C102.849 91.6653 101.439 93.0753 100.421 94.0153C99.6395 94.8767 98.9563 95.8226 98.3842 96.8353C97.9678 97.651 97.6269 98.5032 97.3659 99.3811C97.0918 100.36 96.661 102.162 96.1126 104.708C95.852 107.908 94.35 110.88 91.9275 112.988C89.505 115.095 86.3542 116.172 83.1484 115.988ZM86.0468 35.5002C91.4462 35.316 96.7082 37.2243 100.734 40.8269C102.613 42.5106 104.11 44.5772 105.123 46.8878C106.137 49.1983 106.643 51.6991 106.609 54.2219C106.64 56.9628 105.951 59.6638 104.612 62.0553C103.425 64.2154 101.935 66.194 100.186 67.9303C98.5801 69.5361 96.2693 71.8469 92.3526 74.9411C89.154 77.6704 86.1075 80.5731 83.2268 83.6361C81.1166 85.931 79.4322 88.5836 78.2526 91.4694C76.9583 94.8142 76.3329 98.3805 76.4117 101.966C76.3219 103 76.4385 104.041 76.7545 105.03C77.0705 106.018 77.5797 106.934 78.2526 107.724C78.8816 108.34 79.6299 108.821 80.4516 109.137C81.2733 109.454 82.1511 109.599 83.0309 109.564C86.9476 109.564 88.6709 107.919 89.4151 103.885C90.0026 101.144 90.4726 99.3028 90.786 98.1669C91.6183 95.2414 93.1354 92.5562 95.2118 90.3336C96.6736 88.6785 98.2298 87.1093 99.8726 85.6336C106.453 79.7194 111.074 75.4894 113.62 73.0219C116.028 70.6242 118.061 67.8779 119.652 64.8753C121.316 61.632 122.137 58.0224 122.041 54.3786C122.242 49.0759 120.777 43.8434 117.85 39.4169C114.726 34.7805 110.372 31.1053 105.278 28.8028C99.2334 26.0558 92.6446 24.7166 86.0076 24.8861C78.8728 24.7204 71.8122 26.3643 65.4843 29.6644C60.1473 32.3809 55.6012 36.4279 52.2851 41.4144C49.5096 45.5033 47.9604 50.3003 47.8201 55.2403C47.8519 56.1193 48.0628 56.9827 48.44 57.7774C48.8171 58.5721 49.3526 59.2814 50.0134 59.8619C50.6834 60.5779 51.4976 61.1436 52.4023 61.5217C53.307 61.8997 54.2816 62.0816 55.2618 62.0553C57.7293 62.0553 60.7451 61.2719 62.5468 55.2794C64.0858 49.9537 66.7579 45.0236 70.3801 40.8269C72.4788 38.9003 74.9555 37.4317 77.6528 36.5147C80.35 35.5976 83.2087 35.2521 86.0468 35.5002Z" fill="black"/>
<path opacity="0.6" d="M84.0497 149.632C80.6328 149.688 77.3198 148.458 74.7671 146.186C73.401 144.967 72.3233 143.46 71.612 141.773C70.9006 140.086 70.5737 138.262 70.6547 136.433C70.6237 134.687 70.9558 132.953 71.63 131.342C72.3042 129.73 73.3058 128.276 74.5713 127.072C75.8059 125.815 77.2819 124.82 78.9106 124.147C80.5394 123.473 82.2874 123.136 84.0497 123.156C85.7819 123.135 87.5007 123.461 89.1048 124.115C90.7088 124.77 92.1654 125.739 93.3885 126.966C94.6116 128.192 95.5765 129.652 96.2261 131.258C96.8756 132.864 97.1967 134.584 97.1705 136.316C97.2728 138.123 96.9748 139.931 96.2978 141.61C95.6207 143.289 94.5813 144.798 93.2538 146.029C90.7616 148.367 87.4664 149.657 84.0497 149.632ZM84.0497 127.19C82.8047 127.153 81.5653 127.37 80.407 127.828C79.2487 128.286 78.196 128.975 77.313 129.853C76.421 130.697 75.716 131.719 75.2437 132.852C74.7715 133.986 74.5424 135.206 74.5713 136.433C74.4895 137.702 74.6933 138.973 75.1678 140.152C75.6423 141.332 76.3754 142.39 77.313 143.248C79.1695 144.887 81.5741 145.767 84.0497 145.716C86.4565 145.736 88.7809 144.84 90.5513 143.209C91.4787 142.353 92.2027 141.3 92.6704 140.127C93.138 138.955 93.3373 137.693 93.2538 136.433C93.2803 135.215 93.0607 134.005 92.608 132.874C92.1554 131.743 91.4791 130.715 90.6196 129.852C89.7601 128.989 88.7351 128.308 87.6062 127.851C86.4772 127.393 85.2676 127.169 84.0497 127.19Z" fill="black"/>
<path opacity="0.6" d="M83.1511 114.616C81.5997 114.651 80.0569 114.378 78.6116 113.813C77.1663 113.249 75.8471 112.403 74.7303 111.326C73.5204 110.052 72.5863 108.543 71.9865 106.892C71.3867 105.24 71.1341 103.483 71.2444 101.73C71.1532 97.4331 71.9119 93.1604 73.4769 89.1576C74.9164 85.7251 76.9444 82.5705 79.4694 79.8359C81.8195 77.2901 85.0311 74.2351 88.9869 70.7492C92.9428 67.2634 94.9011 65.5009 96.3894 63.9734C97.7959 62.5851 98.9962 61.0023 99.9536 59.2734C100.845 57.6834 101.304 55.8872 101.285 54.0642C101.318 52.2688 100.961 50.4875 100.237 48.844C99.5143 47.2005 98.4416 45.7341 97.0944 44.5467C94.0482 41.8519 90.0733 40.4474 86.0103 40.6301C83.8873 40.4335 81.7466 40.6802 79.7239 41.3544C77.7013 42.0287 75.8408 43.1157 74.2603 44.5467C71.1824 48.1998 68.9011 52.4554 67.5627 57.0409C67.0251 59.945 65.5062 62.5763 63.2602 64.4942C61.0143 66.4122 58.1777 67.5004 55.2253 67.5767C53.5286 67.5833 51.8489 67.2387 50.2918 66.5647C48.7348 65.8906 47.3341 64.9017 46.1778 63.6601C45.0438 62.5896 44.1343 61.3041 43.5022 59.8785C42.8701 58.453 42.5281 56.9158 42.4961 55.3567C42.6337 49.423 44.4537 43.6504 47.7444 38.7109C51.5163 32.889 56.7405 28.1508 62.9019 24.9634C70.0381 21.2414 78.0035 19.3949 86.0494 19.5976C93.494 19.4606 100.872 21.014 107.63 24.1409C113.584 26.8718 118.667 31.1958 122.317 36.6351C125.742 41.7421 127.556 47.7587 127.526 53.9076C127.608 58.4243 126.572 62.8911 124.511 66.9109C122.616 70.3933 120.213 73.5744 117.382 76.3501C114.797 78.8567 110.136 83.1651 103.517 89.0792C102.018 90.4101 100.593 91.8223 99.2486 93.3092C98.4135 94.2629 97.6786 95.2997 97.0552 96.4034C96.5888 97.301 96.2211 98.2465 95.9586 99.2234C95.6452 100.203 95.2144 102.043 94.6269 104.628C94.3964 107.462 93.0669 110.093 90.9226 111.959C88.7783 113.825 85.9891 114.779 83.1511 114.616ZM86.0494 36.7134C91.1022 36.5347 96.0283 38.317 99.7969 41.6876C101.543 43.2357 102.934 45.1434 103.874 47.2798C104.813 49.4162 105.28 51.7306 105.241 54.0642C105.263 56.5557 104.642 59.0108 103.439 61.1926C102.285 63.2621 100.848 65.1604 99.1703 66.8326C97.6036 68.3992 95.2536 70.7492 91.5719 73.7651C87.8903 76.7809 84.6003 80.1492 82.3286 82.5776C80.1304 84.9833 78.3677 87.7532 77.1194 90.7634C75.72 94.2729 75.0535 98.0317 75.1611 101.808C75.0552 103.033 75.2022 104.267 75.5929 105.432C75.9837 106.598 76.61 107.671 77.4328 108.584C78.1897 109.315 79.0862 109.886 80.0687 110.263C81.0512 110.64 82.0995 110.815 83.1511 110.778C84.1199 110.88 85.0996 110.782 86.0289 110.49C86.9582 110.197 87.8171 109.716 88.5522 109.076C89.2873 108.437 89.8826 107.653 90.3011 106.773C90.7195 105.893 90.9522 104.936 90.9844 103.963C91.5719 101.26 92.0419 99.3801 92.3161 98.3226C92.677 97.1068 93.149 95.9268 93.7261 94.7976C94.4739 93.3833 95.3948 92.0676 96.4678 90.8809C97.9051 89.2658 99.4352 87.7357 101.05 86.2984C107.63 80.3842 112.251 76.1542 114.797 73.6476C117.317 71.1647 119.444 68.3119 121.103 65.1876C122.859 61.7335 123.734 57.8989 123.649 54.0251C123.664 48.6413 122.068 43.3762 119.066 38.9067C115.8 34.018 111.246 30.1277 105.906 27.6659C99.6819 24.8133 92.8959 23.3945 86.0494 23.5142C78.6792 23.3523 71.3885 25.0638 64.8602 28.4884C59.2963 31.3575 54.5727 35.6222 51.1519 40.8651C48.2474 45.1812 46.6309 50.2346 46.4911 55.4351C46.5257 56.4883 46.7725 57.5238 47.2167 58.4794C47.6608 59.435 48.2932 60.2912 49.0761 60.9967C49.8706 61.8482 50.8361 62.5222 51.9093 62.9745C52.9826 63.4267 54.1392 63.647 55.3036 63.6209C59.5727 63.6209 62.3144 61.1534 63.8811 55.7876C65.3929 50.6602 67.9686 45.9091 71.4403 41.8442C73.3813 40.0152 75.6844 38.6135 78.2008 37.7297C80.7172 36.846 83.3909 36.4997 86.0494 36.7134Z" fill="black"/>
<path opacity="0.6" d="M84.0495 148.457C80.9152 148.496 77.8761 147.381 75.5111 145.324C74.2798 144.205 73.3111 142.828 72.6746 141.291C72.0381 139.754 71.7495 138.095 71.8294 136.433C71.8147 134.843 72.1231 133.266 72.7357 131.798C73.3484 130.331 74.2526 129.003 75.3936 127.895C76.5346 126.773 77.8879 125.891 79.3742 125.299C80.8605 124.707 82.4499 124.418 84.0495 124.448C85.6249 124.423 87.1891 124.716 88.6492 125.308C90.1093 125.9 91.4354 126.78 92.5486 127.895C93.6684 129.012 94.5509 130.345 95.1431 131.812C95.7354 133.279 96.0252 134.851 95.9953 136.433C96.0743 138.085 95.7889 139.735 95.1595 141.264C94.53 142.794 93.5718 144.167 92.3528 145.285C90.0834 147.35 87.1181 148.483 84.0495 148.457ZM84.0495 126.015C82.6504 125.975 81.2581 126.222 79.9581 126.741C78.6581 127.26 77.478 128.039 76.4903 129.03C75.481 129.976 74.6835 131.124 74.1502 132.4C73.6169 133.676 73.3599 135.051 73.3961 136.433C73.2949 137.894 73.528 139.359 74.0777 140.716C74.6274 142.073 75.4793 143.288 76.5686 144.266C78.6343 146.079 81.3016 147.057 84.0495 147.008C86.7392 147.02 89.3367 146.028 91.3345 144.227C92.4028 143.236 93.2353 142.017 93.7707 140.662C94.3062 139.306 94.531 137.848 94.4286 136.394C94.4551 135.022 94.205 133.658 93.6932 132.385C93.1815 131.111 92.4186 129.954 91.45 128.982C90.4814 128.01 89.327 127.242 88.0555 126.726C86.7841 126.209 85.4217 125.954 84.0495 125.975V126.015Z" fill="black"/>
<path opacity="0.6" d="M83.1498 113.441C81.7427 113.478 80.3424 113.234 79.031 112.723C77.7195 112.212 76.5232 111.444 75.5123 110.464C74.4315 109.294 73.5998 107.917 73.0679 106.415C72.536 104.914 72.315 103.32 72.4182 101.73C72.3196 97.5926 73.0521 93.4773 74.5723 89.6278C75.9475 86.3219 77.8967 83.2854 80.3298 80.6586C83.3048 77.4812 86.4561 74.4736 89.769 71.6503C93.2156 68.6344 95.7223 66.3236 97.2498 64.8353C98.7655 63.354 100.082 61.6819 101.166 59.8611C102.14 58.086 102.64 56.0892 102.615 54.0644C102.615 52.0882 102.184 50.1357 101.352 48.3431C100.52 46.5506 99.3075 44.961 97.7982 43.6853C94.568 40.8179 90.3656 39.291 86.0482 39.4161C83.774 39.2146 81.4828 39.4865 79.319 40.2145C77.1551 40.9425 75.1655 42.1109 73.4756 43.6461C70.2723 47.4543 67.8859 51.8803 66.4648 56.6494C64.5457 63.0728 60.7857 66.3628 55.2632 66.3628C53.7345 66.3861 52.2176 66.0918 50.8085 65.4985C49.3994 64.9052 48.1289 64.0259 47.0773 62.9161C46.0441 61.9578 45.2137 60.802 44.6351 59.517C44.0565 58.2321 43.7416 56.8441 43.709 55.4353C43.8591 49.7276 45.6098 44.177 48.7615 39.4161C52.4507 33.7808 57.5204 29.1831 63.4882 26.0603C70.4438 22.4284 78.2031 20.6098 86.0482 20.7728C93.3165 20.634 100.521 22.1473 107.119 25.1986C112.859 27.8482 117.763 32.0205 121.298 37.2619C124.577 42.1932 126.322 47.9856 126.311 53.9078C126.41 58.2328 125.428 62.5141 123.452 66.3628C121.645 69.7254 119.348 72.801 116.637 75.4886C114.091 78.0344 109.43 82.3036 102.811 88.2178C101.284 89.5868 99.833 91.0381 98.464 92.5653C97.5351 93.5736 96.7327 94.6916 96.0748 95.8944C95.5755 96.8544 95.1815 97.8655 94.8998 98.9103C94.5865 99.9286 94.1556 101.769 93.5681 104.394C93.4787 105.672 93.1382 106.92 92.5662 108.067C91.9941 109.214 91.2016 110.236 90.234 111.076C89.2664 111.917 88.1428 112.558 86.9272 112.964C85.7117 113.37 84.4281 113.532 83.1498 113.441ZM86.0482 37.8886C90.8086 37.7139 95.4528 39.3835 99.0123 42.5494C100.631 43.9938 101.92 45.7698 102.792 47.7567C103.664 49.7436 104.098 51.8949 104.064 54.0644C104.087 56.3548 103.506 58.6107 102.38 60.6053C101.326 62.5529 100.008 64.3455 98.464 65.9319C96.8973 67.4594 94.5473 69.8486 90.9048 72.8253C87.6502 75.6303 84.539 78.5977 81.5832 81.7161C79.2453 84.2454 77.3636 87.1608 76.0215 90.3328C74.5778 93.9958 73.8851 97.9117 73.9848 101.848C73.872 103.227 74.047 104.615 74.4987 105.923C74.9505 107.231 75.669 108.43 76.609 109.446C77.4721 110.288 78.4962 110.948 79.62 111.385C80.7439 111.823 81.9444 112.029 83.1498 111.992C84.2501 112.072 85.3552 111.931 86.4006 111.579C87.4461 111.227 88.4108 110.67 89.2386 109.94C90.0663 109.211 90.7404 108.324 91.2215 107.332C91.7026 106.339 91.9811 105.26 92.0406 104.159C92.6282 101.456 93.0981 99.6153 93.3723 98.5578C93.7135 97.4097 94.1593 96.2953 94.704 95.2286C95.4081 93.91 96.2766 92.686 97.289 91.5861C98.672 89.9845 100.149 88.4673 101.714 87.0428C108.333 81.1286 112.955 76.8986 115.501 74.3919C118.099 71.8128 120.291 68.8547 122.003 65.6186C123.872 61.9897 124.801 57.9497 124.705 53.8686C124.688 48.2958 123.041 42.8498 119.966 38.2019C116.561 33.2044 111.864 29.2245 106.375 26.6869C100.009 23.7387 93.0635 22.2532 86.0482 22.3394C78.4766 22.1789 70.9869 23.9301 64.2715 27.4311C58.5412 30.4391 53.6742 34.8611 50.1323 40.2778C47.1369 44.7785 45.4675 50.031 45.3148 55.4353C45.34 56.6403 45.6098 57.8276 46.1081 58.9251C46.6063 60.0226 47.3225 61.0073 48.2131 61.8194C49.1213 62.7833 50.2213 63.5462 51.4423 64.0589C52.6634 64.5716 53.9783 64.8227 55.3023 64.7961C60.1198 64.7961 63.1357 61.9761 65.0157 56.1794C66.4731 51.1958 68.9692 46.5773 72.3398 42.6278C74.173 40.933 76.3377 39.6369 78.6972 38.8212C81.0567 38.0055 83.5597 37.6879 86.0482 37.8886Z" fill="black"/>
</g>
<g filter="url(#filter0_d_262_11945)">
<path d="M80.1359 147.086C76.3723 147.094 72.7411 145.697 69.9525 143.17C68.4336 141.821 67.2342 140.152 66.4415 138.282C65.6489 136.412 65.2828 134.389 65.37 132.36C65.3319 130.432 65.6952 128.517 66.4369 126.737C67.1786 124.957 68.2825 123.35 69.6784 122.02C71.0521 120.657 72.6856 119.583 74.482 118.863C76.2783 118.143 78.201 117.792 80.1359 117.829C82.0496 117.802 83.9491 118.16 85.7219 118.882C87.4946 119.603 89.1045 120.673 90.456 122.028C91.8075 123.383 92.8731 124.996 93.5897 126.771C94.3063 128.546 94.6592 130.446 94.6276 132.36C94.7177 134.367 94.3643 136.369 93.5926 138.224C92.8208 140.079 91.6497 141.741 90.1626 143.091C87.4421 145.637 83.8618 147.064 80.1359 147.086ZM80.1359 124.644C79.0657 124.606 77.9991 124.788 77.0021 125.179C76.0051 125.57 75.0988 126.161 74.3392 126.916C73.5827 127.635 72.9861 128.505 72.588 129.47C72.1899 130.435 71.9992 131.473 72.0284 132.516C71.9499 133.585 72.1134 134.658 72.5067 135.655C72.9 136.651 73.513 137.547 74.3 138.274C75.9052 139.7 77.9889 140.469 80.1359 140.428C82.2082 140.445 84.2097 139.675 85.7367 138.274C86.5122 137.54 87.1148 136.642 87.5009 135.646C87.887 134.651 88.047 133.581 87.9692 132.516C87.9692 130.439 87.1439 128.446 85.6749 126.977C84.2059 125.508 82.2134 124.683 80.1359 124.683V124.644Z" fill="#BF00FF"/>
<path d="M79.2324 112.071C75.735 112.138 72.3541 110.813 69.8324 108.389C68.4812 106.995 67.435 105.335 66.7607 103.514C66.0864 101.693 65.7986 99.7521 65.9158 97.8141C65.6413 89.3793 68.7264 81.1806 74.4933 75.0191C76.8824 72.4341 80.1332 69.3399 84.1282 65.8149C87.5357 62.8383 90.0033 60.5666 91.4916 59.1174C92.7875 57.7918 93.9065 56.3042 94.8208 54.6916C95.5899 53.3024 95.9814 51.7359 95.9566 50.1483C95.9847 48.5473 95.6668 46.9591 95.0246 45.4922C94.3825 44.0254 93.4312 42.7145 92.2358 41.6491C89.224 39.3743 85.5526 38.1436 81.7783 38.1436C78.0039 38.1436 74.3326 39.3743 71.3208 41.6491C68.3993 45.168 66.2269 49.2463 64.9366 53.6341C62.0774 63.1124 55.9674 65.1099 51.3066 65.1099C49.4327 65.1433 47.5726 64.7841 45.8458 64.0556C44.119 63.3271 42.5637 62.2454 41.28 60.8799C40.0454 59.677 39.0631 58.2399 38.3906 56.6528C37.7181 55.0656 37.3688 53.3603 37.3633 51.6366C37.5034 45.455 39.3909 39.4393 42.8075 34.2858C46.7159 28.2646 52.1122 23.3541 58.4741 20.0291C65.7496 16.1541 73.8886 14.1867 82.1308 14.3108C89.7773 14.1705 97.3564 15.764 104.299 18.9716C110.468 21.8177 115.738 26.3019 119.534 31.9358C123.109 37.2771 125.004 43.5648 124.979 49.9916C125.071 54.7406 123.981 59.4381 121.806 63.6608C119.878 67.2466 117.437 70.532 114.56 73.4133C111.936 75.9591 107.275 80.2674 100.617 86.1816C98.9333 87.7483 97.5233 89.1583 96.5049 90.0983C95.7235 90.9597 95.0403 91.9056 94.4682 92.9183C94.0518 93.734 93.7109 94.5862 93.4499 95.4641C93.1758 96.4433 92.745 98.2449 92.1966 100.791C91.936 103.991 90.434 106.963 88.0115 109.071C85.589 111.178 82.4382 112.255 79.2324 112.071ZM82.1308 31.5833C87.5302 31.399 92.7922 33.3073 96.8183 36.9099C98.6973 38.5936 100.193 40.6602 101.207 42.9708C102.22 45.2813 102.727 47.7821 102.693 50.3049C102.724 53.0458 102.035 55.7469 100.695 58.1383C99.5095 60.2984 98.0189 62.277 96.2699 64.0133C94.6641 65.6191 92.3533 67.9299 88.4366 71.0241C85.238 73.7535 82.1915 76.6562 79.3108 79.7191C77.2006 82.014 75.5161 84.6666 74.3366 87.5524C73.0423 90.8972 72.4169 94.4635 72.4957 98.0491C72.4059 99.0829 72.5225 100.124 72.8385 101.113C73.1545 102.101 73.6637 103.017 74.3366 103.807C74.9656 104.423 75.7139 104.904 76.5356 105.22C77.3573 105.537 78.235 105.682 79.1149 105.647C83.0316 105.647 84.7549 104.002 85.4991 99.9683C86.0866 97.2266 86.5566 95.3858 86.87 94.2499C87.7023 91.3244 89.2194 88.6392 91.2957 86.4166C92.7576 84.7616 94.3138 83.1923 95.9566 81.7166C102.536 75.8024 107.158 71.5724 109.704 69.1049C112.111 66.7072 114.145 63.9609 115.735 60.9583C117.399 57.715 118.221 54.1055 118.124 50.4616C118.326 45.1589 116.86 39.9264 113.934 35.4999C110.809 30.8636 106.456 27.1883 101.361 24.8858C95.3174 22.1388 88.7286 20.7996 82.0916 20.9691C74.9568 20.8034 67.8962 22.4473 61.5683 25.7474C56.2313 28.4639 51.6852 32.5109 48.3691 37.4974C45.5936 41.5863 44.0444 46.3833 43.9041 51.3233C43.9359 52.2023 44.1468 53.0657 44.524 53.8604C44.9011 54.6551 45.4366 55.3644 46.0974 55.9449C46.7674 56.6609 47.5816 57.2266 48.4863 57.6047C49.391 57.9828 50.3656 58.1646 51.3458 58.1383C53.8133 58.1383 56.8291 57.3549 58.6308 51.3624C60.1698 46.0367 62.8419 41.1066 66.4641 36.9099C68.5628 34.9833 71.0395 33.5147 73.7368 32.5977C76.434 31.6806 79.2927 31.3351 82.1308 31.5833Z" fill="#BF00FF"/>
<path d="M80.1336 145.715C76.7168 145.771 73.4038 144.541 70.8511 142.269C69.485 141.05 68.4072 139.543 67.6959 137.856C66.9846 136.169 66.6576 134.345 66.7386 132.516C66.7077 130.77 67.0398 129.036 67.714 127.425C68.3882 125.813 69.3898 124.359 70.6553 123.155C71.8899 121.898 73.3659 120.903 74.9946 120.23C76.6234 119.556 78.3714 119.219 80.1336 119.239C81.8659 119.218 83.5847 119.544 85.1887 120.198C86.7928 120.853 88.2493 121.822 89.4725 123.049C90.6956 124.275 91.6605 125.735 92.3101 127.341C92.9596 128.947 93.2807 130.667 93.2544 132.399C93.3568 134.206 93.0588 136.014 92.3818 137.693C91.7047 139.372 90.6653 140.881 89.3378 142.112C86.8456 144.45 83.5504 145.74 80.1336 145.715ZM80.1336 123.273C78.8887 123.236 77.6492 123.453 76.491 123.911C75.3327 124.369 74.28 125.058 73.397 125.936C72.505 126.78 71.8 127.802 71.3277 128.935C70.8554 130.069 70.6264 131.289 70.6553 132.516C70.5735 133.785 70.7773 135.056 71.2518 136.235C71.7263 137.415 72.4594 138.473 73.397 139.331C75.2535 140.97 77.6581 141.85 80.1336 141.799C82.5405 141.819 84.8649 140.923 86.6353 139.292C87.5627 138.436 88.2867 137.383 88.7544 136.21C89.222 135.038 89.4213 133.776 89.3378 132.516C89.3643 131.298 89.1447 130.088 88.692 128.957C88.2394 127.826 87.5631 126.798 86.7036 125.935C85.8441 125.072 84.8191 124.391 83.6902 123.934C82.5612 123.476 81.3516 123.252 80.1336 123.273Z" fill="#D455FF"/>
<path d="M79.2351 110.7C77.6837 110.735 76.1409 110.462 74.6956 109.897C73.2503 109.333 71.9311 108.487 70.8143 107.41C69.6044 106.136 68.6703 104.627 68.0705 102.976C67.4707 101.324 67.2181 99.5673 67.3284 97.814C67.2372 93.5171 67.9959 89.2444 69.5609 85.2416C71.0003 81.8091 73.0284 78.6545 75.5534 75.9199C77.9034 73.3741 81.1151 70.3191 85.0709 66.8332C89.0267 63.3474 90.9851 61.5849 92.4734 60.0574C93.8799 58.6691 95.0802 57.0863 96.0376 55.3574C96.9296 53.7674 97.3888 51.9712 97.3692 50.1482C97.403 48.3528 97.0456 46.5715 96.3219 44.928C95.5983 43.2845 94.5256 41.8181 93.1784 40.6307C90.1322 37.9359 86.1573 36.5314 82.0943 36.7141C79.9713 36.5175 77.8306 36.7642 75.8079 37.4384C73.7853 38.1126 71.9248 39.1997 70.3443 40.6307C67.2664 44.2838 64.9851 48.5393 63.6467 53.1249C63.1091 56.029 61.5902 58.6602 59.3442 60.5782C57.0983 62.4962 54.2617 63.5844 51.3093 63.6607C49.6126 63.6673 47.9329 63.3227 46.3758 62.6487C44.8188 61.9746 43.4181 60.9857 42.2618 59.7441C41.1278 58.6736 40.2183 57.3881 39.5862 55.9625C38.9541 54.5369 38.6121 52.9998 38.5801 51.4407C38.7177 45.507 40.5377 39.7344 43.8284 34.7949C47.6003 28.973 52.8245 24.2347 58.9859 21.0474C66.1221 17.3254 74.0875 15.4789 82.1334 15.6816C89.578 15.5446 96.9567 17.098 103.714 20.2249C109.668 22.9558 114.751 27.2798 118.402 32.7191C121.826 37.8261 123.641 43.8427 123.611 49.9916C123.692 54.5083 122.656 58.9751 120.595 62.9949C118.7 66.4772 116.298 69.6584 113.467 72.4341C110.882 74.9407 106.221 79.2491 99.6018 85.1632C98.1025 86.4941 96.6772 87.9062 95.3326 89.3932C94.4975 90.3469 93.7626 91.3837 93.1392 92.4874C92.6728 93.3849 92.3051 94.3305 92.0426 95.3074C91.7292 96.2866 91.2984 98.1274 90.7109 100.712C90.4804 103.546 89.1509 106.177 87.0066 108.043C84.8623 109.909 82.0731 110.863 79.2351 110.7ZM82.1334 32.7974C87.1862 32.6186 92.1123 34.401 95.8809 37.7716C97.6275 39.3197 99.0185 41.2274 99.9582 43.3638C100.898 45.5002 101.364 47.8146 101.325 50.1482C101.347 52.6397 100.727 55.0948 99.5234 57.2766C98.3698 59.3461 96.9328 61.2444 95.2543 62.9166C93.6876 64.4832 91.3376 66.8332 87.6559 69.8491C83.9743 72.8649 80.6843 76.2332 78.4126 78.6616C76.2144 81.0673 74.4517 83.8372 73.2034 86.8474C71.804 90.3569 71.1375 94.1157 71.2451 97.8924C71.1391 99.1172 71.2862 100.351 71.6769 101.516C72.0677 102.682 72.694 103.755 73.5168 104.668C74.2737 105.399 75.1702 105.97 76.1527 106.347C77.1352 106.724 78.1835 106.899 79.2351 106.862C80.2039 106.964 81.1836 106.866 82.1129 106.574C83.0422 106.281 83.9011 105.8 84.6362 105.16C85.3713 104.521 85.9666 103.737 86.3851 102.857C86.8035 101.977 87.0362 101.02 87.0684 100.047C87.6559 97.344 88.1259 95.4641 88.4001 94.4066C88.761 93.1908 89.233 92.0108 89.8101 90.8815C90.5579 89.4672 91.4788 88.1516 92.5518 86.9649C93.9891 85.3498 95.5192 83.8197 97.1343 82.3824C103.714 76.4682 108.336 72.2382 110.882 69.7316C113.402 67.2487 115.528 64.3958 117.188 61.2716C118.943 57.8175 119.818 53.9829 119.733 50.1091C119.748 44.7253 118.152 39.4602 115.151 34.9907C111.885 30.102 107.33 26.2117 101.991 23.7499C95.7659 20.8973 88.9799 19.4785 82.1334 19.5982C74.7632 19.4363 67.4725 21.1478 60.9442 24.5724C55.3802 27.4414 50.6567 31.7062 47.2359 36.9491C44.3314 41.2652 42.7149 46.3185 42.5751 51.5191C42.6097 52.5723 42.8565 53.6077 43.3006 54.5634C43.7448 55.519 44.3772 56.3752 45.1601 57.0807C45.9546 57.9322 46.9201 58.6062 47.9933 59.0584C49.0666 59.5107 50.2232 59.731 51.3876 59.7049C55.6567 59.7049 58.3984 57.2374 59.9651 51.8716C61.4769 46.7442 64.0526 41.9931 67.5243 37.9282C69.4653 36.0992 71.7684 34.6975 74.2848 33.8137C76.8012 32.9299 79.4749 32.5837 82.1334 32.7974Z" fill="#D455FF"/>
<path d="M80.1335 144.54C76.9992 144.579 73.9601 143.464 71.5951 141.407C70.3638 140.288 69.3951 138.911 68.7586 137.374C68.1221 135.837 67.8335 134.178 67.9134 132.516C67.8987 130.926 68.2071 129.349 68.8197 127.881C69.4324 126.414 70.3366 125.086 71.4776 123.978C72.6186 122.856 73.9718 121.974 75.4582 121.382C76.9445 120.79 78.5339 120.501 80.1335 120.531C81.7089 120.506 83.2731 120.799 84.7332 121.391C86.1933 121.983 87.5194 122.863 88.6326 123.978C89.7524 125.095 90.6349 126.428 91.2271 127.895C91.8194 129.362 92.1092 130.934 92.0793 132.516C92.1583 134.168 91.8729 135.818 91.2435 137.347C90.614 138.877 89.6558 140.25 88.4368 141.368C86.1674 143.433 83.2021 144.566 80.1335 144.54ZM80.1335 122.098C78.7344 122.058 77.3421 122.305 76.0421 122.824C74.7421 123.343 73.562 124.122 72.5743 125.113C71.565 126.059 70.7675 127.207 70.2342 128.483C69.7009 129.759 69.4439 131.134 69.4801 132.516C69.3789 133.977 69.6119 135.442 70.1617 136.799C70.7114 138.156 71.5633 139.371 72.6526 140.349C74.7183 142.162 77.3856 143.14 80.1335 143.091C82.8232 143.103 85.4207 142.111 87.4185 140.31C88.4868 139.319 89.3193 138.1 89.8547 136.745C90.3902 135.389 90.615 133.931 90.5126 132.477C90.5391 131.105 90.289 129.741 89.7772 128.468C89.2655 127.194 88.5026 126.037 87.534 125.065C86.5654 124.093 85.411 123.325 84.1395 122.809C82.8681 122.292 81.5057 122.037 80.1335 122.058V122.098Z" fill="#E799FF"/>
<path d="M79.2318 109.525C77.8247 109.562 76.4244 109.318 75.113 108.806C73.8015 108.295 72.6052 107.527 71.5943 106.548C70.5135 105.378 69.6818 104 69.1499 102.499C68.618 100.997 68.397 99.4033 68.5002 97.8138C68.4016 93.6761 69.1341 89.5608 70.6544 85.7113C72.0295 82.4054 73.9787 79.3689 76.4118 76.7421C79.3868 73.5647 82.5381 70.5571 85.851 67.7338C89.2976 64.7179 91.8043 62.4071 93.3318 60.9188C94.8475 59.4375 96.1641 57.7654 97.2485 55.9446C98.223 54.1695 98.7222 52.1727 98.6976 50.1479C98.6976 48.1717 98.2665 46.2192 97.4345 44.4266C96.6025 42.6341 95.3895 41.0445 93.8802 39.7688C90.65 36.9014 86.4476 35.3745 82.1302 35.4996C79.856 35.2981 77.5648 35.57 75.401 36.298C73.2371 37.026 71.2475 38.1944 69.5576 39.7296C66.3543 43.5378 63.968 47.9638 62.5468 52.7329C60.6277 59.1563 56.8677 62.4463 51.3452 62.4463C49.8165 62.4696 48.2996 62.1753 46.8905 61.582C45.4814 60.9887 44.2109 60.1094 43.1593 58.9996C42.1261 58.0413 41.2957 56.8855 40.7171 55.6005C40.1385 54.3156 39.8236 52.9276 39.791 51.5188C39.9411 45.8111 41.6918 40.2605 44.8435 35.4996C48.5327 29.8643 53.6024 25.2666 59.5702 22.1438C66.5258 18.5119 74.2851 16.6933 82.1302 16.8563C89.3985 16.7175 96.6035 18.2308 103.202 21.2821C108.942 23.9317 113.846 28.104 117.381 33.3454C120.66 38.2767 122.405 44.0691 122.394 49.9913C122.493 54.3163 121.511 58.5976 119.535 62.4463C117.728 65.8089 115.431 68.8845 112.72 71.5721C110.174 74.1179 105.513 78.3871 98.8935 84.3013C97.3664 85.6703 95.915 87.1216 94.546 88.6488C93.6171 89.6571 92.8147 90.7751 92.1568 91.9779C91.6575 92.9379 91.2636 93.949 90.9818 94.9938C90.6685 96.0121 90.2377 97.8529 89.6502 100.477C89.5607 101.755 89.2202 103.004 88.6482 104.15C88.0761 105.297 87.2836 106.32 86.316 107.16C85.3484 108 84.2248 108.642 83.0092 109.047C81.7937 109.453 80.5101 109.615 79.2318 109.525ZM82.1302 33.9721C86.8907 33.7974 91.5348 35.467 95.0943 38.6329C96.7135 40.0773 98.0027 41.8533 98.8745 43.8402C99.7464 45.8271 100.181 47.9784 100.147 50.1479C100.17 52.4383 99.5886 54.6942 98.4627 56.6888C97.409 58.6364 96.0909 60.429 94.546 62.0154C92.9793 63.5429 90.6293 65.9321 86.9869 68.9088C83.7322 71.7138 80.621 74.6812 77.6652 77.7996C75.3273 80.3289 73.4456 83.2443 72.1035 86.4163C70.6598 90.0793 69.9671 93.9952 70.0668 97.9313C69.954 99.3105 70.129 100.698 70.5807 102.006C71.0325 103.314 71.751 104.514 72.691 105.53C73.5541 106.372 74.5782 107.031 75.702 107.469C76.8259 107.906 78.0264 108.113 79.2318 108.075C80.3321 108.155 81.4372 108.015 82.4826 107.662C83.5281 107.31 84.4929 106.753 85.3206 106.024C86.1483 105.295 86.8224 104.408 87.3035 103.415C87.7846 102.422 88.0631 101.344 88.1227 100.242C88.7102 97.5396 89.1801 95.6988 89.4543 94.6413C89.7955 93.4931 90.2413 92.3788 90.786 91.3121C91.4901 89.9934 92.3587 88.7695 93.371 87.6696C94.754 86.068 96.232 84.5508 97.7968 83.1263C104.416 77.2121 109.038 72.9821 111.584 70.4754C114.182 67.8963 116.374 64.9382 118.086 61.7021C119.955 58.0732 120.884 54.0332 120.788 49.9521C120.771 44.3793 119.124 38.9333 116.049 34.2854C112.644 29.2878 107.947 25.308 102.458 22.7704C96.0913 19.8222 89.1456 18.3367 82.1302 18.4229C74.5587 18.2624 67.0689 20.0136 60.3535 23.5146C54.6232 26.5226 49.7562 30.9446 46.2143 36.3613C43.2189 40.862 41.5495 46.1145 41.3969 51.5188C41.422 52.7238 41.6918 53.9111 42.1901 55.0086C42.6883 56.1061 43.4045 57.0908 44.2951 57.9029C45.2033 58.8668 46.3033 59.6297 47.5244 60.1424C48.7454 60.6551 50.0603 60.9062 51.3843 60.8796C56.2018 60.8796 59.2177 58.0596 61.0977 52.2629C62.5551 47.2793 65.0512 42.6608 68.4218 38.7113C70.255 37.0165 72.4197 35.7204 74.7792 34.9047C77.1387 34.089 79.6417 33.7714 82.1302 33.9721Z" fill="#E799FF"/>
</g>
<defs>
<filter id="filter0_d_262_11945" x="29.53" y="6.46892" width="111.121" height="156.284" filterUnits="userSpaceOnUse" color-interpolation-filters="sRGB">
<feFlood flood-opacity="0" result="BackgroundImageFix"/>
<feColorMatrix in="SourceAlpha" type="matrix" values="0 0 0 0 0 0 0 0 0 0 0 0 0 0 0 0 0 0 127 0" result="hardAlpha"/>
<feOffset dx="3.91667" dy="3.91667"/>
<feGaussianBlur stdDeviation="5.875"/>
<feColorMatrix type="matrix" values="0 0 0 0 0.764706 0 0 0 0 0 0 0 0 0 1 0 0 0 1 0"/>
<feBlend mode="normal" in2="BackgroundImageFix" result="effect1_dropShadow_262_11945"/>
<feBlend mode="normal" in="SourceGraphic" in2="effect1_dropShadow_262_11945" result="shape"/>
</filter>
</defs>
</svg>
