<svg width="165" height="165" viewBox="0 0 165 165" fill="none" xmlns="http://www.w3.org/2000/svg">
<g clip-path="url(#clip0_601_2484)">
<g opacity="0.6">
<path d="M122.764 156.904H122.181C118.018 156.995 113.88 156.25 110.011 154.713C106.141 153.176 102.62 150.878 99.6544 147.956C96.604 144.936 94.1917 141.335 92.5609 137.365C90.9301 133.395 90.1141 129.137 90.1614 124.846C90.0594 121.367 90.6655 117.904 91.943 114.667C93.2204 111.43 95.1424 108.487 97.5924 106.015C100.936 103.029 104.847 100.746 109.091 99.3025C113.335 97.8588 117.826 97.2838 122.298 97.6117C126.774 97.294 131.268 97.8737 135.517 99.3168C139.767 100.76 143.685 103.037 147.042 106.015C149.471 108.496 151.371 111.444 152.628 114.681C153.885 117.918 154.473 121.375 154.356 124.846C154.403 129.137 153.587 133.395 151.956 137.365C150.326 141.335 147.913 144.936 144.863 147.956C141.948 150.826 138.496 153.094 134.704 154.63C130.913 156.165 126.855 156.938 122.764 156.904ZM122.181 150.29C125.49 150.369 128.78 149.779 131.855 148.555C134.93 147.332 137.727 145.5 140.077 143.17C142.506 140.774 144.426 137.913 145.723 134.758C147.019 131.602 147.667 128.218 147.625 124.807C147.753 122.207 147.345 119.609 146.429 117.173C145.512 114.737 144.105 112.515 142.295 110.645C136.719 105.96 129.517 103.667 122.259 104.265C114.984 103.699 107.781 106.035 102.222 110.762C100.415 112.626 99.01 114.842 98.0933 117.271C97.1765 119.7 96.7677 122.291 96.8921 124.885C96.8474 128.271 97.4781 131.632 98.7474 134.772C100.017 137.911 101.899 140.766 104.284 143.17C106.639 145.478 109.433 147.29 112.5 148.5C115.567 149.709 118.846 150.292 122.142 150.212L122.181 150.29Z" fill="#040404"/>
<path d="M49.504 156.905H48.9205C44.758 156.996 40.6197 156.251 36.7504 154.714C32.8811 153.177 29.3595 150.879 26.3941 147.957C23.3364 144.943 20.9194 141.342 19.2881 137.371C17.6568 133.4 16.8449 129.14 16.9011 124.847C16.7854 121.38 17.3701 117.926 18.6202 114.69C19.8702 111.455 21.76 108.505 24.1764 106.016C27.5358 103.042 31.4541 100.767 35.7026 99.324C39.9511 97.8811 44.4446 97.2993 48.9205 97.6126C53.3963 97.2993 57.8898 97.8811 62.1383 99.324C66.3868 100.767 70.3052 103.042 73.6645 106.016C76.0809 108.505 77.9707 111.455 79.2208 114.69C80.4708 117.926 81.0555 121.38 80.9399 124.847C80.9961 129.14 80.1841 133.4 78.5528 137.371C76.9215 141.342 74.5045 144.943 71.4469 147.957C65.5987 153.716 57.7121 156.932 49.504 156.905ZM48.9205 150.291C52.2292 150.37 55.5197 149.78 58.5949 148.556C61.6701 147.333 64.4667 145.501 66.8171 143.171C69.2166 140.776 71.1107 137.923 72.3871 134.782C73.6636 131.641 74.2964 128.276 74.2481 124.885C74.3725 122.292 73.9637 119.701 73.0469 117.272C72.1301 114.843 70.7249 112.627 68.918 110.763C63.3791 106.055 56.208 103.721 48.9594 104.265C41.6846 103.7 34.4815 106.036 28.9229 110.763C27.1349 112.629 25.7468 114.841 24.8437 117.263C23.9405 119.684 23.5414 122.265 23.6707 124.847C23.6091 128.237 24.2281 131.606 25.4911 134.754C26.7541 137.901 28.6355 140.763 31.0238 143.171C33.3715 145.478 36.1583 147.29 39.2191 148.499C42.2799 149.709 45.5524 150.292 48.8426 150.213L48.9205 150.291Z" fill="#040404"/>
<path d="M122.765 155.542H122.181C118.203 155.647 114.245 154.95 110.542 153.493C106.839 152.036 103.467 149.848 100.628 147.06C97.7031 144.169 95.39 140.72 93.826 136.917C92.262 133.114 91.479 129.035 91.5238 124.923C91.3901 121.634 91.9323 118.352 93.1167 115.28C94.3011 112.209 96.1027 109.413 98.4101 107.065C101.643 104.22 105.41 102.047 109.491 100.671C113.572 99.2947 117.886 98.744 122.181 99.0505C126.484 98.7322 130.807 99.2772 134.896 100.654C138.985 102.03 142.757 104.21 145.992 107.065C148.299 109.413 150.101 112.209 151.285 115.28C152.47 118.352 153.012 121.634 152.878 124.923C152.914 129.033 152.127 133.11 150.564 136.912C149 140.713 146.692 144.164 143.774 147.06C138.165 152.55 130.613 155.599 122.765 155.542ZM122.181 151.651C125.659 151.744 129.119 151.134 132.355 149.857C135.591 148.58 138.535 146.663 141.012 144.22C143.548 141.666 145.545 138.627 146.882 135.285C148.218 131.943 148.869 128.366 148.793 124.767C148.922 121.984 148.478 119.205 147.488 116.601C146.497 113.998 144.981 111.626 143.035 109.633C137.213 104.659 129.663 102.185 122.026 102.747C114.377 102.183 106.814 104.657 100.978 109.633C99.049 111.628 97.5471 113.996 96.5638 116.592C95.5804 119.187 95.1364 121.956 95.2587 124.728C95.1832 128.327 95.8332 131.904 97.1701 135.246C98.5069 138.589 100.503 141.627 103.04 144.181C105.513 146.617 108.452 148.53 111.68 149.807C114.908 151.084 118.361 151.698 121.831 151.612L122.181 151.651Z" fill="black"/>
<path d="M48.3369 155.542C40.4793 155.57 32.9286 152.494 27.3278 146.983C24.4085 144.09 22.1014 140.639 20.544 136.836C18.9866 133.033 18.2108 128.955 18.2628 124.846C18.1198 121.555 18.6577 118.271 19.8426 115.198C21.0275 112.125 22.8341 109.33 25.1491 106.988C28.38 104.139 32.1463 101.963 36.2279 100.587C40.3095 99.2112 44.6244 98.6625 48.9205 98.9733C53.2172 98.6537 57.5345 99.1982 61.6173 100.575C65.7001 101.951 69.4658 104.132 72.6919 106.988C75.0069 109.33 76.8134 112.125 77.9984 115.198C79.1833 118.271 79.7211 121.555 79.5782 124.846C79.6205 128.979 78.8253 133.079 77.2406 136.896C75.6559 140.714 73.3145 144.172 70.3575 147.061C67.5199 149.867 64.1447 152.072 60.4343 153.543C56.724 155.014 52.7548 155.72 48.7649 155.62L48.3369 155.542ZM48.3369 102.864C40.916 102.419 33.6149 104.89 27.9892 109.75C26.0528 111.74 24.5459 114.107 23.5621 116.704C22.5783 119.301 22.1385 122.072 22.2701 124.846C22.1856 128.446 22.8315 132.025 24.1689 135.369C25.5062 138.712 27.5073 141.75 30.0512 144.298C32.5279 146.741 35.4725 148.658 38.7082 149.935C41.9439 151.212 45.4042 151.822 48.8816 151.729C52.3578 151.814 55.8155 151.199 59.05 149.923C62.2845 148.646 65.23 146.734 67.7119 144.298C70.2486 141.745 72.2449 138.706 73.5817 135.364C74.9186 132.022 75.5686 128.444 75.4931 124.846C75.6246 122.072 75.1849 119.301 74.201 116.704C73.2172 114.107 71.7104 111.74 69.774 109.75C63.9495 104.78 56.4011 102.306 48.7649 102.864H48.0257H48.3369Z" fill="black"/>
<path d="M122.762 154.374H122.178C118.354 154.464 114.551 153.784 110.995 152.373C107.439 150.963 104.203 148.852 101.48 146.165C98.6664 143.38 96.4413 140.057 94.9375 136.394C93.4337 132.732 92.6818 128.804 92.7265 124.845C92.5975 121.709 93.1107 118.58 94.2346 115.65C95.3586 112.719 97.0696 110.049 99.2627 107.804C102.391 105.052 106.033 102.947 109.98 101.611C113.927 100.275 118.099 99.7356 122.256 100.023C126.402 99.7243 130.565 100.259 134.501 101.595C138.437 102.932 142.065 105.043 145.171 107.804C147.379 110.041 149.102 112.708 150.233 115.64C151.365 118.572 151.88 121.705 151.746 124.845C151.782 128.803 151.026 132.728 149.523 136.389C148.02 140.051 145.799 143.375 142.993 146.165C137.595 151.462 130.324 154.413 122.762 154.374ZM122.178 152.818C125.813 152.901 129.427 152.255 132.808 150.919C136.189 149.582 139.269 147.582 141.864 145.037C144.527 142.406 146.633 139.265 148.057 135.803C149.481 132.341 150.193 128.627 150.151 124.884C150.277 121.943 149.8 119.007 148.749 116.258C147.699 113.508 146.097 111.002 144.043 108.894C141.058 106.316 137.593 104.354 133.848 103.119C130.102 101.883 126.15 101.4 122.217 101.696C114.253 101.116 106.381 103.702 100.313 108.894C98.2744 111.003 96.6853 113.505 95.642 116.247C94.5988 118.989 94.1231 121.914 94.2438 124.845C94.2022 128.588 94.9144 132.302 96.3381 135.764C97.7618 139.226 99.8678 142.367 102.531 144.998C105.119 147.546 108.19 149.55 111.564 150.893C114.939 152.236 118.547 152.89 122.178 152.818Z" fill="black"/>
<path d="M48.3004 154.374C40.765 154.392 33.5253 151.443 28.1472 146.165C25.3385 143.377 23.1195 140.053 21.6223 136.391C20.1251 132.728 19.3803 128.801 19.4324 124.844C19.294 121.708 19.803 118.576 20.9274 115.644C22.0519 112.712 23.7679 110.044 25.9685 107.804C29.087 105.049 32.7226 102.942 36.6635 101.606C40.6045 100.27 44.7719 99.7317 48.9229 100.023C53.0737 99.7339 57.2406 100.273 61.1812 101.609C65.1218 102.945 68.7576 105.05 71.8773 107.804C74.0779 110.044 75.7939 112.712 76.9183 115.644C78.0428 118.576 78.5518 121.708 78.4134 124.844C78.4655 128.801 77.7207 132.728 76.2235 136.391C74.7263 140.053 72.5072 143.377 69.6985 146.165C66.961 148.854 63.7117 150.966 60.143 152.376C56.5744 153.786 52.759 154.465 48.9229 154.374H48.3004ZM48.3004 101.696C40.5679 101.264 32.9686 103.843 27.0968 108.893C25.0506 110.997 23.4566 113.498 22.4128 116.241C21.369 118.984 20.8976 121.912 21.0275 124.844C20.9733 128.592 21.6758 132.312 23.0931 135.781C24.5103 139.251 26.6131 142.399 29.2755 145.037C31.8714 147.582 34.9507 149.582 38.3317 150.918C41.7128 152.254 45.3272 152.9 48.9618 152.818C52.5964 152.9 56.2108 152.254 59.5919 150.918C62.9729 149.582 66.0522 147.582 68.6481 145.037C71.3058 142.403 73.4058 139.262 74.8229 135.799C76.24 132.337 76.9451 128.624 76.8961 124.883C77.026 121.951 76.5546 119.023 75.5108 116.28C74.467 113.537 72.873 111.036 70.8268 108.932C67.8346 106.353 64.3631 104.39 60.6112 103.155C56.8593 101.92 52.9006 101.437 48.9618 101.734L48.3004 101.696Z" fill="black"/>
<path d="M108.876 49.7964H108.448C108.255 49.8332 108.057 49.8332 107.865 49.7964C105.307 49.1018 102.708 48.569 100.083 48.2013C99.2275 48.2013 98.4494 47.9679 97.7491 47.8122L94.481 47.2676C87.3579 46.7054 80.5739 43.9918 75.0281 39.4864C67.5707 32.4567 62.0959 23.5871 59.1546 13.7697C58.9952 13.2735 58.9553 12.7467 59.0382 12.2321C59.1211 11.7175 59.3245 11.2299 59.6317 10.8088C59.939 10.3878 60.3414 10.0454 60.8061 9.80944C61.2708 9.5735 61.7848 9.45076 62.306 9.45122C72.5298 9.22942 82.6325 11.6981 91.602 16.6099C97.5925 20.5325 102.258 26.1741 104.986 32.7946L106.542 35.7126C106.853 36.3351 107.242 37.0354 107.592 37.8135C108.752 40.196 110.051 42.5084 111.483 44.7387C111.733 45.1033 111.908 45.5138 111.998 45.9465C112.088 46.3792 112.092 46.8255 112.009 47.2596C111.925 47.6937 111.757 48.107 111.513 48.4756C111.269 48.8443 110.955 49.161 110.588 49.4074C110.178 49.6254 109.728 49.7578 109.265 49.7964H108.876ZM67.0525 15.9485C69.6988 22.9034 73.9046 29.1589 79.3467 34.2342C84.0148 37.8977 89.6865 40.0551 95.6093 40.4202L98.9551 41.0037L101.095 41.3539L102.301 41.5484C102.107 41.1594 101.912 40.8092 101.756 40.4591L100.745 38.5138L99.1497 35.518C96.9862 30.0088 93.1838 25.2965 88.2561 22.0178C81.749 18.3911 74.493 16.3141 67.0525 15.9485Z" fill="black"/>
<path d="M50.9065 122.744H50.0117C49.2142 122.499 48.5386 121.963 48.1202 121.241C47.7017 120.52 47.5713 119.667 47.7551 118.853C52.3071 102.746 57.2481 87.1451 67.208 73.2168C78.8797 56.7208 95.5703 45.9828 117.785 40.5749C118.621 40.3873 119.496 40.535 120.224 40.986C120.951 41.4371 121.473 42.1556 121.676 42.9871C121.852 43.8268 121.695 44.7021 121.237 45.4281C120.78 46.154 120.058 46.6738 119.225 46.8776C98.4882 51.9743 83.1204 61.7785 72.3046 76.9518C63.0062 90.0241 58.2597 105.003 53.8244 120.526C53.6109 121.142 53.22 121.682 52.7008 122.076C52.1816 122.471 51.5573 122.703 50.9065 122.744Z" fill="black"/>
<path d="M120.234 122.746C119.64 122.741 119.058 122.581 118.546 122.28C118.034 121.98 117.61 121.55 117.316 121.034C108.018 103.915 94.1672 71.2734 105.644 45.012C106.034 44.2666 106.693 43.6977 107.487 43.421C108.282 43.1444 109.152 43.1808 109.92 43.5229C110.688 43.8649 111.298 44.4869 111.624 45.2623C111.95 46.0377 111.968 46.9081 111.675 47.6965C107.162 57.8509 102.61 80.494 122.957 117.727C123.236 118.232 123.377 118.801 123.367 119.377C123.357 119.954 123.197 120.518 122.902 121.013C122.607 121.509 122.188 121.919 121.686 122.202C121.184 122.485 120.616 122.633 120.039 122.629L120.234 122.746Z" fill="black"/>
<path d="M108.874 48.3182H108.29C105.658 47.5984 102.98 47.0525 100.276 46.6841L97.9805 46.2951L94.7124 45.7115C87.8089 45.1615 81.2386 42.5143 75.882 38.1249C68.5745 31.2616 63.2066 22.5923 60.3197 12.9918C60.2185 12.6993 60.19 12.3866 60.2367 12.0806C60.2833 11.7746 60.4038 11.4847 60.5877 11.2357C60.7715 10.9867 61.0132 10.7862 61.2919 10.6516C61.5706 10.517 61.8779 10.4522 62.1872 10.4629C72.1634 10.2499 82.0218 12.6508 90.7829 17.427C96.5511 21.1921 101.041 26.6185 103.661 32.9893C104.166 33.9231 104.672 34.9346 105.217 35.9073L106.267 37.9693C107.412 40.4226 108.711 42.8006 110.158 45.089C110.333 45.326 110.452 45.5998 110.506 45.8896C110.56 46.1795 110.547 46.4777 110.469 46.7619C110.323 47.2043 110.036 47.5868 109.652 47.8513C109.428 48.0598 109.163 48.2189 108.874 48.3182ZM64.9884 14.4702C67.7257 22.3952 72.3449 29.5377 78.4498 35.2848C83.2689 39.2082 89.1764 41.5576 95.3738 42.0154L98.6808 42.599L100.859 42.9492L104.75 43.6106C104.05 42.3267 103.466 41.1595 102.921 40.0702C102.377 38.9808 102.221 38.6696 101.91 38.1249L100.315 35.1291C98.0314 29.387 94.0557 24.475 88.9154 21.0453C81.5953 16.9351 73.3809 14.6779 64.9884 14.4702Z" fill="black"/>
<path d="M50.9033 121.383H50.3975C50.1488 121.315 49.9159 121.199 49.7124 121.041C49.5089 120.883 49.3389 120.686 49.2122 120.462C49.0855 120.237 49.0047 119.99 48.9744 119.734C48.9441 119.478 48.965 119.218 49.0358 118.971C53.5878 103.019 58.4899 87.5349 68.2942 73.8012C79.9659 57.5775 96.2285 47.034 118.249 41.665C118.497 41.6007 118.755 41.586 119.008 41.6216C119.262 41.6572 119.506 41.7425 119.726 41.8727C119.947 42.0028 120.14 42.1751 120.293 42.3799C120.447 42.5846 120.559 42.8176 120.622 43.0657C120.74 43.5709 120.656 44.1023 120.387 44.5459C120.118 44.9895 119.685 45.3101 119.183 45.4389C98.0959 50.6134 82.4947 60.6121 71.4844 76.0577C61.9914 89.2078 57.206 104.264 52.7319 119.827C52.6517 120.256 52.4263 120.645 52.0934 120.929C51.7605 121.212 51.3403 121.372 50.9033 121.383Z" fill="black"/>
<path d="M120.234 121.382C119.883 121.387 119.538 121.295 119.236 121.117C118.934 120.938 118.687 120.68 118.522 120.37C111.802 108.379 106.96 95.4288 104.166 81.9703C101.394 69.8317 102.412 57.1349 107.084 45.5934C107.166 45.3327 107.302 45.0921 107.483 44.8875C107.664 44.6828 107.887 44.5187 108.136 44.4058C108.385 44.2928 108.655 44.2336 108.928 44.232C109.201 44.2304 109.472 44.2864 109.722 44.3964C109.972 44.5064 110.197 44.6679 110.38 44.8704C110.564 45.0729 110.703 45.3118 110.788 45.5716C110.873 45.8314 110.903 46.1062 110.874 46.3781C110.846 46.65 110.761 46.9129 110.624 47.1496C106.033 57.5764 101.481 80.6086 121.946 118.503C122.184 118.959 122.237 119.489 122.091 119.983C121.946 120.476 121.615 120.894 121.168 121.148C120.879 121.299 120.559 121.379 120.234 121.382Z" fill="black"/>
<path d="M108.876 47.1506H108.604C105.932 46.4191 103.216 45.8603 100.472 45.4776L98.2157 45.1275L94.9087 44.5439C88.2384 44.0759 81.8711 41.5778 76.662 37.3852C69.5384 30.6506 64.3179 22.1555 61.5276 12.7579C61.4698 12.6503 61.4395 12.53 61.4395 12.4078C61.4395 12.2855 61.4698 12.1652 61.5276 12.0576C61.5953 11.956 61.6883 11.8738 61.7975 11.8192C61.9067 11.7646 62.0282 11.7395 62.1501 11.7464C71.9972 11.5388 81.7255 13.9272 90.3568 18.6716C95.9489 22.3402 100.281 27.6363 102.768 33.8448L104.324 36.8016C104.674 37.3852 105.024 38.0855 105.374 38.8247C106.605 41.2658 107.983 43.6304 109.498 45.9056C109.547 46.009 109.572 46.122 109.572 46.2363C109.572 46.3506 109.547 46.4635 109.498 46.567C109.428 46.7525 109.307 46.9144 109.148 47.0338C109.066 47.0907 108.974 47.1304 108.876 47.1506ZM63.3562 13.2637C66.0854 22.0012 71.0314 29.8827 77.7124 36.1402C82.7047 40.1381 88.8001 42.5138 95.1811 42.9487L98.4881 43.5323L100.706 43.8825C102.534 44.1937 104.596 44.5439 107.125 45.0886C105.99 43.2372 104.951 41.3283 104.013 39.3694C103.624 38.6302 103.273 37.9299 102.962 37.3852L101.484 34.2339C99.092 28.3049 94.9534 23.2437 89.6176 19.722C81.5608 15.3572 72.5185 13.1335 63.3562 13.2637Z" fill="black"/>
<path d="M50.9041 120.216C50.8052 120.194 50.712 120.151 50.6302 120.091C50.5485 120.031 50.4799 119.955 50.4288 119.868C50.3777 119.78 50.3452 119.683 50.3333 119.582C50.3213 119.482 50.3302 119.38 50.3594 119.283C54.8725 103.37 59.7357 88.158 69.4621 74.4243C80.8615 58.434 96.9685 48.0851 118.717 42.755C118.918 42.7058 119.13 42.7346 119.31 42.8357C119.491 42.9368 119.626 43.1026 119.689 43.2997C119.737 43.5058 119.703 43.7224 119.594 43.9038C119.485 44.0852 119.31 44.2173 119.106 44.2723C69.6955 56.2942 59.2299 92.9045 51.6433 119.827C51.5665 119.953 51.4573 120.055 51.3272 120.123C51.1971 120.192 51.0509 120.224 50.9041 120.216Z" fill="black"/>
<path d="M120.235 120.217C120.096 120.214 119.959 120.177 119.837 120.109C119.715 120.041 119.611 119.945 119.535 119.828C112.915 107.921 108.14 95.0783 105.373 81.7388C102.618 69.7925 103.582 57.2895 108.136 45.9067C108.177 45.8109 108.238 45.7245 108.314 45.6527C108.39 45.581 108.48 45.5253 108.578 45.489C108.676 45.4527 108.781 45.4365 108.885 45.4414C108.989 45.4463 109.092 45.4722 109.186 45.5176C109.37 45.6025 109.513 45.7557 109.586 45.9445C109.658 46.1333 109.654 46.343 109.575 46.5291C104.867 57.2671 100.082 80.9218 120.936 119.049C121.025 119.238 121.043 119.452 120.986 119.653C120.929 119.854 120.8 120.026 120.624 120.139L120.235 120.217Z" fill="black"/>
<path d="M115.722 123.717H114.593C113.49 123.637 112.396 123.454 111.325 123.172C110.891 123.052 110.485 122.848 110.129 122.571C109.774 122.294 109.477 121.949 109.255 121.557C109.033 121.165 108.89 120.733 108.834 120.286C108.779 119.839 108.813 119.385 108.933 118.951C109.053 118.517 109.257 118.11 109.534 117.755C109.811 117.4 110.156 117.103 110.548 116.88C110.94 116.658 111.372 116.515 111.819 116.46C112.266 116.405 112.72 116.438 113.154 116.558C113.818 116.719 114.495 116.823 115.177 116.87C115.862 116.947 116.554 116.947 117.239 116.87C117.942 116.792 118.634 116.636 119.301 116.403C119.974 116.16 120.625 115.861 121.246 115.508C122.398 114.77 123.423 113.85 124.281 112.784C124.791 112.125 125.531 111.682 126.354 111.545C127.176 111.408 128.02 111.587 128.716 112.045C129.409 112.578 129.867 113.36 129.99 114.225C130.114 115.091 129.894 115.97 129.378 116.675C128.708 117.564 127.952 118.385 127.121 119.126C126.304 119.898 125.404 120.576 124.437 121.149C122.422 122.313 120.204 123.079 117.9 123.406C117.18 123.547 116.453 123.651 115.722 123.717Z" fill="#040404"/>
<path d="M55.4181 123.717C54.6664 123.757 53.9132 123.757 53.1615 123.717C52.0094 123.556 50.8757 123.282 49.7767 122.9C48.6878 122.54 47.6436 122.057 46.6643 121.46C45.6855 120.887 44.7723 120.209 43.9409 119.437C43.122 118.696 42.3792 117.875 41.7233 116.986C41.4054 116.634 41.168 116.217 41.0275 115.764C40.887 115.311 40.8468 114.833 40.9098 114.363C40.9727 113.892 41.1372 113.442 41.3919 113.041C41.6466 112.641 41.9854 112.301 42.3847 112.045C42.7345 111.787 43.1318 111.6 43.554 111.495C43.9761 111.39 44.4148 111.37 44.8448 111.435C45.2749 111.5 45.6879 111.649 46.0602 111.874C46.4325 112.099 46.7568 112.395 47.0144 112.746C47.4061 113.292 47.8634 113.789 48.3761 114.224C48.8831 114.703 49.4446 115.121 50.0491 115.469C50.6536 115.829 51.2921 116.129 51.9555 116.364C52.6241 116.593 53.3154 116.75 54.0175 116.831C54.7026 116.908 55.3943 116.908 56.0795 116.831C56.7617 116.786 57.4386 116.682 58.1026 116.519C58.9326 116.339 59.8 116.486 60.5252 116.928C61.2503 117.37 61.7775 118.074 61.9976 118.894C62.2177 119.715 62.1137 120.588 61.7073 121.334C61.3008 122.08 60.6231 122.64 59.8144 122.9C58.7429 123.176 57.6494 123.358 56.5463 123.445L55.4181 123.717Z" fill="#040404"/>
<path d="M115.723 122.161H114.673C113.66 122.09 112.657 121.921 111.677 121.655C111.422 121.591 111.181 121.478 110.97 121.321C110.758 121.164 110.579 120.967 110.444 120.741C110.308 120.516 110.219 120.265 110.18 120.005C110.141 119.744 110.154 119.479 110.218 119.223C110.282 118.968 110.395 118.728 110.552 118.516C110.709 118.304 110.906 118.126 111.132 117.99C111.358 117.855 111.608 117.765 111.868 117.726C112.129 117.688 112.394 117.701 112.65 117.764C113.395 117.991 114.167 118.122 114.945 118.153C115.708 118.232 116.477 118.232 117.241 118.153C118.048 118.05 118.843 117.868 119.614 117.609C120.365 117.328 121.093 116.99 121.793 116.597C122.464 116.2 123.091 115.73 123.66 115.197C124.228 114.673 124.749 114.1 125.216 113.485C125.369 113.28 125.562 113.108 125.781 112.978C126.001 112.848 126.244 112.762 126.497 112.726C126.75 112.69 127.008 112.704 127.255 112.768C127.503 112.831 127.735 112.942 127.94 113.096C128.144 113.249 128.316 113.441 128.446 113.661C128.576 113.881 128.662 114.124 128.698 114.377C128.734 114.63 128.72 114.887 128.657 115.135C128.593 115.382 128.482 115.615 128.329 115.819C127.713 116.634 127.023 117.39 126.267 118.076C125.497 118.775 124.663 119.4 123.777 119.943C122.85 120.478 121.872 120.921 120.859 121.266C119.866 121.631 118.835 121.879 117.785 122.005C117.103 122.114 116.414 122.166 115.723 122.161Z" fill="black"/>
<path d="M55.4183 122.161C54.7323 122.22 54.0424 122.22 53.3563 122.161C52.2947 122.03 51.2509 121.782 50.2439 121.422C49.2398 121.085 48.2747 120.641 47.3649 120.099C46.4659 119.556 45.6193 118.931 44.836 118.231C44.0818 117.555 43.4034 116.798 42.8129 115.975C42.6596 115.77 42.5481 115.538 42.4847 115.29C42.4213 115.043 42.4073 114.785 42.4434 114.533C42.4795 114.28 42.5651 114.036 42.6952 113.817C42.8254 113.597 42.9976 113.405 43.2019 113.251C43.6182 112.952 44.1343 112.825 44.642 112.897C45.1498 112.97 45.6097 113.236 45.9253 113.64C46.3793 114.255 46.8871 114.828 47.4427 115.352C48.018 115.896 48.6583 116.366 49.349 116.753C50.041 117.16 50.7706 117.498 51.5278 117.764C52.2857 118.024 53.0677 118.206 53.8621 118.309C54.6383 118.387 55.4203 118.387 56.1965 118.309C56.962 118.275 57.7201 118.144 58.453 117.92C58.7084 117.854 58.9745 117.838 59.2359 117.875C59.4973 117.911 59.749 117.999 59.9766 118.132C60.2042 118.266 60.4033 118.443 60.5624 118.654C60.7215 118.864 60.8376 119.104 60.904 119.36C60.9705 119.615 60.9859 119.881 60.9495 120.143C60.9131 120.404 60.8256 120.656 60.6919 120.883C60.5583 121.111 60.3811 121.31 60.1705 121.469C59.9599 121.628 59.72 121.744 59.4645 121.811C58.471 122.073 57.455 122.243 56.4299 122.316L55.4183 122.161Z" fill="black"/>
<path d="M115.724 120.993H114.751C113.806 120.914 112.869 120.758 111.95 120.526C111.756 120.472 111.59 120.344 111.489 120.17C111.387 119.995 111.357 119.789 111.405 119.593C111.46 119.388 111.592 119.214 111.774 119.105C111.955 118.996 112.172 118.962 112.378 119.009C113.188 119.249 114.024 119.393 114.868 119.437C115.709 119.515 116.555 119.515 117.397 119.437C118.274 119.331 119.136 119.122 119.964 118.815C120.805 118.539 121.614 118.174 122.376 117.725C123.111 117.273 123.802 116.752 124.439 116.169C125.078 115.613 125.652 114.987 126.15 114.302C126.3 114.168 126.494 114.094 126.695 114.094C126.896 114.094 127.09 114.168 127.24 114.302C127.374 114.451 127.448 114.645 127.448 114.846C127.448 115.047 127.374 115.241 127.24 115.391C126.677 116.154 126.038 116.857 125.333 117.492C124.622 118.148 123.839 118.723 122.999 119.204C122.168 119.719 121.28 120.137 120.353 120.449C119.414 120.76 118.451 120.994 117.474 121.149L115.724 120.993Z" fill="black"/>
<path d="M55.4176 120.994C54.7827 121.034 54.146 121.034 53.5112 120.994C52.5342 120.839 51.5713 120.604 50.6322 120.293C49.6959 119.974 48.796 119.557 47.9477 119.048C47.1203 118.548 46.3391 117.975 45.6133 117.337C44.9212 116.701 44.2955 115.997 43.7459 115.236C43.6033 115.09 43.5234 114.895 43.5234 114.691C43.5234 114.487 43.6033 114.292 43.7459 114.146C43.8992 114.02 44.0918 113.951 44.2905 113.951C44.4893 113.951 44.6819 114.02 44.8352 114.146C45.3199 114.83 45.8812 115.457 46.5082 116.014C47.1522 116.588 47.8418 117.108 48.5702 117.57C49.3365 118.011 50.1444 118.376 50.9823 118.659C51.8119 118.963 52.6734 119.172 53.5501 119.282C54.4043 119.36 55.2637 119.36 56.1179 119.282C56.9614 119.234 57.7968 119.091 58.6078 118.854C58.8082 118.817 59.0151 118.857 59.1878 118.965C59.3605 119.073 59.4867 119.241 59.5416 119.437C59.5708 119.535 59.5797 119.637 59.5677 119.737C59.5558 119.838 59.5233 119.935 59.4722 120.023C59.4211 120.11 59.3525 120.186 59.2708 120.246C59.189 120.306 59.0958 120.349 58.9969 120.371C58.078 120.605 57.1409 120.762 56.1957 120.838L55.4176 120.994Z" fill="black"/>
</g>
<g filter="url(#filter0_d_601_2484)">
<path d="M118.874 156.904H118.29C114.128 156.995 109.989 156.25 106.12 154.713C102.251 153.176 98.7292 150.878 95.7638 147.956C92.7134 144.937 90.3011 141.335 88.6703 137.365C87.0395 133.395 86.2235 129.137 86.2708 124.846C86.1688 121.367 86.7749 117.904 88.0523 114.667C89.3298 111.43 91.2518 108.487 93.7018 106.015C97.0456 103.029 100.956 100.746 105.2 99.3026C109.444 97.8589 113.936 97.2839 118.407 97.6118C122.883 97.2941 127.378 97.8738 131.627 99.3169C135.876 100.76 139.794 103.037 143.151 106.015C145.58 108.497 147.48 111.445 148.738 114.681C149.995 117.918 150.583 121.376 150.465 124.846C150.513 129.137 149.697 133.395 148.066 137.365C146.435 141.335 144.023 144.937 140.972 147.956C138.058 150.826 134.606 153.094 130.814 154.63C127.022 156.165 122.965 156.938 118.874 156.904ZM118.29 150.29C121.599 150.369 124.889 149.779 127.965 148.556C131.04 147.332 133.836 145.5 136.187 143.17C138.615 140.774 140.535 137.913 141.832 134.758C143.129 131.602 143.776 128.218 143.735 124.807C143.862 122.207 143.455 119.609 142.538 117.173C141.621 114.737 140.214 112.516 138.404 110.645C132.828 105.96 125.627 103.667 118.368 104.265C111.093 103.699 103.89 106.035 98.3316 110.762C96.5247 112.626 95.1194 114.842 94.2026 117.271C93.2859 119.7 92.8771 122.291 93.0015 124.885C92.9568 128.271 93.5875 131.632 94.8567 134.772C96.126 137.911 98.0082 140.766 100.394 143.17C102.748 145.478 105.542 147.29 108.609 148.5C111.677 149.709 114.955 150.292 118.251 150.212L118.29 150.29Z" fill="#FF003E"/>
<path d="M45.6115 156.905H45.0279C40.8655 156.996 36.7271 156.251 32.8578 154.714C28.9885 153.177 25.4669 150.879 22.5015 147.957C19.4439 144.943 17.0268 141.342 15.3955 137.371C13.7642 133.4 12.9523 129.14 13.0085 124.847C12.8928 121.38 13.4775 117.926 14.7276 114.69C15.9776 111.455 17.8674 108.505 20.2839 106.016C23.6432 103.042 27.5616 100.767 31.8101 99.3241C36.0586 97.8812 40.552 97.2994 45.0279 97.6127C49.5038 97.2994 53.9972 97.8812 58.2457 99.3241C62.4942 100.767 66.4126 103.042 69.7719 106.016C72.1884 108.505 74.0781 111.455 75.3282 114.69C76.5783 117.926 77.1629 121.38 77.0473 124.847C77.1035 129.14 76.2915 133.4 74.6602 137.371C73.0289 141.342 70.6119 144.943 67.5543 147.957C61.7061 153.716 53.8195 156.932 45.6115 156.905ZM45.0279 150.291C48.3366 150.37 51.6271 149.78 54.7023 148.556C57.7776 147.333 60.5741 145.501 62.9245 143.171C65.324 140.776 67.2181 137.923 68.4946 134.782C69.771 131.641 70.4038 128.276 70.3555 124.886C70.4799 122.292 70.0711 119.701 69.1544 117.272C68.2376 114.843 66.8323 112.627 65.0254 110.763C59.4866 106.055 52.3154 103.721 45.0668 104.266C37.792 103.7 30.5889 106.036 25.0304 110.763C23.2423 112.629 21.8542 114.841 20.9511 117.263C20.0479 119.685 19.6488 122.265 19.7781 124.847C19.7165 128.238 20.3356 131.606 21.5986 134.754C22.8616 137.901 24.7429 140.764 27.1313 143.171C29.4789 145.478 32.2657 147.29 35.3265 148.499C38.3874 149.709 41.6598 150.292 44.9501 150.213L45.0279 150.291Z" fill="#FF003E"/>
<path d="M118.872 155.542H118.289C114.311 155.647 110.352 154.95 106.649 153.493C102.946 152.036 99.5746 149.848 96.7351 147.06C93.8105 144.169 91.4974 140.72 89.9334 136.917C88.3694 133.114 87.5864 129.035 87.6312 124.923C87.4976 121.634 88.0397 118.352 89.2241 115.281C90.4085 112.209 92.2101 109.413 94.5175 107.065C97.7507 104.22 101.517 102.047 105.598 100.671C109.679 99.2948 113.993 98.7441 118.289 99.0506C122.591 98.7323 126.914 99.2773 131.003 100.654C135.092 102.03 138.865 104.21 142.099 107.065C144.407 109.413 146.208 112.209 147.393 115.281C148.577 118.352 149.119 121.634 148.985 124.923C149.021 129.034 148.234 133.11 146.671 136.912C145.107 140.714 142.799 144.164 139.882 147.06C134.273 152.55 126.721 155.599 118.872 155.542ZM118.289 151.651C121.766 151.744 125.227 151.134 128.462 149.857C131.698 148.58 134.643 146.663 137.119 144.22C139.656 141.666 141.652 138.627 142.989 135.285C144.326 131.943 144.976 128.366 144.9 124.767C145.03 121.985 144.586 119.205 143.595 116.601C142.604 113.998 141.089 111.626 139.142 109.633C133.32 104.659 125.77 102.185 118.133 102.747C110.484 102.183 102.922 104.657 97.0853 109.633C95.1564 111.629 93.6545 113.996 92.6712 116.592C91.6879 119.187 91.2438 121.956 91.3661 124.728C91.2906 128.327 91.9406 131.904 93.2775 135.246C94.6143 138.589 96.6106 141.627 99.1473 144.181C101.621 146.617 104.559 148.531 107.788 149.807C111.016 151.084 114.468 151.698 117.939 151.612L118.289 151.651Z" fill="#FF406E"/>
<path d="M44.4443 155.542C36.5868 155.57 29.036 152.494 23.4352 146.983C20.5159 144.09 18.2088 140.64 16.6514 136.836C15.094 133.033 14.3182 128.955 14.3702 124.846C14.2273 121.555 14.7651 118.271 15.95 115.198C17.135 112.126 18.9415 109.33 21.2565 106.988C24.4874 104.139 28.2537 101.964 32.3353 100.587C36.4169 99.2113 40.7318 98.6626 45.0279 98.9734C49.3247 98.6538 53.6419 99.1983 57.7247 100.575C61.8076 101.951 65.5732 104.132 68.7993 106.988C71.1143 109.33 72.9209 112.126 74.1058 115.198C75.2907 118.271 75.8286 121.555 75.6856 124.846C75.7279 128.979 74.9327 133.079 73.348 136.897C71.7633 140.715 69.4219 144.172 66.465 147.061C63.6273 149.868 60.2521 152.072 56.5418 153.543C52.8314 155.014 48.8623 155.72 44.8723 155.62L44.4443 155.542ZM44.4443 102.864C37.0235 102.42 29.7224 104.89 24.0966 109.75C22.1602 111.741 20.6534 114.107 19.6695 116.704C18.6857 119.301 18.246 122.072 18.3775 124.846C18.293 128.446 18.9389 132.025 20.2763 135.369C21.6136 138.712 23.6147 141.75 26.1586 144.299C28.6354 146.741 31.5799 148.658 34.8156 149.935C38.0514 151.212 41.5117 151.823 44.989 151.73C48.4652 151.814 51.923 151.199 55.1575 149.923C58.3919 148.646 61.3374 146.734 63.8194 144.299C66.356 141.745 68.3523 138.706 69.6892 135.364C71.026 132.022 71.6761 128.445 71.6005 124.846C71.732 122.072 71.2923 119.301 70.3085 116.704C69.3247 114.107 67.8178 111.741 65.8814 109.75C60.0569 104.781 52.5085 102.306 44.8723 102.864H44.1331H44.4443Z" fill="#FF406E"/>
<path d="M118.871 154.375H118.288C114.463 154.464 110.66 153.784 107.104 152.373C103.548 150.963 100.313 148.852 97.5897 146.165C94.7757 143.38 92.5507 140.057 91.0469 136.395C89.543 132.732 88.7911 128.804 88.8359 124.845C88.7068 121.709 89.22 118.58 90.344 115.65C91.468 112.719 93.179 110.05 95.372 107.804C98.5 105.052 102.143 102.947 106.089 101.611C110.036 100.275 114.209 99.7358 118.365 100.023C122.511 99.7244 126.675 100.259 130.61 101.595C134.546 102.932 138.174 105.043 141.281 107.804C143.488 110.041 145.212 112.708 146.343 115.64C147.474 118.572 147.989 121.705 147.856 124.845C147.892 128.803 147.136 132.728 145.633 136.389C144.129 140.051 141.909 143.375 139.102 146.165C133.705 151.463 126.433 154.413 118.871 154.375ZM118.288 152.818C121.922 152.901 125.537 152.255 128.918 150.919C132.299 149.582 135.378 147.582 137.974 145.037C140.637 142.406 142.743 139.266 144.166 135.803C145.59 132.341 146.302 128.627 146.261 124.884C146.386 121.943 145.909 119.008 144.859 116.258C143.808 113.508 142.207 111.002 140.153 108.894C137.167 106.316 133.703 104.354 129.957 103.119C126.212 101.884 122.259 101.4 118.326 101.696C110.362 101.116 102.49 103.703 96.4225 108.894C94.3838 111.003 92.7947 113.505 91.7514 116.247C90.7081 118.989 90.2325 121.914 90.3532 124.845C90.3115 128.588 91.0238 132.302 92.4475 135.764C93.8712 139.227 95.9772 142.367 98.6401 144.998C101.228 147.546 104.3 149.55 107.674 150.893C111.048 152.236 114.657 152.891 118.288 152.818Z" fill="#FF8CA7"/>
<path d="M44.4078 154.374C36.8724 154.392 29.6327 151.443 24.2547 146.165C21.446 143.378 19.2269 140.054 17.7297 136.391C16.2325 132.728 15.4878 128.801 15.5398 124.845C15.4015 121.708 15.9104 118.576 17.0349 115.644C18.1594 112.712 19.8753 110.044 22.076 107.804C25.1944 105.049 28.83 102.942 32.771 101.606C36.7119 100.27 40.8793 99.7318 45.0303 100.023C49.1812 99.734 53.348 100.273 57.2886 101.609C61.2292 102.945 64.865 105.051 67.9847 107.804C70.1853 110.044 71.9013 112.712 73.0258 115.644C74.1503 118.576 74.6592 121.708 74.5209 124.845C74.5729 128.801 73.8281 132.728 72.3309 136.391C70.8337 140.054 68.6147 143.378 65.806 146.165C63.0685 148.854 59.8191 150.966 56.2504 152.376C52.6818 153.786 48.8664 154.465 45.0303 154.374H44.4078ZM44.4078 101.696C36.6753 101.264 29.076 103.843 23.2042 108.893C21.158 110.997 19.564 113.498 18.5202 116.241C17.4765 118.985 17.005 121.912 17.1349 124.845C17.0807 128.592 17.7832 132.312 19.2005 135.781C20.6177 139.251 22.7205 142.399 25.3829 145.037C27.9788 147.582 31.0581 149.582 34.4391 150.918C37.8202 152.255 41.4346 152.9 45.0692 152.818C48.7039 152.9 52.3183 152.255 55.6993 150.918C59.0804 149.582 62.1596 147.582 64.7555 145.037C67.4132 142.403 69.5132 139.262 70.9303 135.799C72.3474 132.337 73.0525 128.624 73.0035 124.883C73.1334 121.951 72.662 119.023 71.6182 116.28C70.5745 113.537 68.9804 111.036 66.9342 108.932C63.942 106.354 60.4705 104.391 56.7186 103.156C52.9667 101.92 49.008 101.438 45.0692 101.735L44.4078 101.696Z" fill="#FF8CA7"/>
<path d="M104.984 49.7965H104.556C104.363 49.8333 104.165 49.8333 103.972 49.7965C101.414 49.1019 98.8155 48.5691 96.1908 48.2014C95.3349 48.2014 94.5568 47.968 93.8565 47.8124L90.5884 47.2677C83.4653 46.7056 76.6813 43.9919 71.1356 39.4865C63.6781 32.4568 58.2033 23.5872 55.262 13.7699C55.1026 13.2736 55.0627 12.7468 55.1456 12.2322C55.2285 11.7176 55.4319 11.23 55.7391 10.8089C56.0464 10.3879 56.4488 10.0455 56.9135 9.80954C57.3783 9.57361 57.8922 9.45087 58.4134 9.45132C68.6373 9.22953 78.7399 11.6982 87.7094 16.61C93.6999 20.5326 98.3651 26.1742 101.093 32.7948L102.649 35.7127C102.96 36.3352 103.349 37.0355 103.7 37.8136C104.86 40.1962 106.159 42.5085 107.59 44.7388C107.84 45.1034 108.015 45.514 108.105 45.9466C108.196 46.3793 108.199 46.8256 108.116 47.2597C108.033 47.6938 107.864 48.1071 107.621 48.4757C107.377 48.8444 107.062 49.1611 106.695 49.4075C106.285 49.6255 105.835 49.7579 105.373 49.7965H104.984ZM63.1599 15.9486C65.8062 22.9035 70.012 29.159 75.4541 34.2343C80.1222 37.8978 85.7939 40.0552 91.7167 40.4203L95.0626 41.0039L97.2024 41.354L98.4085 41.5485C98.2139 41.1595 98.0194 40.8093 97.8638 40.4592L96.8522 38.5139L95.2571 35.5181C93.0936 30.0089 89.2912 25.2966 84.3635 22.0179C77.8564 18.3912 70.6004 16.3142 63.1599 15.9486Z" fill="#00E600"/>
<path d="M47.0139 122.744H46.1191C45.3217 122.499 44.6461 121.963 44.2276 121.241C43.8091 120.52 43.6788 119.667 43.8626 118.853C48.4145 102.746 53.3556 87.1452 63.3154 73.2169C74.9871 56.7209 91.6777 45.9829 113.893 40.575C114.728 40.3875 115.603 40.5351 116.331 40.9861C117.059 41.4372 117.58 42.1557 117.783 42.9872C117.959 43.8269 117.802 44.7022 117.345 45.4282C116.887 46.1541 116.166 46.6739 115.332 46.8777C94.5956 51.9744 79.2279 61.7786 68.4121 76.9519C59.1136 90.0242 54.3671 105.003 49.9319 120.526C49.7183 121.142 49.3274 121.682 48.8082 122.076C48.289 122.471 47.6648 122.703 47.0139 122.744Z" fill="#00E600"/>
<path d="M116.341 122.746C115.748 122.741 115.165 122.581 114.653 122.281C114.141 121.98 113.717 121.55 113.423 121.034C104.125 103.915 90.2746 71.2735 101.752 45.0121C102.141 44.2667 102.8 43.6978 103.595 43.4211C104.389 43.1445 105.259 43.1809 106.027 43.523C106.796 43.865 107.405 44.487 107.731 45.2624C108.057 46.0378 108.075 46.9082 107.782 47.6966C103.269 57.851 98.7171 80.4941 119.065 117.727C119.343 118.232 119.484 118.801 119.475 119.378C119.465 119.954 119.305 120.518 119.01 121.014C118.715 121.509 118.295 121.919 117.793 122.202C117.291 122.486 116.723 122.633 116.147 122.629L116.341 122.746Z" fill="#00E600"/>
<path d="M104.983 48.3183H104.4C101.767 47.5985 99.0897 47.0526 96.3853 46.6842L94.0898 46.2952L90.8218 45.7116C83.9183 45.1616 77.348 42.5145 71.9914 38.125C64.6839 31.2617 59.3159 22.5924 56.4291 12.9919C56.3279 12.6994 56.2993 12.3867 56.346 12.0807C56.3927 11.7748 56.5132 11.4848 56.697 11.2358C56.8809 10.9868 57.1226 10.7863 57.4013 10.6517C57.68 10.5171 57.9873 10.4523 58.2966 10.463C68.2728 10.25 78.1311 12.6509 86.8923 17.4271C92.6605 21.1922 97.1508 26.6186 99.7701 32.9894C100.276 33.9232 100.782 34.9347 101.326 35.9074L102.377 37.9694C103.521 40.4227 104.821 42.8008 106.267 45.0891C106.443 45.3262 106.562 45.5999 106.616 45.8897C106.67 46.1796 106.657 46.4778 106.579 46.7621C106.432 47.2045 106.145 47.5869 105.762 47.8514C105.538 48.0599 105.273 48.219 104.983 48.3183ZM61.0978 14.4703C63.8351 22.3953 68.4543 29.5378 74.5592 35.2849C79.3783 39.2083 85.2857 41.5577 91.4832 42.0156L94.7901 42.5991L96.9689 42.9493L100.859 43.6107C100.159 42.3268 99.5756 41.1596 99.0309 40.0703C98.4862 38.9809 98.3306 38.6697 98.0193 38.125L96.4242 35.1292C94.1408 29.3871 90.1651 24.4751 85.0248 21.0454C77.7047 16.9352 69.4903 14.678 61.0978 14.4703Z" fill="#40FF40"/>
<path d="M47.0127 121.383H46.5069C46.2582 121.316 46.0253 121.199 45.8218 121.041C45.6183 120.883 45.4483 120.686 45.3216 120.462C45.1949 120.237 45.1141 119.99 45.0838 119.734C45.0535 119.478 45.0744 119.219 45.1452 118.971C49.6972 103.019 54.5993 87.535 64.4035 73.8013C76.0752 57.5776 92.3378 47.0341 114.358 41.6652C114.606 41.6008 114.864 41.5861 115.118 41.6217C115.371 41.6573 115.615 41.7426 115.836 41.8728C116.056 42.0029 116.249 42.1752 116.403 42.38C116.556 42.5847 116.668 42.8177 116.732 43.0658C116.85 43.571 116.765 44.1024 116.496 44.546C116.227 44.9896 115.795 45.3102 115.292 45.439C94.2053 50.6135 78.6041 60.6122 67.5938 76.0578C58.1008 89.2079 53.3154 104.264 48.8412 119.827C48.7611 120.256 48.5357 120.646 48.2028 120.929C47.8699 121.212 47.4497 121.373 47.0127 121.383Z" fill="#40FF40"/>
<path d="M116.343 121.382C115.993 121.387 115.647 121.295 115.345 121.117C115.043 120.938 114.796 120.68 114.631 120.37C107.911 108.379 103.07 95.4289 100.275 81.9704C97.5032 69.8318 98.5217 57.135 103.193 45.5935C103.275 45.3328 103.411 45.0922 103.593 44.8876C103.774 44.6829 103.996 44.5188 104.245 44.4059C104.494 44.2929 104.764 44.2337 105.037 44.2321C105.311 44.2305 105.581 44.2865 105.832 44.3965C106.082 44.5065 106.306 44.668 106.49 44.8705C106.673 45.073 106.812 45.3119 106.897 45.5717C106.983 45.8315 107.012 46.1063 106.984 46.3782C106.955 46.6501 106.87 46.913 106.734 47.1497C102.143 57.5765 97.5908 80.6087 118.055 118.503C118.294 118.959 118.346 119.489 118.201 119.983C118.056 120.476 117.724 120.894 117.277 121.148C116.989 121.299 116.669 121.379 116.343 121.382Z" fill="#40FF40"/>
<path d="M104.983 47.1507H104.711C102.039 46.4192 99.3232 45.8604 96.5797 45.4777L94.3232 45.1276L91.0162 44.544C84.3458 44.076 77.9785 41.5779 72.7694 37.3853C65.6458 30.6507 60.4253 22.1556 57.6351 12.758C57.5772 12.6504 57.5469 12.5301 57.5469 12.4079C57.5469 12.2856 57.5772 12.1653 57.6351 12.0577C57.7027 11.9561 57.7957 11.8739 57.9049 11.8193C58.0141 11.7647 58.1357 11.7396 58.2576 11.7465C68.1047 11.5389 77.8329 13.9273 86.4642 18.6717C92.0563 22.3403 96.3882 27.6364 98.8751 33.8449L100.431 36.8017C100.781 37.3853 101.132 38.0856 101.482 38.8248C102.713 41.2659 104.09 43.6305 105.606 45.9057C105.654 46.0092 105.68 46.1221 105.68 46.2364C105.68 46.3507 105.654 46.4636 105.606 46.5671C105.536 46.7526 105.414 46.9145 105.256 47.0339C105.174 47.0908 105.081 47.1305 104.983 47.1507ZM59.4636 13.2638C62.1928 22.0013 67.1388 29.8828 73.8198 36.1403C78.8121 40.1382 84.9075 42.5139 91.2885 42.9488L94.5955 43.5324L96.8131 43.8826C98.6417 44.1938 100.704 44.544 103.233 45.0887C102.097 43.2374 101.058 41.3284 100.12 39.3695C99.731 38.6303 99.3809 37.93 99.0696 37.3853L97.5912 34.234C95.1994 28.305 91.0609 23.2438 85.725 19.7221C77.6682 15.3573 68.6259 13.1336 59.4636 13.2638Z" fill="#8AFA8A"/>
<path d="M47.0135 120.216C46.9146 120.194 46.8214 120.151 46.7396 120.092C46.6578 120.032 46.5893 119.955 46.5382 119.868C46.4871 119.78 46.4546 119.683 46.4426 119.582C46.4307 119.482 46.4396 119.38 46.4688 119.283C50.9819 103.37 55.8451 88.1581 65.5715 74.4244C76.9709 58.4341 93.0778 48.0852 114.826 42.7551C115.027 42.7059 115.239 42.7347 115.42 42.8358C115.6 42.9369 115.736 43.1027 115.799 43.2998C115.846 43.5059 115.812 43.7225 115.703 43.9039C115.594 44.0853 115.419 44.2174 115.215 44.2724C65.8049 56.2943 55.3393 92.9046 47.7527 119.827C47.6759 119.953 47.5666 120.055 47.4365 120.123C47.3064 120.192 47.1603 120.224 47.0135 120.216Z" fill="#8AFA8A"/>
<path d="M116.343 120.217C116.203 120.214 116.066 120.177 115.944 120.109C115.822 120.041 115.718 119.945 115.642 119.828C109.022 107.921 104.247 95.0784 101.481 81.7389C98.7257 69.7927 99.6896 57.2896 104.243 45.9068C104.285 45.811 104.346 45.7246 104.422 45.6529C104.498 45.5811 104.587 45.5254 104.686 45.4891C104.784 45.4528 104.888 45.4366 104.992 45.4415C105.097 45.4464 105.199 45.4723 105.293 45.5177C105.477 45.6026 105.62 45.7558 105.693 45.9446C105.766 46.1334 105.762 46.3431 105.682 46.5292C100.975 57.2672 96.1895 80.9219 117.043 119.049C117.133 119.238 117.151 119.452 117.093 119.653C117.036 119.854 116.907 120.026 116.732 120.139L116.343 120.217Z" fill="#8AFA8A"/>
<path d="M111.831 123.717H110.703C109.599 123.637 108.505 123.455 107.435 123.172C107 123.052 106.594 122.848 106.239 122.571C105.884 122.294 105.586 121.949 105.364 121.557C105.142 121.165 104.999 120.733 104.944 120.286C104.889 119.839 104.922 119.385 105.042 118.951C105.162 118.517 105.367 118.11 105.644 117.755C105.921 117.4 106.265 117.103 106.657 116.88C107.049 116.658 107.481 116.515 107.928 116.46C108.375 116.405 108.829 116.438 109.263 116.558C109.928 116.719 110.604 116.823 111.286 116.87C111.972 116.947 112.663 116.947 113.348 116.87C114.051 116.793 114.743 116.636 115.41 116.403C116.083 116.161 116.734 115.861 117.356 115.508C118.508 114.77 119.532 113.85 120.39 112.785C120.9 112.125 121.641 111.682 122.463 111.545C123.285 111.408 124.129 111.587 124.826 112.045C125.519 112.578 125.976 113.36 126.1 114.225C126.223 115.091 126.003 115.97 125.487 116.675C124.817 117.564 124.062 118.386 123.23 119.126C122.413 119.898 121.513 120.576 120.546 121.149C118.532 122.313 116.313 123.079 114.01 123.406C113.289 123.547 112.562 123.651 111.831 123.717Z" fill="#FF003E"/>
<path d="M51.5255 123.717C50.7739 123.757 50.0206 123.757 49.269 123.717C48.1168 123.556 46.9831 123.282 45.8842 122.9C44.7952 122.54 43.751 122.057 42.7717 121.461C41.7929 120.887 40.8797 120.209 40.0483 119.437C39.2295 118.696 38.4866 117.875 37.8307 116.986C37.5128 116.634 37.2754 116.217 37.1349 115.764C36.9944 115.311 36.9542 114.833 37.0172 114.363C37.0801 113.893 37.2446 113.442 37.4993 113.042C37.754 112.641 38.0928 112.301 38.4921 112.045C38.8419 111.787 39.2392 111.6 39.6614 111.495C40.0835 111.39 40.5222 111.37 40.9523 111.435C41.3823 111.5 41.7953 111.649 42.1676 111.874C42.5399 112.099 42.8642 112.395 43.1219 112.746C43.5135 113.292 43.9708 113.789 44.4836 114.224C44.9906 114.703 45.5521 115.121 46.1565 115.469C46.761 115.829 47.3996 116.129 48.0629 116.364C48.7315 116.593 49.4228 116.75 50.1249 116.831C50.8101 116.908 51.5017 116.908 52.1869 116.831C52.8691 116.786 53.546 116.682 54.21 116.52C55.04 116.339 55.9074 116.486 56.6326 116.928C57.3577 117.37 57.8849 118.074 58.105 118.894C58.3251 119.715 58.2211 120.588 57.8147 121.334C57.4083 122.08 56.7305 122.64 55.9219 122.9C54.8503 123.176 53.7568 123.358 52.6538 123.445L51.5255 123.717Z" fill="#FF003E"/>
<path d="M111.831 122.161H110.78C109.768 122.09 108.764 121.921 107.784 121.655C107.529 121.591 107.289 121.478 107.077 121.321C106.865 121.164 106.687 120.967 106.551 120.741C106.416 120.516 106.326 120.265 106.287 120.005C106.249 119.745 106.262 119.479 106.325 119.224C106.389 118.968 106.503 118.728 106.66 118.516C106.816 118.305 107.013 118.126 107.239 117.99C107.465 117.855 107.715 117.765 107.976 117.727C108.236 117.688 108.502 117.701 108.757 117.765C109.503 117.992 110.274 118.122 111.053 118.154C111.816 118.232 112.585 118.232 113.348 118.154C114.155 118.051 114.95 117.868 115.721 117.609C116.472 117.328 117.201 116.99 117.9 116.597C118.572 116.2 119.198 115.731 119.767 115.197C120.335 114.673 120.856 114.1 121.324 113.485C121.477 113.281 121.669 113.108 121.889 112.978C122.109 112.848 122.352 112.762 122.605 112.726C122.858 112.69 123.115 112.704 123.363 112.768C123.61 112.831 123.843 112.943 124.047 113.096C124.251 113.249 124.424 113.441 124.554 113.661C124.684 113.881 124.769 114.124 124.806 114.377C124.842 114.63 124.828 114.887 124.764 115.135C124.701 115.382 124.589 115.615 124.436 115.819C123.821 116.634 123.13 117.39 122.374 118.076C121.604 118.775 120.771 119.4 119.884 119.943C118.957 120.478 117.98 120.922 116.966 121.266C115.974 121.631 114.942 121.879 113.893 122.005C113.211 122.114 112.521 122.166 111.831 122.161Z" fill="#FF406E"/>
<path d="M51.5258 122.161C50.8397 122.22 50.1498 122.22 49.4638 122.161C48.4021 122.03 47.3583 121.782 46.3513 121.422C45.3472 121.085 44.3821 120.641 43.4723 120.099C42.5733 119.556 41.7267 118.931 40.9434 118.231C40.1892 117.555 39.5108 116.798 38.9203 115.975C38.767 115.771 38.6555 115.538 38.5921 115.291C38.5287 115.043 38.5147 114.786 38.5508 114.533C38.5869 114.28 38.6725 114.036 38.8027 113.817C38.9328 113.597 39.105 113.405 39.3094 113.252C39.7256 112.952 40.2417 112.825 40.7494 112.897C41.2572 112.97 41.7171 113.236 42.0328 113.641C42.4868 114.255 42.9945 114.828 43.5501 115.352C44.1254 115.896 44.7658 116.366 45.4565 116.753C46.1484 117.16 46.878 117.498 47.6352 117.765C48.3931 118.024 49.1752 118.206 49.9695 118.309C50.7457 118.387 51.5277 118.387 52.3039 118.309C53.0694 118.275 53.8275 118.144 54.5604 117.92C54.8159 117.854 55.0819 117.838 55.3433 117.875C55.6048 117.911 55.8565 117.999 56.0841 118.132C56.3117 118.266 56.5107 118.443 56.6698 118.654C56.829 118.864 56.945 119.104 57.0115 119.36C57.0779 119.615 57.0933 119.881 57.0569 120.143C57.0205 120.404 56.933 120.656 56.7993 120.883C56.6657 121.111 56.4885 121.31 56.2779 121.469C56.0673 121.628 55.8274 121.744 55.572 121.811C54.5784 122.074 53.5624 122.243 52.5373 122.317L51.5258 122.161Z" fill="#FF406E"/>
<path d="M111.831 120.993H110.858C109.914 120.914 108.977 120.758 108.057 120.527C107.863 120.472 107.698 120.344 107.596 120.17C107.495 119.996 107.465 119.789 107.513 119.593C107.568 119.389 107.7 119.214 107.881 119.105C108.062 118.996 108.279 118.962 108.485 119.009C109.295 119.249 110.131 119.393 110.975 119.437C111.816 119.515 112.663 119.515 113.504 119.437C114.381 119.331 115.243 119.122 116.072 118.815C116.913 118.539 117.721 118.174 118.484 117.725C119.219 117.273 119.909 116.752 120.546 116.169C121.185 115.613 121.76 114.987 122.258 114.302C122.408 114.168 122.601 114.094 122.802 114.094C123.003 114.094 123.197 114.168 123.347 114.302C123.481 114.451 123.555 114.645 123.555 114.846C123.555 115.047 123.481 115.241 123.347 115.391C122.784 116.154 122.145 116.858 121.441 117.492C120.729 118.148 119.946 118.723 119.106 119.204C118.275 119.719 117.388 120.137 116.461 120.449C115.522 120.76 114.559 120.994 113.582 121.149L111.831 120.993Z" fill="#FF8CA7"/>
<path d="M51.527 120.994C50.8921 121.034 50.2554 121.034 49.6206 120.994C48.6435 120.839 47.6807 120.604 46.7416 120.294C45.8053 119.974 44.9054 119.557 44.0571 119.049C43.2297 118.548 42.4485 117.975 41.7227 117.337C41.0306 116.702 40.4049 115.998 39.8552 115.236C39.7127 115.09 39.6328 114.895 39.6328 114.691C39.6328 114.487 39.7127 114.292 39.8552 114.146C40.0086 114.02 40.2011 113.951 40.3999 113.951C40.5987 113.951 40.7913 114.02 40.9446 114.146C41.4293 114.831 41.9906 115.457 42.6175 116.014C43.2616 116.588 43.9512 117.108 44.6795 117.57C45.4459 118.012 46.2538 118.376 47.0917 118.659C47.9213 118.963 48.7828 119.172 49.6595 119.282C50.5136 119.36 51.3731 119.36 52.2273 119.282C53.0708 119.234 53.9062 119.091 54.7172 118.854C54.9176 118.817 55.1244 118.857 55.2972 118.965C55.4699 119.073 55.5961 119.241 55.651 119.438C55.6801 119.535 55.689 119.637 55.6771 119.737C55.6652 119.838 55.6326 119.935 55.5816 120.023C55.5305 120.11 55.4619 120.187 55.3801 120.246C55.2984 120.306 55.2052 120.349 55.1063 120.371C54.1873 120.606 53.2503 120.762 52.3051 120.838L51.527 120.994Z" fill="#FF8CA7"/>
</g>
</g>
<defs>
<filter id="filter0_d_601_2484" x="4.21886" y="-0.780946" width="163.404" height="175.076" filterUnits="userSpaceOnUse" color-interpolation-filters="sRGB">
<feFlood flood-opacity="0" result="BackgroundImageFix"/>
<feColorMatrix in="SourceAlpha" type="matrix" values="0 0 0 0 0 0 0 0 0 0 0 0 0 0 0 0 0 0 127 0" result="hardAlpha"/>
<feOffset dx="3.89057" dy="3.89057"/>
<feGaussianBlur stdDeviation="5.83586"/>
<feComposite in2="hardAlpha" operator="out"/>
<feColorMatrix type="matrix" values="0 0 0 0 1 0 0 0 0 0 0 0 0 0 0.240838 0 0 0 1 0"/>
<feBlend mode="normal" in2="BackgroundImageFix" result="effect1_dropShadow_601_2484"/>
<feBlend mode="normal" in="SourceGraphic" in2="effect1_dropShadow_601_2484" result="shape"/>
</filter>
<clipPath id="clip0_601_2484">
<rect width="164" height="164" fill="white" transform="translate(0.867188 0.383011)"/>
</clipPath>
</defs>
</svg>
