<svg width="164" height="164" viewBox="0 0 164 164" fill="none" xmlns="http://www.w3.org/2000/svg">
<g opacity="0.6">
<path opacity="0.6" d="M83.1702 147.641C82.6616 147.639 82.1611 147.514 81.7102 147.279C81.2594 147.044 80.8712 146.705 80.578 146.289L17.427 59.0946C17.0761 58.6211 16.8648 58.0589 16.817 57.4715C16.7693 56.8841 16.8869 56.295 17.1567 55.7711C17.4265 55.2471 17.8377 54.8092 18.3436 54.5069C18.8494 54.2046 19.4299 54.05 20.0191 54.0606H146.284C146.873 54.05 147.453 54.2046 147.959 54.5069C148.465 54.8092 148.876 55.2471 149.146 55.7711C149.416 56.295 149.534 56.8841 149.486 57.4715C149.438 58.0589 149.227 58.6211 148.876 59.0946L85.7624 146.289C85.4649 146.7 85.0759 147.036 84.6259 147.271C84.176 147.506 83.6776 147.633 83.1702 147.641ZM26.2553 60.447L83.1702 139.001L140.047 60.447H26.2553Z" fill="black"/>
<path opacity="0.6" d="M83.1714 147.643C82.4994 147.646 81.8436 147.437 81.2972 147.046C80.7508 146.655 80.3418 146.101 80.1284 145.464L41.3587 33.1747L22.5749 59.0963C22.3289 59.4375 22.0179 59.7268 21.6597 59.9475C21.3016 60.1682 20.9034 60.316 20.488 60.3823C20.0725 60.4487 19.6481 60.4322 19.239 60.334C18.83 60.2358 18.4444 60.0578 18.1043 59.8101C17.7643 59.5675 17.4758 59.2599 17.2556 58.905C17.0354 58.5501 16.8878 58.155 16.8214 57.7427C16.755 57.3303 16.7711 56.9089 16.8688 56.5028C16.9665 56.0968 17.1439 55.7141 17.3906 55.3771L39.7433 24.459C40.0161 24.1367 40.3475 23.869 40.72 23.6701L41.4714 23.3695H42.2227H123.895C124.194 23.3306 124.497 23.3306 124.796 23.3695H125.097C125.584 23.5699 126.012 23.8936 126.337 24.3087L148.689 55.2268C148.97 55.562 149.18 55.9513 149.304 56.3707C149.428 56.7901 149.465 57.2306 149.412 57.6649C149.36 58.0991 149.218 58.5178 148.997 58.8951C148.775 59.2724 148.479 59.6002 148.125 59.8581C147.772 60.116 147.369 60.2986 146.943 60.3945C146.516 60.4903 146.074 60.4975 145.644 60.4155C145.214 60.3335 144.806 60.1641 144.445 59.9178C144.083 59.6715 143.776 59.3535 143.542 58.9836L124.759 33.0619L116.081 58.1571L86.0265 145.314C85.8495 145.95 85.48 146.515 84.9688 146.932C84.4575 147.349 83.8296 147.597 83.1714 147.643ZM56.7238 58.082L83.0211 134.682L109.807 58.082L83.5095 30.9582L56.7238 58.082ZM46.8811 29.5306L54.3946 51.2822L75.5827 29.5306H46.8811ZM90.7224 29.5306L111.948 51.2822L119.462 29.5306H90.7224Z" fill="black"/>
<path opacity="0.6" d="M83.1702 146.328C82.8701 146.323 82.575 146.25 82.3079 146.113C82.0408 145.976 81.8088 145.78 81.6299 145.539L18.4788 58.3443C18.2817 58.0593 18.1656 57.7261 18.1428 57.3803C18.12 57.0345 18.1915 56.689 18.3496 56.3806C18.5076 56.0722 18.7463 55.8125 19.0403 55.629C19.3343 55.4456 19.6726 55.3453 20.0191 55.3389H146.284C146.635 55.3425 146.978 55.4425 147.276 55.628C147.574 55.8135 147.816 56.0774 147.974 56.3908C148.158 56.6836 148.255 57.0221 148.255 57.3675C148.255 57.713 148.158 58.0515 147.974 58.3443L84.6729 145.539C84.5041 145.781 84.2794 145.979 84.0179 146.117C83.7563 146.254 83.4656 146.326 83.1702 146.328ZM23.7007 59.0956L83.1702 141.218L142.64 59.0956H23.7007Z" fill="black"/>
<path opacity="0.6" d="M83.1714 146.328C82.7757 146.327 82.39 146.204 82.0671 145.975C81.7442 145.747 81.5001 145.424 81.3682 145.051L41.772 30.3567L21.523 58.3446C21.2291 58.7481 20.7869 59.0183 20.2938 59.0958C19.8006 59.1733 19.2968 59.0517 18.8933 58.7578C18.4898 58.4639 18.2195 58.0217 18.142 57.5285C18.0645 57.0354 18.1861 56.5316 18.4801 56.1281L41.0206 25.2475C41.1895 25.0007 41.4236 24.8056 41.6968 24.684H42.0725H42.5609H124.082C124.294 24.6483 124.51 24.6483 124.721 24.684C125.075 24.828 125.385 25.0609 125.623 25.3602L147.975 56.2408C148.121 56.4406 148.226 56.6671 148.284 56.9074C148.342 57.1477 148.352 57.397 148.313 57.6412C148.275 57.8854 148.189 58.1197 148.06 58.3306C147.931 58.5415 147.762 58.725 147.562 58.8705C147.362 59.016 147.136 59.1208 146.896 59.1788C146.655 59.2368 146.406 59.2469 146.162 59.2085C145.917 59.1701 145.683 59.084 145.472 58.9551C145.261 58.8262 145.078 58.6571 144.932 58.4573L124.683 30.4694L115.179 57.9689L85.1249 145.163C84.9664 145.541 84.6912 145.857 84.3397 146.067C83.9881 146.276 83.5787 146.368 83.1714 146.328ZM55.2211 57.7059L83.1714 138.664L111.122 57.7059L83.1714 29.0418L55.2211 57.7059ZM45.0028 28.2154L53.8311 53.7613L78.7009 28.2154H45.0028ZM87.6044 28.2154L112.474 53.7613L121.302 28.2154H87.6044Z" fill="black"/>
<path opacity="0.6" d="M83.1726 145.199C83.0475 145.195 82.925 145.162 82.8144 145.104C82.7038 145.045 82.6079 144.962 82.534 144.861L19.4205 57.667C19.3473 57.5484 19.3086 57.4119 19.3086 57.2726C19.3086 57.1332 19.3473 56.9967 19.4205 56.8781C19.4867 56.7557 19.5842 56.653 19.7029 56.5804C19.8217 56.5078 19.9575 56.468 20.0967 56.4648H146.286C146.425 56.468 146.561 56.5078 146.68 56.5804C146.799 56.653 146.896 56.7557 146.962 56.8781C147.035 56.9967 147.074 57.1332 147.074 57.2726C147.074 57.4119 147.035 57.5484 146.962 57.667L83.7737 144.861C83.7038 144.958 83.6139 145.038 83.5101 145.096C83.4064 145.154 83.2913 145.19 83.1726 145.199ZM21.4867 58.0803L83.1726 143.133L144.821 58.0803H21.4867Z" fill="black"/>
<path opacity="0.6" d="M83.1717 145.201C83.0123 145.2 82.8572 145.149 82.7289 145.054C82.6006 144.96 82.5057 144.827 82.4579 144.675L42.1855 28.0275L20.6592 57.7435C20.5188 57.8811 20.33 57.9582 20.1333 57.9582C19.9366 57.9582 19.7478 57.8811 19.6073 57.7435C19.4697 57.603 19.3926 57.4142 19.3926 57.2175C19.3926 57.0208 19.4697 56.832 19.6073 56.6916L42.1479 25.811H42.3733H124.27C124.377 25.8144 124.482 25.8394 124.579 25.8846C124.676 25.9298 124.762 25.9943 124.834 26.074L147.374 56.9545C147.489 57.1189 147.533 57.3221 147.498 57.5194C147.463 57.7167 147.351 57.8919 147.186 58.0064C147.022 58.121 146.819 58.1656 146.621 58.1304C146.424 58.0951 146.249 57.983 146.134 57.8186L124.157 28.0275L113.977 57.5556L83.923 144.75C83.8564 144.891 83.7494 145.009 83.6157 145.089C83.482 145.169 83.3274 145.208 83.1717 145.201ZM53.9065 57.4429L83.1717 142.12L112.399 57.4429L83.1717 27.3889L53.9065 57.4429ZM43.4252 27.0883L53.4557 55.8275L81.4436 27.0883H43.4252ZM84.9373 27.0883L112.962 55.8275L122.88 27.0883H84.9373Z" fill="black"/>
</g>
<g filter="url(#filter0_d_262_11960)">
<path d="M79.4124 143.885C78.9038 143.882 78.4033 143.758 77.9524 143.522C77.5015 143.287 77.1133 142.948 76.8202 142.532L13.6691 55.3378C13.3182 54.8643 13.1069 54.302 13.0592 53.7146C13.0114 53.1272 13.1291 52.5382 13.3989 52.0142C13.6687 51.4903 14.0798 51.0524 14.5857 50.7501C15.0916 50.4477 15.672 50.2931 16.2613 50.3037H142.526C143.115 50.2931 143.696 50.4477 144.201 50.7501C144.707 51.0524 145.118 51.4903 145.388 52.0142C145.658 52.5382 145.776 53.1272 145.728 53.7146C145.68 54.302 145.469 54.8643 145.118 55.3378L82.0045 142.532C81.7071 142.943 81.318 143.28 80.8681 143.514C80.4182 143.749 79.9198 143.876 79.4124 143.885ZM22.4975 56.6902L79.4124 135.244L136.29 56.6902H22.4975Z" fill="#00B0E6"/>
<path d="M79.4135 143.886C78.7416 143.889 78.0857 143.681 77.5394 143.289C76.993 142.898 76.584 142.344 76.3706 141.707L37.6008 29.4178L18.817 55.3394C18.571 55.6807 18.26 55.97 17.9019 56.1907C17.5438 56.4114 17.1455 56.5592 16.7301 56.6255C16.3147 56.6918 15.8903 56.6754 15.4812 56.5772C15.0722 56.479 14.6865 56.3009 14.3465 56.0532C14.0065 55.8107 13.718 55.5031 13.4978 55.1482C13.2775 54.7933 13.1299 54.3982 13.0635 53.9859C12.9971 53.5735 13.0133 53.1521 13.111 52.746C13.2087 52.3399 13.386 51.9573 13.6327 51.6203L35.9854 20.7022C36.2583 20.3799 36.5897 20.1122 36.9622 19.9132L37.7135 19.6127H38.4649H120.137C120.436 19.5738 120.739 19.5738 121.038 19.6127H121.339C121.827 19.8131 122.254 20.1367 122.579 20.5519L144.931 51.47C145.212 51.8052 145.422 52.1945 145.546 52.6139C145.671 53.0333 145.707 53.4738 145.655 53.908C145.602 54.3423 145.46 54.761 145.239 55.1383C145.017 55.5156 144.721 55.8433 144.367 56.1012C144.014 56.3591 143.611 56.5417 143.185 56.6376C142.758 56.7335 142.316 56.7407 141.886 56.6587C141.456 56.5767 141.048 56.4073 140.687 56.1609C140.325 55.9146 140.018 55.5966 139.785 55.2267L121.001 29.3051L112.323 54.4002L82.2687 141.557C82.0917 142.193 81.7222 142.758 81.2109 143.175C80.6997 143.592 80.0718 143.841 79.4135 143.886ZM52.966 54.3251L79.2633 130.925L106.049 54.3251L79.7516 27.2013L52.966 54.3251ZM43.1233 25.7738L50.6368 47.5254L71.8249 25.7738H43.1233ZM86.9646 25.7738L108.19 47.5254L115.704 25.7738H86.9646Z" fill="#00B0E6"/>
<path d="M79.4123 142.571C79.1122 142.566 78.8172 142.493 78.5501 142.356C78.2829 142.219 78.0509 142.023 77.8721 141.782L14.721 54.5874C14.5238 54.3024 14.4077 53.9693 14.385 53.6235C14.3622 53.2777 14.4337 52.9322 14.5917 52.6238C14.7498 52.3154 14.9885 52.0557 15.2825 51.8722C15.5765 51.6887 15.9148 51.5885 16.2612 51.582H142.526C142.877 51.5856 143.22 51.6856 143.518 51.8711C143.817 52.0567 144.058 52.3205 144.216 52.6339C144.4 52.9268 144.497 53.2652 144.497 53.6107C144.497 53.9561 144.4 54.2946 144.216 54.5874L80.915 141.782C80.7462 142.024 80.5216 142.222 80.26 142.36C79.9985 142.497 79.7077 142.569 79.4123 142.571ZM19.9429 55.3388L79.4123 137.461L138.882 55.3388H19.9429Z" fill="#5FDBFF"/>
<path d="M79.4155 142.571C79.0198 142.57 78.634 142.447 78.3111 142.218C77.9883 141.99 77.7441 141.667 77.6122 141.294L38.016 26.5999L17.7671 54.5877C17.4732 54.9912 17.031 55.2615 16.5378 55.339C16.0446 55.4165 15.5409 55.2949 15.1374 55.001C14.7338 54.707 14.4636 54.2649 14.3861 53.7717C14.3086 53.2785 14.4302 52.7748 14.7241 52.3713L37.2647 21.4907C37.4336 21.2439 37.6677 21.0488 37.9409 20.9272H38.3166H38.8049H120.327C120.538 20.8915 120.754 20.8915 120.965 20.9272C121.319 21.0711 121.63 21.3041 121.867 21.6034L144.22 52.4839C144.365 52.6838 144.47 52.9102 144.528 53.1505C144.586 53.3908 144.596 53.6402 144.558 53.8844C144.519 54.1286 144.433 54.3628 144.304 54.5737C144.175 54.7847 144.006 54.9681 143.806 55.1137C143.606 55.2592 143.38 55.364 143.14 55.422C142.899 55.4799 142.65 55.4901 142.406 55.4517C142.162 55.4133 141.927 55.3272 141.716 55.1983C141.506 55.0694 141.322 54.9002 141.177 54.7004L120.928 26.7126L111.423 54.2121L81.369 141.406C81.2104 141.784 80.9353 142.1 80.5837 142.31C80.2322 142.519 79.8228 142.611 79.4155 142.571ZM51.4652 53.9491L79.4155 134.907L107.366 53.9491L79.4155 25.285L51.4652 53.9491ZM41.2468 24.4585L50.0752 50.0045L74.9449 24.4585H41.2468ZM83.8484 24.4585L108.718 50.0045L117.547 24.4585H83.8484Z" fill="#5FDBFF"/>
<path d="M79.4149 141.443C79.2898 141.439 79.1673 141.406 79.0567 141.348C78.946 141.289 78.8501 141.206 78.7762 141.105L15.6627 53.9107C15.5896 53.7921 15.5508 53.6555 15.5508 53.5162C15.5508 53.3769 15.5896 53.2403 15.6627 53.1217C15.729 52.9993 15.8264 52.8966 15.9452 52.8241C16.0639 52.7515 16.1998 52.7116 16.3389 52.7085H142.529C142.668 52.7116 142.804 52.7515 142.923 52.8241C143.041 52.8966 143.139 52.9993 143.205 53.1217C143.278 53.2403 143.317 53.3769 143.317 53.5162C143.317 53.6555 143.278 53.7921 143.205 53.9107L80.016 141.105C79.946 141.201 79.8561 141.281 79.7524 141.34C79.6486 141.398 79.5335 141.433 79.4149 141.443ZM17.7289 54.3239L79.4149 139.377L141.064 54.3239H17.7289Z" fill="#A2E9FF"/>
<path d="M79.4139 141.444C79.2546 141.443 79.0995 141.392 78.9712 141.297C78.8429 141.203 78.748 141.07 78.7001 140.918L38.4277 24.2707L16.9015 53.9866C16.7611 54.1243 16.5722 54.2014 16.3756 54.2014C16.1789 54.2014 15.9901 54.1243 15.8496 53.9866C15.7119 53.8462 15.6348 53.6573 15.6348 53.4607C15.6348 53.264 15.7119 53.0752 15.8496 52.9347L38.3901 22.0542H38.6156H120.513C120.62 22.0576 120.725 22.0826 120.822 22.1278C120.919 22.173 121.006 22.2374 121.077 22.3172L143.617 53.1977C143.732 53.3621 143.776 53.5653 143.741 53.7626C143.706 53.9598 143.594 54.135 143.429 54.2496C143.265 54.3642 143.062 54.4088 142.865 54.3735C142.667 54.3383 142.492 54.2262 142.378 54.0618L120.401 24.2707L110.22 53.7988L80.1653 140.993C80.0986 141.134 79.9917 141.252 79.8579 141.332C79.7242 141.413 79.5697 141.451 79.4139 141.444ZM50.1488 53.6861L79.4139 138.363L108.642 53.6861L79.4139 23.632L50.1488 53.6861ZM39.6674 23.3315L49.698 52.0707L77.6858 23.3315H39.6674ZM81.1796 23.3315L109.205 52.0707L119.123 23.3315H81.1796Z" fill="#A2E9FF"/>
</g>
<defs>
<filter id="filter0_d_262_11960" x="5.50992" y="12.07" width="155.255" height="146.843" filterUnits="userSpaceOnUse" color-interpolation-filters="sRGB">
<feFlood flood-opacity="0" result="BackgroundImageFix"/>
<feColorMatrix in="SourceAlpha" type="matrix" values="0 0 0 0 0 0 0 0 0 0 0 0 0 0 0 0 0 0 127 0" result="hardAlpha"/>
<feOffset dx="3.75676" dy="3.75676"/>
<feGaussianBlur stdDeviation="5.63514"/>
<feColorMatrix type="matrix" values="0 0 0 0 0 0 0 0 0 0.762376 0 0 0 0 1 0 0 0 1 0"/>
<feBlend mode="normal" in2="BackgroundImageFix" result="effect1_dropShadow_262_11960"/>
<feBlend mode="normal" in="SourceGraphic" in2="effect1_dropShadow_262_11960" result="shape"/>
</filter>
</defs>
</svg>
