<svg width="164" height="164" viewBox="0 0 164 164" fill="none" xmlns="http://www.w3.org/2000/svg">
<g opacity="0.6">
<path opacity="0.6" d="M71.6 150.679C70.3092 150.691 69.0187 150.633 67.7342 150.505C65.378 150.288 63.0466 149.856 60.7686 149.217C59.1263 148.74 57.5201 148.146 55.9624 147.44C55.3033 147.868 54.6033 148.23 53.8728 148.52C53.1665 148.825 52.4315 149.058 51.6786 149.217C50.9322 149.357 50.1743 149.427 49.4148 149.425C48.6554 149.425 47.8977 149.355 47.151 149.217C46.4059 149.044 45.673 148.823 44.9569 148.555C44.2402 148.245 43.5525 147.872 42.9021 147.44C42.2331 146.998 41.6142 146.484 41.0562 145.908C40.4701 145.359 39.9552 144.739 39.5238 144.062C39.092 143.412 38.719 142.724 38.4093 142.007C38.1408 141.291 37.9198 140.558 37.7476 139.813C37.6107 139.066 37.5407 138.309 37.5386 137.549C37.5374 136.79 37.6074 136.032 37.7476 135.286C37.9152 134.528 38.1363 133.783 38.4093 133.057C38.7327 132.347 39.1051 131.66 39.5238 131.002V130.828C38.8235 129.268 38.23 127.662 37.7476 126.021C37.1077 123.743 36.6764 121.412 36.459 119.056C36.2324 116.6 36.2324 114.128 36.459 111.672C36.6492 109.137 37.0452 106.621 37.6431 104.15C38.2472 101.587 39.0388 99.0731 40.0114 96.6269C41.0098 94.0923 42.1733 91.6259 43.4942 89.2434C44.9028 86.8264 46.4615 84.5 48.161 82.2779C49.9483 79.9326 51.8915 77.7102 53.9772 75.6258C56.0668 73.5697 58.2764 71.6391 60.5945 69.8444C62.8133 68.1297 65.1399 66.5593 67.56 65.1428C68.2454 64.7633 69.0522 64.6674 69.8074 64.8757C70.5626 65.084 71.2062 65.58 71.6 66.2572C71.7925 66.5956 71.9164 66.9686 71.9646 67.3549C72.0127 67.7412 71.9842 68.1331 71.8807 68.5084C71.7772 68.8836 71.6007 69.2348 71.3613 69.5417C71.1219 69.8487 70.8243 70.1054 70.4855 70.2972C68.2583 71.5711 66.1176 72.9905 64.0773 74.5462C61.9554 76.1773 59.9427 77.9457 58.0521 79.84C56.1617 81.7242 54.4045 83.7374 52.7931 85.8652C51.24 87.883 49.8206 90.0004 48.5441 92.2037C47.3365 94.3391 46.2663 96.5494 45.34 98.821C44.4744 101.009 43.7645 103.255 43.2155 105.543C42.6978 107.718 42.3485 109.931 42.1707 112.16C41.9962 114.281 41.9962 116.413 42.1707 118.533C42.3404 120.563 42.7138 122.569 43.2852 124.524C43.8013 126.432 44.5254 128.277 45.4445 130.027C45.7418 130.586 45.8516 131.227 45.7575 131.854C45.6635 132.481 45.3706 133.061 44.9221 133.509C44.6352 133.805 44.3676 134.119 44.1211 134.45C43.9193 134.783 43.7446 135.133 43.5986 135.494C43.4512 135.843 43.3347 136.205 43.2504 136.574C43.2159 136.956 43.2159 137.341 43.2504 137.723C43.2176 138.094 43.2176 138.467 43.2504 138.838C43.3132 139.213 43.4306 139.577 43.5986 139.918C43.7446 140.279 43.9193 140.629 44.1211 140.962C44.6048 141.632 45.1927 142.22 45.8624 142.704C46.1885 142.919 46.5393 143.095 46.9072 143.226C47.2543 143.379 47.6161 143.495 47.9869 143.574C48.3576 143.609 48.7307 143.609 49.1014 143.574C49.4837 143.609 49.8684 143.609 50.2507 143.574C50.6201 143.49 50.9814 143.374 51.3304 143.226C51.6992 143.082 52.0498 142.895 52.3752 142.669C52.7053 142.435 53.0195 142.179 53.3155 141.903C53.7636 141.454 54.3438 141.161 54.9708 141.067C55.5977 140.973 56.2384 141.083 56.7983 141.38C58.5613 142.27 60.4035 142.993 62.301 143.54C64.2547 144.114 66.2619 144.487 68.2914 144.654C70.4123 144.829 72.5439 144.829 74.6648 144.654C76.8935 144.471 79.1054 144.122 81.2821 143.609C83.5654 143.044 85.8105 142.335 88.0038 141.485C90.2754 140.559 92.4857 139.488 94.6211 138.281C96.8483 137.007 98.989 135.587 101.029 134.032C103.157 132.42 105.17 130.663 107.055 128.773C108.949 126.882 110.717 124.869 112.348 122.748C113.904 120.707 115.323 118.567 116.597 116.339C117.814 114.202 118.874 111.979 119.767 109.687C120.637 107.513 121.347 105.278 121.891 103C122.406 100.812 122.755 98.5887 122.936 96.3482C123.128 94.2281 123.128 92.0949 122.936 89.9748C122.758 87.9495 122.396 85.9446 121.856 83.9845C121.313 82.092 120.578 80.2598 119.662 78.5165C119.369 77.953 119.265 77.3103 119.365 76.6831C119.466 76.056 119.765 75.4777 120.219 75.0338C120.785 74.464 121.234 73.7898 121.543 73.0486C121.684 72.7003 121.789 72.3386 121.856 71.9689C121.891 71.5982 121.891 71.2252 121.856 70.8545C121.892 70.4838 121.892 70.1106 121.856 69.74C121.789 69.359 121.684 68.9857 121.543 68.6255C121.392 68.2709 121.205 67.9325 120.986 67.6155C120.553 66.9037 119.956 66.3064 119.244 65.8741C118.927 65.6547 118.589 65.4681 118.234 65.3169C117.874 65.1758 117.501 65.0708 117.12 65.0034C116.749 64.9675 116.376 64.9675 116.005 65.0034C115.634 64.969 115.261 64.969 114.891 65.0034C114.521 65.0708 114.159 65.1758 113.811 65.3169C113.07 65.6254 112.396 66.0748 111.826 66.6403C111.382 67.0945 110.804 67.3939 110.177 67.4943C109.549 67.5946 108.907 67.4906 108.343 67.1976C106.6 66.2821 104.768 65.5469 102.875 65.0034C102.472 64.9265 102.09 64.7666 101.752 64.5339C101.414 64.3012 101.128 64.0009 100.912 63.6518C100.696 63.3028 100.556 62.9128 100.499 62.5065C100.442 62.1002 100.47 61.6865 100.581 61.2916C100.693 60.8967 100.885 60.5294 101.146 60.2128C101.407 59.8962 101.731 59.6373 102.097 59.4525C102.464 59.2677 102.864 59.1611 103.274 59.1394C103.684 59.1178 104.093 59.1815 104.477 59.3266C106.124 59.7759 107.731 60.3583 109.283 61.0679H109.492C110.135 60.6328 110.824 60.2707 111.547 59.9882C112.96 59.4016 114.476 59.1055 116.005 59.1175C116.765 59.1163 117.523 59.1863 118.269 59.3266C119.025 59.4568 119.761 59.679 120.463 59.9882C121.194 60.2781 121.894 60.6398 122.553 61.0679C123.925 61.9961 125.107 63.1783 126.036 64.5507C126.464 65.2098 126.825 65.9098 127.115 66.6403C127.409 67.3477 127.63 68.0828 127.777 68.8345C127.917 69.5809 127.987 70.3388 127.986 71.0982C127.985 71.8576 127.916 72.6154 127.777 73.3621C127.626 74.1126 127.404 74.8471 127.115 75.5562C126.834 76.2866 126.46 76.9773 126.001 77.611V77.7851C126.705 79.3516 127.287 80.9701 127.742 82.6262C128.398 84.9021 128.841 87.2339 129.066 89.5917C129.257 92.0491 129.257 94.5178 129.066 96.9752C128.856 99.5084 128.46 102.023 127.881 104.498C127.276 107.064 126.473 109.579 125.478 112.021C124.494 114.561 123.33 117.029 121.996 119.404C120.603 121.831 119.044 124.159 117.329 126.37C115.534 128.688 113.603 130.897 111.547 132.987C109.471 135.071 107.248 137.003 104.895 138.768C100.448 142.17 95.5479 144.937 90.3373 146.988C87.8911 147.96 85.3767 148.752 82.8145 149.356C80.3426 149.951 77.827 150.347 75.2917 150.54C73.9335 150.644 72.9235 150.679 71.6 150.679Z" fill="black"/>
<path opacity="0.6" d="M71.6012 149.462C70.3451 149.473 69.0894 149.415 67.8398 149.288C65.4827 149.097 63.1498 148.677 60.8743 148.034C59.0564 147.524 57.2853 146.86 55.5805 146.049L54.8491 146.571C54.2764 146.971 53.6564 147.299 53.0032 147.546C52.3758 147.812 51.722 148.01 51.0529 148.138C50.3765 148.276 49.6882 148.346 48.998 148.347C48.3194 148.347 47.6425 148.277 46.9781 148.138C45.6156 147.856 44.3168 147.324 43.147 146.571C41.9385 145.781 40.9068 144.75 40.117 143.541C39.7239 142.952 39.3969 142.321 39.1419 141.66C38.8608 141.039 38.6618 140.383 38.5498 139.71C38.4115 139.046 38.3415 138.369 38.3408 137.69C38.3424 137 38.4124 136.312 38.5498 135.635C38.678 134.966 38.8764 134.312 39.1419 133.685C39.3895 133.032 39.717 132.412 40.117 131.839L40.6394 131.108C39.8282 129.403 39.1641 127.632 38.6543 125.814C38.0132 123.538 37.5933 121.205 37.4005 118.848C37.1738 116.462 37.1738 114.06 37.4005 111.674C37.5817 109.208 37.9661 106.762 38.5498 104.36C39.1474 101.845 39.9273 99.3778 40.8832 96.9766C41.8802 94.4976 43.0437 92.089 44.366 89.7672C45.7548 87.3537 47.2901 85.0276 48.9632 82.8017C50.7248 80.5099 52.6326 78.3345 54.675 76.289C56.692 74.2403 58.8572 72.3428 61.1529 70.6121C63.3654 68.9201 65.6929 67.384 68.1184 66.0148C68.5204 65.7892 68.9954 65.7322 69.4393 65.8563C69.8832 65.9803 70.2599 66.2753 70.4867 66.6766C70.7032 67.0805 70.7552 67.5524 70.6319 67.9937C70.5086 68.4351 70.2195 68.8117 69.825 69.0448C67.5466 70.3335 65.3589 71.7764 63.2774 73.3635C56.8576 78.2976 51.4629 84.4376 47.396 91.439C46.1622 93.626 45.08 95.8951 44.157 98.2304C43.2602 100.497 42.527 102.825 41.9629 105.196C41.4364 107.43 41.0755 109.7 40.8832 111.987C40.7089 114.178 40.7089 116.379 40.8832 118.57C41.0816 120.678 41.4662 122.764 42.0325 124.804C42.5836 126.782 43.3424 128.697 44.2963 130.515C44.4692 130.841 44.532 131.214 44.4755 131.578C44.419 131.942 44.2462 132.278 43.9829 132.535C43.6323 132.887 43.3173 133.272 43.0425 133.685C42.7799 134.079 42.5582 134.499 42.3808 134.939C42.0474 135.794 41.8705 136.702 41.8584 137.62C41.8069 138.072 41.8069 138.527 41.8584 138.979C41.933 139.422 42.0616 139.855 42.2415 140.267C42.4189 140.707 42.6406 141.127 42.9032 141.521C43.4533 142.35 44.1639 143.061 44.9929 143.611C45.3799 143.865 45.7877 144.086 46.2119 144.272C46.6378 144.448 47.0815 144.576 47.5353 144.656C47.9866 144.707 48.4423 144.707 48.8936 144.656C49.3449 144.707 49.8006 144.707 50.2518 144.656C50.7029 144.565 51.1456 144.437 51.5753 144.272C52.0147 144.095 52.4348 143.873 52.8291 143.611C53.2423 143.336 53.6272 143.021 53.9784 142.67C54.2361 142.407 54.5722 142.234 54.9363 142.178C55.3004 142.121 55.673 142.184 55.9984 142.357C57.8171 143.311 59.7317 144.07 61.7101 144.621C63.7502 145.187 65.8364 145.572 67.9443 145.77C70.1349 145.945 72.336 145.945 74.5267 145.77C76.8724 145.586 79.2009 145.225 81.4922 144.69C86.273 143.521 90.8679 141.693 95.1446 139.257C97.4236 137.957 99.6112 136.502 101.692 134.904C106.05 131.602 109.94 127.724 113.254 123.376C114.858 121.291 116.323 119.104 117.643 116.828C118.894 114.645 119.988 112.376 120.917 110.037C121.82 107.776 122.543 105.447 123.076 103.071C123.624 100.783 123.985 98.4531 124.155 96.1059C124.347 93.9159 124.347 91.7134 124.155 89.5235C123.994 87.422 123.609 85.3438 123.007 83.3242C122.462 81.3437 121.702 79.4285 120.742 77.6124C120.577 77.2792 120.519 76.9032 120.575 76.5355C120.631 76.1679 120.799 75.8264 121.056 75.5576C121.406 75.2064 121.721 74.8215 121.996 74.4083C122.264 74.0293 122.486 73.6202 122.658 73.1893C122.829 72.7587 122.968 72.3164 123.076 71.8658C123.215 70.9657 123.215 70.0495 123.076 69.1493C122.974 68.6973 122.834 68.2546 122.658 67.8258C122.493 67.3806 122.271 66.9591 121.996 66.5721C121.723 66.1687 121.407 65.7952 121.056 65.4576C120.728 65.0961 120.354 64.7798 119.941 64.5172C119.547 64.2564 119.127 64.0347 118.688 63.8555C118.259 63.6797 117.816 63.54 117.364 63.4376C116.912 63.403 116.459 63.403 116.007 63.4376C115.554 63.403 115.101 63.403 114.648 63.4376C114.198 63.5451 113.755 63.6847 113.324 63.8555C112.893 64.0275 112.484 64.2497 112.105 64.5172C111.692 64.792 111.307 65.107 110.956 65.4576C110.688 65.7145 110.345 65.8824 109.978 65.9385C109.61 65.9946 109.234 65.9361 108.901 65.771C107.085 64.8112 105.171 64.0522 103.189 63.5072C102.728 63.3779 102.336 63.0705 102.101 62.6524C101.866 62.2344 101.806 61.7401 101.935 61.2783C102.065 60.8164 102.372 60.4249 102.79 60.1898C103.208 59.9546 103.703 59.8952 104.164 60.0245C105.973 60.5613 107.742 61.2247 109.458 62.0096L110.155 61.5221C110.735 61.1253 111.354 60.787 112.001 60.5121C112.647 60.267 113.311 60.0692 113.986 59.92C114.657 59.8511 115.335 59.8511 116.007 59.92C116.677 59.8496 117.354 59.8496 118.026 59.92C118.703 60.0595 119.368 60.2576 120.011 60.5121C120.651 60.7885 121.269 61.1146 121.857 61.4872C122.453 61.9028 123.012 62.3689 123.529 62.8803C124.048 63.3891 124.515 63.9492 124.922 64.5521C125.301 65.137 125.629 65.7548 125.897 66.3979C126.151 67.0413 126.349 67.7055 126.489 68.3831C126.542 69.0554 126.542 69.7308 126.489 70.4031C126.541 71.0754 126.541 71.7508 126.489 72.4231C126.34 73.0983 126.143 73.7617 125.897 74.4083C125.622 75.0554 125.285 75.6737 124.887 76.2542C124.743 76.5073 124.567 76.7413 124.364 76.9507C125.181 78.6571 125.857 80.4276 126.384 82.2445C127.008 84.5245 127.428 86.8556 127.638 89.21C127.83 91.5977 127.83 93.9968 127.638 96.3845C127.438 98.8591 127.053 101.315 126.489 103.733C124.507 111.544 120.952 118.868 116.041 125.257C114.301 127.545 112.404 129.709 110.364 131.734C108.338 133.871 106.174 135.872 103.886 137.725C101.66 139.398 99.3343 140.933 96.9208 142.322C94.587 143.644 92.1668 144.808 89.6767 145.805C87.289 146.766 84.8326 147.546 82.3281 148.138C79.9146 148.725 77.4566 149.109 74.9794 149.288C73.8998 149.427 72.9246 149.462 71.6012 149.462Z" fill="black"/>
<path opacity="0.6" d="M71.6035 148.416C70.3847 148.416 69.1657 148.416 67.9467 148.416C65.696 148.199 63.4696 147.78 61.2947 147.162C59.2927 146.525 57.3565 145.697 55.5132 144.689C55.1662 145.02 54.7936 145.323 54.3988 145.595C53.8756 145.946 53.3149 146.238 52.727 146.465C52.1509 146.698 51.5569 146.885 50.9509 147.023C50.3415 147.132 49.7241 147.191 49.105 147.197C48.4975 147.191 47.8914 147.132 47.294 147.023C46.6853 146.895 46.0904 146.708 45.5177 146.465C44.9266 146.245 44.3651 145.953 43.846 145.595C43.2933 145.245 42.7896 144.824 42.3484 144.341C41.8739 143.892 41.4531 143.389 41.0946 142.843C40.7385 142.317 40.4351 141.757 40.189 141.172C39.9782 140.591 39.8038 139.998 39.6666 139.395C39.4561 138.244 39.4561 137.064 39.6666 135.913C39.8045 135.307 39.9909 134.713 40.224 134.136C40.444 133.545 40.7364 132.984 41.0946 132.465C41.3748 132.065 41.677 131.681 42.0001 131.315C41.0722 129.489 40.3257 127.576 39.7711 125.604C39.1364 123.433 38.7165 121.205 38.5173 118.952C38.3275 116.634 38.3275 114.304 38.5173 111.986C38.7334 109.571 39.1175 107.173 39.6666 104.812C40.2477 102.353 41.0162 99.9431 41.9652 97.6022C42.9673 95.2043 44.131 92.8771 45.4481 90.6367C46.8099 88.2223 48.3221 85.8959 49.9757 83.6712C53.3756 79.1076 57.3829 75.0299 61.8867 71.5512C64.0963 69.8761 66.4242 68.363 68.8521 67.0236C69.0168 66.9399 69.2062 66.9184 69.3853 66.9632C69.5645 67.008 69.7215 67.1161 69.8274 67.2674C69.916 67.4345 69.9364 67.6293 69.8845 67.8111C69.8325 67.9929 69.7122 68.1476 69.5487 68.2426C67.2353 69.5543 65.0129 71.0203 62.8966 72.6308C60.6861 74.3227 58.5918 76.1611 56.6277 78.1336C54.6766 80.0953 52.8502 82.1774 51.1597 84.3677C49.5457 86.5011 48.0684 88.7346 46.7366 91.0547C45.4107 93.2903 44.2468 95.6181 43.2539 98.0202C42.3411 100.284 41.596 102.612 41.0249 104.986C40.4698 107.274 40.0973 109.604 39.9105 111.951C39.7187 114.199 39.7187 116.46 39.9105 118.708C40.1041 120.876 40.5005 123.022 41.0946 125.116C41.6746 127.167 42.4683 129.152 43.4628 131.037C43.5453 131.154 43.5896 131.294 43.5896 131.437C43.5896 131.581 43.5453 131.72 43.4628 131.838C43.0643 132.233 42.7031 132.665 42.3833 133.126C41.8161 134.039 41.4041 135.039 41.1643 136.087C41.1299 136.609 41.1299 137.132 41.1643 137.654C41.1283 138.164 41.1283 138.676 41.1643 139.186C41.2782 139.707 41.4296 140.22 41.6171 140.719C41.8378 141.213 42.0939 141.69 42.3833 142.147C43.0275 143.069 43.8291 143.871 44.7515 144.515C45.6641 145.082 46.6644 145.494 47.7119 145.734C48.222 145.77 48.7341 145.77 49.2443 145.734C49.7654 145.785 50.2904 145.785 50.8115 145.734C51.3404 145.653 51.8558 145.5 52.3439 145.281C52.8435 145.086 53.3219 144.841 53.7719 144.55C54.2253 144.219 54.6558 143.859 55.0605 143.47C55.1778 143.388 55.3176 143.344 55.4609 143.344C55.6043 143.344 55.7442 143.388 55.8615 143.47C57.7467 144.465 59.7311 145.258 61.7822 145.838C63.8804 146.416 66.0243 146.813 68.1904 147.023C70.4392 147.197 72.6982 147.197 74.947 147.023C77.2946 146.836 79.6238 146.463 81.9125 145.908C84.2858 145.337 86.614 144.592 88.878 143.679C91.2733 142.671 93.6001 141.508 95.8435 140.196C98.1636 138.865 100.397 137.387 102.531 135.773C104.721 134.083 106.803 132.257 108.765 130.305C112.638 126.472 115.966 122.124 118.656 117.384C119.973 115.144 121.136 112.817 122.138 110.419C123.042 108.151 123.787 105.824 124.367 103.453C124.892 101.16 125.252 98.8322 125.447 96.4878C125.649 94.1703 125.649 91.8397 125.447 89.5222C125.251 87.3542 124.854 85.209 124.263 83.114C123.595 81.1517 122.732 79.2614 121.686 77.4719C121.6 77.3492 121.554 77.2034 121.554 77.054C121.554 76.9045 121.6 76.7587 121.686 76.636C122.092 76.248 122.454 75.8157 122.765 75.3474C123.068 74.8983 123.325 74.4199 123.532 73.9194C123.73 73.4359 123.882 72.9344 123.984 72.4219C124.17 71.3853 124.17 70.324 123.984 69.2874C123.887 68.7737 123.735 68.2717 123.532 67.7898C123.34 67.2824 123.082 66.8023 122.765 66.3619C122.456 65.8913 122.106 65.4485 121.721 65.0385C121.32 64.6421 120.876 64.2917 120.397 63.9936C119.952 63.6835 119.473 63.4264 118.969 63.2274C118.487 63.0241 117.985 62.8723 117.472 62.7746C116.95 62.7229 116.425 62.7229 115.904 62.7746C115.383 62.7229 114.858 62.7229 114.337 62.7746C113.825 62.8774 113.323 63.029 112.839 63.2274C112.339 63.4343 111.861 63.691 111.412 63.9936C110.952 64.3031 110.521 64.6528 110.123 65.0385C110.002 65.1289 109.856 65.1777 109.705 65.1777C109.554 65.1777 109.408 65.1289 109.287 65.0385C107.41 64.0613 105.438 63.2794 103.401 62.705C103.221 62.6542 103.069 62.5339 102.977 62.3706C102.886 62.2074 102.863 62.0144 102.914 61.8343C102.964 61.6542 103.085 61.5016 103.248 61.4102C103.411 61.3188 103.604 61.2959 103.784 61.3467C105.749 61.9227 107.66 62.6685 109.496 63.5757C109.848 63.2465 110.233 62.9547 110.645 62.705C111.163 62.3358 111.725 62.0317 112.317 61.7995C112.885 61.5525 113.482 61.3771 114.093 61.2771C114.688 61.1501 115.296 61.0917 115.904 61.1029C116.524 61.0918 117.143 61.1502 117.75 61.2771C118.359 61.3865 118.955 61.5617 119.526 61.7995C120.104 62.0482 120.663 62.3392 121.198 62.6702C122.27 63.4177 123.202 64.3493 123.949 65.4216C124.28 65.9566 124.571 66.5154 124.82 67.0933C125.058 67.6647 125.233 68.2603 125.343 68.8695C125.469 69.4763 125.528 70.0955 125.517 70.7153C125.528 71.3237 125.47 71.9313 125.343 72.5264C125.243 73.1378 125.067 73.7344 124.82 74.3026C124.574 74.8882 124.271 75.4482 123.915 75.9743C123.665 76.3865 123.373 76.7717 123.044 77.1236C123.951 78.9593 124.697 80.8704 125.273 82.8354C125.879 85.0232 126.287 87.2612 126.492 89.5222C126.682 91.8402 126.682 94.1698 126.492 96.4878C126.308 98.9069 125.923 101.307 125.343 103.662C124.768 106.118 124.012 108.528 123.079 110.872C122.077 113.27 120.914 115.597 119.596 117.837C118.264 120.269 116.75 122.598 115.068 124.803C113.344 127.051 111.483 129.191 109.496 131.211C107.485 133.218 105.345 135.092 103.088 136.818C100.871 138.473 98.5438 139.974 96.1222 141.311C93.8888 142.641 91.5606 143.805 89.1567 144.794C86.8084 145.722 84.3998 146.49 81.9474 147.092C79.5881 147.648 77.1894 148.02 74.7728 148.207C73.8325 148.381 72.718 148.416 71.6035 148.416Z" fill="black"/>
<path opacity="0.6" d="M83.8256 81.9991H83.3729C82.9835 81.9318 82.6112 81.7882 82.2776 81.5765C81.9439 81.3647 81.6555 81.089 81.4289 80.7652C81.2023 80.4415 81.0419 80.0761 80.9572 79.6902C80.8724 79.3042 80.8649 78.9052 80.935 78.5163C82.1262 72.9023 84.5008 67.6069 87.9005 62.9832L88.9801 61.3812C89.5374 60.4757 90.0598 59.6398 90.617 58.8039C93.9539 54.6803 95.958 49.6396 96.3636 44.3505C96.3237 37.8325 94.8242 31.4062 91.9753 25.5436L89.1543 29.0263C84.7312 34.3201 80.9001 38.9174 81.2484 45.7784C81.2853 46.5636 81.0089 47.3312 80.4798 47.9125C79.9508 48.4938 79.2125 48.8411 78.4274 48.8781C77.6422 48.915 76.8746 48.6385 76.2933 48.1095C75.712 47.5804 75.3647 46.8421 75.3277 46.057C74.8749 36.8974 79.8205 30.9767 84.6267 25.1605C86.5188 22.947 88.275 20.6209 89.8856 18.195C90.1546 17.7631 90.5292 17.4068 90.974 17.1598C91.4188 16.9128 91.9192 16.7832 92.428 16.7832C92.9368 16.7832 93.4373 16.9128 93.8821 17.1598C94.3269 17.4068 94.7015 17.7631 94.9705 18.195C99.654 26.0856 102.176 35.0707 102.284 44.246C101.864 50.5985 99.5196 56.6725 95.5625 61.6598L93.9953 64.1325L92.8111 65.9088C89.8414 69.9765 87.8077 74.6504 86.8556 79.596C86.7226 80.2933 86.3435 80.9196 85.7873 81.3607C85.2311 81.8018 84.5349 82.0284 83.8256 81.9991Z" fill="black"/>
<path opacity="0.6" d="M85.6027 68.0685C82.0512 67.7729 78.6344 66.574 75.6768 64.5857C67.771 58.874 65.2286 48.774 64.741 41.286C64.7149 40.8131 64.7988 40.3405 64.9862 39.9054C65.1735 39.4703 65.4591 39.0846 65.8206 38.7785C66.1797 38.4708 66.6089 38.256 67.0703 38.1527C67.5318 38.0495 68.0116 38.0611 68.4675 38.1864C75.052 39.952 80.9359 43.6963 85.3241 48.9133C87.0685 51.1604 88.5852 53.5754 89.8517 56.1226C90.792 58.0033 93.613 63.715 90.1651 66.5709C88.8699 67.5951 87.2529 68.1258 85.6027 68.0685ZM71.2886 45.3261C72.0029 50.9227 74.8163 56.039 79.1596 59.6402C80.5011 60.5538 81.9674 61.2694 83.5131 61.7647C84.2662 62.0577 85.0757 62.1767 85.8813 62.1129C84.745 58.6468 83.0125 55.4057 80.7617 52.5353C78.1999 49.4014 74.961 46.8889 71.2886 45.1867V45.3261Z" fill="black"/>
<path opacity="0.6" d="M83.8239 80.8498H83.5453C83.3184 80.8119 83.1013 80.7294 82.9065 80.6072C82.7117 80.4849 82.543 80.3252 82.4103 80.1374C82.2775 79.9496 82.1833 79.7374 82.133 79.513C82.0827 79.2885 82.0774 79.0563 82.1173 78.8298C83.3206 73.3688 85.6974 68.235 89.0828 63.7843C89.5008 63.1922 89.8839 62.6001 90.1625 62.1126L91.7994 59.5702C95.2812 55.2714 97.3599 50.0076 97.7549 44.4898C97.6931 37.11 95.8407 29.8554 92.3566 23.3495C91.1029 25.0909 89.7098 26.8322 88.3863 28.3298C83.998 33.5888 79.8187 38.5691 80.2018 45.7436C80.2111 45.9723 80.1753 46.2007 80.0963 46.4155C80.0173 46.6304 79.8967 46.8275 79.7414 46.9957C79.5862 47.164 79.3993 47.2999 79.1914 47.3958C78.9836 47.4917 78.7588 47.5457 78.5301 47.5546C78.3031 47.5687 78.0756 47.5373 77.8609 47.4622C77.6462 47.3871 77.4487 47.2699 77.28 47.1174C77.1113 46.9649 76.9747 46.7802 76.8784 46.5742C76.7821 46.3682 76.7279 46.145 76.719 45.9177C76.3011 37.2108 81.0725 31.4643 85.7046 25.8919C87.6467 23.693 89.4385 21.3659 91.068 18.9264C91.2149 18.6575 91.4315 18.4332 91.695 18.2769C91.9585 18.1206 92.2592 18.0381 92.5656 18.0381C92.872 18.0381 93.1727 18.1206 93.4362 18.2769C93.6997 18.4332 93.9163 18.6575 94.0632 18.9264C98.6482 26.623 101.123 35.3924 101.238 44.3505C100.83 50.5218 98.5594 56.4242 94.7249 61.2767C94.2025 62.0778 93.6453 62.9136 93.1229 63.7843L91.9735 65.4908C88.9306 69.5706 86.7826 74.2465 85.6698 79.2129C85.6611 79.4433 85.6059 79.6696 85.5074 79.8781C85.4089 80.0866 85.2692 80.2729 85.0967 80.4259C84.9242 80.5789 84.7224 80.6953 84.5037 80.7682C84.2849 80.841 84.0537 80.8688 83.8239 80.8498Z" fill="black"/>
<path opacity="0.6" d="M85.5681 66.7108C82.2516 66.419 79.081 65.2134 76.4085 63.228C68.8509 57.8297 66.5523 48.078 65.9602 40.8339C65.9437 40.5581 65.9918 40.2823 66.1006 40.0284C66.2095 39.7744 66.376 39.5494 66.5871 39.3711C66.804 39.1965 67.0582 39.0742 67.33 39.0138C67.6018 38.9534 67.8839 38.9565 68.1543 39.0229C74.5096 40.7546 80.1767 44.4029 84.384 49.4711C84.384 49.4711 93.8571 61.6608 89.3643 65.5267C88.2802 66.3606 86.9341 66.7804 85.5681 66.7108ZM69.7216 43.237C69.9498 46.546 70.8376 49.7759 72.333 52.7366C73.8283 55.6973 75.9008 58.329 78.4285 60.4767C80.9361 62.2877 85.394 63.9594 87.0657 62.8101C87.0657 62.8101 87.4488 61.4518 85.394 57.4815C84.3289 55.4205 83.094 53.4517 81.7022 51.5956C78.5063 47.8119 74.376 44.9302 69.7216 43.237Z" fill="black"/>
<path opacity="0.6" d="M83.8272 79.8059C83.7352 79.7932 83.6468 79.7622 83.567 79.7148C83.4872 79.6674 83.4177 79.6046 83.3626 79.53C83.3074 79.4554 83.2678 79.3705 83.2459 79.2803C83.224 79.1901 83.2203 79.0965 83.2351 79.0049C84.4152 73.7039 86.6932 68.7091 89.922 64.3424C90.3399 63.7504 90.723 63.1931 91.0365 62.6707C91.3499 62.1483 92.1161 60.9642 92.6386 60.1631C96.2183 55.6916 98.3558 50.2386 98.7682 44.5256C98.687 36.3817 96.5164 28.3951 92.4644 21.3304C90.942 23.5184 89.3027 25.6227 87.5537 27.6342C83.0261 33.0673 78.7423 38.0824 79.1254 45.9535C79.1301 46.045 79.1167 46.1365 79.086 46.2229C79.0552 46.3092 79.0078 46.3885 78.9463 46.4565C78.8849 46.5244 78.8106 46.5796 78.7278 46.6188C78.645 46.658 78.5552 46.6804 78.4637 46.6849C78.3711 46.6947 78.2775 46.6849 78.189 46.656C78.1005 46.6272 78.0191 46.58 77.9501 46.5175C77.8811 46.4551 77.826 46.3788 77.7885 46.2936C77.751 46.2084 77.7318 46.1162 77.7323 46.0231C77.3144 37.7342 81.7723 32.4056 86.4741 26.7635C88.4438 24.561 90.2702 22.2343 91.942 19.798C92.0046 19.6959 92.0914 19.6107 92.1946 19.55C92.2978 19.4893 92.4144 19.4548 92.5341 19.4497C92.6579 19.4551 92.7781 19.4935 92.8822 19.5608C92.9862 19.6281 93.0705 19.722 93.1261 19.8328C97.5923 27.3786 99.9945 35.9666 100.092 44.7345C99.6696 50.6279 97.4854 56.2583 93.8227 60.8945C93.3003 61.7304 92.743 62.5662 92.2206 63.4369L91.0713 65.1435C87.9501 69.3366 85.7541 74.1442 84.6282 79.2487C84.5943 79.428 84.4914 79.5868 84.3416 79.691C84.1918 79.7952 84.0071 79.8364 83.8272 79.8059Z" fill="black"/>
<path opacity="0.6" d="M85.5665 65.6666C82.4788 65.3696 79.5237 64.2645 76.9989 62.4625C69.7896 57.2732 67.5955 47.8349 67.0034 40.8345C66.9965 40.7238 67.0148 40.613 67.0571 40.5104C67.0993 40.4078 67.1643 40.3162 67.2472 40.2425C67.3444 40.1935 67.4518 40.168 67.5606 40.168C67.6695 40.168 67.7769 40.1935 67.8741 40.2425C74.0124 41.8619 79.4992 45.3413 83.5813 50.2031C83.5813 50.2031 92.2534 61.7311 88.6661 64.7959C87.7731 65.4532 86.6712 65.7627 85.5665 65.6666ZM68.501 41.7401C69.1627 48.3225 71.3569 56.6811 77.8348 61.3131C80.2031 63.0545 85.6013 65.4577 87.7606 63.577C88.5965 62.9153 88.1437 60.6166 86.5765 57.4821C85.4268 55.1765 84.0625 52.9843 82.5017 50.9345C78.8266 46.5752 73.9617 43.3804 68.501 41.7401Z" fill="black"/>
</g>
<g filter="url(#filter0_d_262_12063)">
<path d="M68.1176 147.196C66.8268 147.208 65.5363 147.15 64.2517 147.022C61.8956 146.805 59.5642 146.374 57.2862 145.734C55.6439 145.257 54.0377 144.663 52.48 143.957C51.8209 144.386 51.1209 144.747 50.3904 145.037C49.6841 145.342 48.9491 145.575 48.1962 145.734C47.4498 145.874 46.6919 145.944 45.9324 145.943C45.173 145.942 44.4153 145.872 43.6686 145.734C42.9235 145.561 42.1906 145.34 41.4745 145.072C40.7578 144.762 40.0701 144.389 39.4197 143.957C38.7507 143.515 38.1318 143.001 37.5738 142.425C36.9877 141.876 36.4728 141.256 36.0414 140.579C35.6096 139.929 35.2366 139.241 34.9269 138.524C34.6584 137.808 34.4373 137.075 34.2652 136.33C34.1283 135.583 34.0583 134.826 34.0562 134.066C34.055 133.307 34.125 132.549 34.2652 131.803C34.4328 131.045 34.6539 130.3 34.9269 129.574C35.2503 128.864 35.6227 128.177 36.0414 127.519V127.345C35.3411 125.785 34.7476 124.179 34.2652 122.538C33.6253 120.26 33.194 117.929 32.9766 115.573C32.75 113.117 32.75 110.645 32.9766 108.189C33.1668 105.654 33.5628 103.138 34.1607 100.667C34.7648 98.1045 35.5564 95.5902 36.529 93.144C37.5274 90.6094 38.6908 88.143 40.0117 85.7605C41.4204 83.3435 42.979 81.0171 44.6786 78.795C46.4659 76.4497 48.4091 74.2273 50.4948 72.1429C52.5844 70.0867 54.794 68.1562 57.1121 66.3615C59.3309 64.6468 61.6575 63.0764 64.0776 61.6598C64.763 61.2803 65.5698 61.1845 66.325 61.3928C67.0802 61.6011 67.7237 62.0971 68.1176 62.7743C68.3101 63.1126 68.434 63.4857 68.4821 63.872C68.5303 64.2582 68.5018 64.6502 68.3983 65.0255C68.2948 65.4007 68.1183 65.7519 67.8789 66.0588C67.6395 66.3658 67.3419 66.6225 67.0031 66.8143C64.7759 68.0882 62.6352 69.5076 60.5948 71.0633C58.473 72.6944 56.4603 74.4628 54.5697 76.3571C52.6793 78.2413 50.9221 80.2545 49.3107 82.3822C47.7576 84.4001 46.3382 86.5175 45.0617 88.7208C43.8541 90.8562 42.7839 93.0665 41.8576 95.3381C40.992 97.5258 40.2821 99.772 39.7331 102.06C39.2154 104.235 38.8661 106.448 38.6883 108.677C38.5138 110.798 38.5138 112.93 38.6883 115.051C38.858 117.08 39.2314 119.087 39.8028 121.041C40.3189 122.949 41.043 124.794 41.9621 126.544C42.2594 127.104 42.3691 127.744 42.2751 128.371C42.1811 128.998 41.8882 129.578 41.4397 130.026C41.1528 130.322 40.8852 130.636 40.6386 130.967C40.4369 131.301 40.2622 131.65 40.1162 132.012C39.9688 132.361 39.8523 132.722 39.768 133.091C39.7335 133.474 39.7335 133.858 39.768 134.241C39.7352 134.611 39.7352 134.984 39.768 135.355C39.8308 135.73 39.9481 136.094 40.1162 136.435C40.2622 136.796 40.4369 137.146 40.6386 137.479C41.1223 138.149 41.7103 138.737 42.38 139.221C42.7061 139.436 43.0569 139.612 43.4248 139.743C43.7719 139.896 44.1337 140.012 44.5045 140.092C44.8752 140.126 45.2483 140.126 45.619 140.092C46.0013 140.126 46.386 140.126 46.7683 140.092C47.1377 140.007 47.4989 139.891 47.848 139.743C48.2167 139.599 48.5674 139.412 48.8928 139.186C49.2229 138.952 49.5371 138.696 49.8331 138.42C50.2812 137.971 50.8614 137.678 51.4884 137.584C52.1153 137.49 52.7559 137.6 53.3159 137.897C55.0789 138.787 56.9211 139.51 58.8186 140.057C60.7723 140.631 62.7795 141.005 64.809 141.171C66.9299 141.346 69.0615 141.346 71.1824 141.171C73.4111 140.988 75.623 140.639 77.7997 140.126C80.083 139.561 82.3281 138.852 84.5214 138.002C86.793 137.076 89.0033 136.005 91.1386 134.798C93.3659 133.524 95.5066 132.105 97.5469 130.549C99.6746 128.937 101.687 127.18 103.572 125.29C105.466 123.399 107.234 121.387 108.865 119.265C110.421 117.224 111.84 115.084 113.114 112.856C114.332 110.719 115.391 108.496 116.284 106.204C117.154 104.03 117.864 101.795 118.408 99.5174C118.923 97.3295 119.272 95.1058 119.453 92.8653C119.645 90.7452 119.645 88.612 119.453 86.4919C119.275 84.4666 118.913 82.4617 118.373 80.5016C117.83 78.609 117.095 76.7769 116.179 75.0336C115.886 74.4701 115.782 73.8273 115.882 73.2002C115.983 72.5731 116.282 71.9948 116.736 71.5509C117.302 70.9811 117.751 70.3068 118.06 69.5657C118.201 69.2174 118.306 68.8557 118.373 68.486C118.408 68.1153 118.408 67.7423 118.373 67.3716C118.409 67.0009 118.409 66.6277 118.373 66.2571C118.306 65.8761 118.201 65.5028 118.06 65.1426C117.909 64.788 117.722 64.4496 117.503 64.1326C117.07 63.4208 116.473 62.8235 115.761 62.3912C115.444 62.1718 115.106 61.9852 114.751 61.834C114.391 61.6929 114.018 61.5879 113.637 61.5205C113.266 61.4846 112.893 61.4846 112.522 61.5205C112.152 61.4861 111.779 61.4861 111.408 61.5205C111.038 61.5879 110.676 61.6929 110.328 61.834C109.587 62.1424 108.913 62.5919 108.343 63.1574C107.899 63.6116 107.321 63.911 106.694 64.0114C106.066 64.1117 105.424 64.0077 104.86 63.7147C103.117 62.7992 101.285 62.064 99.3928 61.5205C98.9898 61.4435 98.6072 61.2837 98.2693 61.051C97.9313 60.8183 97.6454 60.5179 97.4298 60.1689C97.2141 59.8199 97.0733 59.4299 97.0164 59.0236C96.9594 58.6173 96.9876 58.2036 97.099 57.8087C97.2104 57.4138 97.4027 57.0464 97.6637 56.7298C97.9246 56.4132 98.2485 56.1544 98.6149 55.9696C98.9812 55.7848 99.3819 55.6782 99.7916 55.6565C100.201 55.6348 100.611 55.6986 100.994 55.8436C102.641 56.293 104.248 56.8754 105.801 57.585H106.01C106.652 57.1499 107.341 56.7878 108.064 56.5053C109.477 55.9187 110.993 55.6226 112.522 55.6346C113.282 55.6334 114.04 55.7034 114.786 55.8436C115.542 55.9739 116.279 56.1961 116.98 56.5053C117.711 56.7952 118.411 57.1569 119.07 57.585C120.442 58.5132 121.624 59.6954 122.553 61.0678C122.981 61.7269 123.342 62.4268 123.632 63.1574C123.926 63.8648 124.148 64.5998 124.294 65.3516C124.434 66.098 124.504 66.8559 124.503 67.6153C124.503 68.3747 124.433 69.1325 124.294 69.8792C124.143 70.6296 123.921 71.3642 123.632 72.0733C123.351 72.8036 122.977 73.4944 122.518 74.1281V74.3022C123.222 75.8687 123.804 77.4872 124.259 79.1433C124.915 81.4192 125.358 83.751 125.583 86.1088C125.774 88.5662 125.774 91.0348 125.583 93.4923C125.373 96.0255 124.977 98.5398 124.398 101.015C123.793 103.581 122.99 106.096 121.995 108.538C121.011 111.078 119.847 113.546 118.513 115.921C117.12 118.348 115.561 120.676 113.846 122.887C112.051 125.205 110.121 127.414 108.064 129.504C105.988 131.588 103.765 133.52 101.412 135.285C96.9652 138.688 92.0655 141.454 86.8548 143.505C84.4086 144.477 81.8943 145.269 79.3321 145.873C76.8602 146.468 74.3446 146.864 71.8093 147.057C70.4511 147.162 69.4411 147.196 68.1176 147.196Z" fill="#FFC000"/>
</g>
<path d="M48.5452 124.106C48.0008 124.102 47.4677 123.951 47.0019 123.669C46.5361 123.387 46.1549 122.985 45.8983 122.504C42.6025 115.459 42.044 107.44 44.3311 100.006C44.5357 99.2791 45.0102 98.658 45.6576 98.2695C46.305 97.8811 47.0764 97.7547 47.8139 97.9162C48.5453 98.1132 49.1718 98.5862 49.5615 99.2358C49.9513 99.8854 50.0739 100.661 49.9035 101.399C47.989 107.409 48.3864 113.916 51.018 119.649C51.1989 119.991 51.31 120.366 51.3448 120.752C51.3796 121.138 51.3375 121.526 51.2208 121.896C51.1042 122.265 50.9154 122.608 50.6653 122.903C50.4153 123.199 50.109 123.442 49.7642 123.619C49.4019 123.875 48.9843 124.042 48.5452 124.106Z" fill="#FFC000"/>
<path d="M68.1188 145.979C66.8627 145.99 65.607 145.932 64.3574 145.805C62.0003 145.614 59.6674 145.194 57.3919 144.551C55.574 144.041 53.8029 143.377 52.0981 142.566L51.3667 143.088C50.794 143.488 50.174 143.816 49.5208 144.063C48.8933 144.329 48.2396 144.527 47.5705 144.655C46.8941 144.793 46.2058 144.863 45.5156 144.864C44.8369 144.864 44.1601 144.794 43.4957 144.655C42.1332 144.373 40.8344 143.842 39.6646 143.088C38.4561 142.298 37.4244 141.267 36.6346 140.058C36.2415 139.469 35.9145 138.838 35.6595 138.177C35.3784 137.556 35.1794 136.9 35.0674 136.227C34.9291 135.563 34.8591 134.886 34.8584 134.207C34.86 133.517 34.93 132.829 35.0674 132.152C35.1955 131.483 35.394 130.829 35.6595 130.202C35.9071 129.549 36.2346 128.929 36.6346 128.356L37.157 127.625C36.3458 125.92 35.6817 124.149 35.1719 122.331C34.5308 120.055 34.1109 117.722 33.9181 115.365C33.6914 112.979 33.6914 110.577 33.9181 108.191C34.0993 105.725 34.4837 103.279 35.0674 100.877C35.665 98.3626 36.4449 95.8949 37.4008 93.4936C38.3978 91.0147 39.5613 88.6061 40.8836 86.2843C42.2724 83.8708 43.8077 81.5446 45.4808 79.3188C47.2424 77.027 49.1502 74.8516 51.1926 72.8061C53.2096 70.7574 55.3748 68.8599 57.6705 67.1291C59.883 65.4372 62.2105 63.9011 64.636 62.5319C65.038 62.3063 65.513 62.2493 65.9569 62.3734C66.4008 62.4974 66.7775 62.7924 67.0043 63.1937C67.2208 63.5975 67.2728 64.0695 67.1495 64.5108C67.0262 64.9521 66.737 65.3287 66.3425 65.5619C64.0642 66.8506 61.8765 68.2935 59.795 69.8806C53.3752 74.8147 47.9805 80.9547 43.9136 87.9561C42.6797 90.1431 41.5975 92.4122 40.6746 94.7474C39.7778 97.0139 39.0445 99.3417 38.4805 101.713C37.9539 103.947 37.5931 106.217 37.4008 108.504C37.2265 110.695 37.2265 112.896 37.4008 115.087C37.5992 117.195 37.9838 119.281 38.5501 121.321C39.1012 123.299 39.86 125.214 40.8139 127.033C40.9867 127.358 41.0496 127.731 40.9931 128.095C40.9366 128.459 40.7638 128.795 40.5005 129.053C40.1499 129.404 39.8349 129.789 39.5601 130.202C39.2975 130.596 39.0758 131.016 38.8984 131.456C38.565 132.311 38.3881 133.219 38.376 134.137C38.3245 134.589 38.3245 135.044 38.376 135.496C38.4506 135.939 38.5792 136.372 38.7591 136.784C38.9365 137.224 39.1582 137.644 39.4208 138.038C39.9709 138.867 40.6814 139.578 41.5105 140.128C41.8975 140.382 42.3053 140.604 42.7294 140.79C43.1554 140.965 43.5991 141.093 44.0529 141.173C44.5042 141.224 44.9599 141.224 45.4112 141.173C45.8625 141.224 46.3181 141.224 46.7694 141.173C47.2205 141.082 47.6631 140.954 48.0929 140.79C48.5322 140.612 48.9524 140.39 49.3467 140.128C49.7599 139.853 50.1448 139.538 50.496 139.187C50.7537 138.924 51.0898 138.751 51.4539 138.695C51.818 138.638 52.1906 138.701 52.516 138.874C54.3347 139.828 56.2493 140.587 58.2277 141.138C60.2678 141.704 62.354 142.089 64.4619 142.287C66.6525 142.462 68.8536 142.462 71.0443 142.287C73.39 142.103 75.7185 141.743 78.0098 141.207C82.7906 140.039 87.3855 138.21 91.6622 135.774C93.9412 134.474 96.1288 133.019 98.2098 131.421C102.568 128.119 106.458 124.241 109.773 119.893C111.376 117.808 112.842 115.621 114.161 113.345C115.412 111.162 116.506 108.893 117.435 106.554C118.338 104.293 119.06 101.964 119.594 99.5885C120.142 97.2998 120.503 94.9702 120.674 92.623C120.865 90.433 120.865 88.2305 120.674 86.0405C120.512 83.9391 120.127 81.8609 119.524 79.8412C118.979 77.8608 118.22 75.9456 117.26 74.1295C117.095 73.7963 117.037 73.4203 117.093 73.0526C117.149 72.685 117.317 72.3435 117.574 72.0747C117.925 71.7235 118.239 71.3386 118.514 70.9254C118.782 70.5464 119.004 70.1372 119.176 69.7064C119.347 69.2758 119.486 68.8335 119.594 68.3829C119.733 67.4828 119.733 66.5665 119.594 65.6664C119.492 65.2144 119.352 64.7717 119.176 64.3429C119.011 63.8977 118.789 63.4762 118.514 63.0892C118.241 62.6858 117.925 62.3122 117.574 61.9747C117.246 61.6132 116.871 61.2969 116.459 61.0343C116.064 60.7735 115.644 60.5518 115.206 60.3726C114.777 60.1968 114.334 60.057 113.882 59.9547C113.43 59.9201 112.976 59.9201 112.524 59.9547C112.072 59.9201 111.618 59.9201 111.166 59.9547C110.715 60.0621 110.273 60.2018 109.842 60.3726C109.411 60.5446 109.002 60.7667 108.623 61.0343C108.21 61.3091 107.825 61.6241 107.474 61.9747C107.205 62.2316 106.864 62.3995 106.496 62.4556C106.128 62.5116 105.752 62.4532 105.419 62.2881C103.603 61.3283 101.688 60.5693 99.7074 60.0243C99.2455 59.895 98.854 59.5876 98.6188 59.1695C98.3837 58.7515 98.3243 58.2572 98.4536 57.7954C98.5829 57.3335 98.8904 56.942 99.3084 56.7069C99.7264 56.4717 100.221 56.4123 100.683 56.5416C102.491 57.0784 104.26 57.7418 105.976 58.5267L106.673 58.0391C107.253 57.6424 107.872 57.3041 108.519 57.0292C109.165 56.7841 109.829 56.5863 110.504 56.4371C111.175 56.3682 111.852 56.3682 112.524 56.4371C113.195 56.3667 113.872 56.3667 114.544 56.4371C115.222 56.5766 115.886 56.7747 116.529 57.0292C117.169 57.3056 117.786 57.6317 118.375 58.0043C118.971 58.4199 119.53 58.886 120.047 59.3974C120.566 59.9062 121.033 60.4663 121.44 61.0692C121.819 61.6541 122.146 62.2718 122.415 62.915C122.669 63.5584 122.868 64.2226 123.007 64.9002C123.06 65.5725 123.06 66.2479 123.007 66.9202C123.059 67.5925 123.059 68.2678 123.007 68.9402C122.858 69.6153 122.66 70.2788 122.415 70.9254C122.14 71.5725 121.802 72.1908 121.405 72.7712C121.261 73.0244 121.085 73.2584 120.883 73.4678C121.7 75.1742 122.375 76.9447 122.903 78.7616C123.526 81.0416 123.946 83.3727 124.156 85.7271C124.348 88.1148 124.348 90.5139 124.156 92.9016C123.955 95.3762 123.571 97.8324 123.007 100.25C121.025 108.061 117.47 115.385 112.559 121.774C110.819 124.062 108.922 126.227 106.882 128.252C104.856 130.388 102.692 132.39 100.404 134.242C98.1781 135.915 95.8519 137.45 93.4384 138.839C91.1046 140.161 88.6844 141.325 86.1943 142.322C83.8066 143.283 81.3502 144.063 78.8456 144.655C76.4322 145.242 73.9742 145.626 71.497 145.805C70.4174 145.944 69.4422 145.979 68.1188 145.979Z" fill="#FFD455"/>
<path d="M48.5455 122.888C48.2235 122.888 47.9077 122.801 47.6316 122.635C47.3556 122.47 47.1297 122.232 46.9782 121.948C43.814 115.172 43.2924 107.46 45.5155 100.32C45.6377 99.878 45.9294 99.5021 46.3272 99.2739C46.7249 99.0457 47.1967 98.9836 47.6399 99.1011C47.8613 99.1575 48.0691 99.2578 48.251 99.3959C48.4328 99.5341 48.5851 99.7074 48.6988 99.9055C48.8125 100.104 48.8852 100.323 48.9127 100.549C48.9402 100.776 48.9219 101.006 48.8589 101.226C46.8736 107.529 47.3082 114.346 50.0779 120.346C50.2149 120.61 50.2818 120.905 50.2722 121.203C50.2626 121.501 50.1769 121.791 50.0231 122.046C49.8694 122.301 49.6528 122.512 49.3941 122.66C49.1354 122.807 48.8432 122.886 48.5455 122.888Z" fill="#FFD455"/>
<path d="M68.1192 144.933C66.9002 144.933 65.6813 144.933 64.4623 144.933C62.2116 144.717 59.9852 144.297 57.8102 143.679C55.8082 143.043 53.8722 142.215 52.0289 141.207C51.6819 141.538 51.3094 141.84 50.9145 142.112C50.3912 142.464 49.8304 142.756 49.2426 142.983C48.6665 143.216 48.0725 143.402 47.4665 143.54C46.8571 143.65 46.2397 143.708 45.6207 143.714C45.0131 143.708 44.4072 143.65 43.8096 143.54C43.2009 143.412 42.606 143.226 42.0333 142.983C41.4422 142.763 40.8807 142.47 40.3616 142.112C39.8089 141.763 39.3052 141.341 38.864 140.858C38.3895 140.409 37.9687 139.907 37.6102 139.361C37.2541 138.835 36.9508 138.275 36.7047 137.689C36.4939 137.108 36.3195 136.515 36.1823 135.913C35.9718 134.762 35.9718 133.582 36.1823 132.43C36.3201 131.824 36.5066 131.23 36.7396 130.654C36.9596 130.063 37.252 129.501 37.6102 128.982C37.8904 128.583 38.1927 128.199 38.5158 127.833C37.5879 126.006 36.8413 124.093 36.2868 122.121C35.6521 119.95 35.2323 117.722 35.0331 115.469C34.8432 113.151 34.8432 110.822 35.0331 108.504C35.2492 106.088 35.6331 103.691 36.1823 101.329C36.7634 98.8709 37.5319 96.4607 38.4809 94.1198C39.483 91.7219 40.6466 89.3947 41.9637 87.1543C43.3255 84.7399 44.8377 82.4135 46.4913 80.1888C49.8911 75.6252 53.8986 71.5475 58.4024 68.0688C60.6121 66.3937 62.94 64.8806 65.3679 63.5412C65.5326 63.4575 65.7218 63.436 65.901 63.4808C66.0802 63.5256 66.2371 63.6336 66.343 63.785C66.4316 63.952 66.4522 64.1469 66.4003 64.3287C66.3483 64.5105 66.228 64.6652 66.0645 64.7602C63.7511 66.0719 61.5287 67.5379 59.4123 69.1484C57.2018 70.8403 55.1074 72.6786 53.1433 74.6512C51.1922 76.6129 49.3659 78.695 47.6754 80.8853C46.0614 83.0187 44.5841 85.2522 43.2523 87.5722C41.9264 89.8078 40.7625 92.1357 39.7696 94.5378C38.8567 96.8018 38.1117 99.1299 37.5406 101.503C36.9855 103.792 36.613 106.121 36.4262 108.469C36.2344 110.717 36.2344 112.977 36.4262 115.225C36.6197 117.394 37.0161 119.539 37.6102 121.634C38.1902 123.685 38.984 125.669 39.9785 127.554C40.0609 127.672 40.1053 127.811 40.1053 127.955C40.1053 128.098 40.0609 128.238 39.9785 128.355C39.58 128.751 39.2186 129.182 38.8989 129.644C38.3317 130.557 37.9198 131.557 37.68 132.604C37.6456 133.126 37.6456 133.65 37.68 134.172C37.644 134.682 37.644 135.194 37.68 135.704C37.7939 136.225 37.9453 136.737 38.1328 137.236C38.3535 137.73 38.6095 138.207 38.8989 138.664C39.5431 139.587 40.3448 140.388 41.2672 141.033C42.1798 141.6 43.1801 142.012 44.2275 142.252C44.7377 142.287 45.2497 142.287 45.7599 142.252C46.281 142.303 46.806 142.303 47.3271 142.252C47.856 142.17 48.3714 142.018 48.8595 141.799C49.3591 141.604 49.8375 141.359 50.2875 141.067C50.7409 140.737 51.1714 140.376 51.5761 139.988C51.6934 139.905 51.8334 139.861 51.9767 139.861C52.1201 139.861 52.2599 139.905 52.3772 139.988C54.2624 140.982 56.2469 141.776 58.2979 142.356C60.3961 142.934 62.54 143.33 64.7061 143.54C66.9549 143.715 69.214 143.715 71.4628 143.54C73.8104 143.353 76.1395 142.981 78.4283 142.426C80.8016 141.855 83.1298 141.11 85.3938 140.197C87.7891 139.189 90.1159 138.026 92.3593 136.714C94.6794 135.382 96.9128 133.905 99.0462 132.291C101.237 130.6 103.319 128.774 105.281 126.823C109.154 122.99 112.483 118.642 115.172 113.902C116.489 111.662 117.653 109.334 118.655 106.936C119.558 104.669 120.303 102.342 120.883 99.9709C121.408 97.6775 121.769 95.3498 121.963 93.0053C122.165 90.6879 122.165 88.3573 121.963 86.0398C121.767 83.8718 121.371 81.7265 120.779 79.6316C120.111 77.6693 119.248 75.779 118.202 73.9895C118.116 73.8668 118.071 73.721 118.071 73.5715C118.071 73.4221 118.116 73.2763 118.202 73.1536C118.608 72.7656 118.971 72.3333 119.281 71.865C119.584 71.4159 119.841 70.9375 120.048 70.437C120.246 69.9534 120.398 69.452 120.5 68.9395C120.686 67.9029 120.686 66.8416 120.5 65.805C120.403 65.2912 120.251 64.7892 120.048 64.3074C119.856 63.7999 119.598 63.3198 119.281 62.8794C118.972 62.4089 118.623 61.9661 118.237 61.556C117.836 61.1597 117.392 60.8093 116.913 60.5112C116.469 60.2011 115.989 59.944 115.485 59.745C115.003 59.5417 114.501 59.3899 113.988 59.2922C113.466 59.2405 112.942 59.2405 112.42 59.2922C111.899 59.2405 111.374 59.2405 110.853 59.2922C110.341 59.395 109.839 59.5466 109.356 59.745C108.855 59.9519 108.377 60.2086 107.928 60.5112C107.468 60.8207 107.037 61.1703 106.639 61.556C106.518 61.6465 106.372 61.6953 106.221 61.6953C106.07 61.6953 105.924 61.6465 105.803 61.556C103.926 60.5789 101.954 59.797 99.9168 59.2226C99.7367 59.1718 99.5842 59.0515 99.4927 58.8882C99.4013 58.7249 99.3785 58.532 99.4293 58.3519C99.48 58.1718 99.6003 58.0192 99.7635 57.9278C99.9268 57.8363 100.12 57.8135 100.3 57.8643C102.265 58.4403 104.176 59.1861 106.012 60.0933C106.364 59.7641 106.749 59.4723 107.161 59.2226C107.679 58.8534 108.241 58.5493 108.833 58.317C109.401 58.0701 109.998 57.8946 110.609 57.7946C111.204 57.6677 111.812 57.6093 112.42 57.6205C113.04 57.6093 113.659 57.6678 114.266 57.7946C114.875 57.9041 115.471 58.0793 116.042 58.317C116.62 58.5657 117.179 58.8568 117.714 59.1877C118.786 59.9353 119.718 60.8668 120.466 61.9391C120.797 62.4742 121.088 63.0329 121.336 63.6108C121.574 64.1823 121.749 64.7778 121.859 65.387C121.986 65.9939 122.044 66.613 122.033 67.2329C122.044 67.8412 121.986 68.4489 121.859 69.0439C121.759 69.6553 121.583 70.252 121.336 70.8201C121.09 71.4058 120.787 71.9658 120.431 72.4919C120.181 72.9041 119.889 73.2893 119.56 73.6412C120.467 75.4769 121.213 77.388 121.789 79.3529C122.395 81.5408 122.803 83.7788 123.008 86.0398C123.198 88.3578 123.198 90.6874 123.008 93.0053C122.824 95.4245 122.439 97.8242 121.859 100.18C121.284 102.636 120.528 105.046 119.595 107.389C118.593 109.787 117.43 112.114 116.112 114.355C114.78 116.787 113.267 119.115 111.585 121.32C109.86 123.568 107.999 125.708 106.012 127.728C104.001 129.736 101.861 131.609 99.6034 133.336C97.3867 134.99 95.0594 136.491 92.6378 137.828C90.4044 139.158 88.0763 140.322 85.6723 141.311C83.3241 142.24 80.9155 143.008 78.4631 143.61C76.1038 144.165 73.7052 144.538 71.2886 144.724C70.3483 144.898 69.2337 144.933 68.1192 144.933Z" fill="#FFE699"/>
<path d="M48.5462 121.844C48.4164 121.845 48.2889 121.809 48.1781 121.741C48.0674 121.674 47.9777 121.576 47.9193 121.461C44.856 114.915 44.3589 107.458 46.5262 100.564C46.5462 100.475 46.5843 100.392 46.638 100.319C46.6916 100.246 46.7598 100.184 46.8382 100.138C46.9166 100.093 47.0035 100.064 47.0937 100.053C47.1838 100.042 47.2752 100.05 47.3621 100.076C47.5377 100.126 47.6886 100.238 47.7852 100.393C47.8819 100.548 47.9173 100.733 47.8845 100.912C45.8064 107.465 46.2537 114.559 49.1383 120.799C49.1863 120.878 49.2173 120.966 49.2292 121.057C49.2411 121.149 49.2337 121.242 49.2074 121.331C49.1812 121.419 49.1367 121.501 49.0768 121.572C49.0169 121.642 48.9429 121.699 48.8596 121.739L48.5462 121.844Z" fill="#FFE699"/>
<g filter="url(#filter1_d_262_12063)">
<path d="M80.3452 78.5167H79.8924C79.503 78.4494 79.1308 78.3058 78.7972 78.094C78.4635 77.8823 78.1751 77.6066 77.9485 77.2828C77.7218 76.9591 77.5615 76.5937 77.4767 76.2077C77.392 75.8218 77.3844 75.4228 77.4545 75.0339C78.6457 69.4199 81.0204 64.1245 84.42 59.5008L85.4997 57.8988C86.0569 56.9932 86.5794 56.1574 87.1366 55.3215C90.4734 51.1979 92.4776 46.1571 92.8832 40.8681C92.8433 34.35 91.3438 27.9237 88.4949 22.0612L85.6738 25.5439C81.2507 30.8377 77.4197 35.435 77.768 42.296C77.8049 43.0811 77.5285 43.8488 76.9994 44.4301C76.4704 45.0114 75.7321 45.3587 74.9469 45.3957C74.1618 45.4326 73.3942 45.1561 72.8129 44.6271C72.2316 44.098 71.8842 43.3597 71.8473 42.5746C71.3945 33.4149 76.34 27.4943 81.1462 21.6781C83.0384 19.4646 84.7946 17.1385 86.4052 14.7125C86.6742 14.2807 87.0488 13.9244 87.4936 13.6774C87.9384 13.4304 88.4388 13.3008 88.9476 13.3008C89.4564 13.3008 89.9568 13.4304 90.4017 13.6774C90.8465 13.9244 91.2211 14.2807 91.49 14.7125C96.1735 22.6032 98.6961 31.5883 98.8038 40.7636C98.3837 47.1161 96.0391 53.1901 92.0821 58.1774L90.5149 60.6501L89.3307 62.4263C86.361 66.494 84.3273 71.168 83.3752 76.1136C83.2422 76.8109 82.863 77.4372 82.3069 77.8783C81.7507 78.3194 81.0545 78.546 80.3452 78.5167Z" fill="#00E600"/>
</g>
<g filter="url(#filter2_d_262_12063)">
<path d="M82.1203 64.5856C78.5688 64.29 75.1519 63.0911 72.1944 61.1028C64.2886 55.3911 61.7461 45.2911 61.2586 37.8031C61.2325 37.3302 61.3164 36.8576 61.5037 36.4225C61.6911 35.9874 61.9767 35.6017 62.3382 35.2955C62.6973 34.9879 63.1264 34.773 63.5879 34.6698C64.0494 34.5666 64.5291 34.5781 64.9851 34.7035C71.5696 36.4691 77.4535 40.2134 81.8417 45.4304C83.5861 47.6775 85.1028 50.0925 86.3692 52.6397C87.3096 54.5204 90.1306 60.2321 86.6827 63.088C85.3875 64.1122 83.7705 64.6429 82.1203 64.5856ZM67.8061 41.8431C68.5205 47.4398 71.3339 52.5561 75.6772 56.1573C77.0187 57.0709 78.4849 57.7865 80.0306 58.2818C80.7837 58.5748 81.5933 58.6938 82.3989 58.63C81.2626 55.1639 79.5301 51.9228 77.2792 49.0524C74.7174 45.9185 71.4786 43.406 67.8061 41.7038V41.8431Z" fill="#00E600"/>
</g>
<path d="M80.3414 77.3674H80.0628C79.8359 77.3295 79.6188 77.247 79.424 77.1247C79.2292 77.0025 79.0605 76.8428 78.9278 76.655C78.795 76.4672 78.7007 76.255 78.6505 76.0305C78.6002 75.8061 78.5949 75.5739 78.6348 75.3474C79.8381 69.8864 82.2149 64.7526 85.6003 60.3019C86.0183 59.7098 86.4014 59.1177 86.68 58.6301L88.3169 56.0877C91.7987 51.7889 93.8774 46.5252 94.2724 41.0074C94.2106 33.6275 92.3582 26.373 88.8741 19.8671C87.6203 21.6084 86.2272 23.3498 84.9038 24.8474C80.5155 30.1063 76.3362 35.0867 76.7193 42.2612C76.7286 42.4899 76.6928 42.7183 76.6138 42.9331C76.5348 43.148 76.4142 43.3451 76.2589 43.5133C76.1037 43.6815 75.9168 43.8175 75.7089 43.9134C75.5011 44.0093 75.2763 44.0633 75.0476 44.0722C74.8206 44.0863 74.5931 44.0549 74.3784 43.9798C74.1637 43.9047 73.9662 43.7875 73.7975 43.635C73.6288 43.4825 73.4922 43.2978 73.3959 43.0918C73.2996 42.8858 73.2454 42.6626 73.2365 42.4353C72.8186 33.7284 77.59 27.9819 82.2221 22.4095C84.1641 20.2106 85.956 17.8835 87.5855 15.4439C87.7324 15.1751 87.949 14.9507 88.2125 14.7944C88.476 14.6381 88.7767 14.5557 89.0831 14.5557C89.3895 14.5557 89.6902 14.6381 89.9537 14.7944C90.2172 14.9507 90.4338 15.1751 90.5807 15.4439C95.1657 23.1406 97.6404 31.91 97.7552 40.8681C97.348 47.0394 95.0769 52.9417 91.2424 57.7943C90.72 58.5953 90.1628 59.4312 89.6403 60.3019L88.491 62.0084C85.4481 66.0882 83.3001 70.764 82.1872 75.7305C82.1786 75.9609 82.1234 76.1872 82.0249 76.3957C81.9264 76.6041 81.7867 76.7905 81.6142 76.9435C81.4416 77.0965 81.2399 77.2129 81.0212 77.2858C80.8024 77.3586 80.5711 77.3864 80.3414 77.3674Z" fill="#40FF40"/>
<path d="M82.0857 63.2279C78.7692 62.9361 75.5986 61.7305 72.9261 59.7451C65.3685 54.3468 63.0698 44.5951 62.4778 37.351C62.4613 37.0752 62.5094 36.7994 62.6182 36.5455C62.7271 36.2915 62.8936 36.0665 63.1047 35.8882C63.3216 35.7136 63.5758 35.5913 63.8476 35.5309C64.1194 35.4705 64.4015 35.4736 64.6719 35.5399C71.0271 37.2717 76.6943 40.92 80.9016 45.9882C80.9016 45.9882 90.3747 58.1779 85.8819 62.0437C84.7978 62.8777 83.4517 63.2975 82.0857 63.2279ZM66.2392 39.7541C66.4674 43.0631 67.3552 46.293 68.8505 49.2537C70.3458 52.2144 72.4184 54.8461 74.9461 56.9938C77.4536 58.8048 81.9116 60.4765 83.5833 59.3272C83.5833 59.3272 83.9664 57.9689 81.9116 53.9986C80.8465 51.9376 79.6116 49.9688 78.2198 48.1127C75.0239 44.329 70.8936 41.4473 66.2392 39.7541Z" fill="#40FF40"/>
<path d="M80.3428 76.323C80.2508 76.3102 80.1624 76.2793 80.0826 76.2319C80.0028 76.1845 79.9333 76.1217 79.8782 76.0471C79.823 75.9724 79.7833 75.8876 79.7614 75.7974C79.7396 75.7072 79.7359 75.6136 79.7507 75.522C80.9308 70.221 83.2087 65.2262 86.4376 60.8595C86.8555 60.2675 87.2386 59.7102 87.5521 59.1878C87.8655 58.6654 88.6317 57.4813 89.1542 56.6802C92.7339 52.2087 94.8713 46.7557 95.2838 41.0427C95.2025 32.8988 93.032 24.9122 88.98 17.8475C87.4576 20.0355 85.8183 22.1398 84.0693 24.1513C79.5417 29.5844 75.2579 34.5995 75.641 42.4706C75.6457 42.5621 75.6323 42.6536 75.6016 42.7399C75.5708 42.8263 75.5234 42.9056 75.4619 42.9736C75.4004 43.0415 75.3262 43.0967 75.2434 43.1359C75.1606 43.1751 75.0708 43.1975 74.9793 43.202C74.8867 43.2118 74.7931 43.2019 74.7046 43.1731C74.6161 43.1443 74.5347 43.0971 74.4657 43.0346C74.3966 42.9722 74.3416 42.8959 74.3041 42.8107C74.2665 42.7255 74.2474 42.6333 74.2479 42.5402C73.83 34.2513 78.2879 28.9227 82.9897 23.2806C84.9594 21.078 86.7857 18.7514 88.4576 16.3151C88.5202 16.213 88.607 16.1278 88.7102 16.0671C88.8134 16.0064 88.93 15.9719 89.0496 15.9668C89.1735 15.9722 89.2937 16.0105 89.3978 16.0779C89.5018 16.1452 89.5861 16.2391 89.6417 16.3499C94.1078 23.8957 96.5101 32.4837 96.6073 41.2516C96.1852 47.145 94.001 52.7754 90.3383 57.4116C89.8159 58.2475 89.2586 59.0833 88.7362 59.954L87.5869 61.6606C84.4657 65.8537 82.2697 70.6613 81.1438 75.7658C81.1099 75.9451 81.007 76.1039 80.8572 76.2081C80.7074 76.3123 80.5226 76.3535 80.3428 76.323Z" fill="#8AFA8A"/>
<path d="M82.0841 62.1837C78.9963 61.8867 76.0413 60.7816 73.5165 58.9796C66.3072 53.7902 64.1131 44.352 63.521 37.3516C63.5141 37.2409 63.5324 37.1301 63.5746 37.0275C63.6169 36.9249 63.6819 36.8333 63.7648 36.7596C63.862 36.7106 63.9693 36.6851 64.0782 36.6851C64.1871 36.6851 64.2944 36.7106 64.3917 36.7596C70.53 38.379 76.0168 41.8583 80.0989 46.7202C80.0989 46.7202 88.771 58.2482 85.1837 61.313C84.2906 61.9703 83.1888 62.2798 82.0841 62.1837ZM65.0186 38.2572C65.6803 44.8396 67.8744 53.1982 74.3524 57.8302C76.7206 59.5716 82.1189 61.9748 84.2782 60.0941C85.114 59.4323 84.6613 57.1337 83.0941 53.9992C81.9444 51.6936 80.5801 49.5014 79.0192 47.4516C75.3442 43.0923 70.4793 39.8975 65.0186 38.2572Z" fill="#8AFA8A"/>
<defs>
<filter id="filter0_d_262_12063" x="25.8411" y="48.6688" width="113.816" height="112.46" filterUnits="userSpaceOnUse" color-interpolation-filters="sRGB">
<feFlood flood-opacity="0" result="BackgroundImageFix"/>
<feColorMatrix in="SourceAlpha" type="matrix" values="0 0 0 0 0 0 0 0 0 0 0 0 0 0 0 0 0 0 127 0" result="hardAlpha"/>
<feOffset dx="3.48276" dy="3.48276"/>
<feGaussianBlur stdDeviation="5.22414"/>
<feColorMatrix type="matrix" values="0 0 0 0 1 0 0 0 0 0.752809 0 0 0 0 0 0 0 0 1 0"/>
<feBlend mode="normal" in2="BackgroundImageFix" result="effect1_dropShadow_262_12063"/>
<feBlend mode="normal" in="SourceGraphic" in2="effect1_dropShadow_262_12063" result="shape"/>
</filter>
<filter id="filter1_d_262_12063" x="64.8528" y="6.33526" width="47.8829" height="86.1148" filterUnits="userSpaceOnUse" color-interpolation-filters="sRGB">
<feFlood flood-opacity="0" result="BackgroundImageFix"/>
<feColorMatrix in="SourceAlpha" type="matrix" values="0 0 0 0 0 0 0 0 0 0 0 0 0 0 0 0 0 0 127 0" result="hardAlpha"/>
<feOffset dx="3.48276" dy="3.48276"/>
<feGaussianBlur stdDeviation="5.22414"/>
<feColorMatrix type="matrix" values="0 0 0 0 0.00392157 0 0 0 0 0.862745 0 0 0 0 0.00392157 0 0 0 1 0"/>
<feBlend mode="normal" in2="BackgroundImageFix" result="effect1_dropShadow_262_12063"/>
<feBlend mode="normal" in="SourceGraphic" in2="effect1_dropShadow_262_12063" result="shape"/>
</filter>
<filter id="filter2_d_262_12063" x="54.2884" y="27.6346" width="47.9923" height="50.8863" filterUnits="userSpaceOnUse" color-interpolation-filters="sRGB">
<feFlood flood-opacity="0" result="BackgroundImageFix"/>
<feColorMatrix in="SourceAlpha" type="matrix" values="0 0 0 0 0 0 0 0 0 0 0 0 0 0 0 0 0 0 127 0" result="hardAlpha"/>
<feOffset dx="3.48276" dy="3.48276"/>
<feGaussianBlur stdDeviation="5.22414"/>
<feColorMatrix type="matrix" values="0 0 0 0 0.00392157 0 0 0 0 0.862745 0 0 0 0 0.00392157 0 0 0 1 0"/>
<feBlend mode="normal" in2="BackgroundImageFix" result="effect1_dropShadow_262_12063"/>
<feBlend mode="normal" in="SourceGraphic" in2="effect1_dropShadow_262_12063" result="shape"/>
</filter>
</defs>
</svg>
