<svg width="165" height="165" viewBox="0 0 165 165" fill="none" xmlns="http://www.w3.org/2000/svg">
<g clip-path="url(#clip0_601_2530)">
<g opacity="0.6">
<path d="M85.4123 149.787C84.766 149.795 84.1312 149.616 83.5849 149.271C57.0098 132.507 37.6247 114.512 25.946 95.8423C13.3138 75.7024 12.7577 59.6144 14.5055 49.6835C15.5479 42.1769 18.838 35.1617 23.9429 29.5604C29.0479 23.9591 35.7286 20.0342 43.1065 18.3018C58.2015 15.0444 73.7732 21.8372 85.4123 36.5349C97.0513 21.8372 112.583 15.0444 127.678 18.3018C135.056 20.0342 141.737 23.9591 146.842 29.5604C151.947 35.1617 155.237 42.1769 156.279 49.6835C158.027 59.6144 157.471 75.7024 144.879 95.8423C132.961 114.512 113.775 132.507 87.1998 149.271C86.665 149.609 86.045 149.788 85.4123 149.787ZM50.6938 24.2603C48.6626 24.2667 46.6381 24.4932 44.6558 24.9356C38.6 26.3842 33.1258 29.635 28.9557 34.2589C24.7856 38.8829 22.1157 44.6627 21.2983 50.8354C19.7491 59.6144 20.3052 73.9149 31.7853 92.2672C42.6696 109.666 60.7439 126.549 85.5314 142.438C110.279 126.549 128.353 109.666 139.238 92.2672C150.718 73.9149 151.155 59.6144 149.725 50.8354C148.894 44.6366 146.195 38.8379 141.987 34.2111C137.779 29.5843 132.261 26.3489 126.169 24.9356C112.623 21.9961 98.3621 29.1463 88.1134 44.1221C87.8091 44.5794 87.3953 44.9533 86.9097 45.21C86.424 45.4666 85.882 45.5979 85.3328 45.5919C84.7781 45.5974 84.2306 45.4662 83.7387 45.2099C83.2468 44.9535 82.8256 44.58 82.5124 44.1221C73.8526 31.3709 62.2136 24.2603 50.6938 24.2603Z" fill="black"/>
<path d="M29.3235 57.6689H28.9263C28.4855 57.6195 28.0587 57.4837 27.6703 57.2693C27.2819 57.0549 26.9396 56.766 26.6629 56.4192C26.3862 56.0725 26.1806 55.6746 26.0578 55.2483C25.935 54.822 25.8973 54.3757 25.9471 53.9349C26.172 52.094 26.544 50.2742 27.0593 48.4927C28.3017 43.1304 31.3045 38.3388 35.5886 34.8827C39.8727 31.4266 45.1911 29.5053 50.6949 29.4254C51.5904 29.4254 52.4492 29.7811 53.0824 30.4143C53.7157 31.0476 54.0714 31.9064 54.0714 32.8019C54.0714 33.6974 53.7157 34.5562 53.0824 35.1894C52.4492 35.8227 51.5904 36.1784 50.6949 36.1784C46.6971 36.3008 42.8535 37.7487 39.7686 40.2943C36.6837 42.8399 34.5326 46.3388 33.6535 50.2406C33.2328 51.6547 32.9403 53.1038 32.7795 54.5704C32.7088 55.4308 32.3111 56.2314 31.6684 56.8076C31.0256 57.3839 30.1865 57.6921 29.3235 57.6689Z" fill="black"/>
<path d="M85.4119 148.397C85.0352 148.408 84.6632 148.312 84.3393 148.119C57.9231 131.435 38.6968 113.599 27.0975 95.1279C20.2651 84.2039 12.797 67.3214 15.8955 49.9224C16.8831 42.695 20.039 35.9368 24.9466 30.5399C29.8542 25.143 36.2829 21.3609 43.3842 19.6927C58.4395 16.4354 73.9715 23.6651 85.4119 38.8395C96.8126 23.5459 112.344 16.4354 127.4 19.6927C134.501 21.3609 140.93 25.143 145.837 30.5399C150.745 35.9368 153.901 42.695 154.888 49.9224C158.027 67.4803 150.519 84.2039 143.686 95.1279C132.087 113.599 112.861 131.435 86.4447 148.119C86.134 148.309 85.7756 148.405 85.4119 148.397ZM50.6934 22.8706C48.5573 22.8791 46.4277 23.1054 44.3376 23.5459C38.0126 25.0658 32.2949 28.4625 27.9351 33.2902C23.5752 38.1179 20.777 44.1511 19.9076 50.5977C18.3186 59.615 18.8748 74.4319 30.5932 93.0226C41.7158 110.739 60.1873 127.94 85.531 144.067C110.835 127.94 129.227 110.739 140.429 93.0226C152.148 74.273 152.704 59.615 151.115 50.5977C150.245 44.1511 147.447 38.1179 143.087 33.2902C138.727 28.4625 133.01 25.0658 126.685 23.5459C112.503 20.4872 97.7659 27.9155 87.1597 43.4078C86.9671 43.6628 86.718 43.8697 86.432 44.0121C86.1459 44.1546 85.8307 44.2287 85.5111 44.2287C85.1916 44.2287 84.8764 44.1546 84.5903 44.0121C84.3043 43.8697 84.0552 43.6628 83.8626 43.4078C74.7262 30.1798 62.6105 22.8706 50.6934 22.8706Z" fill="black"/>
<path d="M29.3256 56.1604H29.0873C28.5666 56.1005 28.0908 55.8372 27.7634 55.428C27.436 55.0188 27.2836 54.4967 27.3394 53.9756C27.5381 52.2153 27.8836 50.4746 28.3723 48.7718C29.5651 43.7216 32.4083 39.2135 36.4519 35.9614C40.4956 32.7092 45.5084 30.8988 50.697 30.8167C51.2205 30.8269 51.7199 31.0394 52.0902 31.4097C52.4605 31.78 52.673 32.2793 52.6831 32.8029C52.6831 33.3297 52.4739 33.8349 52.1014 34.2074C51.7289 34.5798 51.2237 34.7891 50.697 34.7891C46.3944 34.882 42.2439 36.3983 38.8945 39.1007C35.5452 41.8032 33.186 45.5394 32.1857 49.7252C31.7708 51.2237 31.4655 52.7505 31.2721 54.2934C31.2422 54.7925 31.0252 55.2619 30.6644 55.608C30.3036 55.954 29.8255 56.1513 29.3256 56.1604Z" fill="black"/>
<path d="M85.4099 147.206C85.2671 147.246 85.1157 147.246 84.9729 147.206C58.7156 130.641 39.6085 112.964 28.1284 94.6115C21.3754 83.8464 14.0265 67.4405 17.0455 50.2402C18.0101 43.2449 21.0684 36.705 25.8185 31.4799C30.5686 26.2548 36.7883 22.5889 43.6603 20.9639C58.6361 17.7065 74.1681 25.1746 85.4099 40.8257C96.6119 24.9362 112.144 17.5874 127.159 20.9639C134.027 22.5909 140.24 26.2583 144.984 31.4838C149.727 36.7093 152.778 43.2481 153.735 50.2402C156.754 67.4405 149.405 83.8464 142.652 94.6115C131.171 112.964 112.064 130.641 85.8071 147.206C85.677 147.241 85.5399 147.241 85.4099 147.206ZM50.6914 21.6789C48.4741 21.6809 46.2634 21.9206 44.0972 22.3939C37.5381 23.9549 31.6057 27.4663 27.0816 32.4655C22.5575 37.4647 19.654 43.7171 18.7536 50.3991C17.1249 59.615 17.681 74.5908 29.5981 93.6184C40.8797 111.693 59.7087 129.131 85.529 145.497C111.191 129.171 130.139 111.693 141.341 93.6184C153.258 74.5908 153.774 59.615 152.146 50.3991C151.245 43.7171 148.342 37.4647 143.818 32.4655C139.293 27.4663 133.361 23.9549 126.802 22.3939C112.184 19.216 96.9297 26.8032 86.0454 42.6927C85.9694 42.7892 85.8731 42.8677 85.7632 42.9227C85.6533 42.9776 85.5327 43.0076 85.4099 43.0105C85.2804 43.0136 85.1519 42.9865 85.0347 42.9313C84.9175 42.8762 84.8147 42.7945 84.7346 42.6927C75.479 29.1867 63.0852 21.6789 50.6914 21.6789Z" fill="black"/>
<path d="M29.3232 54.9667C29.116 54.9279 28.9312 54.8121 28.8059 54.6426C28.6807 54.4731 28.6242 54.2625 28.6479 54.0531C28.8369 52.3596 29.1691 50.6852 29.641 49.0479C30.7664 44.2763 33.4447 40.0136 37.2553 36.9291C41.066 33.8447 45.7931 32.1132 50.6945 32.0064C50.9052 32.0064 51.1073 32.0901 51.2563 32.2391C51.4053 32.3881 51.489 32.5902 51.489 32.8009C51.489 33.0116 51.4053 33.2137 51.2563 33.3627C51.1073 33.5117 50.9052 33.5954 50.6945 33.5954C46.1388 33.7114 41.7499 35.3336 38.2138 38.2084C34.6778 41.0833 32.1939 45.0487 31.1505 49.4848C30.7052 51.0436 30.3994 52.6388 30.2368 54.2517C30.2071 54.4661 30.0951 54.6606 29.9246 54.794C29.7541 54.9275 29.5385 54.9894 29.3232 54.9667Z" fill="black"/>
</g>
<g filter="url(#filter0_d_601_2530)">
<path d="M81.4416 145.815C80.7953 145.824 80.1605 145.644 79.6142 145.299C53.0391 128.536 33.654 110.541 21.9753 91.8707C9.34313 71.7308 8.78698 55.6427 10.5348 45.7118C11.5772 38.2052 14.8673 31.19 19.9722 25.5887C25.0772 19.9875 31.7579 16.0625 39.1358 14.3301C54.2308 11.0728 69.8025 17.8655 81.4416 32.5633C93.0806 17.8655 108.613 11.0728 123.708 14.3301C131.085 16.0625 137.766 19.9875 142.871 25.5887C147.976 31.19 151.266 38.2052 152.309 45.7118C154.056 55.6427 153.5 71.7308 140.908 91.8707C128.991 110.541 109.804 128.536 83.2291 145.299C82.6943 145.637 82.0743 145.816 81.4416 145.815ZM46.7231 20.2887C44.6919 20.2951 42.6674 20.5215 40.6851 20.964C34.6293 22.4125 29.1551 25.6633 24.985 30.2873C20.8149 34.9112 18.145 40.691 17.3276 46.8638C15.7784 55.6427 16.3345 69.9432 27.8146 88.2955C38.6989 105.694 56.7732 122.577 81.5607 138.466C106.309 122.577 124.383 105.694 135.267 88.2955C146.747 69.9432 147.184 55.6427 145.754 46.8638C144.923 40.665 142.224 34.8662 138.016 30.2394C133.808 25.6127 128.29 22.3773 122.198 20.964C108.652 18.0244 94.3914 25.1747 84.1427 40.1505C83.8383 40.6077 83.4246 40.9816 82.9389 41.2383C82.4533 41.495 81.9113 41.6263 81.3621 41.6203C80.8074 41.6258 80.2599 41.4946 79.768 41.2382C79.2761 40.9819 78.8549 40.6083 78.5417 40.1505C69.8819 27.3992 58.2429 20.2887 46.7231 20.2887Z" fill="#FF003E"/>
<path d="M25.3528 53.6972H24.9556C24.5148 53.6478 24.088 53.512 23.6996 53.2976C23.3112 53.0832 22.9689 52.7943 22.6922 52.4476C22.4155 52.1008 22.2099 51.7029 22.0871 51.2766C21.9643 50.8503 21.9266 50.404 21.9764 49.9632C22.2013 48.1224 22.5733 46.3025 23.0886 44.5211C24.331 39.1587 27.3338 34.3671 31.6179 30.911C35.902 27.455 41.2204 25.5336 46.7242 25.4537C47.6197 25.4537 48.4785 25.8095 49.1117 26.4427C49.745 27.0759 50.1007 27.9347 50.1007 28.8302C50.1007 29.7257 49.745 30.5846 49.1117 31.2178C48.4785 31.851 47.6197 32.2067 46.7242 32.2067C42.7264 32.3292 38.8828 33.7771 35.7979 36.3226C32.713 38.8682 30.5618 42.3671 29.6828 46.2689C29.2621 47.683 28.9696 49.1322 28.8088 50.5988C28.738 51.4591 28.3404 52.2597 27.6977 52.836C27.0549 53.4122 26.2158 53.7204 25.3528 53.6972Z" fill="#FF003E"/>
<path d="M81.4392 144.425C81.0626 144.436 80.6906 144.34 80.3667 144.147C53.9504 127.463 34.7242 109.627 23.1249 91.1558C16.2924 80.2318 8.82436 63.3492 11.9228 45.9503C12.9105 38.7228 16.0663 31.9647 20.9739 26.5677C25.8815 21.1708 32.3102 17.3887 39.4116 15.7206C54.4668 12.4632 69.9988 19.6929 81.4392 34.8674C92.8399 19.5738 108.372 12.4632 123.427 15.7206C130.528 17.3887 136.957 21.1708 141.865 26.5677C146.772 31.9647 149.928 38.7228 150.916 45.9503C154.054 63.5081 146.546 80.2318 139.714 91.1558C128.114 109.627 108.888 127.463 82.472 144.147C82.1613 144.336 81.803 144.433 81.4392 144.425ZM46.7207 18.8985C44.5847 18.907 42.455 19.1332 40.3649 19.5738C34.0399 21.0936 28.3223 24.4903 23.9624 29.318C19.6026 34.1458 16.8043 40.1789 15.9349 46.6256C14.346 55.6428 14.9021 70.4598 26.6206 89.0504C37.7432 106.767 56.2147 123.968 81.5584 140.095C106.862 123.968 125.254 106.767 136.456 89.0504C148.175 70.3009 148.731 55.6428 147.142 46.6256C146.273 40.1789 143.474 34.1458 139.115 29.318C134.755 24.4903 129.037 21.0936 122.712 19.5738C108.531 16.5151 93.7932 23.9434 83.187 39.4356C82.9944 39.6906 82.7454 39.8975 82.4593 40.04C82.1733 40.1824 81.8581 40.2566 81.5385 40.2566C81.2189 40.2566 80.9037 40.1824 80.6177 40.04C80.3316 39.8975 80.0825 39.6906 79.89 39.4356C70.7536 26.2076 58.6378 18.8985 46.7207 18.8985Z" fill="#FF406E"/>
<path d="M25.353 52.1877H25.1146C24.594 52.1278 24.1181 51.8646 23.7907 51.4553C23.4633 51.0461 23.3109 50.524 23.3668 50.0029C23.5654 48.2426 23.9109 46.5019 24.3996 44.7991C25.5924 39.7489 28.4357 35.2409 32.4793 31.9887C36.5229 28.7365 41.5358 26.9261 46.7243 26.8441C47.2479 26.8542 47.7472 27.0668 48.1175 27.4371C48.4878 27.8074 48.7003 28.3067 48.7105 28.8302C48.7105 29.357 48.5012 29.8622 48.1287 30.2347C47.7562 30.6072 47.2511 30.8164 46.7243 30.8164C42.4217 30.9094 38.2712 32.4256 34.9219 35.1281C31.5726 37.8305 29.2133 41.5668 28.2131 45.7525C27.7981 47.2511 27.4928 48.7778 27.2994 50.3207C27.2695 50.8198 27.0525 51.2892 26.6917 51.6353C26.3309 51.9814 25.8528 52.1786 25.353 52.1877Z" fill="#FF406E"/>
<path d="M81.4392 143.234C81.2964 143.275 81.145 143.275 81.0022 143.234C54.7449 126.669 35.6378 108.992 24.1577 90.6398C17.4047 79.8747 10.0558 63.4689 13.0748 46.2685C14.0394 39.2732 17.0977 32.7334 21.8478 27.5083C26.5979 22.2831 32.8176 18.6172 39.6896 16.9922C54.6654 13.7349 70.1974 21.2029 81.4392 36.854C92.6412 20.9646 108.173 13.6157 123.189 16.9922C130.056 18.6192 136.27 22.2866 141.013 27.5121C145.756 32.7376 148.807 39.2764 149.764 46.2685C152.783 63.4689 145.434 79.8747 138.681 90.6398C127.201 108.992 108.094 126.669 81.8364 143.234C81.7063 143.269 81.5692 143.269 81.4392 143.234ZM46.7207 17.7072C44.5034 17.7092 42.2927 17.949 40.1265 18.4223C33.5674 19.9832 27.635 23.4946 23.1109 28.4938C18.5868 33.493 15.6833 39.7455 14.7829 46.4274C13.1542 55.6433 13.7103 70.6191 25.6274 89.6467C36.909 107.721 55.738 125.16 81.5583 141.526C107.22 125.199 126.168 107.721 137.37 89.6467C149.287 70.6191 149.804 55.6433 148.175 46.4274C147.274 39.7455 144.371 33.493 139.847 28.4938C135.323 23.4946 129.39 19.9832 122.831 18.4223C108.213 15.2444 92.959 22.8316 82.0747 38.721C81.9987 38.8175 81.9024 38.8961 81.7925 38.951C81.6826 39.0059 81.562 39.0359 81.4392 39.0388C81.3097 39.0419 81.1812 39.0148 81.064 38.9597C80.9468 38.9045 80.844 38.8228 80.7639 38.721C71.5083 25.215 59.1145 17.7072 46.7207 17.7072Z" fill="#FF8CA7"/>
<path d="M25.3525 50.995C25.1453 50.9562 24.9605 50.8404 24.8352 50.671C24.71 50.5015 24.6535 50.2908 24.6772 50.0814C24.8662 48.3879 25.1984 46.7136 25.6702 45.0762C26.7957 40.3046 29.474 36.0419 33.2846 32.9575C37.0953 29.873 41.8224 28.1415 46.7238 28.0348C46.9345 28.0348 47.1366 28.1185 47.2856 28.2675C47.4345 28.4165 47.5183 28.6185 47.5183 28.8293C47.5183 29.04 47.4345 29.242 47.2856 29.391C47.1366 29.54 46.9345 29.6237 46.7238 29.6237C42.1681 29.7397 37.7792 31.362 34.2431 34.2368C30.7071 37.1116 28.2232 41.077 27.1798 45.5132C26.7344 47.0719 26.4287 48.6671 26.2661 50.28C26.2364 50.4945 26.1244 50.6889 25.9539 50.8224C25.7834 50.9558 25.5678 51.0177 25.3525 50.995Z" fill="#FF8CA7"/>
</g>
</g>
<defs>
<filter id="filter0_d_601_2530" x="1.86387" y="5.584" width="167.061" height="156.121" filterUnits="userSpaceOnUse" color-interpolation-filters="sRGB">
<feFlood flood-opacity="0" result="BackgroundImageFix"/>
<feColorMatrix in="SourceAlpha" type="matrix" values="0 0 0 0 0 0 0 0 0 0 0 0 0 0 0 0 0 0 127 0" result="hardAlpha"/>
<feOffset dx="3.97236" dy="3.97236"/>
<feGaussianBlur stdDeviation="5.95855"/>
<feComposite in2="hardAlpha" operator="out"/>
<feColorMatrix type="matrix" values="0 0 0 0 1 0 0 0 0 0 0 0 0 0 0.234783 0 0 0 1 0"/>
<feBlend mode="normal" in2="BackgroundImageFix" result="effect1_dropShadow_601_2530"/>
<feBlend mode="normal" in="SourceGraphic" in2="effect1_dropShadow_601_2530" result="shape"/>
</filter>
<clipPath id="clip0_601_2530">
<rect width="164" height="164" fill="white" transform="translate(0.867188 0.383011)"/>
</clipPath>
</defs>
</svg>
