<svg width="165" height="165" viewBox="0 0 165 165" fill="none" xmlns="http://www.w3.org/2000/svg">
<g clip-path="url(#clip0_601_2546)">
<g opacity="0.6">
<path d="M123.143 150.75C121.096 150.748 119.104 150.084 117.465 148.858L86.5625 126.432C86.4621 126.355 86.3392 126.314 86.2128 126.314C86.0864 126.314 85.9635 126.355 85.863 126.432L55.002 148.858C53.3451 150.054 51.3532 150.697 49.3096 150.695C47.2661 150.693 45.2752 150.047 43.6203 148.848C41.9655 147.649 40.731 145.959 40.0927 144.017C39.4544 142.076 39.4448 139.983 40.0653 138.036L51.8748 101.702C51.9055 101.58 51.8984 101.452 51.8542 101.334C51.8101 101.217 51.7312 101.115 51.6279 101.044L20.7669 78.618C19.1086 77.4145 17.8734 75.7173 17.2382 73.7692C16.603 71.8212 16.6002 69.7221 17.2304 67.7724C17.8605 65.8226 19.0912 64.1222 20.7463 62.9144C22.4015 61.7065 24.3963 61.0532 26.4453 61.0478H64.6306C64.7573 61.0466 64.8805 61.0065 64.9835 60.9329C65.0866 60.8593 65.1645 60.7557 65.2067 60.6363L77.0162 24.3438C77.6472 22.4016 78.8769 20.7091 80.5289 19.5087C82.181 18.3084 84.1707 17.6619 86.2128 17.6619C88.2549 17.6619 90.2446 18.3084 91.8966 19.5087C93.5487 20.7091 94.7784 22.4016 95.4094 24.3438V24.3438L107.178 60.6363C107.222 60.7625 107.306 60.8709 107.418 60.9451C107.529 61.0193 107.661 61.0554 107.795 61.0478H145.939C147.992 61.0445 149.992 61.6916 151.654 62.8962C153.316 64.1009 154.554 65.8011 155.189 67.7528C155.824 69.7045 155.825 71.8074 155.191 73.7594C154.556 75.7115 153.32 77.4124 151.659 78.618L120.757 101.044C120.689 101.14 120.653 101.255 120.653 101.373C120.653 101.491 120.689 101.605 120.757 101.702L132.443 138.036C132.907 139.492 133.023 141.036 132.78 142.545C132.538 144.054 131.944 145.485 131.047 146.722C130.15 147.96 128.975 148.969 127.616 149.669C126.258 150.368 124.754 150.739 123.225 150.75H123.143ZM86.1099 119.313C87.7056 119.316 89.2601 119.82 90.5539 120.754L121.456 143.179C121.91 143.53 122.467 143.72 123.04 143.72C123.614 143.72 124.171 143.53 124.624 143.179C125.092 142.853 125.441 142.384 125.619 141.842C125.797 141.3 125.795 140.716 125.612 140.175L113.926 103.883C113.427 102.354 113.425 100.706 113.92 99.1759C114.415 97.6457 115.382 96.3117 116.683 95.3652L147.585 72.9396C148.053 72.6133 148.402 72.1441 148.58 71.6024C148.758 71.0607 148.755 70.4759 148.573 69.9358C148.403 69.3823 148.059 68.8986 147.592 68.5573C147.124 68.216 146.559 68.0355 145.98 68.043H107.754C106.149 68.0521 104.582 67.5509 103.28 66.6115C101.978 65.6722 101.009 64.3435 100.512 62.8172L88.7023 26.4835C88.5396 25.9374 88.2016 25.46 87.7405 25.1253C87.2793 24.7906 86.7207 24.6172 86.1511 24.6318C85.576 24.6149 85.0113 24.7868 84.5432 25.1212C84.075 25.4556 83.7293 25.9341 83.5588 26.4835L71.7904 62.8172C71.2876 64.34 70.3167 65.6652 69.0162 66.6036C67.7157 67.5421 66.1521 68.0458 64.5484 68.043H26.4453C25.8788 68.0543 25.33 68.2424 24.8758 68.5812C24.4216 68.92 24.0847 69.3923 23.9123 69.9321C23.74 70.4718 23.7408 71.052 23.9146 71.5913C24.0884 72.1306 24.4266 72.6021 24.8817 72.9396L55.7427 95.3652C57.0263 96.3238 57.9729 97.6648 58.4461 99.1953C58.9193 100.726 58.8948 102.367 58.3762 103.883L46.6078 140.175C46.403 140.713 46.3894 141.305 46.5692 141.852C46.7489 142.399 47.1113 142.868 47.5954 143.179C48.0492 143.53 48.6063 143.72 49.1796 143.72C49.7529 143.72 50.31 143.53 50.7638 143.179L81.6248 120.754C82.9718 119.802 84.5841 119.298 86.2333 119.313H86.1099Z" fill="black"/>
<path d="M60.9265 91.7025C60.2011 91.7055 59.4941 91.4746 58.9102 91.0441L43.3151 79.7284C42.5692 79.1774 42.0694 78.3557 41.9232 77.4399C41.777 76.5242 41.9961 75.5876 42.5333 74.8318C42.8059 74.4612 43.1488 74.148 43.5426 73.9101C43.9363 73.6723 44.3731 73.5144 44.828 73.4456C45.2828 73.3768 45.7468 73.3984 46.1933 73.5092C46.6398 73.6199 47.06 73.8177 47.4299 74.0911L62.9839 85.4068C63.5685 85.8451 64.0011 86.4555 64.221 87.1522C64.4409 87.849 64.4372 88.5971 64.2102 89.2916C63.9833 89.9861 63.5445 90.592 62.9556 91.0244C62.3666 91.4568 61.6571 91.694 60.9265 91.7025Z" fill="black"/>
<path d="M123.146 149.31C121.407 149.328 119.707 148.796 118.29 147.788L87.4292 125.321C87.0701 125.08 86.6476 124.952 86.2153 124.952C85.7831 124.952 85.3606 125.08 85.0015 125.321L54.2639 147.788C52.8554 148.842 51.1463 149.416 49.3872 149.428C47.6282 149.439 45.9118 148.886 44.4898 147.851C43.0678 146.816 42.0149 145.352 41.4857 143.674C40.9565 141.997 40.9787 140.194 41.5492 138.53L53.3586 102.237C53.4882 101.823 53.4866 101.38 53.354 100.967C53.2214 100.555 52.9642 100.193 52.618 99.9327L21.5924 77.4247C20.1638 76.4093 19.0968 74.9643 18.5467 73.3002C17.9966 71.6361 17.9922 69.8398 18.534 68.173C19.0758 66.5062 20.1356 65.0559 21.5591 64.0333C22.9825 63.0108 24.6953 62.4694 26.4478 62.488H64.6332C65.0625 62.4911 65.4816 62.3571 65.8294 62.1054C66.1773 61.8538 66.4357 61.4977 66.5671 61.089L78.3766 24.7964C78.8975 23.1192 79.9413 21.6526 81.3554 20.6111C82.7695 19.5696 84.4796 19.0078 86.2359 19.0078C87.9921 19.0078 89.7023 19.5696 91.1164 20.6111C92.5304 21.6526 93.5743 23.1192 94.0952 24.7964V24.7964L105.863 61.089C106.008 61.4976 106.275 61.8514 106.629 62.1019C106.983 62.3524 107.405 62.4873 107.839 62.488H145.983C147.735 62.4694 149.448 63.0108 150.872 64.0333C152.295 65.0559 153.355 66.5062 153.897 68.173C154.438 69.8398 154.434 71.6361 153.884 73.3002C153.334 74.9643 152.267 76.4093 150.838 77.4247L120.101 99.8504C119.744 100.103 119.48 100.464 119.346 100.879C119.213 101.295 119.217 101.742 119.36 102.155L131.128 138.447C131.684 140.133 131.68 141.954 131.117 143.637C130.553 145.32 129.46 146.776 128.001 147.788C126.584 148.796 124.884 149.328 123.146 149.31V149.31ZM86.1124 120.754C87.4175 120.745 88.6895 121.164 89.7335 121.947L120.594 144.373C121.298 145.026 122.208 145.413 123.167 145.467C124.125 145.52 125.073 145.237 125.845 144.665C126.616 144.094 127.164 143.27 127.392 142.338C127.621 141.405 127.516 140.422 127.096 139.558L115.286 103.266C114.886 102.028 114.89 100.696 115.296 99.4604C115.703 98.2252 116.492 97.1513 117.55 96.3939L148.411 73.9271C149.12 73.4196 149.65 72.6996 149.924 71.8712C150.197 71.0429 150.201 70.1489 149.933 69.3186C149.661 68.4515 149.11 67.6988 148.366 67.1777C147.622 66.6567 146.726 66.3967 145.818 66.4382H107.756C106.467 66.4579 105.205 66.071 104.149 65.3323C103.093 64.5936 102.296 63.5408 101.872 62.3234L90.0626 26.0309C89.791 25.1638 89.2401 24.4111 88.4957 23.89C87.7514 23.369 86.8555 23.109 85.9478 23.1505C85.0402 23.109 84.1443 23.369 83.4 23.89C82.6556 24.4111 82.1047 25.1638 81.833 26.0309L70.0236 62.3234C69.6075 63.5375 68.8184 64.5891 67.7691 65.328C66.7198 66.067 65.4639 66.4555 64.1806 66.4382H26.4478C25.566 66.4225 24.7024 66.6905 23.9844 67.2027C23.2664 67.715 22.7321 68.4444 22.4601 69.2834C22.1881 70.1225 22.1929 71.0267 22.4738 71.8627C22.7546 72.6988 23.2967 73.4225 24.0201 73.9271L54.9223 96.3939C55.9673 97.1609 56.7444 98.2375 57.1432 99.4709C57.542 100.704 57.5424 102.032 57.1442 103.266L45.3348 139.558C45.0576 140.394 45.0558 141.297 45.3299 142.134C45.6039 142.971 46.1393 143.698 46.8572 144.208C47.562 144.723 48.4122 145 49.285 145C50.1578 145 51.008 144.723 51.7127 144.208L82.6149 121.782C83.6767 121.052 84.9488 120.691 86.2359 120.754H86.1124Z" fill="black"/>
<path d="M60.9294 90.1815C60.5036 90.1796 60.0882 90.0506 59.7361 89.8112L44.1822 78.4955C43.7911 78.1607 43.5398 77.6914 43.4778 77.1803C43.4159 76.6692 43.5478 76.1535 43.8475 75.735C44.1473 75.3164 44.593 75.0254 45.0968 74.9194C45.6006 74.8134 46.1258 74.9002 46.5687 75.1625L62.1638 86.4782C62.5978 86.8061 62.8876 87.2896 62.972 87.8269C63.0565 88.3643 62.929 88.9134 62.6164 89.3586C62.4184 89.6173 62.1629 89.8264 61.8701 89.9692C61.5772 90.112 61.2552 90.1847 60.9294 90.1815Z" fill="black"/>
<path d="M123.145 148.077C121.661 148.053 120.222 147.564 119.031 146.678L88.1697 124.252C87.605 123.85 86.929 123.634 86.2357 123.634C85.5424 123.634 84.8664 123.85 84.3018 124.252L53.3996 146.678C52.2171 147.579 50.7715 148.067 49.2848 148.067C47.7982 148.067 46.3526 147.579 45.17 146.678C43.9586 145.824 43.0556 144.601 42.5958 143.192C42.136 141.783 42.1441 140.264 42.6188 138.86L54.2637 102.526C54.4811 101.868 54.4825 101.158 54.2679 100.499C54.0532 99.8402 53.6337 99.2672 53.0704 98.8637L22.2094 76.438C21.0147 75.5638 20.1261 74.335 19.6701 72.9265C19.2142 71.518 19.2141 70.0015 19.67 68.593C20.1258 67.1844 21.0143 65.9556 22.209 65.0812C23.4038 64.2069 24.8438 63.7317 26.3242 63.7233H64.5096C65.2027 63.7233 65.8782 63.5046 66.4398 63.0982C67.0013 62.6918 67.4202 62.1186 67.6368 61.4601L79.4052 25.1676C79.8669 23.7583 80.7621 22.531 81.9629 21.6608C83.1637 20.7906 84.6088 20.3221 86.0917 20.3221C87.5747 20.3221 89.0197 20.7906 90.2206 21.6608C91.4214 22.531 92.3165 23.7583 92.7783 25.1676L104.711 61.3778C104.922 62.0397 105.34 62.6166 105.903 63.0239C106.465 63.4311 107.144 63.6474 107.838 63.641H145.983C147.463 63.6494 148.903 64.1246 150.098 64.9989C151.293 65.8733 152.181 67.1021 152.637 68.5107C153.093 69.9192 153.093 71.4357 152.637 72.8442C152.181 74.2527 151.292 75.4815 150.097 76.3557L119.236 98.7814C118.673 99.1849 118.254 99.7579 118.039 100.417C117.824 101.075 117.826 101.786 118.043 102.444L129.853 138.777C130.327 140.181 130.335 141.701 129.876 143.11C129.416 144.519 128.513 145.742 127.301 146.595C126.105 147.512 124.652 148.03 123.145 148.077V148.077ZM86.1123 121.989C87.1502 121.98 88.1623 122.312 88.9927 122.935L120.101 145.361C121.007 146.045 122.112 146.415 123.248 146.415C124.384 146.415 125.489 146.045 126.396 145.361C127.278 144.711 127.936 143.805 128.283 142.766C128.629 141.728 128.645 140.607 128.33 139.559L116.521 103.267C116.188 102.275 116.185 101.203 116.511 100.209C116.838 99.2159 117.476 98.3543 118.331 97.7527L149.192 75.327C150.153 74.6685 150.875 73.7164 151.249 72.6133C151.624 71.5103 151.631 70.3156 151.269 69.2082C150.908 68.1008 150.198 67.1402 149.244 66.4704C148.291 65.8006 147.147 65.4576 145.983 65.4926H107.756C106.712 65.4977 105.694 65.169 104.85 64.5546C104.006 63.9403 103.381 63.0723 103.065 62.0774L91.2969 25.6614C90.9434 24.5814 90.2577 23.6408 89.3376 22.9739C88.4176 22.307 87.3103 21.9479 86.174 21.9479C85.0377 21.9479 83.9304 22.307 83.0104 22.9739C82.0903 23.6408 81.4046 24.5814 81.0511 25.6614L69.2828 61.9539C68.967 62.9488 68.3415 63.8168 67.4977 64.4312C66.6538 65.0456 65.6357 65.3742 64.5919 65.3692H26.4477C25.3126 65.3776 24.2092 65.7441 23.2947 66.4164C22.3802 67.0887 21.7012 68.0326 21.3546 69.1134C21.008 70.1943 21.0115 71.357 21.3645 72.4357C21.7174 73.5145 22.402 74.4544 23.3205 75.1213L54.2637 97.5469C55.1117 98.1541 55.7417 99.0181 56.0604 100.011C56.379 101.004 56.3695 102.074 56.0331 103.061L44.1825 139.559C43.8251 140.635 43.8187 141.796 44.1642 142.876C44.5097 143.956 45.1893 144.898 46.1049 145.566C47.0205 146.234 48.1248 146.595 49.2584 146.595C50.392 146.595 51.4964 146.235 52.4121 145.567L83.3142 123.1C84.1358 122.412 85.1648 122.021 86.2357 121.989H86.1123Z" fill="black"/>
<path d="M60.9666 89.0287C60.8082 89.0928 60.6312 89.0928 60.4728 89.0287L44.8777 77.713C44.7989 77.6435 44.7358 77.5581 44.6926 77.4623C44.6493 77.3665 44.627 77.2626 44.627 77.1575C44.627 77.0524 44.6493 76.9486 44.6926 76.8528C44.7358 76.757 44.7989 76.6715 44.8777 76.602C44.9395 76.5124 45.0184 76.4359 45.1099 76.3769C45.2014 76.318 45.3037 76.2778 45.4108 76.2587C45.518 76.2395 45.6279 76.2418 45.7341 76.2655C45.8404 76.2891 45.9409 76.3336 46.0299 76.3963L61.5838 87.712C61.7564 87.8432 61.8733 88.0345 61.9114 88.2479C61.9495 88.4614 61.906 88.6813 61.7896 88.8641C61.6777 88.9592 61.5434 89.0243 61.3994 89.0531C61.2554 89.0819 61.1064 89.0735 60.9666 89.0287V89.0287Z" fill="black"/>
</g>
<g filter="url(#filter0_d_601_2546)">
<path d="M119.028 146.636C116.981 146.633 114.989 145.969 113.349 144.743L82.4473 122.317C82.3469 122.241 82.224 122.199 82.0975 122.199C81.9711 122.199 81.8482 122.241 81.7478 122.317L50.8868 144.743C49.2299 145.939 47.2379 146.582 45.1944 146.58C43.1508 146.579 41.1599 145.932 39.5051 144.733C37.8502 143.534 36.6158 141.844 35.9775 139.903C35.3392 137.961 35.3296 135.868 35.9501 133.921L47.7595 97.5873C47.7903 97.4655 47.7831 97.3372 47.739 97.2195C47.6949 97.1019 47.6159 97.0005 47.5127 96.9289L16.6517 74.5033C14.9933 73.2998 13.7582 71.6026 13.123 69.6545C12.4877 67.7064 12.485 65.6074 13.1151 63.6576C13.7452 61.7079 14.9759 60.0075 16.6311 58.7996C18.2863 57.5918 20.2811 56.9384 22.3301 56.9331H60.5154C60.642 56.9319 60.7652 56.8918 60.8683 56.8181C60.9714 56.7445 61.0493 56.641 61.0915 56.5216L72.901 20.2291C73.532 18.2869 74.7616 16.5944 76.4137 15.394C78.0658 14.1937 80.0555 13.5472 82.0975 13.5472C84.1396 13.5472 86.1293 14.1937 87.7814 15.394C89.4335 16.5944 90.6631 18.2869 91.2941 20.2291V20.2291L103.062 56.5216C103.107 56.6478 103.191 56.7562 103.302 56.8304C103.414 56.9046 103.546 56.9407 103.68 56.9331H141.824C143.876 56.9298 145.877 57.5769 147.539 58.7815C149.201 59.9862 150.438 61.6864 151.074 63.6381C151.709 65.5898 151.71 67.6926 151.075 69.6447C150.441 71.5968 149.205 73.2977 147.543 74.5033L116.641 96.9289C116.574 97.0255 116.538 97.1404 116.538 97.2581C116.538 97.3758 116.574 97.4907 116.641 97.5873L128.327 133.921C128.792 135.377 128.907 136.922 128.665 138.431C128.423 139.94 127.829 141.37 126.932 142.608C126.035 143.845 124.86 144.854 123.501 145.554C122.142 146.254 120.638 146.624 119.11 146.636H119.028ZM81.9947 115.199C83.5903 115.201 85.1449 115.705 86.4387 116.639L117.341 139.065C117.795 139.415 118.352 139.605 118.925 139.605C119.498 139.605 120.055 139.415 120.509 139.065C120.977 138.738 121.326 138.269 121.504 137.727C121.682 137.186 121.68 136.601 121.497 136.061L109.811 99.7682C109.312 98.2392 109.309 96.5914 109.805 95.0612C110.3 93.531 111.267 92.197 112.568 91.2505L143.47 68.8249C143.937 68.4986 144.286 68.0293 144.465 67.4877C144.643 66.946 144.64 66.3612 144.457 65.8211C144.288 65.2676 143.944 64.7839 143.477 64.4426C143.009 64.1013 142.444 63.9208 141.865 63.9283H103.639C102.033 63.9374 100.467 63.4361 99.165 62.4968C97.8632 61.5575 96.8937 60.2287 96.3965 58.7025L84.587 22.3688C84.4244 21.8226 84.0864 21.3453 83.6252 21.0106C83.1641 20.6759 82.6055 20.5025 82.0358 20.5171C81.4608 20.5002 80.896 20.6721 80.4279 21.0065C79.9598 21.3409 79.6141 21.8193 79.4435 22.3688L67.6752 58.7025C67.1724 60.2253 66.2015 61.5505 64.901 62.4889C63.6005 63.4274 62.0368 63.9311 60.4331 63.9283H22.3301C21.7636 63.9395 21.2148 64.1277 20.7606 64.4665C20.3063 64.8052 19.9695 65.2776 19.7971 65.8174C19.6247 66.3571 19.6255 66.9373 19.7993 67.4766C19.9732 68.0159 20.3113 68.4873 20.7665 68.8249L51.6275 91.2505C52.9111 92.2091 53.8576 93.5501 54.3308 95.0806C54.8041 96.6112 54.7796 98.2524 54.2609 99.7682L42.4926 136.061C42.2878 136.599 42.2741 137.191 42.4539 137.738C42.6337 138.285 42.996 138.753 43.4801 139.065C43.9339 139.415 44.4911 139.605 45.0643 139.605C45.6376 139.605 46.1948 139.415 46.6486 139.065L77.5096 116.639C78.8566 115.687 80.4689 115.183 82.1181 115.199H81.9947Z" fill="#FFC000"/>
<path d="M56.8113 87.5883C56.0859 87.5912 55.3788 87.3604 54.795 86.9299L39.1999 75.6142C38.454 75.0632 37.9542 74.2414 37.8079 73.3257C37.6617 72.41 37.8808 71.4734 38.4181 70.7176C38.6906 70.347 39.0336 70.0338 39.4273 69.7959C39.8211 69.558 40.2579 69.4002 40.7127 69.3314C41.1676 69.2626 41.6316 69.2842 42.078 69.3949C42.5245 69.5057 42.9448 69.7035 43.3147 69.9769L58.8687 81.2926C59.4532 81.7309 59.8858 82.3413 60.1058 83.038C60.3257 83.7348 60.322 84.4829 60.095 85.1774C59.868 85.8718 59.4293 86.4778 58.8404 86.9102C58.2514 87.3426 57.5419 87.5797 56.8113 87.5883Z" fill="#FFC000"/>
<path d="M119.03 145.196C117.292 145.214 115.592 144.681 114.175 143.674L83.3139 121.207C82.9548 120.966 82.5323 120.838 82.1001 120.838C81.6678 120.838 81.2453 120.966 80.8862 121.207L50.1487 143.674C48.7401 144.727 47.031 145.302 45.272 145.313C43.513 145.325 41.7966 144.772 40.3746 143.737C38.9525 142.701 37.8997 141.237 37.3705 139.56C36.8412 137.882 36.8635 136.079 37.4339 134.415L49.2434 98.1227C49.373 97.7092 49.3714 97.2657 49.2388 96.8531C49.1061 96.4405 48.849 96.0791 48.5027 95.8185L17.4771 73.3105C16.0486 72.295 14.9816 70.85 14.4315 69.1859C13.8814 67.5218 13.8769 65.7256 14.4188 64.0588C14.9606 62.392 16.0204 60.9417 17.4439 59.9191C18.8673 58.8966 20.58 58.3552 22.3326 58.3738H60.5179C60.9473 58.3769 61.3663 58.2428 61.7142 57.9912C62.062 57.7396 62.3205 57.3835 62.4519 56.9747L74.2614 20.6822C74.7823 19.005 75.8261 17.5384 77.2402 16.4969C78.6542 15.4554 80.3644 14.8936 82.1206 14.8936C83.8769 14.8936 85.5871 15.4554 87.0011 16.4969C88.4152 17.5384 89.459 19.005 89.9799 20.6822V20.6822L101.748 56.9747C101.893 57.3833 102.16 57.7372 102.514 57.9877C102.867 58.2382 103.29 58.3731 103.723 58.3738H141.868C143.62 58.3552 145.333 58.8966 146.756 59.9191C148.18 60.9417 149.24 62.392 149.781 64.0588C150.323 65.7256 150.319 67.5218 149.769 69.1859C149.219 70.85 148.152 72.295 146.723 73.3105L115.985 95.7362C115.629 95.9883 115.364 96.3493 115.231 96.7648C115.097 97.1803 115.102 97.6279 115.245 98.0405L127.013 134.333C127.569 136.019 127.565 137.839 127.001 139.523C126.438 141.206 125.345 142.662 123.886 143.674C122.469 144.681 120.769 145.214 119.03 145.196V145.196ZM81.9972 116.639C83.3022 116.63 84.5742 117.05 85.6183 117.833L116.479 140.258C117.183 140.912 118.093 141.299 119.051 141.353C120.01 141.406 120.958 141.123 121.729 140.551C122.501 139.98 123.049 139.156 123.277 138.224C123.506 137.291 123.401 136.308 122.981 135.444L111.171 99.1514C110.771 97.9141 110.774 96.5814 111.181 95.3462C111.588 94.1109 112.377 93.037 113.434 92.2797L144.295 69.8129C145.005 69.3053 145.535 68.5854 145.808 67.757C146.082 66.9286 146.085 66.0347 145.818 65.2043C145.546 64.3373 144.995 63.5845 144.251 63.0635C143.506 62.5425 142.611 62.2824 141.703 62.324H103.641C102.352 62.3437 101.09 61.9568 100.034 61.2181C98.9773 60.4794 98.1806 59.4265 97.7569 58.2092L85.9474 21.9166C85.6758 21.0496 85.1248 20.2969 84.3805 19.7758C83.6361 19.2548 82.7403 18.9947 81.8326 19.0363C80.925 18.9947 80.0291 19.2548 79.2847 19.7758C78.5404 20.2969 77.9894 21.0496 77.7178 21.9166L65.9084 58.2092C65.4922 59.4233 64.7032 60.4748 63.6539 61.2138C62.6045 61.9527 61.3486 62.3413 60.0653 62.324H22.3326C21.4507 62.3082 20.5872 62.5762 19.8692 63.0885C19.1512 63.6008 18.6168 64.3302 18.3448 65.1692C18.0729 66.0082 18.0777 66.9124 18.3585 67.7485C18.6394 68.5846 19.1815 69.3083 19.9049 69.8129L50.807 92.2797C51.8521 93.0467 52.6291 94.1233 53.028 95.3567C53.4268 96.5901 53.4272 97.9178 53.029 99.1514L41.2196 135.444C40.9423 136.28 40.9406 137.183 41.2147 138.02C41.4887 138.857 42.024 139.584 42.742 140.094C43.4467 140.609 44.2969 140.886 45.1698 140.886C46.0426 140.886 46.8928 140.609 47.5975 140.094L78.4996 117.668C79.5614 116.938 80.8336 116.577 82.1206 116.639H81.9972Z" fill="#FFD455"/>
<path d="M56.8142 86.0668C56.3884 86.0648 55.9729 85.9359 55.6209 85.6965L40.0669 74.3808C39.6759 74.0459 39.4246 73.5767 39.3626 73.0656C39.3007 72.5545 39.4326 72.0388 39.7323 71.6202C40.032 71.2017 40.4778 70.9107 40.9815 70.8047C41.4853 70.6987 42.0105 70.7855 42.4535 71.0478L58.0486 82.3635C58.4826 82.6913 58.7724 83.1749 58.8568 83.7122C58.9412 84.2496 58.8138 84.7987 58.5012 85.2439C58.3032 85.5026 58.0477 85.7116 57.7548 85.8545C57.462 85.9973 57.1399 86.07 56.8142 86.0668Z" fill="#FFD455"/>
<path d="M119.03 143.962C117.546 143.939 116.106 143.449 114.915 142.563L84.0544 120.137C83.4898 119.735 82.8138 119.519 82.1205 119.519C81.4272 119.519 80.7512 119.735 80.1866 120.137L49.2844 142.563C48.1019 143.464 46.6563 143.952 45.1696 143.952C43.6829 143.952 42.2373 143.464 41.0548 142.563C39.8433 141.709 38.9403 140.487 38.4806 139.078C38.0208 137.669 38.0289 136.149 38.5036 134.745L50.1485 98.4111C50.3659 97.7532 50.3673 97.0431 50.1526 96.3843C49.938 95.7255 49.5184 95.1525 48.9552 94.749L18.0942 72.3233C16.8994 71.4491 16.0108 70.2203 15.5549 68.8117C15.0989 67.4032 15.0989 65.8868 15.5547 64.4783C16.0106 63.0697 16.8991 61.8408 18.0938 60.9665C19.2885 60.0922 20.7286 59.617 22.209 59.6086H60.3943C61.0875 59.6086 61.763 59.3899 62.3245 58.9835C62.8861 58.5771 63.305 58.0039 63.5216 57.3454L75.2899 21.0529C75.7517 19.6436 76.6468 18.4163 77.8477 17.5461C79.0485 16.6759 80.4935 16.2074 81.9765 16.2074C83.4594 16.2074 84.9045 16.6759 86.1053 17.5461C87.3061 18.4163 88.2013 19.6436 88.663 21.0529L100.596 57.2631C100.807 57.925 101.224 58.5019 101.787 58.9091C102.35 59.3164 103.029 59.5327 103.723 59.5263H141.867C143.348 59.5347 144.788 60.0099 145.983 60.8842C147.177 61.7585 148.066 62.9874 148.522 64.396C148.978 65.8045 148.977 67.3209 148.522 68.7294C148.066 70.138 147.177 71.3668 145.982 72.241L115.121 94.6667C114.558 95.0702 114.138 95.6432 113.924 96.302C113.709 96.9608 113.711 97.6709 113.928 98.3288L125.737 134.663C126.212 136.067 126.22 137.586 125.76 138.995C125.301 140.404 124.398 141.627 123.186 142.481C121.99 143.397 120.536 143.915 119.03 143.962V143.962ZM81.997 117.874C83.035 117.865 84.0471 118.198 84.8774 118.821L115.985 141.246C116.892 141.93 117.997 142.301 119.133 142.301C120.269 142.301 121.374 141.93 122.281 141.246C123.162 140.597 123.821 139.69 124.167 138.652C124.514 137.613 124.53 136.493 124.215 135.444L112.405 99.1518C112.073 98.1603 112.07 97.0881 112.396 96.0946C112.722 95.1012 113.361 94.2395 114.216 93.638L145.077 71.2123C146.038 70.5538 146.76 69.6017 147.134 68.4986C147.508 67.3956 147.516 66.2009 147.154 65.0935C146.793 63.9861 146.082 63.0255 145.129 62.3557C144.176 61.6859 143.032 61.3428 141.867 61.3779H103.641C102.597 61.383 101.579 61.0543 100.735 60.4399C99.8912 59.8255 99.2658 58.9576 98.95 57.9626L87.1817 21.5467C86.8282 20.4667 86.1425 19.5261 85.2224 18.8592C84.3024 18.1923 83.1951 17.8331 82.0588 17.8331C80.9224 17.8331 79.8152 18.1923 78.8951 18.8592C77.9751 19.5261 77.2894 20.4667 76.9359 21.5467L65.1675 57.8392C64.8518 58.8341 64.2263 59.7021 63.3824 60.3165C62.5386 60.9309 61.5205 61.2595 60.4767 61.2545H22.3324C21.1974 61.2629 20.094 61.6294 19.1795 62.3017C18.265 62.974 17.586 63.9179 17.2394 64.9987C16.8928 66.0796 16.8962 67.2422 17.2492 68.321C17.6022 69.3998 18.2867 70.3396 19.2052 71.0066L50.1485 93.4322C50.9965 94.0394 51.6264 94.9034 51.9451 95.8965C52.2638 96.8896 52.2542 97.9588 51.9179 98.9461L40.0673 135.444C39.7099 136.52 39.7034 137.682 40.049 138.761C40.3945 139.841 41.0741 140.783 41.9897 141.451C42.9053 142.12 44.0096 142.48 45.1432 142.48C46.2768 142.48 47.3811 142.12 48.2969 141.452L79.199 118.985C80.0205 118.297 81.0496 117.906 82.1205 117.874H81.997Z" fill="#FFE9A6"/>
<path d="M56.8513 84.914C56.693 84.9781 56.5159 84.9781 56.3576 84.914L40.7625 73.5983C40.6837 73.5288 40.6206 73.4433 40.5773 73.3476C40.5341 73.2518 40.5117 73.1479 40.5117 73.0428C40.5117 72.9377 40.5341 72.8339 40.5773 72.7381C40.6206 72.6423 40.6837 72.5568 40.7625 72.4873C40.8242 72.3977 40.9031 72.3212 40.9946 72.2622C41.0862 72.2033 41.1885 72.1631 41.2956 72.1439C41.4028 72.1248 41.5126 72.1271 41.6189 72.1507C41.7252 72.1744 41.8257 72.2188 41.9146 72.2816L57.4686 83.5973C57.6411 83.7285 57.7581 83.9198 57.7962 84.1332C57.8343 84.3466 57.7908 84.5666 57.6743 84.7494C57.5624 84.8445 57.4282 84.9095 57.2842 84.9383C57.1402 84.9671 56.9912 84.9588 56.8513 84.914V84.914Z" fill="#FFE9A6"/>
</g>
</g>
<defs>
<filter id="filter0_d_601_2546" x="4.41493" y="5.31753" width="163.595" height="157.777" filterUnits="userSpaceOnUse" color-interpolation-filters="sRGB">
<feFlood flood-opacity="0" result="BackgroundImageFix"/>
<feColorMatrix in="SourceAlpha" type="matrix" values="0 0 0 0 0 0 0 0 0 0 0 0 0 0 0 0 0 0 127 0" result="hardAlpha"/>
<feOffset dx="4.1148" dy="4.1148"/>
<feGaussianBlur stdDeviation="6.1722"/>
<feComposite in2="hardAlpha" operator="out"/>
<feColorMatrix type="matrix" values="0 0 0 0 1 0 0 0 0 0.752809 0 0 0 0 0 0 0 0 1 0"/>
<feBlend mode="normal" in2="BackgroundImageFix" result="effect1_dropShadow_601_2546"/>
<feBlend mode="normal" in="SourceGraphic" in2="effect1_dropShadow_601_2546" result="shape"/>
</filter>
<clipPath id="clip0_601_2546">
<rect width="164" height="164" fill="white" transform="translate(0.867188 0.383011)"/>
</clipPath>
</defs>
</svg>
