<svg width="164" height="164" viewBox="0 0 164 164" fill="none" xmlns="http://www.w3.org/2000/svg">
<g opacity="0.6">
<path opacity="0.6" d="M72.3735 130.714C65.0713 130.742 57.8356 129.325 51.0833 126.545C44.3311 123.765 38.1957 119.676 33.0307 114.514C32.7243 114.211 32.4812 113.851 32.3156 113.453C32.1501 113.056 32.0653 112.63 32.0664 112.199C32.0727 111.331 32.4189 110.501 33.0307 109.885L107.088 35.8279C107.702 35.2155 108.535 34.8716 109.402 34.8716C110.27 34.8716 111.102 35.2155 111.716 35.8279C119.474 43.6106 124.752 53.5168 126.886 64.2965C129.019 75.0762 127.911 86.2461 123.702 96.3969C119.493 106.548 112.372 115.224 103.237 121.332C94.1018 127.439 83.3622 130.704 72.3735 130.714ZM40.0893 112.045C47.1897 118.241 55.9232 122.263 65.2472 123.631C74.5712 124.999 84.0919 123.654 92.6727 119.758C101.254 115.862 108.532 109.58 113.639 101.66C118.746 93.7397 121.467 84.5174 121.475 75.0936C121.509 63.2085 117.186 51.7231 109.325 42.8093L40.0893 112.045Z" fill="black"/>
<path opacity="0.6" d="M72.377 129.442C65.2503 129.463 58.19 128.073 51.603 125.352C45.0161 122.631 39.0329 118.633 33.9984 113.589C33.6361 113.217 33.4292 112.72 33.4199 112.201C33.4312 111.693 33.6385 111.209 33.9984 110.851L108.055 36.7936C108.422 36.4378 108.913 36.2388 109.424 36.2388C109.936 36.2388 110.427 36.4378 110.794 36.7936C118.37 44.399 123.521 54.0807 125.594 64.6139C127.668 75.1471 126.57 86.0587 122.441 95.9682C118.312 105.878 111.337 114.34 102.398 120.285C93.4594 126.229 82.958 129.389 72.2227 129.365L72.377 129.442ZM38.1256 112.201C47.7107 120.977 60.313 125.716 73.3061 125.43C86.2992 125.144 98.6808 119.855 107.87 110.666C117.06 101.476 122.349 89.0943 122.635 76.1012C122.921 63.1082 118.182 50.5059 109.405 40.9207L38.1256 112.201Z" fill="black"/>
<path opacity="0.6" d="M72.3733 128.284C65.4041 128.31 58.4981 126.961 52.0513 124.314C45.6045 121.666 39.7436 117.772 34.8048 112.855C34.7269 112.789 34.6654 112.706 34.6252 112.612C34.585 112.519 34.5673 112.417 34.5734 112.315C34.5763 112.112 34.6594 111.918 34.8048 111.775L108.862 37.718C109.011 37.5851 109.203 37.5117 109.402 37.5117C109.601 37.5117 109.793 37.5851 109.942 37.718C117.335 45.152 122.363 54.6079 124.391 64.8943C126.42 75.1807 125.359 85.8374 121.342 95.5218C117.324 105.206 110.531 113.485 101.817 119.315C93.1025 125.145 82.8578 128.266 72.3733 128.284ZM36.4633 112.199C46.1356 121.872 59.254 127.305 72.9326 127.305C86.6113 127.305 99.7296 121.872 109.402 112.199C119.074 102.527 124.508 89.4088 124.508 75.7301C124.508 62.0515 119.074 48.9331 109.402 39.2608L36.4633 112.199Z" fill="black"/>
<path opacity="0.6" d="M51.778 107.147C51.1633 107.768 50.8184 108.607 50.8184 109.481C50.8184 110.355 51.1633 111.193 51.778 111.814C52.0845 112.128 52.4498 112.379 52.8531 112.552C53.2564 112.725 53.6898 112.817 54.1285 112.822C54.5673 112.827 55.0028 112.746 55.4102 112.583C55.8176 112.42 56.189 112.179 56.503 111.872C56.8171 111.566 57.0677 111.2 57.2405 110.797C57.4134 110.394 57.5052 109.96 57.5105 109.522C57.5159 109.083 57.4348 108.647 57.2719 108.24C57.1089 107.833 56.8673 107.461 56.5609 107.147C56.2514 106.825 55.88 106.569 55.4691 106.394C55.0581 106.219 54.6161 106.129 54.1694 106.129C53.7228 106.129 53.2808 106.219 52.8699 106.394C52.4589 106.569 52.0876 106.825 51.778 107.147Z" fill="black"/>
<path opacity="0.6" d="M69.5974 98.6623C70.1167 98.0255 70.3813 97.2186 70.3397 96.3979C70.2981 95.5772 69.9534 94.8012 69.3724 94.2201C68.7913 93.639 68.0152 93.2944 67.1945 93.2528C66.3738 93.2112 65.567 93.4758 64.9302 93.9951C64.4108 94.6319 64.1463 95.4388 64.1879 96.2595C64.2294 97.0802 64.5742 97.8562 65.1552 98.4373C65.7363 99.0183 66.5122 99.363 67.3329 99.4046C68.1536 99.4462 68.9606 99.1816 69.5974 98.6623Z" fill="black"/>
<path opacity="0.6" d="M67.4372 109.655C67.0309 109.925 66.6891 110.281 66.4361 110.698C66.1831 111.115 66.0252 111.583 65.9736 112.068C65.9221 112.553 65.9781 113.044 66.1378 113.504C66.2975 113.965 66.5568 114.385 66.8974 114.735C67.2379 115.084 67.6513 115.354 68.1081 115.525C68.5648 115.696 69.0537 115.764 69.5399 115.725C70.0261 115.686 70.4976 115.54 70.9209 115.297C71.3441 115.055 71.7087 114.722 71.9887 114.322C72.508 113.686 72.7726 112.879 72.731 112.058C72.6894 111.237 72.3447 110.461 71.7637 109.88C71.1826 109.299 70.4066 108.955 69.5859 108.913C68.7652 108.871 67.9583 109.136 67.3215 109.655H67.4372Z" fill="black"/>
<path opacity="0.6" d="M82.905 102.171C84.737 102.171 86.2222 100.686 86.2222 98.8543C86.2222 97.0222 84.737 95.5371 82.905 95.5371C81.073 95.5371 79.5879 97.0222 79.5879 98.8543C79.5879 100.686 81.073 102.171 82.905 102.171Z" fill="black"/>
<path opacity="0.6" d="M98.3721 88.0548C98.8914 87.4181 99.156 86.6112 99.1144 85.7905C99.0728 84.9698 98.7281 84.1937 98.1471 83.6127C97.566 83.0316 96.79 82.6869 95.9693 82.6454C95.1486 82.6038 94.3417 82.8683 93.7049 83.3877C93.3454 83.6809 93.0515 84.0462 92.8419 84.4601C92.6324 84.874 92.5121 85.3272 92.4886 85.7905C92.4651 86.2538 92.5391 86.7168 92.7057 87.1497C92.8723 87.5827 93.1279 87.9758 93.4559 88.3038C93.7839 88.6318 94.1771 88.8874 94.61 89.054C95.0429 89.2207 95.506 89.2946 95.9693 89.2711C96.4326 89.2477 96.8858 89.1273 97.2997 88.9178C97.7136 88.7083 98.0789 88.4143 98.3721 88.0548Z" fill="black"/>
<path opacity="0.6" d="M111.523 74.9007C111.991 74.4382 112.31 73.8472 112.441 73.2028C112.571 72.5584 112.508 71.8897 112.258 71.2816C112.008 70.6735 111.582 70.1535 111.036 69.7875C110.49 69.4215 109.847 69.2261 109.19 69.2261C108.532 69.2261 107.89 69.4215 107.343 69.7875C106.797 70.1535 106.372 70.6735 106.122 71.2816C105.872 71.8897 105.808 72.5584 105.939 73.2028C106.07 73.8472 106.389 74.4382 106.856 74.9007C107.477 75.5155 108.316 75.8604 109.19 75.8604C110.064 75.8604 110.902 75.5155 111.523 74.9007Z" fill="black"/>
<path opacity="0.6" d="M80.3953 86.5108C82.2273 86.5108 83.7124 85.0256 83.7124 83.1936C83.7124 81.3616 82.2273 79.8765 80.3953 79.8765C78.5633 79.8765 77.0781 81.3616 77.0781 83.1936C77.0781 85.0256 78.5633 86.5108 80.3953 86.5108Z" fill="black"/>
<path opacity="0.6" d="M95.8643 72.3946C96.1733 72.0896 96.4187 71.7263 96.5862 71.3257C96.7537 70.9251 96.8399 70.4953 96.8399 70.0611C96.8399 69.6269 96.7537 69.197 96.5862 68.7964C96.4187 68.3958 96.1733 68.0325 95.8643 67.7275C95.2215 67.2746 94.4388 67.0648 93.6557 67.1355C92.8726 67.2062 92.1401 67.5527 91.5888 68.1133C91.0374 68.6739 90.7032 69.4121 90.6456 70.1962C90.588 70.9804 90.8108 71.7595 91.2743 72.3946C91.8872 72.9954 92.7111 73.3318 93.5693 73.3318C94.4275 73.3318 95.2514 72.9954 95.8643 72.3946Z" fill="black"/>
<path opacity="0.6" d="M83.0584 112.162C82.6989 112.455 82.4049 112.821 82.1954 113.235C81.9859 113.649 81.8655 114.102 81.8421 114.565C81.8186 115.028 81.8926 115.491 82.0592 115.924C82.2258 116.357 82.4814 116.75 82.8094 117.078C83.1374 117.406 83.5306 117.662 83.9635 117.829C84.3964 117.995 84.8596 118.069 85.3229 118.046C85.7862 118.022 86.2394 117.902 86.6532 117.692C87.0671 117.483 87.4324 117.189 87.7255 116.829C88.0346 116.524 88.28 116.161 88.4475 115.76C88.6149 115.36 88.7012 114.93 88.7012 114.496C88.7012 114.062 88.6149 113.632 88.4475 113.231C88.28 112.831 88.0346 112.467 87.7255 112.162C87.1045 111.547 86.266 111.203 85.3921 111.203C84.5182 111.203 83.6795 111.547 83.0584 112.162Z" fill="black"/>
<path opacity="0.6" d="M96.2136 99.0085C95.5988 99.6295 95.2539 100.468 95.2539 101.342C95.2539 102.216 95.5988 103.055 96.2136 103.676C96.8503 104.195 97.6572 104.46 98.4779 104.418C99.2986 104.376 100.075 104.032 100.656 103.451C101.237 102.87 101.582 102.094 101.624 101.273C101.665 100.452 101.401 99.6453 100.881 99.0085C100.26 98.3937 99.421 98.0488 98.5471 98.0488C97.6732 98.0488 96.8346 98.3937 96.2136 99.0085Z" fill="black"/>
<path opacity="0.6" d="M111.68 91.5264C113.512 91.5264 114.997 90.0412 114.997 88.2092C114.997 86.3772 113.512 84.8921 111.68 84.8921C109.848 84.8921 108.363 86.3772 108.363 88.2092C108.363 90.0412 109.848 91.5264 111.68 91.5264Z" fill="black"/>
<path opacity="0.6" d="M109.018 59.2425C109.486 58.78 109.805 58.189 109.936 57.5446C110.066 56.9002 110.003 56.2315 109.753 55.6234C109.503 55.0153 109.077 54.4953 108.531 54.1293C107.985 53.7633 107.342 53.5679 106.685 53.5679C106.027 53.5679 105.385 53.7633 104.838 54.1293C104.292 54.4953 103.867 55.0153 103.617 55.6234C103.367 56.2315 103.303 56.9002 103.434 57.5446C103.565 58.189 103.884 58.78 104.351 59.2425C104.656 59.5516 105.02 59.797 105.42 59.9644C105.821 60.1319 106.251 60.2182 106.685 60.2182C107.119 60.2182 107.549 60.1319 107.95 59.9644C108.35 59.797 108.713 59.5516 109.018 59.2425Z" fill="black"/>
<path opacity="0.6" d="M54.131 111.621C53.8455 111.627 53.5617 111.576 53.2966 111.47C53.0315 111.363 52.7905 111.205 52.5881 111.004C52.1945 110.594 51.9746 110.048 51.9746 109.48C51.9746 108.912 52.1945 108.366 52.5881 107.956C53.0063 107.564 53.5573 107.343 54.131 107.339C54.5946 107.301 55.0582 107.414 55.4528 107.66C55.8473 107.907 56.1518 108.274 56.3208 108.707C56.4899 109.141 56.5145 109.617 56.3909 110.066C56.2674 110.514 56.0024 110.911 55.6353 111.196C55.4268 111.366 55.1858 111.491 54.9271 111.564C54.6684 111.637 54.3974 111.657 54.131 111.621Z" fill="black"/>
<path opacity="0.6" d="M67.2442 98.5076C66.676 98.4954 66.1356 98.2598 65.7399 97.8519C65.5369 97.6575 65.3753 97.4239 65.265 97.1654C65.1546 96.9069 65.0977 96.6287 65.0977 96.3476C65.0977 96.0665 65.1546 95.7883 65.265 95.5298C65.3753 95.2712 65.5369 95.0377 65.7399 94.8433C65.9348 94.6342 66.1707 94.4675 66.4328 94.3535C66.6949 94.2395 66.9777 94.1807 67.2635 94.1807C67.5493 94.1807 67.8321 94.2395 68.0942 94.3535C68.3563 94.4675 68.5922 94.6342 68.7871 94.8433C69.1585 95.1306 69.4261 95.5311 69.5495 95.9841C69.6729 96.4371 69.6454 96.918 69.471 97.354C69.2966 97.79 68.9849 98.1572 68.5831 98.4002C68.1813 98.6431 67.7113 98.7485 67.2442 98.7004V98.5076Z" fill="black"/>
<path opacity="0.6" d="M69.7506 114.128C69.1888 114.122 68.6505 113.901 68.2463 113.511C67.8527 113.101 67.6328 112.555 67.6328 111.987C67.6328 111.419 67.8527 110.873 68.2463 110.464C68.6505 110.073 69.1888 109.853 69.7506 109.847C70.3243 109.851 70.8754 110.071 71.2935 110.464C71.6871 110.873 71.907 111.419 71.907 111.987C71.907 112.555 71.6871 113.101 71.2935 113.511C70.8754 113.904 70.3243 114.124 69.7506 114.128Z" fill="black"/>
<path opacity="0.6" d="M82.9063 100.976C82.6261 100.986 82.3469 100.936 82.0874 100.83C81.828 100.723 81.5943 100.563 81.402 100.359C81.199 100.164 81.0374 99.9306 80.9271 99.6721C80.8167 99.4135 80.7598 99.1353 80.7598 98.8542C80.7598 98.5731 80.8167 98.2949 80.9271 98.0364C81.0374 97.7779 81.199 97.5444 81.402 97.3499C81.5935 97.1419 81.826 96.9758 82.085 96.8622C82.3439 96.7486 82.6236 96.6899 82.9063 96.6899C83.1891 96.6899 83.4687 96.7486 83.7277 96.8622C83.9866 96.9758 84.2191 97.1419 84.4106 97.3499C84.6136 97.5444 84.7752 97.7779 84.8856 98.0364C84.9959 98.2949 85.0528 98.5731 85.0528 98.8542C85.0528 99.1353 84.9959 99.4135 84.8856 99.6721C84.7752 99.9306 84.6136 100.164 84.4106 100.359C84.2183 100.563 83.9846 100.723 83.7252 100.83C83.4658 100.936 83.1866 100.986 82.9063 100.976Z" fill="black"/>
<path opacity="0.6" d="M96.057 87.8609C95.59 87.909 95.1199 87.8036 94.7181 87.5606C94.3163 87.3177 94.0047 86.9504 93.8303 86.5144C93.6559 86.0785 93.6283 85.5976 93.7517 85.1445C93.8751 84.6915 94.1428 84.291 94.5142 84.0037C94.7166 83.8023 94.9576 83.6438 95.2227 83.5378C95.4878 83.4317 95.7716 83.3803 96.057 83.3866C96.3373 83.3763 96.6165 83.426 96.8759 83.5325C97.1354 83.6389 97.3691 83.7996 97.5613 84.0037C97.7643 84.1981 97.9259 84.4316 98.0363 84.6902C98.1467 84.9487 98.2036 85.2269 98.2036 85.508C98.2036 85.7891 98.1467 86.0673 98.0363 86.3258C97.9259 86.5843 97.7643 86.8178 97.5613 87.0123C97.3896 87.2568 97.1655 87.46 96.9052 87.6068C96.6449 87.7536 96.3552 87.8404 96.057 87.8609Z" fill="black"/>
<path opacity="0.6" d="M109.174 74.7092C108.613 74.6958 108.078 74.476 107.669 74.0921C107.267 73.6873 107.041 73.1395 107.041 72.5685C107.041 71.9975 107.267 71.4497 107.669 71.0449C107.935 70.8383 108.245 70.6965 108.575 70.6309C108.905 70.5652 109.245 70.5776 109.57 70.6669C109.894 70.7562 110.193 70.92 110.443 71.1453C110.693 71.3706 110.886 71.6511 111.009 71.9645C111.131 72.2779 111.178 72.6155 111.147 72.9505C111.116 73.2854 111.006 73.6084 110.828 73.8937C110.65 74.179 110.408 74.4187 110.12 74.5938C109.833 74.7689 109.509 74.8744 109.174 74.9021V74.7092Z" fill="black"/>
<path opacity="0.6" d="M80.3959 85.3543C79.9754 85.3454 79.5666 85.214 79.2197 84.9761C78.8728 84.7382 78.6028 84.4042 78.4431 84.015C78.2833 83.6259 78.2407 83.1986 78.3204 82.7856C78.4001 82.3726 78.5986 81.9918 78.8917 81.69C79.2947 81.2988 79.8343 81.0801 80.3959 81.0801C80.9576 81.0801 81.4972 81.2988 81.9002 81.69C82.1094 81.8803 82.276 82.1128 82.389 82.372C82.502 82.6313 82.5589 82.9115 82.5559 83.1943C82.555 83.4822 82.4965 83.767 82.3839 84.0319C82.2713 84.2969 82.1068 84.5366 81.9002 84.7371C81.7024 84.9339 81.4677 85.0896 81.2096 85.1955C80.9514 85.3014 80.675 85.3554 80.3959 85.3543Z" fill="black"/>
<path opacity="0.6" d="M93.5487 72.2014C92.9824 72.2015 92.4388 71.9792 92.0348 71.5825C91.6308 71.1857 91.3988 70.6461 91.3887 70.08C91.3896 69.7921 91.4481 69.5073 91.5607 69.2423C91.6733 68.9774 91.8378 68.7376 92.0444 68.5371C92.3098 68.3305 92.6199 68.1887 92.9498 68.1231C93.2797 68.0574 93.6204 68.0698 93.9447 68.1591C94.269 68.2484 94.568 68.4122 94.8178 68.6375C95.0676 68.8628 95.2614 69.1433 95.3836 69.4567C95.5058 69.7701 95.5532 70.1077 95.5218 70.4427C95.4905 70.7776 95.3814 71.1006 95.2032 71.3859C95.025 71.6712 94.7826 71.9109 94.4954 72.086C94.2081 72.2611 93.8839 72.3666 93.5487 72.3942V72.2014Z" fill="black"/>
<path opacity="0.6" d="M85.4135 116.635C84.9126 116.637 84.4265 116.465 84.0387 116.147C83.6509 115.83 83.3854 115.388 83.2876 114.897C83.1899 114.406 83.266 113.895 83.5029 113.454C83.7398 113.013 84.1228 112.667 84.5863 112.477C85.0498 112.287 85.565 112.264 86.0437 112.412C86.5223 112.56 86.9347 112.869 87.2102 113.288C87.4857 113.706 87.6072 114.207 87.5538 114.705C87.5005 115.204 87.2757 115.668 86.9178 116.018C86.72 116.215 86.4853 116.371 86.2272 116.477C85.969 116.583 85.6925 116.637 85.4135 116.635Z" fill="black"/>
<path opacity="0.6" d="M98.5635 103.483C98.1394 103.493 97.7222 103.375 97.3658 103.145C97.0093 102.915 96.73 102.583 96.5639 102.193C96.3978 101.803 96.3526 101.371 96.434 100.955C96.5154 100.539 96.7197 100.156 97.0206 99.8575C97.2155 99.6484 97.4514 99.4817 97.7135 99.3677C97.9756 99.2537 98.2584 99.1948 98.5442 99.1948C98.8301 99.1948 99.1128 99.2537 99.3749 99.3677C99.6371 99.4817 99.8729 99.6484 100.068 99.8575C100.366 100.154 100.57 100.533 100.652 100.946C100.735 101.358 100.693 101.786 100.531 102.175C100.37 102.563 100.097 102.895 99.7465 103.128C99.3961 103.361 98.9843 103.485 98.5635 103.483Z" fill="black"/>
<path opacity="0.6" d="M111.679 90.3689C111.216 90.4071 110.752 90.2946 110.357 90.0481C109.963 89.8017 109.658 89.4344 109.489 89.001C109.32 88.5675 109.296 88.0912 109.419 87.6426C109.543 87.1941 109.808 86.7975 110.175 86.5117C110.372 86.3132 110.606 86.1563 110.864 86.0503C111.123 85.9443 111.4 85.8913 111.679 85.8946C111.965 85.8883 112.249 85.9397 112.514 86.0458C112.779 86.1518 113.02 86.3103 113.222 86.5117C113.594 86.799 113.861 87.1995 113.985 87.6525C114.108 88.1055 114.08 88.5865 113.906 89.0224C113.732 89.4584 113.42 89.8257 113.018 90.0686C112.616 90.3116 112.146 90.417 111.679 90.3689Z" fill="black"/>
<path opacity="0.6" d="M106.702 59.0476C106.417 59.0539 106.133 59.0025 105.868 58.8964C105.603 58.7904 105.362 58.6319 105.159 58.4305C104.788 58.1432 104.52 57.7427 104.397 57.2897C104.273 56.8367 104.301 56.3558 104.475 55.9198C104.65 55.4839 104.961 55.1166 105.363 54.8736C105.765 54.6307 106.235 54.5253 106.702 54.5734C107.27 54.5856 107.811 54.8211 108.206 55.2291C108.505 55.5258 108.708 55.9045 108.791 56.3172C108.873 56.7298 108.831 57.1577 108.67 57.5464C108.509 57.935 108.236 58.267 107.885 58.5C107.535 58.733 107.123 58.8565 106.702 58.8548V59.0476Z" fill="black"/>
<path opacity="0.6" d="M54.132 110.464C54.0039 110.47 53.876 110.449 53.7565 110.402C53.637 110.356 53.5284 110.285 53.4377 110.194C53.3444 110.104 53.2701 109.996 53.2194 109.877C53.1687 109.758 53.1426 109.629 53.1426 109.5C53.1426 109.37 53.1687 109.242 53.2194 109.123C53.2701 109.003 53.3444 108.896 53.4377 108.806C53.5246 108.707 53.6314 108.628 53.7511 108.574C53.8708 108.52 54.0007 108.492 54.132 108.492C54.2633 108.492 54.3931 108.52 54.5128 108.574C54.6325 108.628 54.7394 108.707 54.8263 108.806C54.9196 108.896 54.9938 109.003 55.0445 109.123C55.0952 109.242 55.1213 109.37 55.1213 109.5C55.1213 109.629 55.0952 109.758 55.0445 109.877C54.9938 109.996 54.9196 110.104 54.8263 110.194C54.7356 110.285 54.627 110.356 54.5075 110.402C54.388 110.449 54.2601 110.47 54.132 110.464Z" fill="black"/>
<path opacity="0.6" d="M67.2427 97.3507C67.1121 97.349 66.9832 97.3207 66.8639 97.2677C66.7445 97.2146 66.6372 97.1379 66.5484 97.0421C66.3776 96.8512 66.2832 96.604 66.2832 96.3478C66.2832 96.0917 66.3776 95.8445 66.5484 95.6536C66.6372 95.5578 66.7445 95.481 66.8639 95.428C66.9832 95.375 67.1121 95.3467 67.2427 95.345C67.374 95.3418 67.5044 95.3678 67.6245 95.4212C67.7446 95.4745 67.8513 95.5539 67.9369 95.6536C68.0303 95.7435 68.1045 95.8514 68.1552 95.9706C68.2059 96.0899 68.2321 96.2182 68.2321 96.3478C68.2321 96.4774 68.2059 96.6057 68.1552 96.725C68.1045 96.8443 68.0303 96.9522 67.9369 97.0421C67.8513 97.1418 67.7446 97.2211 67.6245 97.2745C67.5044 97.3279 67.374 97.3539 67.2427 97.3507Z" fill="black"/>
<path opacity="0.6" d="M69.7512 112.972C69.6231 112.978 69.4953 112.957 69.3758 112.91C69.2563 112.863 69.1478 112.793 69.0572 112.702C68.9665 112.611 68.8957 112.503 68.8492 112.383C68.8027 112.264 68.7814 112.136 68.7869 112.008C68.7789 111.88 68.7989 111.751 68.8455 111.631C68.8921 111.511 68.9642 111.403 69.0569 111.314C69.1457 111.218 69.253 111.141 69.3724 111.088C69.4917 111.035 69.6206 111.007 69.7512 111.005C69.8825 111.002 70.013 111.028 70.133 111.081C70.2531 111.135 70.3598 111.214 70.4455 111.314C70.5388 111.404 70.613 111.512 70.6637 111.631C70.7144 111.75 70.7406 111.878 70.7406 112.008C70.7406 112.138 70.7144 112.266 70.6637 112.385C70.613 112.505 70.5388 112.612 70.4455 112.702C70.3562 112.795 70.2479 112.867 70.128 112.914C70.0081 112.96 69.8796 112.98 69.7512 112.972Z" fill="black"/>
<path opacity="0.6" d="M82.9054 99.8572C82.7773 99.8628 82.6494 99.8416 82.5299 99.7951C82.4104 99.7487 82.3018 99.6779 82.2111 99.5872C82.1178 99.4973 82.0436 99.3894 81.9929 99.2701C81.9422 99.1509 81.916 99.0226 81.916 98.8929C81.916 98.7633 81.9422 98.635 81.9929 98.5157C82.0436 98.3965 82.1178 98.2886 82.2111 98.1987C82.298 98.1002 82.4048 98.0213 82.5245 97.9672C82.6442 97.9132 82.7741 97.8853 82.9054 97.8853C83.0368 97.8853 83.1666 97.9132 83.2863 97.9672C83.406 98.0213 83.5128 98.1002 83.5997 98.1987C83.693 98.2886 83.7673 98.3965 83.818 98.5157C83.8687 98.635 83.8948 98.7633 83.8948 98.8929C83.8948 99.0226 83.8687 99.1509 83.818 99.2701C83.7673 99.3894 83.693 99.4973 83.5997 99.5872C83.509 99.6779 83.4004 99.7487 83.2809 99.7951C83.1614 99.8416 83.0335 99.8628 82.9054 99.8572Z" fill="black"/>
<path opacity="0.6" d="M96.0578 86.7035C95.9272 86.7018 95.7984 86.6736 95.679 86.6205C95.5597 86.5675 95.4523 86.4908 95.3635 86.395C95.2702 86.305 95.196 86.1972 95.1453 86.0779C95.0946 85.9586 95.0684 85.8303 95.0684 85.7007C95.0684 85.5711 95.0946 85.4428 95.1453 85.3235C95.196 85.2042 95.2702 85.0964 95.3635 85.0064C95.5545 84.8356 95.8017 84.7412 96.0578 84.7412C96.314 84.7412 96.5612 84.8356 96.7521 85.0064C96.8454 85.0964 96.9197 85.2042 96.9704 85.3235C97.0211 85.4428 97.0472 85.5711 97.0472 85.7007C97.0472 85.8303 97.0211 85.9586 96.9704 86.0779C96.9197 86.1972 96.8454 86.305 96.7521 86.395C96.6633 86.4908 96.556 86.5675 96.4367 86.6205C96.3173 86.6736 96.1884 86.7018 96.0578 86.7035Z" fill="black"/>
<path opacity="0.6" d="M109.17 73.5522C108.916 73.5385 108.673 73.4439 108.476 73.2822C108.294 73.0891 108.193 72.8339 108.193 72.5687C108.193 72.3035 108.294 72.0483 108.476 71.8551C108.664 71.6793 108.913 71.5826 109.17 71.5851C109.304 71.5788 109.438 71.5995 109.564 71.6458C109.69 71.6922 109.805 71.7634 109.903 71.8551C110.065 72.0519 110.159 72.2951 110.173 72.5494C110.185 72.684 110.167 72.8197 110.121 72.9467C110.074 73.0737 110.001 73.189 109.905 73.2846C109.81 73.3802 109.694 73.4537 109.567 73.4999C109.44 73.5462 109.305 73.564 109.17 73.5522Z" fill="black"/>
<path opacity="0.6" d="M80.3957 84.1972C80.2651 84.1955 80.1363 84.1672 80.0169 84.1142C79.8976 84.0611 79.7902 83.9844 79.7015 83.8886C79.6081 83.7987 79.5339 83.6908 79.4832 83.5716C79.4325 83.4523 79.4062 83.324 79.4062 83.1944C79.4062 83.0647 79.4325 82.9364 79.4832 82.8171C79.5339 82.6979 79.6081 82.59 79.7015 82.5001C79.8924 82.3293 80.1396 82.2349 80.3957 82.2349C80.6519 82.2349 80.8991 82.3293 81.09 82.5001C81.2245 82.6401 81.3155 82.8161 81.3519 83.0069C81.3882 83.1976 81.3685 83.3948 81.295 83.5745C81.2214 83.7542 81.0973 83.9087 80.9377 84.0192C80.7781 84.1298 80.5898 84.1916 80.3957 84.1972Z" fill="black"/>
<path opacity="0.6" d="M93.5478 71.0453C93.4196 71.0509 93.2918 71.0297 93.1723 70.9833C93.0527 70.9368 92.9442 70.866 92.8535 70.7753C92.6669 70.591 92.5567 70.3431 92.5449 70.081C92.5468 69.8056 92.6578 69.542 92.8535 69.3482C93.0444 69.1774 93.2916 69.083 93.5478 69.083C93.8039 69.083 94.0511 69.1774 94.242 69.3482C94.4238 69.5413 94.5249 69.7966 94.5249 70.0618C94.5249 70.327 94.4238 70.5822 94.242 70.7753C94.1513 70.866 94.0428 70.9368 93.9233 70.9833C93.8038 71.0297 93.6759 71.0509 93.5478 71.0453Z" fill="black"/>
<path opacity="0.6" d="M85.413 115.478C85.2903 115.494 85.1656 115.485 85.0463 115.452C84.9271 115.419 84.8156 115.362 84.7188 115.285C84.532 115.101 84.4219 114.853 84.4102 114.591C84.4121 114.315 84.5229 114.052 84.7188 113.858C84.9096 113.687 85.1569 113.593 85.413 113.593C85.6692 113.593 85.9164 113.687 86.1073 113.858C86.289 114.051 86.3902 114.306 86.3902 114.572C86.3902 114.837 86.289 115.092 86.1073 115.285C85.9035 115.424 85.6594 115.492 85.413 115.478Z" fill="black"/>
<path opacity="0.6" d="M98.5624 102.325C98.434 102.333 98.3054 102.313 98.1855 102.267C98.0656 102.22 97.9573 102.148 97.8681 102.055C97.7696 101.968 97.6907 101.862 97.6367 101.742C97.5826 101.622 97.5547 101.492 97.5547 101.361C97.5547 101.23 97.5826 101.1 97.6367 100.98C97.6907 100.86 97.7696 100.754 97.8681 100.667C97.9537 100.567 98.0605 100.488 98.1805 100.434C98.3006 100.381 98.431 100.355 98.5624 100.358C98.693 100.36 98.8219 100.388 98.9412 100.441C99.0605 100.494 99.1679 100.571 99.2567 100.667C99.3967 100.802 99.4928 100.976 99.5321 101.166C99.5715 101.356 99.5524 101.554 99.4773 101.734C99.4022 101.913 99.2747 102.066 99.1114 102.171C98.9481 102.277 98.7568 102.33 98.5624 102.325Z" fill="black"/>
<path opacity="0.6" d="M111.679 89.211C111.549 89.2093 111.42 89.1811 111.3 89.128C111.181 89.075 111.074 88.9983 110.985 88.9025C110.845 88.7676 110.749 88.5935 110.709 88.4031C110.67 88.2127 110.689 88.0149 110.764 87.8355C110.839 87.6561 110.967 87.5037 111.13 87.3981C111.293 87.2925 111.485 87.2388 111.679 87.2439C111.808 87.2359 111.936 87.2559 112.056 87.3025C112.176 87.3491 112.284 87.4213 112.373 87.5139C112.467 87.6039 112.541 87.7117 112.592 87.831C112.642 87.9503 112.669 88.0786 112.669 88.2082C112.669 88.3378 112.642 88.4661 112.592 88.5854C112.541 88.7047 112.467 88.8125 112.373 88.9025C112.288 89.0021 112.181 89.0815 112.061 89.1348C111.941 89.1882 111.811 89.2142 111.679 89.211Z" fill="black"/>
<path opacity="0.6" d="M106.704 57.891C106.57 57.8973 106.436 57.8766 106.31 57.8302C106.185 57.7839 106.069 57.7127 105.971 57.621C105.878 57.531 105.804 57.4232 105.753 57.3039C105.702 57.1846 105.676 57.0563 105.676 56.9267C105.676 56.7971 105.702 56.6688 105.753 56.5495C105.804 56.4302 105.878 56.3224 105.971 56.2324C106.165 56.0367 106.429 55.9257 106.704 55.9238C106.966 55.9356 107.214 56.0458 107.399 56.2324C107.492 56.3224 107.566 56.4302 107.617 56.5495C107.668 56.6688 107.694 56.7971 107.694 56.9267C107.694 57.0563 107.668 57.1846 107.617 57.3039C107.566 57.4232 107.492 57.531 107.399 57.621C107.21 57.7968 106.962 57.8935 106.704 57.891Z" fill="black"/>
<path opacity="0.6" d="M72.3733 148.611C62.7317 148.621 53.1829 146.729 44.274 143.042C35.3651 139.356 27.2712 133.947 20.4562 127.127C20.1435 126.828 19.8946 126.469 19.7245 126.071C19.5545 125.673 19.4668 125.245 19.4668 124.813C19.4668 124.38 19.5545 123.952 19.7245 123.554C19.8946 123.157 20.1435 122.797 20.4562 122.498C21.0707 121.886 21.9029 121.542 22.7704 121.542C23.638 121.542 24.4702 121.886 25.0847 122.498C37.7282 134.568 54.5925 141.212 72.0711 141.01C89.5497 140.807 106.255 133.773 118.615 121.413C130.975 109.053 138.008 92.3477 138.211 74.8691C138.414 57.3905 131.77 40.5263 119.7 27.8828C119.145 27.2578 118.849 26.4442 118.873 25.6084C118.898 24.7726 119.241 23.9778 119.832 23.3866C120.424 22.7953 121.218 22.4523 122.054 22.4277C122.89 22.4031 123.704 22.6988 124.329 23.2542C134.674 33.498 141.731 46.5904 144.605 60.862C147.478 75.1336 146.036 89.9376 140.463 103.386C134.889 116.835 125.435 128.319 113.308 136.373C101.181 144.428 86.9311 148.688 72.3733 148.611Z" fill="black"/>
<path opacity="0.6" d="M72.3728 147.261C62.9027 147.276 53.5229 145.419 44.7722 141.799C36.0216 138.178 28.0725 132.864 21.3814 126.162C21.028 125.802 20.8301 125.317 20.8301 124.812C20.8301 124.307 21.028 123.823 21.3814 123.462C21.5607 123.281 21.774 123.138 22.009 123.04C22.244 122.942 22.4961 122.892 22.7507 122.892C23.0053 122.892 23.2574 122.942 23.4924 123.04C23.7274 123.138 23.9407 123.281 24.1199 123.462C37.1099 135.208 54.1171 141.514 71.6248 141.074C89.1324 140.634 105.802 133.483 118.185 121.099C130.569 108.715 137.72 92.0461 138.16 74.5384C138.6 57.0308 132.295 40.0236 120.549 27.0337C120.195 26.6732 119.997 26.1884 119.997 25.6836C119.997 25.1788 120.195 24.6941 120.549 24.3336C120.728 24.1529 120.941 24.0094 121.176 23.9115C121.411 23.8136 121.663 23.7632 121.918 23.7632C122.172 23.7632 122.424 23.8136 122.66 23.9115C122.895 24.0094 123.108 24.1529 123.287 24.3336C133.318 34.4191 140.141 47.2467 142.898 61.2016C145.654 75.1565 144.221 89.615 138.777 102.757C133.334 115.899 124.125 127.137 112.309 135.056C100.492 142.975 86.5973 147.222 72.3728 147.261Z" fill="black"/>
<path opacity="0.6" d="M72.3733 146.143C63.0596 146.163 53.8339 144.34 45.228 140.779C36.622 137.217 28.806 131.988 22.2304 125.392C22.119 125.243 22.0649 125.059 22.0781 124.874C22.0913 124.689 22.1708 124.515 22.3021 124.383C22.4334 124.252 22.6077 124.172 22.7929 124.159C22.9781 124.146 23.1619 124.2 23.3104 124.312C36.3691 137.154 53.9736 144.317 72.2891 144.239C90.6046 144.16 108.148 136.848 121.096 123.894C134.045 110.941 141.35 93.3952 141.421 75.0796C141.492 56.7641 134.323 39.1624 121.475 26.1088C121.364 25.9602 121.31 25.7765 121.323 25.5913C121.336 25.406 121.416 25.2318 121.547 25.1005C121.678 24.9692 121.852 24.8896 122.038 24.8765C122.223 24.8633 122.407 24.9174 122.555 25.0288C132.485 34.9491 139.249 47.5925 141.99 61.3585C144.731 75.1246 143.326 89.3944 137.953 102.362C132.58 115.329 123.481 126.411 111.807 134.204C100.134 141.998 86.4096 146.153 72.3733 146.143Z" fill="black"/>
</g>
<g filter="url(#filter0_d_262_11975)">
<path d="M68.5161 126.856C61.2139 126.885 53.9782 125.468 47.2259 122.688C40.4736 119.907 34.3383 115.818 29.1733 110.656C28.8669 110.354 28.6238 109.993 28.4582 109.596C28.2927 109.199 28.2079 108.772 28.209 108.342C28.2153 107.474 28.5615 106.643 29.1733 106.028L103.23 31.9704C103.845 31.358 104.677 31.0142 105.545 31.0142C106.412 31.0142 107.244 31.358 107.859 31.9704C115.617 39.7532 120.895 49.6594 123.028 60.4391C125.161 71.2188 124.054 82.3887 119.845 92.5395C115.636 102.69 108.515 111.367 99.3795 117.474C90.2444 123.582 79.5048 126.846 68.5161 126.856ZM36.2319 108.188C43.3323 114.384 52.0657 118.406 61.3898 119.774C70.7138 121.141 80.2345 119.797 88.8153 115.901C97.3961 112.005 104.675 105.722 109.782 97.8022C114.889 89.8823 117.609 80.66 117.618 71.2362C117.651 59.3511 113.329 47.8656 105.468 38.9519L36.2319 108.188Z" fill="#FF003E"/>
</g>
<path d="M68.5177 125.585C61.391 125.606 54.3306 124.216 47.7437 121.495C41.1568 118.774 35.1736 114.777 30.1391 109.732C29.7768 109.36 29.5699 108.863 29.5605 108.344C29.5719 107.836 29.7792 107.352 30.1391 106.994L104.196 32.9366C104.563 32.5808 105.054 32.3818 105.566 32.3818C106.077 32.3818 106.568 32.5808 106.935 32.9366C114.511 40.5421 119.662 50.2238 121.735 60.757C123.809 71.2902 122.712 82.2017 118.583 92.1113C114.454 102.021 107.478 110.483 98.5392 116.428C89.6001 122.373 79.0987 125.533 68.3634 125.508L68.5177 125.585ZM34.2662 108.344C43.8514 117.12 56.4537 121.859 69.4468 121.573C82.4399 121.287 94.8214 115.998 104.011 106.809C113.201 97.619 118.49 85.2374 118.776 72.2443C119.062 59.2512 114.323 46.6489 105.546 37.0638L34.2662 108.344Z" fill="#FF406E"/>
<path d="M68.514 124.427C61.5448 124.454 54.6388 123.105 48.192 120.457C41.7452 117.809 35.8843 113.915 30.9455 108.998C30.8675 108.932 30.8061 108.849 30.7659 108.756C30.7257 108.662 30.708 108.56 30.714 108.458C30.7169 108.255 30.8001 108.061 30.9455 107.918L105.003 33.861C105.151 33.7282 105.343 33.6548 105.543 33.6548C105.742 33.6548 105.934 33.7282 106.083 33.861C113.476 41.2951 118.503 50.751 120.532 61.0374C122.561 71.3238 121.5 81.9805 117.482 91.6648C113.465 101.349 106.671 109.628 97.9572 115.458C89.2432 121.288 78.9985 124.409 68.514 124.427ZM32.604 108.342C42.2763 118.015 55.3947 123.449 69.0733 123.449C82.752 123.449 95.8703 118.015 105.543 108.342C115.215 98.6702 120.649 85.5518 120.649 71.8732C120.649 58.1946 115.215 45.0762 105.543 35.4039L32.604 108.342Z" fill="#FF8CA7"/>
<path d="M47.9205 103.29C47.3057 103.911 46.9609 104.75 46.9609 105.623C46.9609 106.497 47.3057 107.336 47.9205 107.957C48.2269 108.271 48.5922 108.522 48.9955 108.695C49.3989 108.867 49.8322 108.959 50.271 108.964C50.7098 108.97 51.1453 108.889 51.5527 108.726C51.9601 108.563 52.3314 108.321 52.6455 108.015C52.9595 107.708 53.2101 107.343 53.383 106.94C53.5559 106.536 53.6476 106.103 53.653 105.664C53.6584 105.226 53.5773 104.79 53.4143 104.383C53.2514 103.975 53.0098 103.604 52.7033 103.29C52.3938 102.968 52.0225 102.712 51.6115 102.537C51.2006 102.362 50.7585 102.271 50.3119 102.271C49.8653 102.271 49.4233 102.362 49.0123 102.537C48.6014 102.712 48.23 102.968 47.9205 103.29Z" fill="#FF003E"/>
<path d="M65.738 94.8048C66.2573 94.1681 66.5219 93.3612 66.4803 92.5405C66.4387 91.7198 66.094 90.9437 65.513 90.3627C64.9319 89.7816 64.1559 89.4369 63.3352 89.3954C62.5145 89.3538 61.7076 89.6183 61.0708 90.1377C60.5514 90.7745 60.2869 91.5814 60.3285 92.4021C60.37 93.2228 60.7148 93.9988 61.2958 94.5798C61.8769 95.1609 62.6529 95.5056 63.4736 95.5472C64.2943 95.5888 65.1012 95.3242 65.738 94.8048Z" fill="#FF003E"/>
<path d="M63.5818 105.798C63.1754 106.068 62.8336 106.424 62.5806 106.841C62.3277 107.258 62.1698 107.726 62.1182 108.211C62.0667 108.696 62.1227 109.187 62.2824 109.648C62.442 110.108 62.7014 110.528 63.0419 110.878C63.3825 111.227 63.7959 111.497 64.2526 111.668C64.7094 111.839 65.1983 111.907 65.6845 111.868C66.1707 111.829 66.6422 111.683 67.0654 111.44C67.4887 111.198 67.8533 110.865 68.1332 110.465C68.6526 109.829 68.9171 109.022 68.8756 108.201C68.834 107.38 68.4893 106.604 67.9083 106.023C67.3272 105.442 66.5511 105.098 65.7305 105.056C64.9098 105.014 64.1029 105.279 63.4661 105.798H63.5818Z" fill="#FF003E"/>
<path d="M79.0476 98.3145C80.8796 98.3145 82.3648 96.8293 82.3648 94.9973C82.3648 93.1653 80.8796 91.6802 79.0476 91.6802C77.2156 91.6802 75.7305 93.1653 75.7305 94.9973C75.7305 96.8293 77.2156 98.3145 79.0476 98.3145Z" fill="#FF003E"/>
<path d="M94.5166 84.1979C95.036 83.5611 95.3005 82.7542 95.259 81.9335C95.2174 81.1129 94.8727 80.3368 94.2916 79.7557C93.7106 79.1747 92.9345 78.83 92.1139 78.7884C91.2932 78.7469 90.4863 79.0114 89.8495 79.5308C89.49 79.824 89.196 80.1893 88.9865 80.6031C88.777 81.017 88.6566 81.4703 88.6332 81.9335C88.6097 82.3968 88.6837 82.8599 88.8503 83.2928C89.0169 83.7257 89.2725 84.1189 89.6005 84.4469C89.9285 84.7749 90.3217 85.0305 90.7546 85.1971C91.1875 85.3637 91.6506 85.4377 92.1139 85.4142C92.5771 85.3908 93.0304 85.2704 93.4442 85.0609C93.8581 84.8514 94.2234 84.5574 94.5166 84.1979Z" fill="#FF003E"/>
<path d="M107.666 71.0438C108.134 70.5812 108.453 69.9903 108.584 69.3459C108.714 68.7015 108.651 68.0328 108.401 67.4247C108.151 66.8166 107.725 66.2965 107.179 65.9305C106.633 65.5645 105.99 65.3691 105.333 65.3691C104.675 65.3691 104.033 65.5645 103.486 65.9305C102.94 66.2965 102.515 66.8166 102.265 67.4247C102.015 68.0328 101.951 68.7015 102.082 69.3459C102.213 69.9903 102.532 70.5812 102.999 71.0438C103.62 71.6586 104.459 72.0034 105.333 72.0034C106.207 72.0034 107.045 71.6586 107.666 71.0438Z" fill="#FF003E"/>
<path d="M76.5398 82.6538C78.3718 82.6538 79.857 81.1687 79.857 79.3367C79.857 77.5047 78.3718 76.0195 76.5398 76.0195C74.7078 76.0195 73.2227 77.5047 73.2227 79.3367C73.2227 81.1687 74.7078 82.6538 76.5398 82.6538Z" fill="#FF003E"/>
<path d="M92.0051 68.5377C92.3141 68.2327 92.5595 67.8694 92.727 67.4688C92.8945 67.0682 92.9807 66.6383 92.9807 66.2041C92.9807 65.7699 92.8945 65.3401 92.727 64.9395C92.5595 64.5389 92.3141 64.1755 92.0051 63.8706C91.3623 63.4177 90.5796 63.2079 89.7965 63.2786C89.0134 63.3492 88.2808 63.6958 87.7295 64.2564C87.1782 64.8169 86.8439 65.5551 86.7863 66.3393C86.7287 67.1235 86.9516 67.9026 87.4151 68.5377C88.0279 69.1384 88.8519 69.4749 89.7101 69.4749C90.5682 69.4749 91.3922 69.1384 92.0051 68.5377Z" fill="#FF003E"/>
<path d="M79.1991 108.305C78.8396 108.598 78.5456 108.963 78.3361 109.377C78.1266 109.791 78.0062 110.244 77.9827 110.708C77.9593 111.171 78.0333 111.634 78.1999 112.067C78.3665 112.5 78.6221 112.893 78.9501 113.221C79.2781 113.549 79.6713 113.805 80.1042 113.971C80.5371 114.138 81.0002 114.212 81.4635 114.188C81.9267 114.165 82.3799 114.044 82.7938 113.835C83.2077 113.625 83.573 113.331 83.8662 112.972C84.1753 112.667 84.4207 112.304 84.5881 111.903C84.7556 111.502 84.8419 111.073 84.8419 110.638C84.8419 110.204 84.7556 109.774 84.5881 109.374C84.4207 108.973 84.1753 108.61 83.8662 108.305C83.2451 107.69 82.4065 107.345 81.5326 107.345C80.6587 107.345 79.8202 107.69 79.1991 108.305Z" fill="#FF003E"/>
<path d="M92.3561 95.1515C91.7413 95.7726 91.3965 96.6112 91.3965 97.4851C91.3965 98.359 91.7413 99.1976 92.3561 99.8187C92.9929 100.338 93.7998 100.603 94.6205 100.561C95.4412 100.519 96.2172 100.175 96.7983 99.5937C97.3793 99.0126 97.724 98.2366 97.7656 97.4159C97.8072 96.5952 97.5426 95.7883 97.0233 95.1515C96.4022 94.5368 95.5636 94.1919 94.6897 94.1919C93.8158 94.1919 92.9772 94.5368 92.3561 95.1515Z" fill="#FF003E"/>
<path d="M107.823 87.6694C109.655 87.6694 111.14 86.1843 111.14 84.3523C111.14 82.5203 109.655 81.0352 107.823 81.0352C105.991 81.0352 104.506 82.5203 104.506 84.3523C104.506 86.1843 105.991 87.6694 107.823 87.6694Z" fill="#FF003E"/>
<path d="M105.16 55.3852C105.628 54.9227 105.947 54.3316 106.078 53.6872C106.209 53.0428 106.145 52.3741 105.895 51.766C105.645 51.1579 105.22 50.6379 104.673 50.2719C104.127 49.9059 103.484 49.7104 102.827 49.7104C102.169 49.7104 101.527 49.9059 100.98 50.2719C100.434 50.6379 100.009 51.1579 99.759 51.766C99.509 52.3741 99.4453 53.0428 99.576 53.6872C99.7068 54.3316 100.026 54.9227 100.493 55.3852C100.798 55.6942 101.162 55.9395 101.562 56.107C101.963 56.2745 102.393 56.3607 102.827 56.3607C103.261 56.3607 103.691 56.2745 104.092 56.107C104.492 55.9395 104.855 55.6942 105.16 55.3852Z" fill="#FF003E"/>
<path d="M50.2716 107.764C49.9861 107.77 49.7023 107.719 49.4372 107.613C49.1721 107.507 48.9311 107.348 48.7287 107.147C48.3351 106.737 48.1152 106.191 48.1152 105.623C48.1152 105.055 48.3351 104.509 48.7287 104.1C49.1468 103.707 49.6979 103.486 50.2716 103.482C50.7352 103.444 51.1988 103.557 51.5934 103.803C51.9879 104.05 52.2924 104.417 52.4614 104.85C52.6304 105.284 52.655 105.76 52.5315 106.209C52.408 106.657 52.143 107.054 51.7759 107.34C51.5674 107.509 51.3264 107.635 51.0677 107.707C50.8089 107.78 50.538 107.8 50.2716 107.764Z" fill="#FF406E"/>
<path d="M63.3868 94.6507C62.8186 94.6385 62.2781 94.4029 61.8825 93.9949C61.6795 93.8005 61.5179 93.567 61.4075 93.3085C61.2972 93.0499 61.2402 92.7717 61.2402 92.4906C61.2402 92.2095 61.2972 91.9314 61.4075 91.6728C61.5179 91.4143 61.6795 91.1808 61.8825 90.9864C62.0774 90.7773 62.3132 90.6106 62.5753 90.4966C62.8375 90.3826 63.1202 90.3237 63.4061 90.3237C63.6919 90.3237 63.9747 90.3826 64.2368 90.4966C64.4989 90.6106 64.7347 90.7773 64.9296 90.9864C65.301 91.2736 65.5687 91.6741 65.6921 92.1272C65.8155 92.5802 65.7879 93.0611 65.6135 93.4971C65.4392 93.933 65.1275 94.3003 64.7257 94.5432C64.3239 94.7862 63.8538 94.8916 63.3868 94.8435V94.6507Z" fill="#FF406E"/>
<path d="M65.8932 110.271C65.3313 110.265 64.7931 110.044 64.3889 109.654C63.9953 109.244 63.7754 108.698 63.7754 108.13C63.7754 107.562 63.9953 107.016 64.3889 106.606C64.7931 106.216 65.3313 105.995 65.8932 105.989C66.4669 105.993 67.0179 106.214 67.4361 106.606C67.8297 107.016 68.0496 107.562 68.0496 108.13C68.0496 108.698 67.8297 109.244 67.4361 109.654C67.0179 110.046 66.4669 110.267 65.8932 110.271Z" fill="#FF406E"/>
<path d="M79.0488 97.1173C78.7685 97.1276 78.4893 97.0778 78.2299 96.9714C77.9705 96.865 77.7368 96.7043 77.5445 96.5001C77.3415 96.3057 77.1799 96.0722 77.0695 95.8137C76.9592 95.5551 76.9023 95.2769 76.9023 94.9958C76.9023 94.7147 76.9592 94.4365 77.0695 94.178C77.1799 93.9195 77.3415 93.686 77.5445 93.4915C77.736 93.2835 77.9685 93.1174 78.2274 93.0038C78.4863 92.8902 78.766 92.8315 79.0488 92.8315C79.3315 92.8315 79.6112 92.8902 79.8701 93.0038C80.1291 93.1174 80.3616 93.2835 80.5531 93.4915C80.7561 93.686 80.9177 93.9195 81.028 94.178C81.1384 94.4365 81.1953 94.7147 81.1953 94.9958C81.1953 95.2769 81.1384 95.5551 81.028 95.8137C80.9177 96.0722 80.7561 96.3057 80.5531 96.5001C80.3608 96.7043 80.1271 96.865 79.8677 96.9714C79.6082 97.0778 79.329 97.1276 79.0488 97.1173Z" fill="#FF406E"/>
<path d="M92.1996 84.0034C91.7325 84.0515 91.2625 83.9461 90.8607 83.7032C90.4589 83.4602 90.1472 83.093 89.9729 82.657C89.7985 82.221 89.7709 81.7401 89.8943 81.2871C90.0177 80.8341 90.2854 80.4336 90.6568 80.1463C90.8592 79.9449 91.1001 79.7864 91.3653 79.6804C91.6304 79.5743 91.9142 79.5229 92.1996 79.5292C92.4799 79.5189 92.7591 79.5686 93.0185 79.675C93.2779 79.7815 93.5116 79.9421 93.7039 80.1463C93.9069 80.3407 94.0685 80.5742 94.1789 80.8327C94.2892 81.0913 94.3461 81.3695 94.3461 81.6506C94.3461 81.9317 94.2892 82.2099 94.1789 82.4684C94.0685 82.7269 93.9069 82.9604 93.7039 83.1549C93.5322 83.3994 93.308 83.6025 93.0478 83.7494C92.7875 83.8962 92.4977 83.983 92.1996 84.0034Z" fill="#FF406E"/>
<path d="M105.315 70.8523C104.755 70.8388 104.219 70.6191 103.811 70.2351C103.408 69.8304 103.182 69.2826 103.182 68.7116C103.182 68.1405 103.408 67.5927 103.811 67.188C104.076 66.9813 104.386 66.8396 104.716 66.7739C105.046 66.7083 105.387 66.7206 105.711 66.81C106.036 66.8993 106.335 67.0631 106.584 67.2884C106.834 67.5137 107.028 67.7942 107.15 68.1076C107.272 68.421 107.32 68.7586 107.288 69.0935C107.257 69.4285 107.148 69.7514 106.97 70.0368C106.792 70.3221 106.549 70.5618 106.262 70.7369C105.975 70.9119 105.651 71.0175 105.315 71.0451V70.8523Z" fill="#FF406E"/>
<path d="M76.5385 81.4968C76.118 81.488 75.7091 81.3566 75.3622 81.1187C75.0153 80.8808 74.7454 80.5468 74.5857 80.1576C74.4259 79.7685 74.3833 79.3412 74.463 78.9282C74.5426 78.5151 74.7412 78.1344 75.0342 77.8326C75.4373 77.4414 75.9769 77.2227 76.5385 77.2227C77.1002 77.2227 77.6397 77.4414 78.0428 77.8326C78.252 78.0229 78.4185 78.2553 78.5315 78.5146C78.6445 78.7738 78.7014 79.0541 78.6985 79.3369C78.6975 79.6247 78.639 79.9095 78.5264 80.1745C78.4138 80.4394 78.2494 80.6792 78.0428 80.8797C77.845 81.0765 77.6103 81.2322 77.3521 81.3381C77.094 81.444 76.8175 81.498 76.5385 81.4968Z" fill="#FF406E"/>
<path d="M89.6913 68.343C89.1251 68.3431 88.5815 68.1208 88.1775 67.7241C87.7735 67.3273 87.5413 66.7877 87.5312 66.2216C87.5323 65.9337 87.5907 65.6489 87.7033 65.3839C87.8159 65.119 87.9804 64.8792 88.187 64.6787C88.4525 64.4721 88.7626 64.3303 89.0925 64.2647C89.4224 64.199 89.763 64.2114 90.0873 64.3007C90.4116 64.39 90.7106 64.5538 90.9604 64.7791C91.2102 65.0044 91.404 65.2849 91.5263 65.5983C91.6485 65.9117 91.6958 66.2493 91.6645 66.5843C91.6332 66.9192 91.524 67.2422 91.3457 67.5275C91.1675 67.8128 90.9252 68.0525 90.6379 68.2276C90.3507 68.4027 90.0266 68.5082 89.6913 68.5358V68.343Z" fill="#FF406E"/>
<path d="M81.5561 112.778C81.0551 112.78 80.5691 112.608 80.1813 112.291C79.7935 111.973 79.528 111.531 79.4302 111.04C79.3325 110.549 79.4086 110.039 79.6455 109.597C79.8824 109.156 80.2654 108.81 80.7289 108.62C81.1924 108.43 81.7076 108.407 82.1862 108.555C82.6649 108.703 83.0773 109.012 83.3528 109.431C83.6283 109.849 83.7498 110.35 83.6964 110.848C83.6431 111.347 83.4183 111.811 83.0604 112.161C82.8626 112.358 82.6279 112.514 82.3697 112.62C82.1116 112.726 81.8351 112.78 81.5561 112.778Z" fill="#FF406E"/>
<path d="M94.7061 99.6248C94.282 99.6343 93.8648 99.5164 93.5083 99.2864C93.1519 99.0564 92.8726 98.7249 92.7065 98.3345C92.5404 97.9442 92.4951 97.5131 92.5765 97.0968C92.6579 96.6804 92.8623 96.2981 93.1632 95.9991C93.3581 95.79 93.594 95.6233 93.8561 95.5093C94.1182 95.3953 94.401 95.3364 94.6868 95.3364C94.9726 95.3364 95.2554 95.3953 95.5175 95.5093C95.7796 95.6233 96.0155 95.79 96.2104 95.9991C96.5087 96.2958 96.7122 96.6745 96.7947 97.0872C96.8773 97.4998 96.8352 97.9277 96.674 98.3164C96.5127 98.705 96.2395 99.037 95.8891 99.27C95.5387 99.503 95.1269 99.6265 94.7061 99.6248Z" fill="#FF406E"/>
<path d="M107.822 86.5119C107.359 86.5501 106.895 86.4376 106.501 86.1912C106.106 85.9447 105.802 85.5774 105.633 85.144C105.463 84.7106 105.439 84.2342 105.562 83.7857C105.686 83.3372 105.951 82.9405 106.318 82.6548C106.515 82.4563 106.749 82.2994 107.007 82.1934C107.266 82.0873 107.543 82.0344 107.822 82.0376C108.108 82.0314 108.392 82.0828 108.657 82.1888C108.922 82.2949 109.163 82.4534 109.365 82.6548C109.737 82.9421 110.004 83.3425 110.128 83.7956C110.251 84.2486 110.223 84.7295 110.049 85.1655C109.875 85.6014 109.563 85.9687 109.161 86.2117C108.759 86.4546 108.289 86.56 107.822 86.5119Z" fill="#FF406E"/>
<path d="M102.844 55.1907C102.559 55.197 102.275 55.1455 102.01 55.0395C101.745 54.9334 101.504 54.775 101.301 54.5736C100.93 54.2863 100.662 53.8858 100.539 53.4328C100.415 52.9797 100.443 52.4988 100.617 52.0629C100.792 51.6269 101.103 51.2596 101.505 51.0167C101.907 50.7737 102.377 50.6683 102.844 50.7164C103.412 50.7286 103.953 50.9642 104.348 51.3722C104.647 51.6689 104.85 52.0476 104.933 52.4602C105.015 52.8729 104.973 53.3008 104.812 53.6894C104.651 54.0781 104.378 54.41 104.027 54.643C103.677 54.876 103.265 54.9996 102.844 54.9979V55.1907Z" fill="#FF406E"/>
<path d="M50.2746 106.607C50.1464 106.613 50.0186 106.592 49.8991 106.545C49.7795 106.499 49.671 106.428 49.5803 106.337C49.4869 106.247 49.4127 106.139 49.362 106.02C49.3113 105.901 49.2852 105.773 49.2852 105.643C49.2852 105.513 49.3113 105.385 49.362 105.266C49.4127 105.146 49.4869 105.039 49.5803 104.949C49.6671 104.85 49.774 104.771 49.8937 104.717C50.0134 104.663 50.1432 104.635 50.2746 104.635C50.4059 104.635 50.5357 104.663 50.6554 104.717C50.7751 104.771 50.882 104.85 50.9688 104.949C51.0622 105.039 51.1364 105.146 51.1871 105.266C51.2378 105.385 51.2639 105.513 51.2639 105.643C51.2639 105.773 51.2378 105.901 51.1871 106.02C51.1364 106.139 51.0622 106.247 50.9688 106.337C50.8781 106.428 50.7696 106.499 50.6501 106.545C50.5305 106.592 50.4027 106.613 50.2746 106.607Z" fill="#FF8CA7"/>
<path d="M63.3852 93.4933C63.2546 93.4915 63.1258 93.4633 63.0064 93.4103C62.8871 93.3572 62.7797 93.2805 62.6909 93.1847C62.5202 92.9938 62.4258 92.7466 62.4258 92.4904C62.4258 92.2342 62.5202 91.9871 62.6909 91.7961C62.7797 91.7004 62.8871 91.6236 63.0064 91.5706C63.1258 91.5175 63.2546 91.4893 63.3852 91.4876C63.5166 91.4844 63.647 91.5104 63.7671 91.5638C63.8872 91.6171 63.9939 91.6965 64.0795 91.7961C64.1728 91.8861 64.2471 91.9939 64.2978 92.1132C64.3485 92.2325 64.3746 92.3608 64.3746 92.4904C64.3746 92.62 64.3485 92.7483 64.2978 92.8676C64.2471 92.9869 64.1728 93.0947 64.0795 93.1847C63.9939 93.2843 63.8872 93.3637 63.7671 93.4171C63.647 93.4704 63.5166 93.4965 63.3852 93.4933Z" fill="#FF8CA7"/>
<path d="M65.8938 109.115C65.7657 109.12 65.6378 109.099 65.5184 109.053C65.3989 109.006 65.2904 108.935 65.1998 108.845C65.1091 108.754 65.0383 108.645 64.9918 108.526C64.9452 108.407 64.924 108.279 64.9295 108.151C64.9215 108.022 64.9414 107.894 64.9881 107.774C65.0347 107.654 65.1068 107.546 65.1995 107.456C65.2883 107.361 65.3956 107.284 65.515 107.231C65.6343 107.178 65.7632 107.149 65.8938 107.148C66.0251 107.145 66.1555 107.171 66.2756 107.224C66.3957 107.277 66.5024 107.357 66.588 107.456C66.6814 107.546 66.7556 107.654 66.8063 107.773C66.857 107.893 66.8831 108.021 66.8831 108.151C66.8831 108.28 66.857 108.409 66.8063 108.528C66.7556 108.647 66.6814 108.755 66.588 108.845C66.4988 108.938 66.3905 109.01 66.2706 109.056C66.1507 109.103 66.0221 109.123 65.8938 109.115Z" fill="#FF8CA7"/>
<path d="M79.048 95.9998C78.9199 96.0053 78.792 95.9842 78.6725 95.9377C78.553 95.8912 78.4444 95.8204 78.3537 95.7298C78.2604 95.6399 78.1861 95.532 78.1354 95.4127C78.0847 95.2934 78.0586 95.1651 78.0586 95.0355C78.0586 94.9059 78.0847 94.7776 78.1354 94.6583C78.1861 94.539 78.2604 94.4312 78.3537 94.3412C78.4406 94.2427 78.5474 94.1639 78.6671 94.1098C78.7868 94.0558 78.9166 94.0278 79.048 94.0278C79.1793 94.0278 79.3091 94.0558 79.4288 94.1098C79.5485 94.1639 79.6554 94.2427 79.7423 94.3412C79.8356 94.4312 79.9098 94.539 79.9605 94.6583C80.0112 94.7776 80.0374 94.9059 80.0374 95.0355C80.0374 95.1651 80.0112 95.2934 79.9605 95.4127C79.9098 95.532 79.8356 95.6399 79.7423 95.7298C79.6516 95.8204 79.543 95.8912 79.4235 95.9377C79.304 95.9842 79.1761 96.0053 79.048 95.9998Z" fill="#FF8CA7"/>
<path d="M92.2003 82.8466C92.0697 82.8449 91.9409 82.8166 91.8215 82.7636C91.7022 82.7105 91.5948 82.6338 91.506 82.5381C91.4127 82.4481 91.3385 82.3403 91.2878 82.221C91.2371 82.1017 91.2109 81.9734 91.2109 81.8438C91.2109 81.7141 91.2371 81.5859 91.2878 81.4666C91.3385 81.3473 91.4127 81.2394 91.506 81.1495C91.697 80.9787 91.9441 80.8843 92.2003 80.8843C92.4565 80.8843 92.7037 80.9787 92.8946 81.1495C92.9879 81.2394 93.0622 81.3473 93.1129 81.4666C93.1636 81.5859 93.1897 81.7141 93.1897 81.8438C93.1897 81.9734 93.1636 82.1017 93.1129 82.221C93.0622 82.3403 92.9879 82.4481 92.8946 82.5381C92.8058 82.6338 92.6985 82.7105 92.5791 82.7636C92.4598 82.8166 92.3309 82.8449 92.2003 82.8466Z" fill="#FF8CA7"/>
<path d="M105.313 69.6948C105.059 69.681 104.816 69.5865 104.619 69.4248C104.437 69.2317 104.336 68.9765 104.336 68.7113C104.336 68.4461 104.437 68.1908 104.619 67.9977C104.807 67.8219 105.056 67.7252 105.313 67.7277C105.447 67.7214 105.581 67.742 105.707 67.7884C105.833 67.8348 105.948 67.9059 106.046 67.9977C106.208 68.1944 106.302 68.4377 106.316 68.692C106.328 68.8266 106.31 68.9622 106.264 69.0893C106.217 69.2163 106.144 69.3316 106.048 69.4272C105.953 69.5228 105.837 69.5963 105.71 69.6425C105.583 69.6887 105.448 69.7066 105.313 69.6948Z" fill="#FF8CA7"/>
<path d="M76.5382 80.3398C76.4076 80.3381 76.2787 80.3098 76.1594 80.2568C76.04 80.2037 75.9327 80.127 75.8439 80.0312C75.7506 79.9413 75.6764 79.8334 75.6257 79.7141C75.5749 79.5948 75.5488 79.4665 75.5488 79.3369C75.5488 79.2073 75.5749 79.079 75.6257 78.9597C75.6764 78.8404 75.7506 78.7326 75.8439 78.6426C76.0349 78.4719 76.282 78.3774 76.5382 78.3774C76.7944 78.3774 77.0416 78.4719 77.2325 78.6426C77.367 78.7827 77.458 78.9587 77.4943 79.1494C77.5307 79.3402 77.5109 79.5374 77.4374 79.7171C77.3639 79.8968 77.2398 80.0513 77.0802 80.1618C76.9206 80.2724 76.7323 80.3342 76.5382 80.3398Z" fill="#FF8CA7"/>
<path d="M89.6903 67.1879C89.5622 67.1934 89.4344 67.1723 89.3148 67.1258C89.1953 67.0794 89.0868 67.0086 88.9961 66.9179C88.8095 66.7336 88.6993 66.4857 88.6875 66.2236C88.6894 65.9481 88.8003 65.6846 88.9961 65.4908C89.187 65.32 89.4342 65.2256 89.6903 65.2256C89.9465 65.2256 90.1937 65.32 90.3846 65.4908C90.5663 65.6839 90.6675 65.9392 90.6675 66.2044C90.6675 66.4695 90.5663 66.7247 90.3846 66.9179C90.2939 67.0086 90.1854 67.0794 90.0659 67.1258C89.9463 67.1723 89.8185 67.1934 89.6903 67.1879Z" fill="#FF8CA7"/>
<path d="M81.5555 111.621C81.4328 111.636 81.3081 111.628 81.1888 111.594C81.0696 111.561 80.9582 111.505 80.8612 111.428C80.6746 111.243 80.5644 110.995 80.5527 110.733C80.5545 110.458 80.6655 110.194 80.8612 110.001C81.0522 109.83 81.2994 109.735 81.5555 109.735C81.8117 109.735 82.0589 109.83 82.2498 110.001C82.4315 110.194 82.5327 110.449 82.5327 110.714C82.5327 110.979 82.4315 111.235 82.2498 111.428C82.046 111.567 81.8019 111.635 81.5555 111.621Z" fill="#FF8CA7"/>
<path d="M94.705 98.4684C94.5766 98.4764 94.448 98.4564 94.3281 98.4098C94.2082 98.3632 94.0999 98.291 94.0107 98.1984C93.9122 98.1115 93.8333 98.0047 93.7793 97.885C93.7252 97.7653 93.6973 97.6354 93.6973 97.5041C93.6973 97.3728 93.7252 97.2429 93.7793 97.1232C93.8333 97.0035 93.9122 96.8967 94.0107 96.8098C94.0963 96.7102 94.203 96.6308 94.3231 96.5775C94.4432 96.5241 94.5736 96.498 94.705 96.5012C94.8355 96.503 94.9644 96.5312 95.0838 96.5843C95.2031 96.6373 95.3104 96.714 95.3992 96.8098C95.5393 96.9447 95.6353 97.1187 95.6747 97.3091C95.7141 97.4996 95.695 97.6974 95.6199 97.8768C95.5448 98.0561 95.4173 98.2086 95.254 98.3142C95.0907 98.4198 94.8993 98.4735 94.705 98.4684Z" fill="#FF8CA7"/>
<path d="M107.822 85.3541C107.692 85.3524 107.563 85.3241 107.443 85.2711C107.324 85.218 107.217 85.1413 107.128 85.0456C106.988 84.9107 106.892 84.7366 106.852 84.5462C106.813 84.3558 106.832 84.1579 106.907 83.9786C106.982 83.7992 107.11 83.6467 107.273 83.5412C107.437 83.4356 107.628 83.3818 107.822 83.387C107.951 83.379 108.079 83.3989 108.199 83.4456C108.319 83.4922 108.427 83.5643 108.517 83.657C108.61 83.7469 108.684 83.8548 108.735 83.9741C108.786 84.0934 108.812 84.2216 108.812 84.3513C108.812 84.4809 108.786 84.6091 108.735 84.7284C108.684 84.8477 108.61 84.9556 108.517 85.0456C108.431 85.1452 108.324 85.2245 108.204 85.2779C108.084 85.3313 107.954 85.3573 107.822 85.3541Z" fill="#FF8CA7"/>
<path d="M102.846 54.0336C102.712 54.0399 102.578 54.0192 102.453 53.9728C102.327 53.9264 102.211 53.8553 102.113 53.7636C102.02 53.6736 101.946 53.5657 101.895 53.4464C101.844 53.3272 101.818 53.1989 101.818 53.0693C101.818 52.9397 101.844 52.8114 101.895 52.6921C101.946 52.5728 102.02 52.4649 102.113 52.375C102.307 52.1792 102.571 52.0683 102.846 52.0664C103.108 52.0782 103.356 52.1884 103.541 52.375C103.634 52.4649 103.708 52.5728 103.759 52.6921C103.81 52.8114 103.836 52.9397 103.836 53.0693C103.836 53.1989 103.81 53.3272 103.759 53.4464C103.708 53.5657 103.634 53.6736 103.541 53.7636C103.352 53.9394 103.104 54.036 102.846 54.0336Z" fill="#FF8CA7"/>
<g filter="url(#filter1_d_262_11975)">
<path d="M68.5159 144.754C58.8743 144.764 49.3255 142.872 40.4166 139.185C31.5077 135.498 23.4138 130.09 16.5987 123.27C16.286 122.971 16.0371 122.612 15.8671 122.214C15.697 121.816 15.6094 121.388 15.6094 120.955C15.6094 120.523 15.697 120.095 15.8671 119.697C16.0371 119.299 16.286 118.94 16.5987 118.641C17.2133 118.029 18.0454 117.685 18.913 117.685C19.7806 117.685 20.6128 118.029 21.2273 118.641C33.8708 130.711 50.7351 137.355 68.2137 137.152C85.6922 136.949 102.398 129.916 114.758 117.556C127.118 105.196 134.151 88.4903 134.354 71.0117C134.557 53.5331 127.913 36.6688 115.843 24.0253C115.288 23.4003 114.992 22.5867 115.017 21.751C115.041 20.9152 115.384 20.1204 115.975 19.5291C116.567 18.9379 117.361 18.5949 118.197 18.5703C119.033 18.5457 119.847 18.8413 120.472 19.3968C130.816 29.6406 137.874 42.733 140.748 57.0046C143.621 71.2762 142.179 86.0802 136.605 99.5288C131.031 112.977 121.578 124.461 109.451 132.516C97.3245 140.57 83.0736 144.831 68.5159 144.754Z" fill="#00E600"/>
</g>
<path d="M68.5155 143.404C59.0453 143.419 49.6656 141.562 40.9149 137.942C32.1643 134.321 24.2151 129.007 17.524 122.305C17.1707 121.945 16.9727 121.46 16.9727 120.955C16.9727 120.45 17.1707 119.966 17.524 119.605C17.7033 119.425 17.9166 119.281 18.1516 119.183C18.3867 119.085 18.6387 119.035 18.8933 119.035C19.1479 119.035 19.4 119.085 19.635 119.183C19.8701 119.281 20.0833 119.425 20.2626 119.605C33.2525 131.352 50.2597 137.657 67.7674 137.217C85.2751 136.777 101.945 129.626 114.328 117.242C126.712 104.858 133.863 88.1893 134.303 70.6816C134.743 53.1739 128.438 36.1667 116.692 23.1768C116.338 22.8163 116.14 22.3315 116.14 21.8267C116.14 21.3219 116.338 20.8372 116.692 20.4767C116.871 20.2959 117.084 20.1525 117.319 20.0546C117.554 19.9567 117.806 19.9062 118.061 19.9062C118.315 19.9062 118.568 19.9567 118.803 20.0546C119.038 20.1525 119.251 20.2959 119.43 20.4767C129.461 30.5621 136.284 43.3897 139.041 57.3447C141.797 71.2996 140.364 85.7582 134.92 98.9001C129.477 112.042 120.268 123.28 108.452 131.199C96.635 139.118 82.74 143.365 68.5155 143.404Z" fill="#40FF40"/>
<path d="M68.5179 142.286C59.2041 142.306 49.9784 140.483 41.3725 136.922C32.7666 133.36 24.9506 128.131 18.375 121.535C18.2636 121.386 18.2095 121.202 18.2227 121.017C18.2358 120.832 18.3154 120.658 18.4467 120.526C18.578 120.395 18.7522 120.316 18.9375 120.302C19.1227 120.289 19.3065 120.343 19.455 120.455C32.5137 133.297 50.1181 140.46 68.4336 140.382C86.7492 140.303 104.292 132.991 117.24 120.037C130.189 107.084 137.494 89.5382 137.565 71.2227C137.636 52.9071 130.467 35.3055 117.619 22.2519C117.508 22.1033 117.454 21.9195 117.467 21.7343C117.48 21.5491 117.56 21.3748 117.691 21.2435C117.822 21.1122 117.997 21.0327 118.182 21.0195C118.367 21.0064 118.551 21.0605 118.699 21.1719C128.629 31.0922 135.393 43.7356 138.134 57.5016C140.875 71.2677 139.47 85.5375 134.097 98.5047C128.724 111.472 119.625 122.554 107.952 130.347C96.2776 138.141 82.5541 142.296 68.5179 142.286Z" fill="#8AFA8A"/>
<defs>
<filter id="filter0_d_262_11975" x="20.4947" y="23.2999" width="119.02" height="118.985" filterUnits="userSpaceOnUse" color-interpolation-filters="sRGB">
<feFlood flood-opacity="0" result="BackgroundImageFix"/>
<feColorMatrix in="SourceAlpha" type="matrix" values="0 0 0 0 0 0 0 0 0 0 0 0 0 0 0 0 0 0 127 0" result="hardAlpha"/>
<feOffset dx="3.85714" dy="3.85714"/>
<feGaussianBlur stdDeviation="5.78572"/>
<feColorMatrix type="matrix" values="0 0 0 0 1 0 0 0 0 0 0 0 0 0 0.243137 0 0 0 1 0"/>
<feBlend mode="normal" in2="BackgroundImageFix" result="effect1_dropShadow_262_11975"/>
<feBlend mode="normal" in="SourceGraphic" in2="effect1_dropShadow_262_11975" result="shape"/>
</filter>
<filter id="filter1_d_262_11975" x="7.89508" y="10.8545" width="149.723" height="149.329" filterUnits="userSpaceOnUse" color-interpolation-filters="sRGB">
<feFlood flood-opacity="0" result="BackgroundImageFix"/>
<feColorMatrix in="SourceAlpha" type="matrix" values="0 0 0 0 0 0 0 0 0 0 0 0 0 0 0 0 0 0 127 0" result="hardAlpha"/>
<feOffset dx="3.85714" dy="3.85714"/>
<feGaussianBlur stdDeviation="5.78572"/>
<feColorMatrix type="matrix" values="0 0 0 0 0.25098 0 0 0 0 1 0 0 0 0 0.25098 0 0 0 1 0"/>
<feBlend mode="normal" in2="BackgroundImageFix" result="effect1_dropShadow_262_11975"/>
<feBlend mode="normal" in="SourceGraphic" in2="effect1_dropShadow_262_11975" result="shape"/>
</filter>
</defs>
</svg>
