<svg width="22" height="22" viewBox="0 0 22 22" fill="none" xmlns="http://www.w3.org/2000/svg">
<path d="M10.998 0.183105C8.06001 0.183105 7.69129 0.195952 6.53735 0.248465C5.38567 0.301204 4.59955 0.483535 3.91169 0.751059C3.20017 1.02737 2.59661 1.39699 1.9953 1.99853C1.39354 2.59984 1.02392 3.2034 0.746702 3.9147C0.478502 4.60278 0.295945 5.38912 0.244108 6.54036C0.192722 7.69429 0.179199 8.06324 0.179199 11.0013C0.179199 13.9393 0.192271 14.3069 0.244559 15.4608C0.297523 16.6125 0.479854 17.3986 0.747153 18.0865C1.02369 18.798 1.39331 19.4016 1.99485 20.0029C2.59593 20.6046 3.1995 20.9752 3.91056 21.2515C4.59887 21.519 5.38522 21.7013 6.53667 21.7541C7.69061 21.8066 8.0591 21.8194 10.9969 21.8194C13.9352 21.8194 14.3028 21.8066 15.4567 21.7541C16.6084 21.7013 17.3954 21.519 18.0837 21.2515C18.795 20.9752 19.3977 20.6046 19.9988 20.0029C20.6005 19.4016 20.9701 18.798 21.2473 18.0867C21.5133 17.3986 21.6959 16.6123 21.7499 15.4611C21.8018 14.3071 21.8153 13.9393 21.8153 11.0013C21.8153 8.06324 21.8018 7.69452 21.7499 6.54058C21.6959 5.3889 21.5133 4.60278 21.2473 3.91492C20.9701 3.2034 20.6005 2.59984 19.9988 1.99853C19.397 1.39677 18.7952 1.02715 18.083 0.751059C17.3934 0.483535 16.6068 0.301204 15.4551 0.248465C14.3012 0.195952 13.9338 0.183105 10.9949 0.183105H10.998ZM10.0276 2.13263C10.3156 2.13218 10.637 2.13263 10.998 2.13263C13.8865 2.13263 14.2288 2.143 15.3695 2.19483C16.4242 2.24306 16.9967 2.41931 17.378 2.56738C17.8829 2.76346 18.2428 2.99786 18.6212 3.37649C18.9999 3.75513 19.2343 4.11573 19.4308 4.62058C19.5789 5.00147 19.7553 5.57393 19.8033 6.6287C19.8552 7.76912 19.8665 8.11169 19.8665 10.9988C19.8665 13.8859 19.8552 14.2285 19.8033 15.3689C19.7551 16.4237 19.5789 16.9961 19.4308 17.377C19.2347 17.8818 18.9999 18.2413 18.6212 18.6197C18.2426 18.9984 17.8831 19.2328 17.378 19.4288C16.9972 19.5776 16.4242 19.7534 15.3695 19.8016C14.2291 19.8535 13.8865 19.8647 10.998 19.8647C8.10936 19.8647 7.76701 19.8535 6.6266 19.8016C5.57183 19.7529 4.99937 19.5767 4.6178 19.4286C4.11295 19.2325 3.75235 18.9981 3.37371 18.6195C2.99508 18.2409 2.76068 17.8812 2.56415 17.3761C2.41608 16.9952 2.23961 16.4227 2.1916 15.368C2.13977 14.2276 2.1294 13.885 2.1294 10.9961C2.1294 8.10719 2.13977 7.76641 2.1916 6.626C2.23983 5.57123 2.41608 4.99877 2.56415 4.61743C2.76023 4.11258 2.99508 3.75197 3.37371 3.37334C3.75235 2.9947 4.11295 2.76031 4.6178 2.56378C4.99914 2.41503 5.57183 2.23923 6.6266 2.19078C7.62457 2.1457 8.01132 2.13218 10.0276 2.12992V2.13263ZM16.7727 3.92889C16.5159 3.92889 16.2649 4.00504 16.0514 4.14771C15.8379 4.29037 15.6715 4.49315 15.5733 4.73039C15.475 4.96762 15.4494 5.22867 15.4995 5.4805C15.5496 5.73234 15.6733 5.96365 15.8549 6.14519C16.0365 6.32672 16.2678 6.45033 16.5197 6.50037C16.7715 6.55041 17.0326 6.52463 17.2698 6.42631C17.507 6.32798 17.7097 6.16152 17.8523 5.94798C17.9949 5.73443 18.071 5.4834 18.0709 5.22662C18.0709 4.50992 17.4894 3.92844 16.7727 3.92844V3.92889ZM10.998 5.44569C7.92996 5.44569 5.44246 7.93319 5.44246 11.0013C5.44246 14.0693 7.92996 16.5557 10.998 16.5557C14.0661 16.5557 16.5529 14.0693 16.5529 11.0013C16.5529 7.93319 14.0659 5.44569 10.9978 5.44569H10.998ZM10.998 7.39522C12.9895 7.39522 14.6041 9.0096 14.6041 11.0013C14.6041 12.9927 12.9895 14.6073 10.998 14.6073C9.00637 14.6073 7.39198 12.9927 7.39198 11.0013C7.39198 9.0096 9.00637 7.39522 10.998 7.39522Z" fill="white"/>
</svg>
