<svg width="159" height="50" viewBox="0 0 159 50" fill="none" xmlns="http://www.w3.org/2000/svg">
<path fill-rule="evenodd" clip-rule="evenodd" d="M24.9375 0C38.7099 0 49.8747 11.193 49.8747 25C49.8747 38.807 38.7099 50 24.9375 50C17.9269 50 11.5935 47.0989 7.06291 42.4303L23.5601 30.4141L31.2764 36.0346L28.3292 26.941L36.0458 21.3202H26.5077L23.5601 12.2259L20.6125 21.3202H15.8438L2.0915 20.2546L0.918457 18.2649C3.85139 7.72945 13.4928 0 24.9375 0V0Z" fill="#FFC42E"/>
<path fill-rule="evenodd" clip-rule="evenodd" d="M0.269531 21.3202C0.423004 20.2791 0.64132 19.2599 0.918614 18.2649L15.971 21.0974L15.8439 21.3202H0.269531Z" fill="#393683"/>
<path fill-rule="evenodd" clip-rule="evenodd" d="M7.063 42.4303C6.30932 41.6535 5.60517 40.8274 4.95641 39.9578L5.78308 37.5L3.16394 37.1933C2.60414 36.1911 2.11146 35.1471 1.69145 34.0661L2.90196 32.1088L0.712612 30.9547C0.449981 29.8774 0.256755 28.7729 0.138473 27.6456L1.31445 25.8144L0.0107422 24.2595C0.0400682 23.2641 0.12772 22.2832 0.269463 21.3202H20.6126L23.5602 12.2259L26.5078 21.3202H36.0459L28.3293 26.941L31.2765 36.0346L23.5602 30.4141L7.063 42.4303Z" fill="white"/>
<path fill-rule="evenodd" clip-rule="evenodd" d="M4.95643 39.9578C4.30083 39.0791 3.7016 38.1556 3.16395 37.1933L17.8051 30.5474L17.912 30.7309L4.95643 39.9578ZM1.69146 34.0661C1.30045 33.059 0.972321 32.0203 0.712623 30.9547C5.88541 29.8176 11.848 28.4107 16.8693 27.3255C16.8921 27.3918 16.9146 27.4581 16.9374 27.5244C12.2172 29.5814 6.58793 31.949 1.69146 34.0661ZM0.138484 27.6456C0.0472475 26.7761 0 25.8937 0 25C0 24.7524 0.00358429 24.5054 0.0107529 24.2595H15.9771L16.0061 24.4744L0.138484 27.6456Z" fill="#393683"/>
<path fill-rule="evenodd" clip-rule="evenodd" d="M36.0459 21.3202C37.1222 21.8601 38.0994 22.5696 38.942 23.4147C40.9551 25.4325 42.2001 28.2202 42.2001 31.2993C42.2001 34.3784 40.9551 37.1661 38.942 39.1846C36.9289 41.2024 34.1482 42.4505 31.0768 42.4505C23.0789 42.4505 15.0811 42.4505 7.08319 42.4505L7.06299 42.4303L15.8439 36.0346L23.5602 30.4141L31.2765 36.0346L28.3292 26.941L36.0459 21.3202ZM15.1351 21.3202V12.2259C12.6854 12.2259 10.6994 10.2353 10.6994 7.77942H15.1351H29.8333C34.3522 7.77942 38.0156 11.4521 38.0156 15.9822C38.0156 18.0209 37.2734 19.8858 36.0459 21.3202H26.5078L23.5602 12.2259L20.6126 21.3202H15.1351Z" fill="#393683"/>
<path d="M67.0702 29.261C67.8259 29.261 68.5196 29.1443 69.1527 28.9105C69.7855 28.6769 70.33 28.3035 70.7852 27.792C71.2404 27.2798 71.5959 26.6228 71.851 25.8212C72.1068 25.0193 72.2342 24.051 72.2342 22.9156C72.2342 21.7798 72.1068 20.8116 71.851 20.0096C71.5959 19.2083 71.2404 18.5517 70.7852 18.0395C70.33 17.5273 69.7855 17.1543 69.1527 16.9204C68.5196 16.6868 67.8259 16.5699 67.0702 16.5699H62.9062V29.261H67.0702ZM58.2424 31.5989V8.22041H62.9062V14.232H67.0702C68.6033 14.232 69.9966 14.4322 71.2515 14.833C72.5066 15.2341 73.5783 15.813 74.4662 16.5699C75.3552 17.3271 76.0378 18.2398 76.5152 19.3083C76.9928 20.3774 77.2314 21.5795 77.2314 22.9156C77.2314 24.2513 76.9928 25.4541 76.5152 26.5226C76.0378 27.5911 75.3552 28.5038 74.4662 29.261C73.5783 30.0182 72.5066 30.5973 71.2515 30.9978C69.9966 31.3986 68.6033 31.5989 67.0702 31.5989H58.2424ZM85.8933 31.5989H81.2291V14.5658H85.8933V31.5989ZM86.0601 10.0576C86.0601 10.7256 85.8324 11.3096 85.3775 11.8107C84.9216 12.3112 84.3169 12.5624 83.5612 12.5624C82.8059 12.5624 82.2015 12.3112 81.7456 11.8107C81.2907 11.3096 81.063 10.7256 81.063 10.0576C81.063 9.38888 81.2907 8.80481 81.7456 8.30371C82.2015 7.80327 82.8059 7.55272 83.5612 7.55272C84.294 7.55272 84.8936 7.80327 85.3605 8.30371C85.8268 8.80481 86.0601 9.38888 86.0601 10.0576ZM95.3884 31.5989H90.7243V8.22041H95.3884V31.5989Z" fill="white"/>
<path d="M108.881 29.261C109.636 29.261 110.33 29.1443 110.963 28.9105C111.596 28.6769 112.14 28.3035 112.596 27.792C113.05 27.2798 113.406 26.6229 113.661 25.8212C113.917 25.0193 114.044 24.051 114.044 22.9156C114.044 21.7798 113.917 20.8116 113.661 20.0096C113.406 19.2083 113.05 18.5517 112.596 18.0395C112.14 17.5273 111.596 17.1543 110.963 16.9204C110.33 16.6868 109.636 16.5699 108.881 16.5699H104.717V29.261H108.881ZM100.052 31.5989V8.22041H104.717V14.232H108.881C110.413 14.232 111.807 14.4322 113.062 14.833C114.317 15.2341 115.388 15.813 116.277 16.5699C117.165 17.3271 117.848 18.2398 118.326 19.3083C118.803 20.3774 119.041 21.5795 119.041 22.9156C119.041 24.2513 118.803 25.4541 118.326 26.5226C117.848 27.5911 117.165 28.5038 116.277 29.261C115.388 30.0182 114.317 30.5973 113.062 30.9978C111.807 31.3986 110.413 31.5989 108.881 31.5989H100.052ZM132.867 29.929C133.956 29.929 134.972 29.7398 135.916 29.3612C136.86 28.9826 137.787 28.4486 138.697 27.7586L140.03 29.7621C139.608 30.1407 139.114 30.4856 138.547 30.7976C137.981 31.1089 137.371 31.3705 136.715 31.5822C136.06 31.7942 135.377 31.9608 134.667 32.0833C133.956 32.2058 133.245 32.2669 132.534 32.2669C130.957 32.2669 129.52 32.0611 128.22 31.6492C126.92 31.2369 125.816 30.6362 124.905 29.8454C123.995 29.0555 123.289 28.0811 122.79 26.9231C122.29 25.7654 122.04 24.4296 122.04 22.9156C122.04 21.4237 122.279 20.0936 122.756 18.9244C123.234 17.7556 123.9 16.776 124.755 15.9855C125.61 15.1949 126.626 14.5939 127.804 14.1816C128.981 13.7701 130.279 13.5639 131.701 13.5639C133.034 13.5639 134.289 13.7645 135.466 14.165C136.643 14.5658 137.665 15.1508 138.531 15.9188C139.397 16.6868 140.085 17.6162 140.596 18.7072C141.107 19.7986 141.363 21.034 141.363 22.4145V24.7524H127.137C127.404 26.6006 128.042 27.9256 129.053 28.7269C130.063 29.5282 131.335 29.929 132.867 29.929ZM131.701 15.7352C131.057 15.7352 130.457 15.8574 129.903 16.1024C129.347 16.3474 128.864 16.7368 128.453 17.2709C128.042 17.8059 127.709 18.4959 127.454 19.3419C127.198 20.188 127.06 21.2124 127.038 22.4145H136.365C136.365 21.2571 136.232 20.2549 135.966 19.4085C135.699 18.5625 135.349 17.8667 134.917 17.3212C134.483 16.776 133.983 16.3748 133.417 16.1191C132.851 15.8633 132.279 15.7352 131.701 15.7352ZM146.027 16.5699H142.862V14.232H146.027V8.88843H150.691V14.232H155.854V16.5699H150.691V25.2538C150.691 26.0999 150.786 26.8175 150.974 27.4072C151.163 27.9978 151.418 28.4766 151.741 28.8438C152.062 29.211 152.435 29.4841 152.856 29.6618C153.279 29.8401 153.722 29.929 154.189 29.929C154.855 29.929 155.5 29.8235 156.121 29.6118C156.743 29.4001 157.265 29.1721 157.687 28.9271L158.686 31.0981C158.02 31.4323 157.259 31.7106 156.405 31.9327C155.549 32.1562 154.7 32.2669 153.856 32.2669C151.346 32.2669 149.414 31.6436 148.059 30.3971C146.704 29.1496 146.027 27.4353 146.027 25.2538V16.5699Z" fill="#FFC42E"/>
<path d="M61.0901 36.8735C60.8076 36.8735 60.5437 36.9231 60.2974 37.0231C60.051 37.1227 59.8369 37.2753 59.6545 37.4804C59.472 37.6855 59.3267 37.9452 59.2185 38.2585C59.111 38.5714 59.0569 38.9419 59.0569 39.3688C59.0569 39.7964 59.111 40.1665 59.2185 40.4798C59.3267 40.7931 59.472 41.0528 59.6545 41.2579C59.8369 41.4631 60.051 41.6156 60.2974 41.7152C60.5437 41.8152 60.8076 41.8648 61.0901 41.8648C61.372 41.8648 61.6359 41.8152 61.8823 41.7152C62.1286 41.6156 62.3433 41.4631 62.5258 41.2579C62.7086 41.0528 62.8536 40.7931 62.9615 40.4798C63.0696 40.1665 63.1231 39.7964 63.1231 39.3688C63.1231 38.9419 63.0696 38.5714 62.9615 38.2585C62.8536 37.9452 62.7086 37.6855 62.5258 37.4804C62.3433 37.2753 62.1286 37.1227 61.8823 37.0231C61.6359 36.9231 61.372 36.8735 61.0901 36.8735ZM61.0901 36.291C61.588 36.291 62.04 36.3573 62.447 36.4909C62.8536 36.6236 63.2023 36.8205 63.4923 37.0809C63.7832 37.3422 64.0087 37.6637 64.1687 38.0462C64.329 38.4294 64.4095 38.8697 64.4095 39.3688C64.4095 39.8686 64.329 40.309 64.1687 40.6921C64.0087 41.0746 63.7832 41.3961 63.4923 41.6574C63.2023 41.9178 62.8536 42.1147 62.447 42.2474C62.04 42.3806 61.588 42.4473 61.0901 42.4473C60.5922 42.4473 60.1383 42.3806 59.7294 42.2474C59.3195 42.1147 58.9699 41.9178 58.6795 41.6574C58.3886 41.3961 58.1644 41.0746 58.007 40.6921C57.8493 40.309 57.7708 39.8686 57.7708 39.3688C57.7708 38.8697 57.8493 38.4294 58.007 38.0462C58.1644 37.6637 58.3886 37.3422 58.6795 37.0809C58.9699 36.8205 59.3195 36.6236 59.7294 36.4909C60.1383 36.3573 60.5922 36.291 61.0901 36.291ZM71.381 36.4573V42.281H69.8042L66.6917 37.5389H66.609V42.281H65.4056V36.4573H66.9824L70.0942 41.1994H70.1776V36.4573H71.381ZM77.3146 41.6574V42.281H72.5429V36.4573H73.7459V41.6574H77.3146ZM79.2651 42.281H78.0618V36.4573H79.2651V42.281ZM86.4021 36.4573V42.281H84.8257L81.7132 37.5389H81.6304V42.281H80.4274V36.4573H82.0042L85.1157 41.1994H85.1991V36.4573H86.4021ZM88.7677 37.0809V38.9951H91.7964V39.6187H88.7677V41.6574H92.6264V42.281H87.5644V36.4573H92.6264V37.0809H88.7677ZM96.3615 36.4573H99.183C99.6092 36.4573 99.9784 36.4949 100.291 36.5693C100.603 36.6445 100.862 36.75 101.067 36.8856C101.271 37.0214 101.424 37.1835 101.523 37.3726C101.623 37.5611 101.673 37.7692 101.673 37.9962C101.673 38.2902 101.589 38.5453 101.424 38.7619C101.258 38.9781 101.008 39.1385 100.677 39.244C101.092 39.328 101.416 39.49 101.652 39.7308C101.887 39.9725 102.005 40.2818 102.005 40.6585C102.005 41.1576 101.799 41.5529 101.386 41.8439C100.974 42.1356 100.323 42.281 99.4316 42.281H96.3615V36.4573ZM97.5649 39.6187V41.6574H99.4316C99.8468 41.6574 100.165 41.5738 100.386 41.4072C100.608 41.2409 100.718 40.9914 100.718 40.6585C100.718 40.3037 100.608 40.0414 100.386 39.8729C100.165 39.7033 99.8468 39.6187 99.4316 39.6187H97.5649ZM99.183 38.9951C99.9856 38.9951 100.386 38.6616 100.386 37.9962C100.386 37.7025 100.285 37.4765 100.084 37.3184C99.8816 37.1603 99.5812 37.0809 99.183 37.0809H97.5649V38.9951H99.183ZM106.154 36.8735C105.871 36.8735 105.607 36.9231 105.361 37.0231C105.115 37.1227 104.901 37.2753 104.718 37.4804C104.535 37.6855 104.39 37.9452 104.282 38.2585C104.174 38.5714 104.12 38.9419 104.12 39.3688C104.12 39.7964 104.174 40.1665 104.282 40.4798C104.39 40.7931 104.535 41.0528 104.718 41.2579C104.901 41.4631 105.115 41.6156 105.361 41.7152C105.607 41.8152 105.871 41.8648 106.154 41.8648C106.436 41.8648 106.7 41.8152 106.946 41.7152C107.192 41.6156 107.407 41.4631 107.59 41.2579C107.772 41.0528 107.917 40.7931 108.025 40.4798C108.133 40.1665 108.187 39.7964 108.187 39.3688C108.187 38.9419 108.133 38.5714 108.025 38.2585C107.917 37.9452 107.772 37.6855 107.59 37.4804C107.407 37.2753 107.192 37.1227 106.946 37.0231C106.7 36.9231 106.436 36.8735 106.154 36.8735ZM106.154 36.291C106.652 36.291 107.104 36.3573 107.51 36.4909C107.917 36.6236 108.266 36.8205 108.556 37.0809C108.847 37.3422 109.072 37.6637 109.232 38.0462C109.393 38.4294 109.473 38.8697 109.473 39.3688C109.473 39.8686 109.393 40.309 109.232 40.6921C109.072 41.0746 108.847 41.3961 108.556 41.6574C108.266 41.9178 107.917 42.1147 107.51 42.2474C107.104 42.3806 106.652 42.4473 106.154 42.4473C105.656 42.4473 105.202 42.3806 104.793 42.2474C104.383 42.1147 104.034 41.9178 103.743 41.6574C103.453 41.3961 103.228 41.0746 103.071 40.6921C102.913 40.309 102.834 39.8686 102.834 39.3688C102.834 38.8697 102.913 38.4294 103.071 38.0462C103.228 37.6637 103.453 37.3422 103.743 37.0809C104.034 36.8205 104.383 36.6236 104.793 36.4909C105.202 36.3573 105.656 36.291 106.154 36.291ZM113.623 36.8735C113.34 36.8735 113.076 36.9231 112.83 37.0231C112.584 37.1227 112.37 37.2753 112.187 37.4804C112.004 37.6855 111.859 37.9452 111.751 38.2585C111.643 38.5714 111.59 38.9419 111.59 39.3688C111.59 39.7964 111.643 40.1665 111.751 40.4798C111.859 40.7931 112.004 41.0528 112.187 41.2579C112.37 41.4631 112.584 41.6156 112.83 41.7152C113.076 41.8152 113.34 41.8648 113.623 41.8648C113.905 41.8648 114.169 41.8152 114.415 41.7152C114.661 41.6156 114.876 41.4631 115.059 41.2579C115.241 41.0528 115.386 40.7931 115.494 40.4798C115.602 40.1665 115.656 39.7964 115.656 39.3688C115.656 38.9419 115.602 38.5714 115.494 38.2585C115.386 37.9452 115.241 37.6855 115.059 37.4804C114.876 37.2753 114.661 37.1227 114.415 37.0231C114.169 36.9231 113.905 36.8735 113.623 36.8735ZM113.623 36.291C114.121 36.291 114.573 36.3573 114.98 36.4909C115.386 36.6236 115.735 36.8205 116.025 37.0809C116.316 37.3422 116.541 37.6637 116.701 38.0462C116.862 38.4294 116.942 38.8697 116.942 39.3688C116.942 39.8686 116.862 40.309 116.701 40.6921C116.541 41.0746 116.316 41.3961 116.025 41.6574C115.735 41.9178 115.386 42.1147 114.98 42.2474C114.573 42.3806 114.121 42.4473 113.623 42.4473C113.125 42.4473 112.671 42.3806 112.262 42.2474C111.852 42.1147 111.503 41.9178 111.212 41.6574C110.921 41.3961 110.697 41.0746 110.54 40.6921C110.382 40.309 110.303 39.8686 110.303 39.3688C110.303 38.8697 110.382 38.4294 110.54 38.0462C110.697 37.6637 110.921 37.3422 111.212 37.0809C111.503 36.8205 111.852 36.6236 112.262 36.4909C112.671 36.3573 113.125 36.291 113.623 36.291ZM121.673 39.328L123.872 42.281H122.503L120.594 39.702H119.142V42.281H117.938V36.4573H119.142V39.0778H120.511L122.419 36.4573H123.747L121.673 39.328ZM128.478 41.4493H128.561L130.719 36.4573H132.503V42.281H131.299V37.6218H131.217L129.225 42.281H127.814L125.822 37.6218H125.739V42.281H124.536V36.4573H126.32L128.478 41.4493ZM135.2 40.243H137.772L136.527 37.1645H136.445L135.2 40.243ZM137.44 36.4573L139.806 42.281H138.611L138.063 40.8666H134.91L134.362 42.281H133.167L135.532 36.4573H137.44ZM144.204 39.328L146.403 42.281H145.034L143.125 39.702H141.673V42.281H140.469V36.4573H141.673V39.0778H143.042L144.951 36.4573H146.278L144.204 39.328ZM148.27 37.0809V38.9951H151.299V39.6187H148.27V41.6574H152.129V42.281H147.067V36.4573H152.129V37.0809H148.27ZM155.947 36.4573C156.362 36.4573 156.734 36.503 157.063 36.5945C157.392 36.6863 157.67 36.8192 157.897 36.994C158.124 37.1688 158.298 37.3821 158.42 37.6346C158.542 37.8868 158.602 38.1739 158.602 38.4953C158.602 38.9393 158.492 39.3133 158.271 39.6187C158.05 39.9238 157.731 40.1564 157.316 40.3175L158.685 42.281H157.316L156.096 40.534H155.947H154.163V42.281H152.959V36.4573H155.947ZM154.163 37.0809V39.9095H155.947C156.384 39.9095 156.721 39.7945 156.959 39.5645C157.197 39.3342 157.316 38.9781 157.316 38.4953C157.316 38.0132 157.197 37.6561 156.959 37.4262C156.721 37.1962 156.384 37.0809 155.947 37.0809H154.163Z" fill="white"/>
</svg>
