<svg width="22" height="22" viewBox="0 0 22 22" fill="none" xmlns="http://www.w3.org/2000/svg">
<path d="M11.0009 21.9882C17.0685 21.9882 21.9872 17.0694 21.9872 11.0019C21.9872 4.93435 17.0685 0.015625 11.0009 0.015625C4.93337 0.015625 0.0146484 4.93435 0.0146484 11.0019C0.0146484 17.0694 4.93337 21.9882 11.0009 21.9882Z" fill="white"/>
<path d="M4.58593 10.9041L11.9843 7.85584C12.7146 7.53834 15.1913 6.52229 15.1913 6.52229C15.1913 6.52229 16.3345 6.07781 16.2392 7.1573C16.2074 7.60179 15.9535 9.15772 15.6994 10.8404L14.9056 15.8255C14.9056 15.8255 14.8421 16.5558 14.3014 16.6828C13.7607 16.8097 12.8725 16.2383 12.7138 16.1112C12.5869 16.016 10.3324 14.5871 9.50677 13.8886C9.28448 13.6982 9.03051 13.317 9.53854 12.8725C10.6817 11.8247 12.0471 10.5229 12.8725 9.69733C13.2535 9.31629 13.6346 8.42722 12.047 9.5069L7.56989 12.5234C7.56989 12.5234 7.06177 12.8409 6.10926 12.5551C5.15675 12.2694 4.0454 11.8884 4.0454 11.8884C4.0454 11.8884 3.28332 11.4121 4.58519 10.9042L4.58593 10.9041Z" fill="#1A1405"/>
</svg>
